<svg xmlns="http://www.w3.org/2000/svg" xmlns:xlink="http://www.w3.org/1999/xlink" xmlns:inkscape="http://www.inkscape.org/namespaces/inkscape" version="1.1" width="246" height="184" viewBox="0 0 246 184">
<defs>
<path id="font_1_3" d="M.43998719 .16790772H.41799928C.4149933 .15092469 .40699769 .09597778 .39698792 .07998657 .3899994 .070999149 .33299256 .070999149 .30299378 .070999149H.117996219C.14498902 .09397888 .20599365 .15792847 .23199463 .18190003 .38398744 .3217926 .43998719 .37374879 .43998719 .47270204 .43998719 .5878906 .34899903 .66503909 .23298645 .66503909 .116989139 .66503909 .04899597 .5658264 .04899597 .4797058 .04899597 .42871095 .09298706 .42871095 .09599304 .42871095 .116989139 .42871095 .14299011 .44371034 .14299011 .475708 .14299011 .5037079 .12399292 .5227051 .09599304 .5227051 .08699036 .5227051 .084991458 .5227051 .08198547 .521698 .100997928 .5899048 .15499878 .6360321 .21998596 .6360321 .30499269 .6360321 .35699464 .56481936 .35699464 .47270204 .35699464 .3877411 .30799867 .313797 .25099183 .24984741L.04899597 .023986817V0H.4139862L.43998719 .16790772Z"/>
<path id="font_1_1" d="M.44799806 .31976319C.44799806 .40283204 .44299317 .48390199 .40699769 .55996707 .3659973 .64302065 .2939911 .66503909 .24499512 .66503909 .18699646 .66503909 .115997318 .63601687 .07899475 .552948 .050994874 .48989869 .040985109 .42785646 .040985109 .31976319 .040985109 .22268677 .04798889 .14962769 .083999637 .078567508 .12298584 .0025177003 .19198609-.021484375 .24398804-.021484375 .33099366-.021484375 .3809967 .030532837 .4099884 .08857727 .44599916 .16363526 .44799806 .26171876 .44799806 .31976319M.24398804-.0014953613C.21199036-.0014953613 .14698792 .016525269 .12799073 .12561035 .116989139 .18565369 .116989139 .26171876 .116989139 .33177186 .116989139 .41384889 .116989139 .48789979 .1329956 .5469513 .1499939 .6139984 .20098877 .6450348 .24398804 .6450348 .28199769 .6450348 .33999635 .6220093 .35899354 .53593447 .37199403 .4788971 .37199403 .39982606 .37199403 .33177186 .37199403 .26472474 .37199403 .18865967 .36099244 .12760926 .34199525 .01751709 .2789917-.0014953613 .24398804-.0014953613Z"/>
<path id="font_1_2" d="M.28799439 .64105227C.28799439 .664032 .28799439 .66503909 .2679901 .66503909 .24398804 .6380615 .19400025 .6012573 .09098816 .6012573V.5722656C.11399841 .5722656 .1639862 .5722656 .21899414 .59825137V.07701111C.21899414 .041000368 .21598816 .0289917 .12799073 .0289917H.09700012V0C.12399292 .0019989014 .22099304 .0019989014 .2539978 .0019989014 .2869873 .0019989014 .3829956 .0019989014 .4099884 0V.0289917H.3789978C.29100038 .0289917 .28799439 .041000368 .28799439 .07701111V.64105227Z"/>
<path id="font_1_5" d="M.36099244 .6508026C.36099244 .6697998 .36099244 .6748047 .34700013 .6748047 .33898927 .6748047 .33599855 .6748047 .32798768 .662796L.026992798 .19598389V.16699219H.2899933V.07598877C.2899933 .038986207 .28799439 .0289917 .21499634 .0289917H.19499207V0C.21798706 .0019989014 .29699708 .0019989014 .32499696 .0019989014 .35299684 .0019989014 .43299867 .0019989014 .45599366 0V.0289917H.43598939C.3639984 .0289917 .36099244 .038986207 .36099244 .07598877V.16699219H.46199037V.19598389H.36099244V.6508026M.29499818 .5728302V.19598389H.051986696L.29499818 .5728302Z"/>
<path id="font_1_6" d="M.12298584 .34773255C.12298584 .60061648 .24598694 .641037 .2999878 .641037 .33599855 .641037 .37199403 .62991335 .3909912 .5996094 .3789978 .5996094 .34098817 .5996094 .34098817 .558609 .34098817 .53660586 .35598756 .51760867 .38198854 .51760867 .40699769 .51760867 .42399598 .53260806 .42399598 .56159976 .42399598 .6137543 .38598634 .66503909 .29899598 .66503909 .17298889 .66503909 .040985109 .53559878 .040985109 .31570436 .040985109 .040527345 .16099549-.021484375 .24598694-.021484375 .35499574-.021484375 .44799806 .07354736 .44799806 .2036438 .44799806 .33673097 .35499574 .42578126 .25498963 .42578126 .1659851 .42578126 .1329956 .34873963 .12298584 .32070924V.34773255M.24598694 .005508423C.18299866 .005508423 .15299988 .061538698 .14399719 .08256531 .1349945 .10858154 .125 .15760803 .125 .22766114 .125 .30670167 .16099549 .40577699 .25099183 .40577699 .30599977 .40577699 .33499146 .3687439 .34999085 .33473207 .3659973 .29769898 .3659973 .2476654 .3659973 .20463562 .3659973 .15361023 .3659973 .10858154 .34700013 .07055664 .32199098 .022521973 .28599549 .005508423 .24598694 .005508423Z"/>
<path id="font_1_7" d="M.2979889 .36079408C.34799195 .38781739 .42099 .43385316 .42099 .5179291 .42099 .6049957 .33699037 .66503909 .24499512 .66503909 .1459961 .66503909 .067993167 .59199526 .067993167 .5009155 .067993167 .46688844 .07798767 .43286134 .10598755 .39883424 .116989139 .38581849 .117996219 .38482667 .18798828 .3357849 .09098816 .29074098 .040985109 .22369385 .040985109 .15063477 .040985109 .044540407 .14199829-.021484375 .24398804-.021484375 .35499574-.021484375 .44799806 .060546876 .44799806 .16563416 .44799806 .2677307 .37599183 .3127594 .2979889 .36079408M.1619873 .4508667C.14898682 .45988465 .10899353 .48590089 .10899353 .5349426 .10899353 .59999087 .1769867 .641037 .24398804 .641037 .31599427 .641037 .37998963 .58898928 .37998963 .516922 .37998963 .45587159 .33599855 .4068451 .27799989 .3748169L.1619873 .4508667M.20899964 .32176209 .32998658 .2427063C.35598756 .22569275 .4019928 .19465637 .4019928 .13360596 .4019928 .057556154 .32499696 .005508423 .24499512 .005508423 .1599884 .005508423 .08699036 .06756592 .08699036 .15063477 .08699036 .22869873 .14399719 .29174806 .20899964 .32176209Z"/>
<path id="font_2_1" d="M.19499207-.0040130617C.19499207 .053985597 .17599488 .09700012 .1349945 .09700012 .102996829 .09700012 .08699036 .070999149 .08699036 .04899597 .08699036 .026992798 .101989749 0 .13598633 0 .14898682 0 .1599884 .0039978029 .16899109 .0129852299 .17098999 .01499939 .17199707 .01499939 .17298889 .01499939 .1749878 .01499939 .1749878 .0009918213 .1749878-.0040130617 .1749878-.037078859 .16899109-.10221863 .11099243-.1673584 .099990848-.17936707 .099990848-.18136597 .099990848-.18336487 .099990848-.18836975 .10499573-.19335938 .10998535-.19335938 .117996219-.19335938 .19499207-.119262699 .19499207-.0040130617Z"/>
<path id="font_1_4" d="M.18399048 .35888673C.16699219 .35787965 .16299439 .35688783 .16299439 .34788514 .16299439 .33789063 .16799927 .33789063 .18598938 .33789063H.23199463C.31698609 .33789063 .35499574 .267807 .35499574 .17172241 .35499574 .04058838 .2869873 .005508423 .23799134 .005508423 .18998719 .005508423 .10798645 .028564454 .07899475 .09472656 .11099243 .08970642 .13999939 .10771179 .13999939 .14372254 .13999939 .17271424 .11898804 .1927185 .09098816 .1927185 .066986087 .1927185 .040985109 .1787262 .040985109 .14071656 .040985109 .051620485 .12998963-.021484375 .24099732-.021484375 .3600006-.021484375 .44799806 .06965637 .44799806 .17071533 .44799806 .26280213 .37399293 .33488465 .27799989 .35188294 .36499024 .3769226 .42099 .45011903 .42099 .5282135 .42099 .6071167 .33898927 .66503909 .24198914 .66503909 .14199829 .66503909 .067993167 .604126 .067993167 .5312042 .067993167 .49121095 .09899902 .48321534 .11399841 .48321534 .1349945 .48321534 .15899658 .49821473 .15899658 .5282135 .15899658 .5602112 .1349945 .57421877 .11299133 .57421877 .10699463 .57421877 .10499573 .57421877 .101989749 .57321169 .13999939 .641037 .23399353 .641037 .23899842 .641037 .27198792 .641037 .33699037 .6260681 .33699037 .5282135 .33699037 .5092163 .33399964 .453125 .30499269 .41001893 .2749939 .3658905 .24099732 .36288453 .21398926 .36187745L.18399048 .35888673Z"/>
<clipPath id="clip_3">
<path transform="matrix(1.00002,0,0,-1.00002,39.403909,167.99611)" d="M0 0H194.2739V161.39575H0Z"/>
</clipPath>
<path id="font_4_117" d="M.72299197 .6536102V.6826172L.6299896 .680603C.6029968 .680603 .5529938 .680603 .5279999 .6826172V.6536102C.5569916 .6536102 .5779877 .640625 .5779877 .6166382 .5779877 .6036377 .57598879 .600647 .56599429 .58465579L.39698792 .30981446 .21099854 .6106415C.20498657 .620636 .20298767 .6236267 .20298767 .6296234 .20298767 .6506195 .22898865 .6536102 .2649994 .6536102V.6826172C.24198914 .680603 .16099549 .680603 .1329956 .680603 .10499573 .680603 .033996583 .680603 .009994507 .6826172V.6536102C.08099365 .6536102 .09399414 .6506195 .115997318 .6146393L.32699586 .2728424V.07595825C.32699586 .038986207 .32398988 .0289917 .2519989 .0289917H.23199463V0C.25498963 .0019989014 .33699037 .0019989014 .3659973 .0019989014 .394989 .0019989014 .47698976 .0019989014 .5009918 0V.0289917H.48098756C.4079895 .0289917 .4059906 .038986207 .4059906 .07395935V.2738495L.6009979 .58865359C.6339874 .6416168 .6799927 .6536102 .72299197 .6536102Z"/>
<path id="font_4_50" d="M.40699769 .11932373C.40699769 .1253357 .4019928 .1293335 .3959961 .1293335 .3880005 .1293335 .38598634 .12432861 .38398744 .11932373 .35798646 .035247804 .29100038 .01222229 .24899292 .01222229 .20698548 .01222229 .10598755 .040252687 .10598755 .21340943V.23242188H.3829956C.40499879 .23242188 .40699769 .23242188 .40699769 .25141908 .40699769 .3523407 .35299684 .44628907 .23199463 .44628907 .117996219 .44628907 .02999878 .34335328 .02999878 .21940613 .02999878 .08729553 .13198853-.009765625 .24299622-.009765625 .3619995-.009765625 .40699769 .09829712 .40699769 .11932373M.34498597 .25141908H.10699463C.114990238 .40830995 .20298767 .42630006 .23098755 .42630006 .33799745 .42630006 .34399415 .28538514 .34498597 .25141908Z"/>
<path id="font_4_28" d="M.47399903 .08912659V.14515686H.45199586V.08912659C.45199586 .03211975 .42799378 .024108887 .4139862 .024108887 .37599183 .024108887 .37599183 .07713318 .37599183 .09213257V.26719667C.37599183 .3211975 .37599183 .36120606 .33198548 .40023805 .29699708 .43226625 .2519989 .44628907 .20799256 .44628907 .12599182 .44628907 .06298828 .39222718 .06298828 .32720948 .06298828 .2982025 .08198547 .2842102 .10499573 .2842102 .1289978 .2842102 .1459961 .3012085 .1459961 .32521058 .1459961 .36621095 .10998535 .36621095 .09498596 .36621095 .117996219 .4082489 .1659851 .42625428 .20599365 .42625428 .2519989 .42625428 .31098939 .38822938 .31098939 .2982025V.25819398C.10998535 .255188 .033996583 .17115784 .033996583 .09413147 .033996583 .0152282719 .12599182-.009765625 .18699646-.009765625 .25299073-.009765625 .2979889 .030227662 .31698609 .07823181 .32099916 .03111267 .35198976-.0048828127 .394989-.0048828127 .41600038-.0048828127 .47399903 .009109497 .47399903 .089141849V.08912659M.31098939 .14117432C.31098939 .043121339 .23799134 .010116577 .19499207 .010116577 .1459961 .010116577 .10499573 .04612732 .10499573 .09414673 .10499573 .22621155 .2749939 .23822022 .31098939 .24023438V.14117432Z"/>
<path id="font_4_96" d="M.35299684 .38339234C.35299684 .4133911 .32598878 .44140626 .2829895 .44140626 .19799805 .44140626 .16899109 .34939576 .16299439 .33039857H.1619873V.44140626L.027999878 .4303589V.4013672C.09599304 .4013672 .10398865 .39434815 .10398865 .3453064V.074035648C.10398865 .0289917 .09298706 .0289917 .027999878 .0289917V0C.055999757 .0019989014 .11099243 .0019989014 .14099121 .0019989014 .16799927 .0019989014 .23899842 .0019989014 .2619934 0V.0289917H.24198914C.16899109 .02973938 .16699219 .040740968 .16699219 .07673645V.23374939C.16699219 .3307495 .20698548 .42173768 .28399659 .42173768 .2919922 .42173768 .2939911 .42173768 .2979889 .42074586 .2899933 .41674806 .27398683 .41073609 .27398683 .3837433 .27398683 .35473634 .29699708 .34375 .31298829 .34375 .33299256 .34375 .35299684 .35673524 .35299684 .3837433V.38339234Z"/>
<path id="font_4_27" d="M.70199587 0V.0289917C.6369934 .0289917 .61898806 .0289917 .6049957 .06993103L.3869934 .6958618C.3829956 .7078552 .3809967 .7138672 .36698915 .7138672 .35299684 .7138672 .35099793 .7108612 .34599305 .69485476L.13699341 .09689331C.12298584 .05595398 .09498596 .02998352 .0309906 .0289917V0L.1269989 .0019989014C.15499878 .0019989014 .20298767 .0019989014 .22898865 0V.0289917C.18699646 .02998352 .1619873 .050964357 .1619873 .07891846 .1619873 .08491516 .1619873 .08691406 .16699219 .09989929L.21299744 .23271179H.46499635L.519989 .075927738C.5249939 .063949588 .5249939 .061950685 .5249939 .058944704 .5249939 .0289917 .47399903 .0289917 .44898988 .0289917V0C.47200013 .0019989014 .5509949 .0019989014 .57899478 .0019989014 .6069946 .0019989014 .67900088 .0019989014 .70199587 0M.45498658 .26171876H.22299195L.33898927 .5948181 .45498658 .26171876Z"/>
<path id="font_4_77" d="M.5209961 0V.0289917C.47099305 .0289917 .44599916 .0289917 .44499208 .059051515V.24342346C.44499208 .3365631 .44499208 .36450196 .42199708 .39640809 .3929901 .4353943 .34599305 .44140626 .31199647 .44140626 .21499634 .44140626 .1769867 .35850526 .16899109 .338562H.16799927V.44140626L.03199768 .4303589V.4013672C.099990848 .4013672 .10798645 .39437867 .10798645 .34553529V.07408142C.10798645 .0289917 .09700012 .0289917 .03199768 .0289917V0C.057998659 .0019989014 .11199951 .0019989014 .13999939 .0019989014 .16899109 .0019989014 .22299195 .0019989014 .24899292 0V.0289917C.18499756 .0289917 .17298889 .0289917 .17298889 .07408142V.26046754C.17298889 .36547853 .24198914 .4213562 .3039856 .4213562 .3659973 .4213562 .37998963 .37045289 .37998963 .3095703V.07408142C.37998963 .0289917 .36898805 .0289917 .3039856 .0289917V0C.32998658 .0019989014 .38398744 .0019989014 .4119873 .0019989014 .44099427 .0019989014 .49499513 .0019989014 .5209961 0Z"/>
<path id="font_4_109" d="M.5209961 .00022888184V.029220581C.45298768 .029220581 .44499208 .036224367 .44499208 .085250858V.44140626L.3039856 .43040467V.4013977C.37199403 .4013977 .37998963 .39439393 .37998963 .34536744V.16629029C.37998963 .08125305 .33499146 .010223389 .2599945 .010223389 .17799378 .010223389 .17298889 .057235719 .17298889 .11026001V.44140626L.03199768 .43040467V.4013977C.10798645 .4013977 .10798645 .39839173 .10798645 .3093567V.1592865C.10798645 .09725952 .10798645 .06124878 .13798523 .02822876 .1619873 .0022277833 .20298767-.009765625 .2539978-.009765625 .2709961-.009765625 .30299378-.009765625 .33699037 .019226075 .3659973 .042236329 .38198854 .08024597 .38198854 .08024597V-.009765625L.5209961 .00022888184Z"/>
<path id="font_4_72" d="M.24798584 0V.0289917C.18399048 .0289917 .17199707 .0289917 .17199707 .074020389V.69433596L.032989503 .6826172V.6536102C.100997928 .6536102 .10899353 .6466217 .10899353 .597641V.07395935C.10899353 .0289917 .09799194 .0289917 .032989503 .0289917V0C.06098938 .0019989014 .10998535 .0019989014 .13999939 .0019989014 .16999817 .0019989014 .21998596 .0019989014 .24798584 0Z"/>
<path id="font_4_97" d="M.4889984 .18367005C.4889984 .24472046 .46598817 .28974916 .43899537 .32278443 .4019928 .36782838 .35699464 .37882997 .31799317 .38883973L.20799256 .41687013C.15699768 .42988587 .11199951 .47991944 .11199951 .54397585 .11199951 .6140442 .16799927 .6770935 .24598694 .6770935 .4099884 .6770935 .43199159 .5149536 .43798829 .47192384 .43998719 .4598999 .43998719 .4559021 .44999696 .4559021 .46099855 .4559021 .46099855 .46090699 .46099855 .4789276V.6810913C.46099855 .6990967 .46099855 .70410159 .45098878 .70410159 .44799806 .70410159 .44400025 .70410159 .43699647 .6911011L.4039917 .63005068C.35598756 .6920929 .2899933 .70410159 .24598694 .70410159 .1349945 .70410159 .053985597 .615036 .053985597 .5129547 .053985597 .4649048 .070999149 .42086793 .10798645 .38084413 .14299011 .34179688 .17799378 .3327942 .24899292 .31477357 .28399659 .30677796 .33898927 .29275514 .35299684 .28675843 .3999939 .2637329 .43099977 .20968628 .43099977 .15364075 .43099977 .078567508 .37799073 .007507324 .29499818 .007507324 .25 .007507324 .18798828 .01852417 .13899231 .061553956 .08099365 .113601688 .07699585 .18566895 .07598877 .21868897 .07499695 .22669983 .06498718 .22669983 .06498718 .22669983 .053985597 .22669983 .053985597 .22169495 .053985597 .20367432V.0015106201C.053985597-.016494751 .053985597-.021484375 .06399536-.021484375 .069992069-.021484375 .070999149-.019485474 .07798767-.0074920656L.11099243 .05255127C.14698792 .012512207 .20999146-.021484375 .29599-.021484375 .4079895-.021484375 .4889984 .07356262 .4889984 .18367005Z"/>
<path id="font_4_118" d="M.49798585 .4016571V.43066407C.46899415 .4286499 .45498658 .4286499 .4229889 .4286499L.34199525 .43066407V.4016571C.3789978 .3996582 .3880005 .3766632 .3880005 .35865785 .3880005 .34965516 .38598634 .34465028 .38198854 .33465577L.27999879 .08265686 .16899109 .35466004C.16299439 .36865235 .16299439 .37565614 .16299439 .37565614 .16299439 .4016571 .19799805 .4016571 .21798706 .4016571V.43066407C.19198609 .4286499 .14299011 .4286499 .114990238 .4286499L.017990113 .43066407V.4016571C.07598877 .4016571 .083999637 .39665223 .09700012 .36567689L.24598694-.000076293948C.20199585-.10601807 .20199585-.10801697 .19799805-.11602783 .18099976-.14602661 .1539917-.184021 .10899353-.184021 .07798767-.184021 .05899048-.16601563 .05899048-.16601563 .05899048-.16601563 .09399414-.16201782 .09399414-.12702942 .09399414-.103027347 .07499695-.090026859 .056991579-.090026859 .039993287-.090148929 .018997193-.10014343 .018997193-.12913513 .018997193-.16712952 .055999757-.20410156 .10899353-.20410156 .16499329-.20410156 .20599365-.15512085 .23199463-.09214783L.40499879 .3336792C.43199159 .40065003 .47898866 .4016571 .49798585 .4016571Z"/>
<path id="font_4_85" d="M.32499696-.24298096C.32499696-.23999024 .32499696-.23799134 .30799867-.22097779 .20799256-.11999512 .1519928 .045013429 .1519928 .24900818 .1519928 .44299317 .19898987 .60998538 .31498719 .72798159 .32499696 .73698428 .32499696 .73898318 .32499696 .74198916 .32499696 .74798586 .31999208 .75 .31599427 .75 .30299378 .75 .22099304 .6779938 .17199707 .5799866 .12098694 .47898866 .09799194 .37199403 .09799194 .24900818 .09799194 .16000366 .11199951 .041000368 .1639862-.06599426 .22299195-.18598938 .30499269-.25097657 .31599427-.25097657 .31999208-.25097657 .32499696-.24897766 .32499696-.24298096Z"/>
<path id="font_4_48" d="M.43499757 .19412232C.43499757 .23712158 .4229889 .28912355 .37998963 .33711244 .34298707 .3781128 .29899598 .38911439 .25898744 .39912416V.67510989C.33198548 .67111209 .3929901 .6351166 .4079895 .5651245 .39898683 .5671234 .39698792 .5671234 .3939972 .5671234 .375 .5671234 .35198976 .5541229 .35198976 .52511599 .35198976 .5001221 .36999513 .4841156 .3929901 .4841156 .41299439 .4841156 .43499757 .4941101 .43499757 .53012087 .43499757 .6171112 .37799073 .6981201 .25898744 .7041168V.7501221H.22999573V.703125C.125 .69511416 .053985597 .6091156 .053985597 .51512148 .053985597 .46011354 .07699585 .41311646 .11099243 .37911988 .14698792 .3441162 .17799378 .3361206 .22999573 .32312013V.019119263C.19099427 .022109986 .099990848 .038116456 .07998657 .14411927 .08299255 .14311219 .08999634 .14111328 .09599304 .14111328 .11299133 .14111328 .13699341 .15312195 .13699341 .18312073 .13699341 .2071228 .11999512 .2241211 .09599304 .2241211 .07598877 .2241211 .053985597 .21411133 .053985597 .17811585 .053985597 .08711243 .10798645-.001876831 .22999573-.009887695V-.055877687H.25898744V-.008880615C.3659973 .0011138916 .43499757 .09310913 .43499757 .19412232M.22999573 .40711976C.100997928 .43312074 .100997928 .52812197 .100997928 .54112246 .100997928 .60112 .14698792 .66511538 .22999573 .67411807V.40711976M.3880005 .16711426C.3880005 .09611511 .33799745 .02911377 .25898744 .020111084V.31510926C.3829956 .29011537 .3880005 .18711853 .3880005 .16711426Z"/>
<path id="font_4_86" d="M.28199769 .24900818C.28199769 .32499696 .27198792 .44898988 .21598816 .5649872 .15699768 .6849823 .07499695 .75 .06399536 .75 .05999756 .75 .054992677 .74798586 .054992677 .74198916 .054992677 .73898318 .054992677 .73698428 .07199097 .71998599 .17199707 .61898806 .22799683 .45399476 .22799683 .25 .22799683 .055999757 .18099976-.11099243 .06498718-.22898865 .054992677-.23799134 .054992677-.23999024 .054992677-.24298096 .054992677-.24897766 .05999756-.25097657 .06399536-.25097657 .07699585-.25097657 .15899658-.1789856 .20799256-.08099365 .25898744 .021011353 .28199769 .1289978 .28199769 .24900818Z"/>
</defs>
<path transform="matrix(1.00002,0,0,-1.00002,39.403909,167.99611)" stroke-width=".3985" stroke-linecap="butt" stroke-miterlimit="10" stroke-linejoin="miter" fill="none" stroke="#bfbfbf" d="M17.66125 0V161.39575M52.98378 0V161.39575M88.3063 0V161.39575M123.62883 0V161.39575M158.95136 0V161.39575M194.2739 0V161.39575"/>
<path transform="matrix(1.00002,0,0,-1.00002,39.403909,167.99611)" stroke-width=".3985" stroke-linecap="butt" stroke-miterlimit="10" stroke-linejoin="miter" fill="none" stroke="#bfbfbf" d="M0 17.93286H194.2739M0 35.86572H194.2739M0 53.79858H194.2739M0 71.73145H194.2739M0 89.6643H194.2739M0 107.59717H194.2739M0 125.53003H194.2739M0 143.46289H194.2739M0 161.39575H194.2739"/>
<path transform="matrix(1.00002,0,0,-1.00002,39.403909,167.99611)" stroke-width=".19925" stroke-linecap="butt" stroke-miterlimit="10" stroke-linejoin="miter" fill="none" stroke="#7f807f" d="M17.66125-2.12592V2.12592M52.98378-2.12592V2.12592M88.3063-2.12592V2.12592M123.62883-2.12592V2.12592M158.95136-2.12592V2.12592M194.2739-2.12592V2.12592"/>
<path transform="matrix(1.00002,0,0,-1.00002,39.403909,167.99611)" stroke-width=".19925" stroke-linecap="butt" stroke-miterlimit="10" stroke-linejoin="miter" fill="none" stroke="#7f807f" d="M-2.12572 17.93286H2.12572M-2.12572 35.86572H2.12572M-2.12572 53.79858H2.12572M-2.12572 71.73145H2.12572M-2.12572 89.6643H2.12572M-2.12572 107.59717H2.12572M-2.12572 125.53003H2.12572M-2.12572 143.46289H2.12572M-2.12572 161.39575H2.12572"/>
<path transform="matrix(1.00002,0,0,-1.00002,39.403909,167.99611)" stroke-width=".3985" stroke-linecap="butt" stroke-miterlimit="10" stroke-linejoin="miter" fill="none" stroke="#000000" d="M0 0H192.28137"/>
<path transform="matrix(1.00002,0,0,-1.00002,231.68912,167.99611)" d="M1.99252 0-1.19551 1.59401 0 0-1.19551-1.59401"/>
<path transform="matrix(1.00002,0,0,-1.00002,39.403909,167.99611)" stroke-width=".3985" stroke-linecap="butt" stroke-miterlimit="10" stroke-linejoin="miter" fill="none" stroke="#000000" d="M0 0V159.40323"/>
<path transform="matrix(0,-1.00002,-1.00002,-0,39.403909,8.589691)" d="M1.99252 0-1.19551 1.59401 0 0-1.19551-1.59401"/>
<use data-text="2" xlink:href="#font_1_3" transform="matrix(11.95544,0,0,-11.95544,45.359025,182.01039)"/>
<use data-text="0" xlink:href="#font_1_1" transform="matrix(11.95544,0,0,-11.95544,51.205247,182.01039)"/>
<use data-text="1" xlink:href="#font_1_2" transform="matrix(11.95544,0,0,-11.95544,57.051469,182.01039)"/>
<use data-text="2" xlink:href="#font_1_3" transform="matrix(11.95544,0,0,-11.95544,62.897676,182.01039)"/>
<use data-text="2" xlink:href="#font_1_3" transform="matrix(11.95544,0,0,-11.95544,80.68274,182.01039)"/>
<use data-text="0" xlink:href="#font_1_1" transform="matrix(11.95544,0,0,-11.95544,86.52896,182.01039)"/>
<use data-text="1" xlink:href="#font_1_2" transform="matrix(11.95544,0,0,-11.95544,92.37518,182.01039)"/>
<use data-text="4" xlink:href="#font_1_5" transform="matrix(11.95544,0,0,-11.95544,98.22139,182.01039)"/>
<use data-text="2" xlink:href="#font_1_3" transform="matrix(11.95544,0,0,-11.95544,116.00544,182.01039)"/>
<use data-text="0" xlink:href="#font_1_1" transform="matrix(11.95544,0,0,-11.95544,121.85166,182.01039)"/>
<use data-text="1" xlink:href="#font_1_2" transform="matrix(11.95544,0,0,-11.95544,127.69788,182.01039)"/>
<use data-text="6" xlink:href="#font_1_6" transform="matrix(11.95544,0,0,-11.95544,133.5441,182.01039)"/>
<use data-text="2" xlink:href="#font_1_3" transform="matrix(11.95544,0,0,-11.95544,151.32915,182.01039)"/>
<use data-text="0" xlink:href="#font_1_1" transform="matrix(11.95544,0,0,-11.95544,157.17537,182.01039)"/>
<use data-text="1" xlink:href="#font_1_2" transform="matrix(11.95544,0,0,-11.95544,163.02159,182.01039)"/>
<use data-text="8" xlink:href="#font_1_7" transform="matrix(11.95544,0,0,-11.95544,168.8678,182.01039)"/>
<use data-text="2" xlink:href="#font_1_3" transform="matrix(11.95544,0,0,-11.95544,186.65186,182.01039)"/>
<use data-text="0" xlink:href="#font_1_1" transform="matrix(11.95544,0,0,-11.95544,192.49808,182.01039)"/>
<use data-text="2" xlink:href="#font_1_3" transform="matrix(11.95544,0,0,-11.95544,198.3443,182.01039)"/>
<use data-text="0" xlink:href="#font_1_1" transform="matrix(11.95544,0,0,-11.95544,204.19049,182.01039)"/>
<use data-text="2" xlink:href="#font_1_3" transform="matrix(11.95544,0,0,-11.95544,221.97556,182.01039)"/>
<use data-text="0" xlink:href="#font_1_1" transform="matrix(11.95544,0,0,-11.95544,227.82178,182.01039)"/>
<use data-text="2" xlink:href="#font_1_3" transform="matrix(11.95544,0,0,-11.95544,233.668,182.01039)"/>
<use data-text="2" xlink:href="#font_1_3" transform="matrix(11.95544,0,0,-11.95544,239.51422,182.01039)"/>
<use data-text="4" xlink:href="#font_1_5" transform="matrix(11.95544,0,0,-11.95544,6.429245,152.7528)"/>
<use data-text="," xlink:href="#font_2_1" transform="matrix(11.95544,0,0,-11.95544,12.282364,152.7528)"/>
<use data-text="0" xlink:href="#font_1_1" transform="matrix(11.95544,0,0,-11.95544,15.534424,152.7528)"/>
<use data-text="0" xlink:href="#font_1_1" transform="matrix(11.95544,0,0,-11.95544,21.380646,152.7528)"/>
<use data-text="0" xlink:href="#font_1_1" transform="matrix(11.95544,0,0,-11.95544,27.226868,152.7528)"/>
<use data-text="8" xlink:href="#font_1_7" transform="matrix(11.95544,0,0,-11.95544,6.429245,134.81945)"/>
<use data-text="," xlink:href="#font_2_1" transform="matrix(11.95544,0,0,-11.95544,12.282364,134.81945)"/>
<use data-text="0" xlink:href="#font_1_1" transform="matrix(11.95544,0,0,-11.95544,15.534424,134.81945)"/>
<use data-text="0" xlink:href="#font_1_1" transform="matrix(11.95544,0,0,-11.95544,21.380646,134.81945)"/>
<use data-text="0" xlink:href="#font_1_1" transform="matrix(11.95544,0,0,-11.95544,27.226868,134.81945)"/>
<use data-text="1" xlink:href="#font_1_2" transform="matrix(11.95544,0,0,-11.95544,.5761261,116.886089)"/>
<use data-text="2" xlink:href="#font_1_3" transform="matrix(11.95544,0,0,-11.95544,6.422348,116.886089)"/>
<use data-text="," xlink:href="#font_2_1" transform="matrix(11.95544,0,0,-11.95544,12.282364,116.886089)"/>
<use data-text="0" xlink:href="#font_1_1" transform="matrix(11.95544,0,0,-11.95544,15.534424,116.886089)"/>
<use data-text="0" xlink:href="#font_1_1" transform="matrix(11.95544,0,0,-11.95544,21.380646,116.886089)"/>
<use data-text="0" xlink:href="#font_1_1" transform="matrix(11.95544,0,0,-11.95544,27.226853,116.886089)"/>
<use data-text="1" xlink:href="#font_1_2" transform="matrix(11.95544,0,0,-11.95544,.5761261,98.95373)"/>
<use data-text="6" xlink:href="#font_1_6" transform="matrix(11.95544,0,0,-11.95544,6.422348,98.95373)"/>
<use data-text="," xlink:href="#font_2_1" transform="matrix(11.95544,0,0,-11.95544,12.282364,98.95373)"/>
<use data-text="0" xlink:href="#font_1_1" transform="matrix(11.95544,0,0,-11.95544,15.534424,98.95373)"/>
<use data-text="0" xlink:href="#font_1_1" transform="matrix(11.95544,0,0,-11.95544,21.380646,98.95373)"/>
<use data-text="0" xlink:href="#font_1_1" transform="matrix(11.95544,0,0,-11.95544,27.226853,98.95373)"/>
<use data-text="2" xlink:href="#font_1_3" transform="matrix(11.95544,0,0,-11.95544,.5761261,81.02037)"/>
<use data-text="0" xlink:href="#font_1_1" transform="matrix(11.95544,0,0,-11.95544,6.422348,81.02037)"/>
<use data-text="," xlink:href="#font_2_1" transform="matrix(11.95544,0,0,-11.95544,12.282364,81.02037)"/>
<use data-text="0" xlink:href="#font_1_1" transform="matrix(11.95544,0,0,-11.95544,15.534424,81.02037)"/>
<use data-text="0" xlink:href="#font_1_1" transform="matrix(11.95544,0,0,-11.95544,21.380646,81.02037)"/>
<use data-text="0" xlink:href="#font_1_1" transform="matrix(11.95544,0,0,-11.95544,27.226853,81.02037)"/>
<use data-text="2" xlink:href="#font_1_3" transform="matrix(11.95544,0,0,-11.95544,.5761261,63.087015)"/>
<use data-text="4" xlink:href="#font_1_5" transform="matrix(11.95544,0,0,-11.95544,6.422348,63.087015)"/>
<use data-text="," xlink:href="#font_2_1" transform="matrix(11.95544,0,0,-11.95544,12.282364,63.087015)"/>
<use data-text="0" xlink:href="#font_1_1" transform="matrix(11.95544,0,0,-11.95544,15.534424,63.087015)"/>
<use data-text="0" xlink:href="#font_1_1" transform="matrix(11.95544,0,0,-11.95544,21.380646,63.087015)"/>
<use data-text="0" xlink:href="#font_1_1" transform="matrix(11.95544,0,0,-11.95544,27.226853,63.087015)"/>
<use data-text="2" xlink:href="#font_1_3" transform="matrix(11.95544,0,0,-11.95544,.5761261,45.153657)"/>
<use data-text="8" xlink:href="#font_1_7" transform="matrix(11.95544,0,0,-11.95544,6.422348,45.153657)"/>
<use data-text="," xlink:href="#font_2_1" transform="matrix(11.95544,0,0,-11.95544,12.282364,45.153657)"/>
<use data-text="0" xlink:href="#font_1_1" transform="matrix(11.95544,0,0,-11.95544,15.534424,45.153657)"/>
<use data-text="0" xlink:href="#font_1_1" transform="matrix(11.95544,0,0,-11.95544,21.380646,45.153657)"/>
<use data-text="0" xlink:href="#font_1_1" transform="matrix(11.95544,0,0,-11.95544,27.226853,45.153657)"/>
<use data-text="3" xlink:href="#font_1_4" transform="matrix(11.95544,0,0,-11.95544,.5761261,27.220292)"/>
<use data-text="2" xlink:href="#font_1_3" transform="matrix(11.95544,0,0,-11.95544,6.422348,27.220292)"/>
<use data-text="," xlink:href="#font_2_1" transform="matrix(11.95544,0,0,-11.95544,12.282364,27.220292)"/>
<use data-text="0" xlink:href="#font_1_1" transform="matrix(11.95544,0,0,-11.95544,15.534424,27.220292)"/>
<use data-text="0" xlink:href="#font_1_1" transform="matrix(11.95544,0,0,-11.95544,21.380646,27.220292)"/>
<use data-text="0" xlink:href="#font_1_1" transform="matrix(11.95544,0,0,-11.95544,27.226853,27.220292)"/>
<use data-text="3" xlink:href="#font_1_4" transform="matrix(11.95544,0,0,-11.95544,.5761261,9.286942)"/>
<use data-text="6" xlink:href="#font_1_6" transform="matrix(11.95544,0,0,-11.95544,6.422348,9.286942)"/>
<use data-text="," xlink:href="#font_2_1" transform="matrix(11.95544,0,0,-11.95544,12.282364,9.286942)"/>
<use data-text="0" xlink:href="#font_1_1" transform="matrix(11.95544,0,0,-11.95544,15.534424,9.286942)"/>
<use data-text="0" xlink:href="#font_1_1" transform="matrix(11.95544,0,0,-11.95544,21.380646,9.286942)"/>
<use data-text="0" xlink:href="#font_1_1" transform="matrix(11.95544,0,0,-11.95544,27.226853,9.286942)"/>
<path transform="matrix(1.00002,0,0,-1.00002,39.403909,167.99611)" stroke-width=".3985" stroke-linecap="butt" stroke-miterlimit="10" stroke-linejoin="miter" fill="none" stroke="#bfbfbf" d="M35.32253 0V161.39575M70.64505 0V161.39575M105.96758 0V161.39575M141.2901 0V161.39575M176.61263 0V161.39575"/>
<path transform="matrix(1.00002,0,0,-1.00002,39.403909,167.99611)" stroke-width=".19925" stroke-linecap="butt" stroke-miterlimit="10" stroke-linejoin="miter" fill="none" stroke="#7f807f" d="M35.32253-2.12592V2.12592M70.64505-2.12592V2.12592M105.96758-2.12592V2.12592M141.2901-2.12592V2.12592M176.61263-2.12592V2.12592"/>
<path transform="matrix(1.00002,0,0,-1.00002,39.403909,167.99611)" stroke-width=".3985" stroke-linecap="butt" stroke-miterlimit="10" stroke-linejoin="miter" fill="none" stroke="#bfbfbf" d="M0 8.96643H194.2739M0 26.89929H194.2739M0 44.83215H194.2739M0 62.76501H194.2739M0 80.69788H194.2739M0 98.63074H194.2739M0 116.5636H194.2739M0 134.49646H194.2739M0 152.42932H194.2739"/>
<path transform="matrix(1.00002,0,0,-1.00002,39.403909,167.99611)" stroke-width=".19925" stroke-linecap="butt" stroke-miterlimit="10" stroke-linejoin="miter" fill="none" stroke="#7f807f" d="M-2.12572 8.96643H2.12572M-2.12572 26.89929H2.12572M-2.12572 44.83215H2.12572M-2.12572 62.76501H2.12572M-2.12572 80.69788H2.12572M-2.12572 98.63074H2.12572M-2.12572 116.5636H2.12572M-2.12572 134.49646H2.12572M-2.12572 152.42932H2.12572"/>
<g clip-path="url(#clip_3)">
</g>
<path transform="matrix(1.00002,0,0,-1.00002,39.403909,167.99611)" d="M19.65381 107.59717C19.65381 108.69763 18.76173 109.58972 17.66125 109.58972 16.56079 109.58972 15.6687 108.69763 15.6687 107.59717 15.6687 106.49669 16.56079 105.60461 17.66125 105.60461 18.76173 105.60461 19.65381 106.49669 19.65381 107.59717ZM17.66125 107.59717"/>
<path transform="matrix(1.00002,0,0,-1.00002,39.403909,167.99611)" stroke-width=".3985" stroke-linecap="butt" stroke-miterlimit="10" stroke-linejoin="miter" fill="none" stroke="#000000" d="M19.65381 107.59717C19.65381 108.69763 18.76173 109.58972 17.66125 109.58972 16.56079 109.58972 15.6687 108.69763 15.6687 107.59717 15.6687 106.49669 16.56079 105.60461 17.66125 105.60461 18.76173 105.60461 19.65381 106.49669 19.65381 107.59717ZM17.66125 107.59717"/>
<path transform="matrix(1.00002,0,0,-1.00002,39.403909,167.99611)" d="M37.31508 112.08038C37.31508 113.18085 36.42299 114.07294 35.32253 114.07294 34.22205 114.07294 33.32997 113.18085 33.32997 112.08038 33.32997 110.9799 34.22205 110.08783 35.32253 110.08783 36.42299 110.08783 37.31508 110.9799 37.31508 112.08038ZM35.32253 112.08038"/>
<path transform="matrix(1.00002,0,0,-1.00002,39.403909,167.99611)" stroke-width=".3985" stroke-linecap="butt" stroke-miterlimit="10" stroke-linejoin="miter" fill="none" stroke="#000000" d="M37.31508 112.08038C37.31508 113.18085 36.42299 114.07294 35.32253 114.07294 34.22205 114.07294 33.32997 113.18085 33.32997 112.08038 33.32997 110.9799 34.22205 110.08783 35.32253 110.08783 36.42299 110.08783 37.31508 110.9799 37.31508 112.08038ZM35.32253 112.08038"/>
<path transform="matrix(1.00002,0,0,-1.00002,39.403909,167.99611)" d="M54.97633 121.04681C54.97633 122.14728 54.08426 123.03937 52.98378 123.03937 51.88332 123.03937 50.99123 122.14728 50.99123 121.04681 50.99123 119.94633 51.88332 119.05426 52.98378 119.05426 54.08426 119.05426 54.97633 119.94633 54.97633 121.04681ZM52.98378 121.04681"/>
<path transform="matrix(1.00002,0,0,-1.00002,39.403909,167.99611)" stroke-width=".3985" stroke-linecap="butt" stroke-miterlimit="10" stroke-linejoin="miter" fill="none" stroke="#000000" d="M54.97633 121.04681C54.97633 122.14728 54.08426 123.03937 52.98378 123.03937 51.88332 123.03937 50.99123 122.14728 50.99123 121.04681 50.99123 119.94633 51.88332 119.05426 52.98378 119.05426 54.08426 119.05426 54.97633 119.94633 54.97633 121.04681ZM52.98378 121.04681"/>
<path transform="matrix(1.00002,0,0,-1.00002,39.403909,167.99611)" d="M72.6376 123.28842C72.6376 124.38889 71.74551 125.28098 70.64505 125.28098 69.54457 125.28098 68.6525 124.38889 68.6525 123.28842 68.6525 122.18794 69.54457 121.29587 70.64505 121.29587 71.74551 121.29587 72.6376 122.18794 72.6376 123.28842ZM70.64505 123.28842"/>
<path transform="matrix(1.00002,0,0,-1.00002,39.403909,167.99611)" stroke-width=".3985" stroke-linecap="butt" stroke-miterlimit="10" stroke-linejoin="miter" fill="none" stroke="#000000" d="M72.6376 123.28842C72.6376 124.38889 71.74551 125.28098 70.64505 125.28098 69.54457 125.28098 68.6525 124.38889 68.6525 123.28842 68.6525 122.18794 69.54457 121.29587 70.64505 121.29587 71.74551 121.29587 72.6376 122.18794 72.6376 123.28842ZM70.64505 123.28842"/>
<path transform="matrix(1.00002,0,0,-1.00002,39.403909,167.99611)" d="M90.29886 127.77164C90.29886 128.8721 89.40678 129.76419 88.3063 129.76419 87.20584 129.76419 86.31375 128.8721 86.31375 127.77164 86.31375 126.67116 87.20584 125.77908 88.3063 125.77908 89.40678 125.77908 90.29886 126.67116 90.29886 127.77164ZM88.3063 127.77164"/>
<path transform="matrix(1.00002,0,0,-1.00002,39.403909,167.99611)" stroke-width=".3985" stroke-linecap="butt" stroke-miterlimit="10" stroke-linejoin="miter" fill="none" stroke="#000000" d="M90.29886 127.77164C90.29886 128.8721 89.40678 129.76419 88.3063 129.76419 87.20584 129.76419 86.31375 128.8721 86.31375 127.77164 86.31375 126.67116 87.20584 125.77908 88.3063 125.77908 89.40678 125.77908 90.29886 126.67116 90.29886 127.77164ZM88.3063 127.77164"/>
<path transform="matrix(1.00002,0,0,-1.00002,39.403909,167.99611)" d="M107.96013 127.77164C107.96013 128.8721 107.06804 129.76419 105.96758 129.76419 104.8671 129.76419 103.97502 128.8721 103.97502 127.77164 103.97502 126.67116 104.8671 125.77908 105.96758 125.77908 107.06804 125.77908 107.96013 126.67116 107.96013 127.77164ZM105.96758 127.77164"/>
<path transform="matrix(1.00002,0,0,-1.00002,39.403909,167.99611)" stroke-width=".3985" stroke-linecap="butt" stroke-miterlimit="10" stroke-linejoin="miter" fill="none" stroke="#000000" d="M107.96013 127.77164C107.96013 128.8721 107.06804 129.76419 105.96758 129.76419 104.8671 129.76419 103.97502 128.8721 103.97502 127.77164 103.97502 126.67116 104.8671 125.77908 105.96758 125.77908 107.06804 125.77908 107.96013 126.67116 107.96013 127.77164ZM105.96758 127.77164"/>
<path transform="matrix(1.00002,0,0,-1.00002,39.403909,167.99611)" d="M125.62138 130.01325C125.62138 131.11371 124.72931 132.0058 123.62883 132.0058 122.52837 132.0058 121.63628 131.11371 121.63628 130.01325 121.63628 128.91277 122.52837 128.02069 123.62883 128.02069 124.72931 128.02069 125.62138 128.91277 125.62138 130.01325ZM123.62883 130.01325"/>
<path transform="matrix(1.00002,0,0,-1.00002,39.403909,167.99611)" stroke-width=".3985" stroke-linecap="butt" stroke-miterlimit="10" stroke-linejoin="miter" fill="none" stroke="#000000" d="M125.62138 130.01325C125.62138 131.11371 124.72931 132.0058 123.62883 132.0058 122.52837 132.0058 121.63628 131.11371 121.63628 130.01325 121.63628 128.91277 122.52837 128.02069 123.62883 128.02069 124.72931 128.02069 125.62138 128.91277 125.62138 130.01325ZM123.62883 130.01325"/>
<path transform="matrix(1.00002,0,0,-1.00002,39.403909,167.99611)" d="M143.28266 134.49646C143.28266 135.59693 142.39057 136.48902 141.2901 136.48902 140.18962 136.48902 139.29755 135.59693 139.29755 134.49646 139.29755 133.39598 140.18962 132.5039 141.2901 132.5039 142.39057 132.5039 143.28266 133.39598 143.28266 134.49646ZM141.2901 134.49646"/>
<path transform="matrix(1.00002,0,0,-1.00002,39.403909,167.99611)" stroke-width=".3985" stroke-linecap="butt" stroke-miterlimit="10" stroke-linejoin="miter" fill="none" stroke="#000000" d="M143.28266 134.49646C143.28266 135.59693 142.39057 136.48902 141.2901 136.48902 140.18962 136.48902 139.29755 135.59693 139.29755 134.49646 139.29755 133.39598 140.18962 132.5039 141.2901 132.5039 142.39057 132.5039 143.28266 133.39598 143.28266 134.49646ZM141.2901 134.49646"/>
<path transform="matrix(1.00002,0,0,-1.00002,39.403909,167.99611)" d="M160.94391 138.97968C160.94391 140.08014 160.05184 140.97223 158.95136 140.97223 157.85089 140.97223 156.9588 140.08014 156.9588 138.97968 156.9588 137.8792 157.85089 136.98712 158.95136 136.98712 160.05184 136.98712 160.94391 137.8792 160.94391 138.97968ZM158.95136 138.97968"/>
<path transform="matrix(1.00002,0,0,-1.00002,39.403909,167.99611)" stroke-width=".3985" stroke-linecap="butt" stroke-miterlimit="10" stroke-linejoin="miter" fill="none" stroke="#000000" d="M160.94391 138.97968C160.94391 140.08014 160.05184 140.97223 158.95136 140.97223 157.85089 140.97223 156.9588 140.08014 156.9588 138.97968 156.9588 137.8792 157.85089 136.98712 158.95136 136.98712 160.05184 136.98712 160.94391 137.8792 160.94391 138.97968ZM158.95136 138.97968"/>
<path transform="matrix(1.00002,0,0,-1.00002,39.403909,167.99611)" d="M178.60518 141.22129C178.60518 142.32175 177.71309 143.21384 176.61263 143.21384 175.51215 143.21384 174.62007 142.32175 174.62007 141.22129 174.62007 140.1208 175.51215 139.22873 176.61263 139.22873 177.71309 139.22873 178.60518 140.1208 178.60518 141.22129ZM176.61263 141.22129"/>
<path transform="matrix(1.00002,0,0,-1.00002,39.403909,167.99611)" stroke-width=".3985" stroke-linecap="butt" stroke-miterlimit="10" stroke-linejoin="miter" fill="none" stroke="#000000" d="M178.60518 141.22129C178.60518 142.32175 177.71309 143.21384 176.61263 143.21384 175.51215 143.21384 174.62007 142.32175 174.62007 141.22129 174.62007 140.1208 175.51215 139.22873 176.61263 139.22873 177.71309 139.22873 178.60518 140.1208 178.60518 141.22129ZM176.61263 141.22129"/>
<path transform="matrix(1.00002,0,0,-1.00002,39.403909,167.99611)" d="M196.26645 143.46289C196.26645 144.56336 195.37436 145.45545 194.2739 145.45545 193.17342 145.45545 192.28134 144.56336 192.28134 143.46289 192.28134 142.36241 193.17342 141.47034 194.2739 141.47034 195.37436 141.47034 196.26645 142.36241 196.26645 143.46289ZM194.2739 143.46289"/>
<path transform="matrix(1.00002,0,0,-1.00002,39.403909,167.99611)" stroke-width=".3985" stroke-linecap="butt" stroke-miterlimit="10" stroke-linejoin="miter" fill="none" stroke="#000000" d="M196.26645 143.46289C196.26645 144.56336 195.37436 145.45545 194.2739 145.45545 193.17342 145.45545 192.28134 144.56336 192.28134 143.46289 192.28134 142.36241 193.17342 141.47034 194.2739 141.47034 195.37436 141.47034 196.26645 142.36241 196.26645 143.46289ZM194.2739 143.46289"/>
<path transform="matrix(1.00002,0,0,-1.00002,39.403909,167.99611)" stroke-width=".3985" stroke-linecap="butt" stroke-miterlimit="10" stroke-linejoin="miter" fill="none" stroke="#000000" d=""/>
<use data-text="Y" xlink:href="#font_4_117" transform="matrix(11.95544,0,0,-11.95544,206.12326,163.69303)"/>
<use data-text="e" xlink:href="#font_4_50" transform="matrix(11.95544,0,0,-11.95544,213.91822,163.69303)"/>
<use data-text="a" xlink:href="#font_4_28" transform="matrix(11.95544,0,0,-11.95544,219.1188,163.69303)"/>
<use data-text="r" xlink:href="#font_4_96" transform="matrix(11.95544,0,0,-11.95544,224.97699,163.69303)"/>
<use data-text="A" xlink:href="#font_4_27" transform="matrix(11.95544,0,0,-11.95544,43.58799,19.722138)"/>
<use data-text="n" xlink:href="#font_4_77" transform="matrix(11.95544,0,0,-11.95544,52.36329,19.722138)"/>
<use data-text="n" xlink:href="#font_4_77" transform="matrix(11.95544,0,0,-11.95544,58.867044,19.722138)"/>
<use data-text="u" xlink:href="#font_4_109" transform="matrix(11.95544,0,0,-11.95544,65.04803,19.722138)"/>
<use data-text="a" xlink:href="#font_4_28" transform="matrix(11.95544,0,0,-11.95544,71.55178,19.722138)"/>
<use data-text="l" xlink:href="#font_4_72" transform="matrix(11.95544,0,0,-11.95544,77.40995,19.722138)"/>
<use data-text="S" xlink:href="#font_4_97" transform="matrix(11.95544,0,0,-11.95544,84.54734,19.722138)"/>
<use data-text="a" xlink:href="#font_4_28" transform="matrix(11.95544,0,0,-11.95544,91.05111,19.722138)"/>
<use data-text="l" xlink:href="#font_4_72" transform="matrix(11.95544,0,0,-11.95544,96.90926,19.722138)"/>
<use data-text="a" xlink:href="#font_4_28" transform="matrix(11.95544,0,0,-11.95544,100.161159,19.722138)"/>
<use data-text="r" xlink:href="#font_4_96" transform="matrix(11.95544,0,0,-11.95544,106.01931,19.722138)"/>
<use data-text="y" xlink:href="#font_4_118" transform="matrix(11.95544,0,0,-11.95544,110.57433,19.722138)"/>
<use data-text="(" xlink:href="#font_4_85" transform="matrix(11.95544,0,0,-11.95544,120.65278,19.722138)"/>
<use data-text="$" xlink:href="#font_4_48" transform="matrix(11.95544,0,0,-11.95544,125.21975,19.722138)"/>
<use data-text=")" xlink:href="#font_4_86" transform="matrix(11.95544,0,0,-11.95544,131.07791,19.722138)"/>
</svg>
