<svg xmlns="http://www.w3.org/2000/svg" xmlns:xlink="http://www.w3.org/1999/xlink" xmlns:inkscape="http://www.inkscape.org/namespaces/inkscape" version="1.1" width="214" height="179" viewBox="0 0 214 179">
<defs>
<path id="font_1_3" d="M.43998719 .16790772H.41799928C.4149933 .15092469 .40699769 .09597778 .39698792 .07998657 .3899994 .070999149 .33299256 .070999149 .30299378 .070999149H.117996219C.14498902 .09397888 .20599365 .15792847 .23199463 .18190003 .38398744 .3217926 .43998719 .37374879 .43998719 .47270204 .43998719 .5878906 .34899903 .66503909 .23298645 .66503909 .116989139 .66503909 .04899597 .5658264 .04899597 .4797058 .04899597 .42871095 .09298706 .42871095 .09599304 .42871095 .116989139 .42871095 .14299011 .44371034 .14299011 .475708 .14299011 .5037079 .12399292 .5227051 .09599304 .5227051 .08699036 .5227051 .084991458 .5227051 .08198547 .521698 .100997928 .5899048 .15499878 .6360321 .21998596 .6360321 .30499269 .6360321 .35699464 .56481936 .35699464 .47270204 .35699464 .3877411 .30799867 .313797 .25099183 .24984741L.04899597 .023986817V0H.4139862L.43998719 .16790772Z"/>
<path id="font_1_5" d="M.36099244 .6508026C.36099244 .6697998 .36099244 .6748047 .34700013 .6748047 .33898927 .6748047 .33599855 .6748047 .32798768 .662796L.026992798 .19598389V.16699219H.2899933V.07598877C.2899933 .038986207 .28799439 .0289917 .21499634 .0289917H.19499207V0C.21798706 .0019989014 .29699708 .0019989014 .32499696 .0019989014 .35299684 .0019989014 .43299867 .0019989014 .45599366 0V.0289917H.43598939C.3639984 .0289917 .36099244 .038986207 .36099244 .07598877V.16699219H.46199037V.19598389H.36099244V.6508026M.29499818 .5728302V.19598389H.051986696L.29499818 .5728302Z"/>
<path id="font_1_7" d="M.12298584 .34773255C.12298584 .60061648 .24598694 .641037 .2999878 .641037 .33599855 .641037 .37199403 .62991335 .3909912 .5996094 .3789978 .5996094 .34098817 .5996094 .34098817 .558609 .34098817 .53660586 .35598756 .51760867 .38198854 .51760867 .40699769 .51760867 .42399598 .53260806 .42399598 .56159976 .42399598 .6137543 .38598634 .66503909 .29899598 .66503909 .17298889 .66503909 .040985109 .53559878 .040985109 .31570436 .040985109 .040527345 .16099549-.021484375 .24598694-.021484375 .35499574-.021484375 .44799806 .07354736 .44799806 .2036438 .44799806 .33673097 .35499574 .42578126 .25498963 .42578126 .1659851 .42578126 .1329956 .34873963 .12298584 .32070924V.34773255M.24598694 .005508423C.18299866 .005508423 .15299988 .061538698 .14399719 .08256531 .1349945 .10858154 .125 .15760803 .125 .22766114 .125 .30670167 .16099549 .40577699 .25099183 .40577699 .30599977 .40577699 .33499146 .3687439 .34999085 .33473207 .3659973 .29769898 .3659973 .2476654 .3659973 .20463562 .3659973 .15361023 .3659973 .10858154 .34700013 .07055664 .32199098 .022521973 .28599549 .005508423 .24598694 .005508423Z"/>
<path id="font_1_8" d="M.2979889 .36079408C.34799195 .38781739 .42099 .43385316 .42099 .5179291 .42099 .6049957 .33699037 .66503909 .24499512 .66503909 .1459961 .66503909 .067993167 .59199526 .067993167 .5009155 .067993167 .46688844 .07798767 .43286134 .10598755 .39883424 .116989139 .38581849 .117996219 .38482667 .18798828 .3357849 .09098816 .29074098 .040985109 .22369385 .040985109 .15063477 .040985109 .044540407 .14199829-.021484375 .24398804-.021484375 .35499574-.021484375 .44799806 .060546876 .44799806 .16563416 .44799806 .2677307 .37599183 .3127594 .2979889 .36079408M.1619873 .4508667C.14898682 .45988465 .10899353 .48590089 .10899353 .5349426 .10899353 .59999087 .1769867 .641037 .24398804 .641037 .31599427 .641037 .37998963 .58898928 .37998963 .516922 .37998963 .45587159 .33599855 .4068451 .27799989 .3748169L.1619873 .4508667M.20899964 .32176209 .32998658 .2427063C.35598756 .22569275 .4019928 .19465637 .4019928 .13360596 .4019928 .057556154 .32499696 .005508423 .24499512 .005508423 .1599884 .005508423 .08699036 .06756592 .08699036 .15063477 .08699036 .22869873 .14399719 .29174806 .20899964 .32176209Z"/>
<path id="font_1_2" d="M.28799439 .64105227C.28799439 .664032 .28799439 .66503909 .2679901 .66503909 .24398804 .6380615 .19400025 .6012573 .09098816 .6012573V.5722656C.11399841 .5722656 .1639862 .5722656 .21899414 .59825137V.07701111C.21899414 .041000368 .21598816 .0289917 .12799073 .0289917H.09700012V0C.12399292 .0019989014 .22099304 .0019989014 .2539978 .0019989014 .2869873 .0019989014 .3829956 .0019989014 .4099884 0V.0289917H.3789978C.29100038 .0289917 .28799439 .041000368 .28799439 .07701111V.64105227Z"/>
<path id="font_1_1" d="M.44799806 .31976319C.44799806 .40283204 .44299317 .48390199 .40699769 .55996707 .3659973 .64302065 .2939911 .66503909 .24499512 .66503909 .18699646 .66503909 .115997318 .63601687 .07899475 .552948 .050994874 .48989869 .040985109 .42785646 .040985109 .31976319 .040985109 .22268677 .04798889 .14962769 .083999637 .078567508 .12298584 .0025177003 .19198609-.021484375 .24398804-.021484375 .33099366-.021484375 .3809967 .030532837 .4099884 .08857727 .44599916 .16363526 .44799806 .26171876 .44799806 .31976319M.24398804-.0014953613C.21199036-.0014953613 .14698792 .016525269 .12799073 .12561035 .116989139 .18565369 .116989139 .26171876 .116989139 .33177186 .116989139 .41384889 .116989139 .48789979 .1329956 .5469513 .1499939 .6139984 .20098877 .6450348 .24398804 .6450348 .28199769 .6450348 .33999635 .6220093 .35899354 .53593447 .37199403 .4788971 .37199403 .39982606 .37199403 .33177186 .37199403 .26472474 .37199403 .18865967 .36099244 .12760926 .34199525 .01751709 .2789917-.0014953613 .24398804-.0014953613Z"/>
<path id="font_1_4" d="M.18399048 .35888673C.16699219 .35787965 .16299439 .35688783 .16299439 .34788514 .16299439 .33789063 .16799927 .33789063 .18598938 .33789063H.23199463C.31698609 .33789063 .35499574 .267807 .35499574 .17172241 .35499574 .04058838 .2869873 .005508423 .23799134 .005508423 .18998719 .005508423 .10798645 .028564454 .07899475 .09472656 .11099243 .08970642 .13999939 .10771179 .13999939 .14372254 .13999939 .17271424 .11898804 .1927185 .09098816 .1927185 .066986087 .1927185 .040985109 .1787262 .040985109 .14071656 .040985109 .051620485 .12998963-.021484375 .24099732-.021484375 .3600006-.021484375 .44799806 .06965637 .44799806 .17071533 .44799806 .26280213 .37399293 .33488465 .27799989 .35188294 .36499024 .3769226 .42099 .45011903 .42099 .5282135 .42099 .6071167 .33898927 .66503909 .24198914 .66503909 .14199829 .66503909 .067993167 .604126 .067993167 .5312042 .067993167 .49121095 .09899902 .48321534 .11399841 .48321534 .1349945 .48321534 .15899658 .49821473 .15899658 .5282135 .15899658 .5602112 .1349945 .57421877 .11299133 .57421877 .10699463 .57421877 .10499573 .57421877 .101989749 .57321169 .13999939 .641037 .23399353 .641037 .23899842 .641037 .27198792 .641037 .33699037 .6260681 .33699037 .5282135 .33699037 .5092163 .33399964 .453125 .30499269 .41001893 .2749939 .3658905 .24099732 .36288453 .21398926 .36187745L.18399048 .35888673Z"/>
<path id="font_1_6" d="M.12799073 .5727997C.17098999 .5588074 .20599365 .5578003 .21699524 .5578003 .32998658 .5578003 .4019928 .6409912 .4019928 .6550598 .4019928 .6590576 .3999939 .6640625 .3939972 .6640625 .3919983 .6640625 .3899994 .6640625 .3809967 .66004946 .32499696 .6358795 .2769928 .6328125 .25099183 .6328125 .18499756 .6328125 .13798523 .6530609 .11898804 .6610565 .11199951 .6640625 .10998535 .6640625 .10899353 .6640625 .100997928 .6640625 .100997928 .65805056 .100997928 .64201357V.34495545C.100997928 .32695008 .100997928 .32095338 .11299133 .32095338 .117996219 .32095338 .11898804 .32196046 .1289978 .33395387 .15699768 .37493897 .20399475 .39894105 .2539978 .39894105 .30699159 .39894105 .33299256 .34994508 .34098817 .33294679 .35798646 .29396058 .35899354 .2449646 .35899354 .20697022 .35899354 .16897583 .35899354 .11193848 .33099366 .0667572 .30899049 .03060913 .269989 .005508423 .22599793 .005508423 .1599884 .005508423 .09498596 .050689699 .07699585 .12397766 .08198547 .12197876 .08799744 .12097168 .09298706 .12097168 .10998535 .12097168 .13699341 .13098145 .13699341 .16497803 .13699341 .1929779 .117996219 .20898438 .09298706 .20898438 .07499695 .20898438 .04899597 .19998169 .04899597 .16098023 .04899597 .075790408 .116989139-.021484375 .22799683-.021484375 .34098817-.021484375 .43998719 .073791507 .43998719 .20097351 .43998719 .3199463 .3600006 .4189453 .25498963 .4189453 .19799805 .4189453 .1539917 .39393617 .12799073 .36595155V.5727997Z"/>
<clipPath id="clip_2">
<path transform="matrix(1.00003,0,0,-1.00005,17.971222,163.19635)" d="M0 0H194.27216V161.39104H0Z"/>
</clipPath>
<path id="font_3_113" d="M.98799136 .6536102V.6826172C.94499209 .680603 .94299319 .680603 .8989868 .680603 .8730011 .680603 .81900027 .680603 .79499819 .6826172V.6536102C.85598757 .65260317 .8739929 .62042239 .8739929 .6003723 .8739929 .59536746 .87098696 .5873718 .86898806 .58036807L.71699526 .10647583 .5549927 .609375C.55400088 .612381 .5519867 .62042239 .5519867 .6234436 .5519867 .6536102 .6049957 .6536102 .6289978 .6536102V.6826172C.6049957 .680603 .5309906 .680603 .5019989 .680603 .47299195 .680603 .4119873 .680603 .38598634 .6826172V.6536102C.43899537 .6536102 .45298768 .650589 .46398927 .63249209 .47099305 .6194153 .47799684 .58836367 .4909973 .55236819L.34799195 .10647583 .18798828 .6043701C.18299866 .61842349 .18299866 .62042239 .18299866 .6234436 .18299866 .6536102 .23399353 .6536102 .2599945 .6536102V.6826172C.23699951 .680603 .16099549 .680603 .1329956 .680603 .10398865 .680603 .042999269 .680603 .016998291 .6826172V.6536102C.070999149 .6536102 .08999634 .6536102 .101989749 .6154022L.2999878-.0025024415C.30499269-.017486573 .30899049-.021484375 .31799317-.021484375 .32598878-.021484375 .33099366-.018493653 .33599855-.0034942628L.5019989 .51538088 .6689911-.0034942628C.673996-.018493653 .67900088-.021484375 .68699648-.021484375 .69599917-.021484375 .69999697-.017486573 .7049866-.0025024415L.8929901 .58436587C.9089966 .63249209 .9379883 .65260317 .98799136 .6536102Z"/>
<path id="font_3_50" d="M.40699769 .11932373C.40699769 .1253357 .4019928 .1293335 .3959961 .1293335 .3880005 .1293335 .38598634 .12432861 .38398744 .11932373 .35798646 .035247804 .29100038 .01222229 .24899292 .01222229 .20698548 .01222229 .10598755 .040252687 .10598755 .21340943V.23242188H.3829956C.40499879 .23242188 .40699769 .23242188 .40699769 .25141908 .40699769 .3523407 .35299684 .44628907 .23199463 .44628907 .117996219 .44628907 .02999878 .34335328 .02999878 .21940613 .02999878 .08729553 .13198853-.009765625 .24299622-.009765625 .3619995-.009765625 .40699769 .09829712 .40699769 .11932373M.34498597 .25141908H.10699463C.114990238 .40830995 .20298767 .42630006 .23098755 .42630006 .33799745 .42630006 .34399415 .28538514 .34498597 .25141908Z"/>
<path id="font_3_70" d="M.5 0V.0289917C.47299195 .0289917 .44198609 .0289917 .4139862 .06991577L.27999879 .26464845 .272995 .27464295C.272995 .27764894 .33599855 .33164979 .34399415 .3396454 .41299439 .3996582 .45700074 .40065003 .47799684 .4016571V.43066407C.45799256 .4286499 .43199159 .4286499 .4019928 .4286499 .37599183 .4286499 .32499696 .4286499 .3019867 .43066407V.4016571C.31900025 .40065003 .33099366 .39164735 .33099366 .37565614 .33099366 .35565187 .30999757 .33764649 .30999757 .33764649L.16699219 .21168518V.69433596L.027999878 .6826172V.6536102C.09599304 .6536102 .10398865 .64660647 .10398865 .5976105V.073913577C.10398865 .0289917 .09298706 .0289917 .027999878 .0289917V0C.055999757 .0019989014 .10398865 .0019989014 .13398743 .0019989014 .1639862 .0019989014 .21199036 .0019989014 .23999024 0V.0289917C.17599488 .0289917 .1639862 .0289917 .1639862 .073913577V.17973328L.22799683 .23564148 .32398988 .09786987C.33898927 .0769043 .34599305 .06593323 .34599305 .051956178 .34599305 .033981325 .33198548 .0289917 .31098939 .0289917V0C.33599855 .0019989014 .3849945 .0019989014 .4119873 .0019989014 .45498658 .0019989014 .45700074 .0019989014 .5 0Z"/>
<path id="font_3_48" d="M.43499757 .19412232C.43499757 .23712158 .4229889 .28912355 .37998963 .33711244 .34298707 .3781128 .29899598 .38911439 .25898744 .39912416V.67510989C.33198548 .67111209 .3929901 .6351166 .4079895 .5651245 .39898683 .5671234 .39698792 .5671234 .3939972 .5671234 .375 .5671234 .35198976 .5541229 .35198976 .52511599 .35198976 .5001221 .36999513 .4841156 .3929901 .4841156 .41299439 .4841156 .43499757 .4941101 .43499757 .53012087 .43499757 .6171112 .37799073 .6981201 .25898744 .7041168V.7501221H.22999573V.703125C.125 .69511416 .053985597 .6091156 .053985597 .51512148 .053985597 .46011354 .07699585 .41311646 .11099243 .37911988 .14698792 .3441162 .17799378 .3361206 .22999573 .32312013V.019119263C.19099427 .022109986 .099990848 .038116456 .07998657 .14411927 .08299255 .14311219 .08999634 .14111328 .09599304 .14111328 .11299133 .14111328 .13699341 .15312195 .13699341 .18312073 .13699341 .2071228 .11999512 .2241211 .09599304 .2241211 .07598877 .2241211 .053985597 .21411133 .053985597 .17811585 .053985597 .08711243 .10798645-.001876831 .22999573-.009887695V-.055877687H.25898744V-.008880615C.3659973 .0011138916 .43499757 .09310913 .43499757 .19412232M.22999573 .40711976C.100997928 .43312074 .100997928 .52812197 .100997928 .54112246 .100997928 .60112 .14698792 .66511538 .22999573 .67411807V.40711976M.3880005 .16711426C.3880005 .09611511 .33799745 .02911377 .25898744 .020111084V.31510926C.3829956 .29011537 .3880005 .18711853 .3880005 .16711426Z"/>
</defs>
<path transform="matrix(1.00003,0,0,-1.00005,17.971222,163.19635)" stroke-width=".3985" stroke-linecap="butt" stroke-miterlimit="10" stroke-linejoin="miter" fill="none" stroke="#bfbfbf" d="M32.3787 0V161.39104M58.28165 0V161.39104M84.1846 0V161.39104M110.08755 0V161.39104M135.99051 0V161.39104M161.89347 0V161.39104M187.79642 0V161.39104"/>
<path transform="matrix(1.00003,0,0,-1.00005,17.971222,163.19635)" stroke-width=".3985" stroke-linecap="butt" stroke-miterlimit="10" stroke-linejoin="miter" fill="none" stroke="#bfbfbf" d="M0 24.82938H194.27216M0 49.65877H194.27216M0 74.48816H194.27216M0 99.31755H194.27216M0 124.14694H194.27216M0 148.97634H194.27216"/>
<path transform="matrix(1.00003,0,0,-1.00005,17.971222,163.19635)" stroke-width=".19925" stroke-linecap="butt" stroke-miterlimit="10" stroke-linejoin="miter" fill="none" stroke="#7f807f" d="M32.3787-2.12592V2.12592M58.28165-2.12592V2.12592M84.1846-2.12592V2.12592M110.08755-2.12592V2.12592M135.99051-2.12592V2.12592M161.89347-2.12592V2.12592M187.79642-2.12592V2.12592"/>
<path transform="matrix(1.00003,0,0,-1.00005,17.971222,163.19635)" stroke-width=".19925" stroke-linecap="butt" stroke-miterlimit="10" stroke-linejoin="miter" fill="none" stroke="#7f807f" d="M4.34943 24.82938H8.60202M4.34943 49.65877H8.60202M4.34943 74.48816H8.60202M4.34943 99.31755H8.60202M4.34943 124.14694H8.60202M4.34943 148.97634H8.60202"/>
<path transform="matrix(1.00003,0,0,-1.00005,17.971222,163.19635)" stroke-width=".3985" stroke-linecap="butt" stroke-miterlimit="10" stroke-linejoin="miter" fill="none" stroke="#000000" d="M0 0H192.27964"/>
<path transform="matrix(1.00003,0,0,-1.00005,210.25664,163.19635)" d="M1.99252 0-1.19551 1.59401 0 0-1.19551-1.59401"/>
<path transform="matrix(1.00003,0,0,-1.00005,17.971222,163.19635)" stroke-width=".3985" stroke-linecap="butt" stroke-miterlimit="10" stroke-linejoin="miter" fill="none" stroke="#000000" d="M6.47574 0V159.39852"/>
<path transform="matrix(0,-1.00005,-1.00003,-0,24.447157,3.7898713)" d="M1.99252 0-1.19551 1.59401 0 0-1.19551-1.59401"/>
<use data-text="2" xlink:href="#font_1_3" transform="matrix(11.95556,0,0,-11.955797,47.424108,177.21106)"/>
<use data-text="4" xlink:href="#font_1_5" transform="matrix(11.95556,0,0,-11.955797,73.32788,177.21106)"/>
<use data-text="6" xlink:href="#font_1_7" transform="matrix(11.95556,0,0,-11.955797,99.23167,177.21106)"/>
<use data-text="8" xlink:href="#font_1_8" transform="matrix(11.95556,0,0,-11.955797,125.135448,177.21106)"/>
<use data-text="1" xlink:href="#font_1_2" transform="matrix(11.95556,0,0,-11.955797,148.11212,177.21106)"/>
<use data-text="0" xlink:href="#font_1_1" transform="matrix(11.95556,0,0,-11.955797,153.95839,177.21106)"/>
<use data-text="1" xlink:href="#font_1_2" transform="matrix(11.95556,0,0,-11.955797,174.0159,177.21106)"/>
<use data-text="2" xlink:href="#font_1_3" transform="matrix(11.95556,0,0,-11.955797,179.86217,177.21106)"/>
<use data-text="1" xlink:href="#font_1_2" transform="matrix(11.95556,0,0,-11.955797,199.91968,177.21106)"/>
<use data-text="4" xlink:href="#font_1_5" transform="matrix(11.95556,0,0,-11.955797,205.76595,177.21106)"/>
<use data-text="1" xlink:href="#font_1_2" transform="matrix(11.95556,0,0,-11.955797,.5766983,142.2183)"/>
<use data-text="0" xlink:href="#font_1_1" transform="matrix(11.95556,0,0,-11.955797,6.422966,142.2183)"/>
<use data-text="0" xlink:href="#font_1_1" transform="matrix(11.95556,0,0,-11.955797,12.269234,142.2183)"/>
<use data-text="1" xlink:href="#font_1_2" transform="matrix(11.95556,0,0,-11.955797,.5766983,117.38706)"/>
<use data-text="1" xlink:href="#font_1_2" transform="matrix(11.95556,0,0,-11.955797,6.422966,117.38706)"/>
<use data-text="0" xlink:href="#font_1_1" transform="matrix(11.95556,0,0,-11.955797,12.269234,117.38706)"/>
<use data-text="1" xlink:href="#font_1_2" transform="matrix(11.95556,0,0,-11.955797,.5766983,92.55682)"/>
<use data-text="2" xlink:href="#font_1_3" transform="matrix(11.95556,0,0,-11.955797,6.422966,92.55682)"/>
<use data-text="0" xlink:href="#font_1_1" transform="matrix(11.95556,0,0,-11.955797,12.269234,92.55682)"/>
<use data-text="1" xlink:href="#font_1_2" transform="matrix(11.95556,0,0,-11.955797,.5766983,67.726589)"/>
<use data-text="3" xlink:href="#font_1_4" transform="matrix(11.95556,0,0,-11.955797,6.422966,67.726589)"/>
<use data-text="0" xlink:href="#font_1_1" transform="matrix(11.95556,0,0,-11.955797,12.269234,67.726589)"/>
<use data-text="1" xlink:href="#font_1_2" transform="matrix(11.95556,0,0,-11.955797,.5766983,42.89534)"/>
<use data-text="4" xlink:href="#font_1_5" transform="matrix(11.95556,0,0,-11.955797,6.422966,42.89534)"/>
<use data-text="0" xlink:href="#font_1_1" transform="matrix(11.95556,0,0,-11.955797,12.269234,42.89534)"/>
<use data-text="1" xlink:href="#font_1_2" transform="matrix(11.95556,0,0,-11.955797,.5766983,18.06511)"/>
<use data-text="5" xlink:href="#font_1_6" transform="matrix(11.95556,0,0,-11.955797,6.422966,18.06511)"/>
<use data-text="0" xlink:href="#font_1_1" transform="matrix(11.95556,0,0,-11.955797,12.269234,18.06511)"/>
<path transform="matrix(1.00003,0,0,-1.00005,17.971222,163.19635)" stroke-width=".3985" stroke-linecap="butt" stroke-miterlimit="10" stroke-linejoin="miter" fill="none" stroke="#bfbfbf" d="M19.42722 0V161.39104M45.33017 0V161.39104M71.23312 0V161.39104M97.13608 0V161.39104M123.03903 0V161.39104M148.94199 0V161.39104M174.84494 0V161.39104"/>
<path transform="matrix(1.00003,0,0,-1.00005,17.971222,163.19635)" stroke-width=".19925" stroke-linecap="butt" stroke-miterlimit="10" stroke-linejoin="miter" fill="none" stroke="#7f807f" d="M19.42722-2.12592V2.12592M45.33017-2.12592V2.12592M71.23312-2.12592V2.12592M97.13608-2.12592V2.12592M123.03903-2.12592V2.12592M148.94199-2.12592V2.12592M174.84494-2.12592V2.12592"/>
<path transform="matrix(1.00003,0,0,-1.00005,17.971222,163.19635)" stroke-width=".3985" stroke-linecap="butt" stroke-miterlimit="10" stroke-linejoin="miter" fill="none" stroke="#bfbfbf" d="M0 12.41469H194.27216M0 37.24408H194.27216M0 62.07347H194.27216M0 86.90286H194.27216M0 111.73225H194.27216M0 136.56165H194.27216"/>
<path transform="matrix(1.00003,0,0,-1.00005,17.971222,163.19635)" stroke-width=".19925" stroke-linecap="butt" stroke-miterlimit="10" stroke-linejoin="miter" fill="none" stroke="#7f807f" d="M4.34943 12.41469H8.60202M4.34943 37.24408H8.60202M4.34943 62.07347H8.60202M4.34943 86.90286H8.60202M4.34943 111.73225H8.60202M4.34943 136.56165H8.60202"/>
<g clip-path="url(#clip_2)">
</g>
<use data-text="W" xlink:href="#font_3_113" transform="matrix(11.95556,0,0,-11.955797,180.46411,158.76113)"/>
<use data-text="e" xlink:href="#font_3_50" transform="matrix(11.95556,0,0,-11.955797,191.52301,158.76113)"/>
<use data-text="e" xlink:href="#font_3_50" transform="matrix(11.95556,0,0,-11.955797,196.72368,158.76113)"/>
<use data-text="k" xlink:href="#font_3_70" transform="matrix(11.95556,0,0,-11.955797,201.92435,158.76113)"/>
<use data-text="$" xlink:href="#font_3_48" transform="matrix(11.95556,0,0,-11.955797,28.632546,14.922943)"/>
</svg>
