<svg xmlns="http://www.w3.org/2000/svg" xmlns:xlink="http://www.w3.org/1999/xlink" xmlns:inkscape="http://www.inkscape.org/namespaces/inkscape" version="1.1" width="300" height="30" viewBox="0 0 300 30">
<defs>
<path id="font_1_121" d="M.44799806 .31976319C.44799806 .40283204 .44299317 .48388673 .40699769 .5599518 .3659973 .64302065 .2939911 .66503909 .24499512 .66503909 .18699646 .66503909 .115997318 .6360016 .07899475 .552948 .050994874 .48989869 .040985109 .42785646 .040985109 .31976319 .040985109 .22268677 .04798889 .14964295 .083999637 .07858276 .12298584 .002532959 .19198609-.021484375 .24398804-.021484375 .33099366-.021484375 .3809967 .030548096 .4099884 .08859253 .44599916 .16365052 .44799806 .26171876 .44799806 .31976319M.37199403 .33177186C.37199403 .26472474 .37199403 .18867493 .36099244 .12762451 .34199525 .017532349 .2789917-.0014801025 .24398804-.0014801025 .21199036-.0014801025 .14698792 .016540528 .12799073 .12562561 .116989139 .18566895 .116989139 .26171876 .116989139 .33177186 .116989139 .41383363 .116989139 .48789979 .1329956 .54693606 .1499939 .6139984 .20098877 .64501956 .24398804 .64501956 .28199769 .64501956 .33999635 .621994 .35899354 .53593447 .37199403 .47888185 .37199403 .39982606 .37199403 .33177186Z"/>
<path id="font_1_56" d="M.43998719 .2004242C.43998719 .3194275 .3600006 .4184265 .25498963 .4184265 .19799805 .4184265 .1539917 .39343263 .12799073 .36543275V.5722656C.17098999 .558609 .20599365 .5576172 .21699524 .5576172 .32998658 .5576172 .4019928 .6404724 .4019928 .65423586 .4019928 .65815737 .3999939 .66308596 .3939972 .66308596 .3939972 .6638031 .3899994 .6638031 .3809967 .6598053 .32499696 .6358032 .2769928 .6328125 .25099183 .6328125 .18499756 .6322632 .13798523 .6522522 .11898804 .66026309 .11199951 .66308596 .10899353 .66308596 .10899353 .66308596 .100997928 .66308596 .100997928 .65708926 .100997928 .6411133V.34443666C.100997928 .32644654 .100997928 .32044984 .11299133 .32044984 .117996219 .32044984 .11898804 .32144166 .1289978 .33345033 .15699768 .37443543 .20399475 .3984375 .2539978 .3984375 .30699159 .3984375 .33299256 .34944154 .34098817 .33244325 .35798646 .29345704 .35899354 .24446106 .35899354 .20648194 .35899354 .16848755 .35899354 .11149597 .33099366 .06651306 .30899049 .030426026 .269989 .005508423 .22599793 .005508423 .1599884 .005508423 .09498596 .050354005 .07699585 .12310791 .08198547 .12110901 .08799744 .12011719 .09298706 .12011719 .10998535 .12011719 .13699341 .1301117 .13699341 .16410828 .13699341 .19210816 .117996219 .20811463 .09298706 .20811463 .07499695 .20811463 .04899597 .19911194 .04899597 .16011048 .04899597 .07527161 .116989139-.021484375 .22799683-.021484375 .34098817-.021484375 .43998719 .073272708 .43998719 .20010376V.2004242Z"/>
<path id="font_1_82" d="M.4099884 0V.0289917H.3789978C.29100038 .0289917 .28799439 .041000368 .28799439 .07701111V.6411133C.28799439 .664032 .28799439 .66503909 .2679901 .66503909 .24398804 .63812258 .19400025 .6012573 .09098816 .6012573V.5722656C.11399841 .5722656 .1639862 .5722656 .21899414 .59825137V.07701111C.21899414 .041000368 .21598816 .0289917 .12799073 .0289917H.09700012V0C.12399292 .0019989014 .22099304 .0019989014 .2539978 .0019989014 .2869873 .0019989014 .3829956 .0019989014 .4099884 0Z"/>
<path id="font_1_107" d="M.43998719 .16799927H.41799928C.4149933 .15098572 .40699769 .09599304 .39698792 .07998657 .3899994 .070999149 .33299256 .070999149 .30299378 .070999149H.117996219C.14498902 .09399414 .20599365 .1579895 .23199463 .18199158 .38398744 .3217926 .43998719 .37374879 .43998719 .47270204 .43998719 .5878906 .34899903 .66503909 .23298645 .66503909 .116989139 .66503909 .04899597 .5658264 .04899597 .4797058 .04899597 .42871095 .09298706 .42871095 .09599304 .42871095 .116989139 .42871095 .14299011 .44371034 .14299011 .475708 .14299011 .5037079 .12399292 .5227051 .09599304 .5227051 .08699036 .5227051 .084991458 .5227051 .08198547 .521698 .100997928 .5899048 .15499878 .6360321 .21998596 .6360321 .30499269 .6360321 .35699464 .56481936 .35699464 .47270204 .35699464 .3877411 .30799867 .313797 .25099183 .24984741L.04899597 .023986817V0H.4139862L.43998719 .16799927Z"/>
<path id="font_1_106" d="M.44799806 .17103577C.44799806 .263031 .37399293 .33503724 .27799989 .35203553 .36499024 .37702943 .42099 .45002748 .42099 .5280304 .42099 .60702517 .33898927 .66503909 .24198914 .66503909 .14199829 .66503909 .067993167 .6040344 .067993167 .5310364 .067993167 .49121095 .09899902 .48321534 .11399841 .48321534 .1349945 .48321534 .15899658 .49821473 .15899658 .5282135 .15899658 .5602112 .1349945 .57421877 .11299133 .57421877 .10699463 .57421877 .10499573 .57421877 .101989749 .57321169 .13999939 .641037 .23399353 .641037 .23899842 .641037 .27198792 .641037 .33699037 .6260681 .33699037 .5282135 .33699037 .5092163 .33399964 .453125 .30499269 .41001893 .2749939 .3658905 .24099732 .36288453 .21398926 .36187745L.18399048 .35888673C.16699219 .35787965 .16299439 .35688783 .16299439 .34788514 .16299439 .33789063 .16799927 .33789063 .18598938 .33789063H.23199463C.31698609 .33789063 .35499574 .267807 .35499574 .17172241 .35499574 .04058838 .2869873 .005508423 .23799134 .005508423 .18998719 .005508423 .10798645 .028564454 .07899475 .09472656 .11099243 .08955383 .13999939 .107543949 .13999939 .14355469 .13999939 .17271424 .11898804 .1927185 .09098816 .1927185 .066986087 .1927185 .040985109 .1787262 .040985109 .14071656 .040985109 .051620485 .12998963-.021484375 .24099732-.021484375 .3600006-.021453858 .44799806 .06954956 .44799806 .17054749V.17103577Z"/>
<path id="font_1_57" d="M.46199037 .16699219V.19598389H.36099244V.6508026C.36099244 .6697998 .36099244 .6748047 .34700013 .6748047 .33898927 .6748047 .33599855 .6748047 .32798768 .6628113L.026992798 .19598389V.16699219H.2899933V.07598877C.2899933 .038986207 .28799439 .0289917 .21499634 .0289917H.19499207V0C.21798706 .0019989014 .29699708 .0019989014 .32499696 .0019989014 .35299684 .0019989014 .43299867 .0019989014 .45599366 0V.0289917H.43598939C.3639984 .0289917 .36099244 .038986207 .36099244 .07598877V.16699219H.46199037M.29499818 .19598389H.051986696L.29499818 .57284548V.19598389Z"/>
</defs>
<path transform="matrix(1.00006,0,0,-1,15.364037,8.284)" stroke-width="1.19553" stroke-linecap="butt" stroke-miterlimit="10" stroke-linejoin="miter" fill="none" stroke="#000000" d="M-14.17339 0H283.4681"/>
<path transform="matrix(1.00006,0,0,-1,15.364037,8.284)" stroke-width="1.19553" stroke-linecap="butt" stroke-miterlimit="10" stroke-linejoin="miter" fill="none" stroke="#000000" d="M0 7.08669V-7.08669"/>
<use data-text="0" xlink:href="#font_1_121" transform="matrix(11.955917,0,0,-11.9552,12.43486,27.903)"/>
<path transform="matrix(1.00006,0,0,-1,15.364037,8.284)" stroke-width="1.19553" stroke-linecap="butt" stroke-miterlimit="10" stroke-linejoin="miter" fill="none" stroke="#000000" d="M14.17339 7.08669V-7.08669"/>
<path transform="matrix(1.00006,0,0,-1,15.364037,8.284)" stroke-width="1.19553" stroke-linecap="butt" stroke-miterlimit="10" stroke-linejoin="miter" fill="none" stroke="#000000" d="M28.3468 7.08669V-7.08669"/>
<use data-text="5" xlink:href="#font_1_56" transform="matrix(11.955917,0,0,-11.9552,34.92521,27.903)"/>
<use data-text="0" xlink:href="#font_1_121" transform="matrix(11.955917,0,0,-11.9552,40.783609,27.903)"/>
<use data-text="0" xlink:href="#font_1_121" transform="matrix(11.955917,0,0,-11.9552,46.642015,27.903)"/>
<path transform="matrix(1.00006,0,0,-1,15.364037,8.284)" stroke-width="1.19553" stroke-linecap="butt" stroke-miterlimit="10" stroke-linejoin="miter" fill="none" stroke="#000000" d="M42.5202 7.08669V-7.08669"/>
<path transform="matrix(1.00006,0,0,-1,15.364037,8.284)" stroke-width="1.19553" stroke-linecap="butt" stroke-miterlimit="10" stroke-linejoin="miter" fill="none" stroke="#000000" d="M56.69362 7.08669V-7.08669"/>
<use data-text="1" xlink:href="#font_1_82" transform="matrix(11.955917,0,0,-11.9552,60.343736,27.903)"/>
<use data-text="0" xlink:href="#font_1_121" transform="matrix(11.955917,0,0,-11.9552,66.20213,27.903)"/>
<use data-text="0" xlink:href="#font_1_121" transform="matrix(11.955917,0,0,-11.9552,72.06054,27.903)"/>
<use data-text="0" xlink:href="#font_1_121" transform="matrix(11.955917,0,0,-11.9552,77.91894,27.903)"/>
<path transform="matrix(1.00006,0,0,-1,15.364037,8.284)" stroke-width="1.19553" stroke-linecap="butt" stroke-miterlimit="10" stroke-linejoin="miter" fill="none" stroke="#000000" d="M70.867 7.08669V-7.08669"/>
<path transform="matrix(1.00006,0,0,-1,15.364037,8.284)" stroke-width="1.19553" stroke-linecap="butt" stroke-miterlimit="10" stroke-linejoin="miter" fill="none" stroke="#000000" d="M85.04042 7.08669V-7.08669"/>
<use data-text="1" xlink:href="#font_1_82" transform="matrix(11.955917,0,0,-11.9552,88.69243,27.903)"/>
<use data-text="5" xlink:href="#font_1_56" transform="matrix(11.955917,0,0,-11.9552,94.55083,27.903)"/>
<use data-text="0" xlink:href="#font_1_121" transform="matrix(11.955917,0,0,-11.9552,100.40923,27.903)"/>
<use data-text="0" xlink:href="#font_1_121" transform="matrix(11.955917,0,0,-11.9552,106.26763,27.903)"/>
<path transform="matrix(1.00006,0,0,-1,15.364037,8.284)" stroke-width="1.19553" stroke-linecap="butt" stroke-miterlimit="10" stroke-linejoin="miter" fill="none" stroke="#000000" d="M99.21382 7.08669V-7.08669"/>
<path transform="matrix(1.00006,0,0,-1,15.364037,8.284)" stroke-width="1.19553" stroke-linecap="butt" stroke-miterlimit="10" stroke-linejoin="miter" fill="none" stroke="#000000" d="M113.38724 7.08669V-7.08669"/>
<use data-text="2" xlink:href="#font_1_107" transform="matrix(11.955917,0,0,-11.9552,117.04113,27.903)"/>
<use data-text="0" xlink:href="#font_1_121" transform="matrix(11.955917,0,0,-11.9552,122.89953,27.903)"/>
<use data-text="0" xlink:href="#font_1_121" transform="matrix(11.955917,0,0,-11.9552,128.75794,27.903)"/>
<use data-text="0" xlink:href="#font_1_121" transform="matrix(11.955917,0,0,-11.9552,134.61634,27.903)"/>
<path transform="matrix(1.00006,0,0,-1,15.364037,8.284)" stroke-width="1.19553" stroke-linecap="butt" stroke-miterlimit="10" stroke-linejoin="miter" fill="none" stroke="#000000" d="M127.56062 7.08669V-7.08669"/>
<path transform="matrix(1.00006,0,0,-1,15.364037,8.284)" stroke-width="1.19553" stroke-linecap="butt" stroke-miterlimit="10" stroke-linejoin="miter" fill="none" stroke="#000000" d="M141.73404 7.08669V-7.08669"/>
<use data-text="2" xlink:href="#font_1_107" transform="matrix(11.955917,0,0,-11.9552,145.38983,27.903)"/>
<use data-text="5" xlink:href="#font_1_56" transform="matrix(11.955917,0,0,-11.9552,151.24823,27.903)"/>
<use data-text="0" xlink:href="#font_1_121" transform="matrix(11.955917,0,0,-11.9552,157.10665,27.903)"/>
<use data-text="0" xlink:href="#font_1_121" transform="matrix(11.955917,0,0,-11.9552,162.96504,27.903)"/>
<path transform="matrix(1.00006,0,0,-1,15.364037,8.284)" stroke-width="1.19553" stroke-linecap="butt" stroke-miterlimit="10" stroke-linejoin="miter" fill="none" stroke="#000000" d="M155.90744 7.08669V-7.08669"/>
<path transform="matrix(1.00006,0,0,-1,15.364037,8.284)" stroke-width="1.19553" stroke-linecap="butt" stroke-miterlimit="10" stroke-linejoin="miter" fill="none" stroke="#000000" d="M170.08086 7.08669V-7.08669"/>
<use data-text="3" xlink:href="#font_1_106" transform="matrix(11.955917,0,0,-11.9552,173.73853,27.903)"/>
<use data-text="0" xlink:href="#font_1_121" transform="matrix(11.955917,0,0,-11.9552,179.59693,27.903)"/>
<use data-text="0" xlink:href="#font_1_121" transform="matrix(11.955917,0,0,-11.9552,185.45534,27.903)"/>
<use data-text="0" xlink:href="#font_1_121" transform="matrix(11.955917,0,0,-11.9552,191.31374,27.903)"/>
<path transform="matrix(1.00006,0,0,-1,15.364037,8.284)" stroke-width="1.19553" stroke-linecap="butt" stroke-miterlimit="10" stroke-linejoin="miter" fill="none" stroke="#000000" d="M184.25424 7.08669V-7.08669"/>
<path transform="matrix(1.00006,0,0,-1,15.364037,8.284)" stroke-width="1.19553" stroke-linecap="butt" stroke-miterlimit="10" stroke-linejoin="miter" fill="none" stroke="#000000" d="M198.42766 7.08669V-7.08669"/>
<use data-text="3" xlink:href="#font_1_106" transform="matrix(11.955917,0,0,-11.9552,202.08625,27.903)"/>
<use data-text="5" xlink:href="#font_1_56" transform="matrix(11.955917,0,0,-11.9552,207.94464,27.903)"/>
<use data-text="0" xlink:href="#font_1_121" transform="matrix(11.955917,0,0,-11.9552,213.80304,27.903)"/>
<use data-text="0" xlink:href="#font_1_121" transform="matrix(11.955917,0,0,-11.9552,219.66144,27.903)"/>
<path transform="matrix(1.00006,0,0,-1,15.364037,8.284)" stroke-width="1.19553" stroke-linecap="butt" stroke-miterlimit="10" stroke-linejoin="miter" fill="none" stroke="#000000" d="M212.60106 7.08669V-7.08669"/>
<path transform="matrix(1.00006,0,0,-1,15.364037,8.284)" stroke-width="1.19553" stroke-linecap="butt" stroke-miterlimit="10" stroke-linejoin="miter" fill="none" stroke="#000000" d="M226.77448 7.08669V-7.08669"/>
<use data-text="4" xlink:href="#font_1_57" transform="matrix(11.955917,0,0,-11.9552,230.43494,28.022999)"/>
<use data-text="0" xlink:href="#font_1_121" transform="matrix(11.955917,0,0,-11.9552,236.29334,28.022999)"/>
<use data-text="0" xlink:href="#font_1_121" transform="matrix(11.955917,0,0,-11.9552,242.15174,28.022999)"/>
<use data-text="0" xlink:href="#font_1_121" transform="matrix(11.955917,0,0,-11.9552,248.01013,28.022999)"/>
<path transform="matrix(1.00006,0,0,-1,15.364037,8.284)" stroke-width="1.19553" stroke-linecap="butt" stroke-miterlimit="10" stroke-linejoin="miter" fill="none" stroke="#000000" d="M240.94788 7.08669V-7.08669"/>
<path transform="matrix(1.00006,0,0,-1,15.364037,8.284)" stroke-width="1.19553" stroke-linecap="butt" stroke-miterlimit="10" stroke-linejoin="miter" fill="none" stroke="#000000" d="M255.12128 7.08669V-7.08669"/>
<use data-text="4" xlink:href="#font_1_57" transform="matrix(11.955917,0,0,-11.9552,258.78364,28.022999)"/>
<use data-text="5" xlink:href="#font_1_56" transform="matrix(11.955917,0,0,-11.9552,264.64204,28.022999)"/>
<use data-text="0" xlink:href="#font_1_121" transform="matrix(11.955917,0,0,-11.9552,270.50044,28.022999)"/>
<use data-text="0" xlink:href="#font_1_121" transform="matrix(11.955917,0,0,-11.9552,276.35884,28.022999)"/>
<path transform="matrix(1.00006,0,0,-1,15.364037,8.284)" stroke-width="1.19553" stroke-linecap="butt" stroke-miterlimit="10" stroke-linejoin="miter" fill="none" stroke="#000000" d="M269.29469 7.08669V-7.08669"/>
</svg>
