<svg xmlns="http://www.w3.org/2000/svg" xmlns:xlink="http://www.w3.org/1999/xlink" xmlns:inkscape="http://www.inkscape.org/namespaces/inkscape" version="1.1" width="231" height="183" viewBox="0 0 231 183">
<defs>
<path id="font_1_3" d="M.43998719 .16790772H.41799928C.4149933 .15092469 .40699769 .09597778 .39698792 .07998657 .3899994 .070999149 .33299256 .070999149 .30299378 .070999149H.117996219C.14498902 .09397888 .20599365 .15792847 .23199463 .18190003 .38398744 .3217926 .43998719 .37374879 .43998719 .47270204 .43998719 .5878906 .34899903 .66503909 .23298645 .66503909 .116989139 .66503909 .04899597 .5658264 .04899597 .4797058 .04899597 .42871095 .09298706 .42871095 .09599304 .42871095 .116989139 .42871095 .14299011 .44371034 .14299011 .475708 .14299011 .5037079 .12399292 .5227051 .09599304 .5227051 .08699036 .5227051 .084991458 .5227051 .08198547 .521698 .100997928 .5899048 .15499878 .6360321 .21998596 .6360321 .30499269 .6360321 .35699464 .56481936 .35699464 .47270204 .35699464 .3877411 .30799867 .313797 .25099183 .24984741L.04899597 .023986817V0H.4139862L.43998719 .16790772Z"/>
<path id="font_1_1" d="M.44799806 .31976319C.44799806 .40283204 .44299317 .48390199 .40699769 .55996707 .3659973 .64302065 .2939911 .66503909 .24499512 .66503909 .18699646 .66503909 .115997318 .63601687 .07899475 .552948 .050994874 .48989869 .040985109 .42785646 .040985109 .31976319 .040985109 .22268677 .04798889 .14962769 .083999637 .078567508 .12298584 .0025177003 .19198609-.021484375 .24398804-.021484375 .33099366-.021484375 .3809967 .030532837 .4099884 .08857727 .44599916 .16363526 .44799806 .26171876 .44799806 .31976319M.24398804-.0014953613C.21199036-.0014953613 .14698792 .016525269 .12799073 .12561035 .116989139 .18565369 .116989139 .26171876 .116989139 .33177186 .116989139 .41384889 .116989139 .48789979 .1329956 .5469513 .1499939 .6139984 .20098877 .6450348 .24398804 .6450348 .28199769 .6450348 .33999635 .6220093 .35899354 .53593447 .37199403 .4788971 .37199403 .39982606 .37199403 .33177186 .37199403 .26472474 .37199403 .18865967 .36099244 .12760926 .34199525 .01751709 .2789917-.0014953613 .24398804-.0014953613Z"/>
<path id="font_1_2" d="M.28799439 .64105227C.28799439 .664032 .28799439 .66503909 .2679901 .66503909 .24398804 .6380615 .19400025 .6012573 .09098816 .6012573V.5722656C.11399841 .5722656 .1639862 .5722656 .21899414 .59825137V.07701111C.21899414 .041000368 .21598816 .0289917 .12799073 .0289917H.09700012V0C.12399292 .0019989014 .22099304 .0019989014 .2539978 .0019989014 .2869873 .0019989014 .3829956 .0019989014 .4099884 0V.0289917H.3789978C.29100038 .0289917 .28799439 .041000368 .28799439 .07701111V.64105227Z"/>
<path id="font_1_6" d="M.12298584 .34773255C.12298584 .60061648 .24598694 .641037 .2999878 .641037 .33599855 .641037 .37199403 .62991335 .3909912 .5996094 .3789978 .5996094 .34098817 .5996094 .34098817 .558609 .34098817 .53660586 .35598756 .51760867 .38198854 .51760867 .40699769 .51760867 .42399598 .53260806 .42399598 .56159976 .42399598 .6137543 .38598634 .66503909 .29899598 .66503909 .17298889 .66503909 .040985109 .53559878 .040985109 .31570436 .040985109 .040527345 .16099549-.021484375 .24598694-.021484375 .35499574-.021484375 .44799806 .07354736 .44799806 .2036438 .44799806 .33673097 .35499574 .42578126 .25498963 .42578126 .1659851 .42578126 .1329956 .34873963 .12298584 .32070924V.34773255M.24598694 .005508423C.18299866 .005508423 .15299988 .061538698 .14399719 .08256531 .1349945 .10858154 .125 .15760803 .125 .22766114 .125 .30670167 .16099549 .40577699 .25099183 .40577699 .30599977 .40577699 .33499146 .3687439 .34999085 .33473207 .3659973 .29769898 .3659973 .2476654 .3659973 .20463562 .3659973 .15361023 .3659973 .10858154 .34700013 .07055664 .32199098 .022521973 .28599549 .005508423 .24598694 .005508423Z"/>
<path id="font_1_7" d="M.47499085 .62054446V.6435547H.23399353C.11299133 .6435547 .11099243 .6567688 .10699463 .67578127H.084991458L.053985597 .47554017H.07598877C.07899475 .49354554 .08799744 .555542 .100997928 .5665436 .10899353 .5725403 .18399048 .5725403 .19799805 .5725403H.4099884L.3039856 .42053224C.2769928 .38153077 .17599488 .21751404 .17599488 .029510498 .17599488 .018508912 .17599488-.021484375 .21699524-.021484375 .25898744-.021484375 .25898744 .017501831 .25898744 .030517579V.08052063C.25898744 .2295227 .2829895 .34553529 .32998658 .41253663L.47499085 .62054446Z"/>
<path id="font_1_8" d="M.2979889 .36079408C.34799195 .38781739 .42099 .43385316 .42099 .5179291 .42099 .6049957 .33699037 .66503909 .24499512 .66503909 .1459961 .66503909 .067993167 .59199526 .067993167 .5009155 .067993167 .46688844 .07798767 .43286134 .10598755 .39883424 .116989139 .38581849 .117996219 .38482667 .18798828 .3357849 .09098816 .29074098 .040985109 .22369385 .040985109 .15063477 .040985109 .044540407 .14199829-.021484375 .24398804-.021484375 .35499574-.021484375 .44799806 .060546876 .44799806 .16563416 .44799806 .2677307 .37599183 .3127594 .2979889 .36079408M.1619873 .4508667C.14898682 .45988465 .10899353 .48590089 .10899353 .5349426 .10899353 .59999087 .1769867 .641037 .24398804 .641037 .31599427 .641037 .37998963 .58898928 .37998963 .516922 .37998963 .45587159 .33599855 .4068451 .27799989 .3748169L.1619873 .4508667M.20899964 .32176209 .32998658 .2427063C.35598756 .22569275 .4019928 .19465637 .4019928 .13360596 .4019928 .057556154 .32499696 .005508423 .24499512 .005508423 .1599884 .005508423 .08699036 .06756592 .08699036 .15063477 .08699036 .22869873 .14399719 .29174806 .20899964 .32176209Z"/>
<path id="font_1_9" d="M.3659973 .29078675C.3659973 .05493164 .26098634 .005508423 .20098877 .005508423 .1769867 .005508423 .12399292 .008544922 .09899902 .043945314H.10499573C.11199951 .041915895 .147995 .047943117 .147995 .08493042 .147995 .106933597 .1329956 .12593079 .10699463 .12593079 .08099365 .12593079 .06498718 .108932498 .06498718 .08293152 .06498718 .02067566 .114990238-.021484375 .20199585-.021484375 .32699586-.021484375 .44799806 .11193848 .44799806 .32881166 .44799806 .5980072 .33599855 .66503909 .24798584 .66503909 .13798523 .66503909 .040985109 .5729828 .040985109 .44088746 .040985109 .3087921 .13398743 .21875 .23399353 .21875 .30799867 .21875 .34599305 .2727661 .3659973 .32380677V.29078675M.23799134 .23873902C.1749878 .23873902 .147995 .28977967 .13899231 .3087921 .12298584 .34681703 .12298584 .39485169 .12298584 .43988038 .12298584 .4959259 .12298584 .5439606 .14898682 .58499148 .16699219 .6120148 .19400025 .641037 .24798584 .641037 .30499269 .641037 .33399964 .59098818 .34399415 .5679779 .3639984 .51893618 .3639984 .43388368 .3639984 .41886903 .3639984 .33480836 .32598878 .23873902 .23799134 .23873902Z"/>
<path id="font_1_4" d="M.18399048 .35888673C.16699219 .35787965 .16299439 .35688783 .16299439 .34788514 .16299439 .33789063 .16799927 .33789063 .18598938 .33789063H.23199463C.31698609 .33789063 .35499574 .267807 .35499574 .17172241 .35499574 .04058838 .2869873 .005508423 .23799134 .005508423 .18998719 .005508423 .10798645 .028564454 .07899475 .09472656 .11099243 .08970642 .13999939 .10771179 .13999939 .14372254 .13999939 .17271424 .11898804 .1927185 .09098816 .1927185 .066986087 .1927185 .040985109 .1787262 .040985109 .14071656 .040985109 .051620485 .12998963-.021484375 .24099732-.021484375 .3600006-.021484375 .44799806 .06965637 .44799806 .17071533 .44799806 .26280213 .37399293 .33488465 .27799989 .35188294 .36499024 .3769226 .42099 .45011903 .42099 .5282135 .42099 .6071167 .33898927 .66503909 .24198914 .66503909 .14199829 .66503909 .067993167 .604126 .067993167 .5312042 .067993167 .49121095 .09899902 .48321534 .11399841 .48321534 .1349945 .48321534 .15899658 .49821473 .15899658 .5282135 .15899658 .5602112 .1349945 .57421877 .11299133 .57421877 .10699463 .57421877 .10499573 .57421877 .101989749 .57321169 .13999939 .641037 .23399353 .641037 .23899842 .641037 .27198792 .641037 .33699037 .6260681 .33699037 .5282135 .33699037 .5092163 .33399964 .453125 .30499269 .41001893 .2749939 .3658905 .24099732 .36288453 .21398926 .36187745L.18399048 .35888673Z"/>
<path id="font_1_5" d="M.12799073 .5727997C.17098999 .5588074 .20599365 .5578003 .21699524 .5578003 .32998658 .5578003 .4019928 .6409912 .4019928 .6550598 .4019928 .6590576 .3999939 .6640625 .3939972 .6640625 .3919983 .6640625 .3899994 .6640625 .3809967 .66004946 .32499696 .6358795 .2769928 .6328125 .25099183 .6328125 .18499756 .6328125 .13798523 .6530609 .11898804 .6610565 .11199951 .6640625 .10998535 .6640625 .10899353 .6640625 .100997928 .6640625 .100997928 .65805056 .100997928 .64201357V.34495545C.100997928 .32695008 .100997928 .32095338 .11299133 .32095338 .117996219 .32095338 .11898804 .32196046 .1289978 .33395387 .15699768 .37493897 .20399475 .39894105 .2539978 .39894105 .30699159 .39894105 .33299256 .34994508 .34098817 .33294679 .35798646 .29396058 .35899354 .2449646 .35899354 .20697022 .35899354 .16897583 .35899354 .11193848 .33099366 .0667572 .30899049 .03060913 .269989 .005508423 .22599793 .005508423 .1599884 .005508423 .09498596 .050689699 .07699585 .12397766 .08198547 .12197876 .08799744 .12097168 .09298706 .12097168 .10998535 .12097168 .13699341 .13098145 .13699341 .16497803 .13699341 .1929779 .117996219 .20898438 .09298706 .20898438 .07499695 .20898438 .04899597 .19998169 .04899597 .16098023 .04899597 .075790408 .116989139-.021484375 .22799683-.021484375 .34098817-.021484375 .43998719 .073791507 .43998719 .20097351 .43998719 .3199463 .3600006 .4189453 .25498963 .4189453 .19799805 .4189453 .1539917 .39393617 .12799073 .36595155V.5727997Z"/>
<clipPath id="clip_2">
<path transform="matrix(1.00003,0,0,-1.00003,24.446412,166.83365)" d="M0 0H194.27399V161.393H0Z"/>
</clipPath>
</defs>
<path transform="matrix(1.00003,0,0,-1.00003,24.446412,166.83365)" stroke-width=".3985" stroke-linecap="butt" stroke-miterlimit="10" stroke-linejoin="miter" fill="none" stroke="#bfbfbf" d="M12.9516 0V161.393M38.8548 0V161.393M64.758 0V161.393M90.6612 0V161.393M116.56439 0V161.393M142.46759 0V161.393M168.37079 0V161.393M194.27399 0V161.393"/>
<path transform="matrix(1.00003,0,0,-1.00003,24.446412,166.83365)" stroke-width=".3985" stroke-linecap="butt" stroke-miterlimit="10" stroke-linejoin="miter" fill="none" stroke="#bfbfbf" d="M0 6.20741H194.27399M0 37.24454H194.27399M0 68.28166H194.27399M0 99.31877H194.27399M0 130.3559H194.27399M0 161.393H194.27399"/>
<path transform="matrix(1.00003,0,0,-1.00003,24.446412,166.83365)" stroke-width=".19925" stroke-linecap="butt" stroke-miterlimit="10" stroke-linejoin="miter" fill="none" stroke="#7f807f" d="M12.9516-2.12599V2.12599M38.8548-2.12599V2.12599M64.758-2.12599V2.12599M90.6612-2.12599V2.12599M116.56439-2.12599V2.12599M142.46759-2.12599V2.12599M168.37079-2.12599V2.12599M194.27399-2.12599V2.12599"/>
<path transform="matrix(1.00003,0,0,-1.00003,24.446412,166.83365)" stroke-width=".19925" stroke-linecap="butt" stroke-miterlimit="10" stroke-linejoin="miter" fill="none" stroke="#7f807f" d="M-2.12526 6.20741H2.12526M-2.12526 37.24454H2.12526M-2.12526 68.28166H2.12526M-2.12526 99.31877H2.12526M-2.12526 130.3559H2.12526M-2.12526 161.393H2.12526"/>
<path transform="matrix(1.00003,0,0,-1.00003,24.446412,166.83365)" stroke-width=".3985" stroke-linecap="butt" stroke-miterlimit="10" stroke-linejoin="miter" fill="none" stroke="#000000" d="M0 0H192.28145"/>
<path transform="matrix(1.00003,0,0,-1.00003,216.73365,166.83365)" d="M1.99252 0-1.19551 1.59401 0 0-1.19551-1.59401"/>
<path transform="matrix(1.00003,0,0,-1.00003,24.446412,166.83365)" stroke-width=".3985" stroke-linecap="butt" stroke-miterlimit="10" stroke-linejoin="miter" fill="none" stroke="#000000" d="M0 0V159.40048"/>
<path transform="matrix(0,-1.00003,-1.00003,-0,24.446412,7.4283754)" d="M1.99252 0-1.19551 1.59401 0 0-1.19551-1.59401"/>
<use data-text="2" xlink:href="#font_1_3" transform="matrix(11.95556,0,0,-11.95556,25.691452,180.84807)"/>
<use data-text="0" xlink:href="#font_1_1" transform="matrix(11.95556,0,0,-11.95556,31.53772,180.84807)"/>
<use data-text="1" xlink:href="#font_1_2" transform="matrix(11.95556,0,0,-11.95556,37.383989,180.84807)"/>
<use data-text="6" xlink:href="#font_1_6" transform="matrix(11.95556,0,0,-11.95556,43.230257,180.84807)"/>
<use data-text="2" xlink:href="#font_1_3" transform="matrix(11.95556,0,0,-11.95556,51.59623,180.84807)"/>
<use data-text="0" xlink:href="#font_1_1" transform="matrix(11.95556,0,0,-11.95556,57.442499,180.84807)"/>
<use data-text="1" xlink:href="#font_1_2" transform="matrix(11.95556,0,0,-11.95556,63.288766,180.84807)"/>
<use data-text="7" xlink:href="#font_1_7" transform="matrix(11.95556,0,0,-11.95556,69.13503,180.84807)"/>
<use data-text="2" xlink:href="#font_1_3" transform="matrix(11.95556,0,0,-11.95556,77.5,180.84807)"/>
<use data-text="0" xlink:href="#font_1_1" transform="matrix(11.95556,0,0,-11.95556,83.34627,180.84807)"/>
<use data-text="1" xlink:href="#font_1_2" transform="matrix(11.95556,0,0,-11.95556,89.192539,180.84807)"/>
<use data-text="8" xlink:href="#font_1_8" transform="matrix(11.95556,0,0,-11.95556,95.0388,180.84807)"/>
<use data-text="2" xlink:href="#font_1_3" transform="matrix(11.95556,0,0,-11.95556,103.403789,180.84807)"/>
<use data-text="0" xlink:href="#font_1_1" transform="matrix(11.95556,0,0,-11.95556,109.25005,180.84807)"/>
<use data-text="1" xlink:href="#font_1_2" transform="matrix(11.95556,0,0,-11.95556,115.09632,180.84807)"/>
<use data-text="9" xlink:href="#font_1_9" transform="matrix(11.95556,0,0,-11.95556,120.94259,180.84807)"/>
<use data-text="2" xlink:href="#font_1_3" transform="matrix(11.95556,0,0,-11.95556,129.30756,180.84807)"/>
<use data-text="0" xlink:href="#font_1_1" transform="matrix(11.95556,0,0,-11.95556,135.15384,180.84807)"/>
<use data-text="2" xlink:href="#font_1_3" transform="matrix(11.95556,0,0,-11.95556,141.00009,180.84807)"/>
<use data-text="0" xlink:href="#font_1_1" transform="matrix(11.95556,0,0,-11.95556,146.84638,180.84807)"/>
<use data-text="2" xlink:href="#font_1_3" transform="matrix(11.95556,0,0,-11.95556,155.21134,180.84807)"/>
<use data-text="0" xlink:href="#font_1_1" transform="matrix(11.95556,0,0,-11.95556,161.0576,180.84807)"/>
<use data-text="2" xlink:href="#font_1_3" transform="matrix(11.95556,0,0,-11.95556,166.90387,180.84807)"/>
<use data-text="1" xlink:href="#font_1_2" transform="matrix(11.95556,0,0,-11.95556,172.75014,180.84807)"/>
<use data-text="2" xlink:href="#font_1_3" transform="matrix(11.95556,0,0,-11.95556,181.1161,180.84807)"/>
<use data-text="0" xlink:href="#font_1_1" transform="matrix(11.95556,0,0,-11.95556,186.96237,180.84807)"/>
<use data-text="2" xlink:href="#font_1_3" transform="matrix(11.95556,0,0,-11.95556,192.80864,180.84807)"/>
<use data-text="2" xlink:href="#font_1_3" transform="matrix(11.95556,0,0,-11.95556,198.6549,180.84807)"/>
<use data-text="2" xlink:href="#font_1_3" transform="matrix(11.95556,0,0,-11.95556,207.01988,180.84807)"/>
<use data-text="0" xlink:href="#font_1_1" transform="matrix(11.95556,0,0,-11.95556,212.86615,180.84807)"/>
<use data-text="2" xlink:href="#font_1_3" transform="matrix(11.95556,0,0,-11.95556,218.71242,180.84807)"/>
<use data-text="3" xlink:href="#font_1_4" transform="matrix(11.95556,0,0,-11.95556,224.55869,180.84807)"/>
<use data-text="9" xlink:href="#font_1_9" transform="matrix(11.95556,0,0,-11.95556,6.43087,164.47858)"/>
<use data-text="0" xlink:href="#font_1_1" transform="matrix(11.95556,0,0,-11.95556,12.277138,164.47858)"/>
<use data-text="9" xlink:href="#font_1_9" transform="matrix(11.95556,0,0,-11.95556,6.43087,133.44065)"/>
<use data-text="5" xlink:href="#font_1_5" transform="matrix(11.95556,0,0,-11.95556,12.277138,133.44065)"/>
<use data-text="1" xlink:href="#font_1_2" transform="matrix(11.95556,0,0,-11.95556,.5776901,102.40271)"/>
<use data-text="0" xlink:href="#font_1_1" transform="matrix(11.95556,0,0,-11.95556,6.423958,102.40271)"/>
<use data-text="0" xlink:href="#font_1_1" transform="matrix(11.95556,0,0,-11.95556,12.270226,102.40271)"/>
<use data-text="1" xlink:href="#font_1_2" transform="matrix(11.95556,0,0,-11.95556,.5776901,71.36378)"/>
<use data-text="0" xlink:href="#font_1_1" transform="matrix(11.95556,0,0,-11.95556,6.423958,71.36378)"/>
<use data-text="5" xlink:href="#font_1_5" transform="matrix(11.95556,0,0,-11.95556,12.270226,71.36378)"/>
<use data-text="1" xlink:href="#font_1_2" transform="matrix(11.95556,0,0,-11.95556,.5776901,40.32585)"/>
<use data-text="1" xlink:href="#font_1_2" transform="matrix(11.95556,0,0,-11.95556,6.423958,40.32585)"/>
<use data-text="0" xlink:href="#font_1_1" transform="matrix(11.95556,0,0,-11.95556,12.270226,40.32585)"/>
<use data-text="1" xlink:href="#font_1_2" transform="matrix(11.95556,0,0,-11.95556,.5776901,9.287918)"/>
<use data-text="1" xlink:href="#font_1_2" transform="matrix(11.95556,0,0,-11.95556,6.423958,9.287918)"/>
<use data-text="5" xlink:href="#font_1_5" transform="matrix(11.95556,0,0,-11.95556,12.270226,9.287918)"/>
<path transform="matrix(1.00003,0,0,-1.00003,24.446412,166.83365)" stroke-width=".3985" stroke-linecap="butt" stroke-miterlimit="10" stroke-linejoin="miter" fill="none" stroke="#bfbfbf" d="M0 12.41484H194.27399M0 18.62227H194.27399M0 24.82968H194.27399M0 31.03711H194.27399M0 43.45197H194.27399M0 49.65938H194.27399M0 55.8668H194.27399M0 62.07423H194.27399M0 74.48907H194.27399M0 80.6965H194.27399M0 86.90393H194.27399M0 93.11134H194.27399M0 105.5262H194.27399M0 111.73363H194.27399M0 117.94104H194.27399M0 124.14847H194.27399M0 136.56333H194.27399M0 142.77074H194.27399M0 148.97817H194.27399M0 155.1856H194.27399"/>
<path transform="matrix(1.00003,0,0,-1.00003,24.446412,166.83365)" stroke-width=".19925" stroke-linecap="butt" stroke-miterlimit="10" stroke-linejoin="miter" fill="none" stroke="#7f807f" d="M-2.12526 12.41484H2.12526M-2.12526 18.62227H2.12526M-2.12526 24.82968H2.12526M-2.12526 31.03711H2.12526M-2.12526 43.45197H2.12526M-2.12526 49.65938H2.12526M-2.12526 55.8668H2.12526M-2.12526 62.07423H2.12526M-2.12526 74.48907H2.12526M-2.12526 80.6965H2.12526M-2.12526 86.90393H2.12526M-2.12526 93.11134H2.12526M-2.12526 105.5262H2.12526M-2.12526 111.73363H2.12526M-2.12526 117.94104H2.12526M-2.12526 124.14847H2.12526M-2.12526 136.56333H2.12526M-2.12526 142.77074H2.12526M-2.12526 148.97817H2.12526M-2.12526 155.1856H2.12526"/>
<g clip-path="url(#clip_2)">
</g>
</svg>
