<svg xmlns="http://www.w3.org/2000/svg" xmlns:xlink="http://www.w3.org/1999/xlink" xmlns:inkscape="http://www.inkscape.org/namespaces/inkscape" version="1.1" width="209" height="180" viewBox="0 0 209 180">
<defs>
<path id="font_1_3" d="M.43998719 .16790772H.41799928C.4149933 .15092469 .40699769 .09597778 .39698792 .07998657 .3899994 .070999149 .33299256 .070999149 .30299378 .070999149H.117996219C.14498902 .09397888 .20599365 .15792847 .23199463 .18190003 .38398744 .3217926 .43998719 .37374879 .43998719 .47270204 .43998719 .5878906 .34899903 .66503909 .23298645 .66503909 .116989139 .66503909 .04899597 .5658264 .04899597 .4797058 .04899597 .42871095 .09298706 .42871095 .09599304 .42871095 .116989139 .42871095 .14299011 .44371034 .14299011 .475708 .14299011 .5037079 .12399292 .5227051 .09599304 .5227051 .08699036 .5227051 .084991458 .5227051 .08198547 .521698 .100997928 .5899048 .15499878 .6360321 .21998596 .6360321 .30499269 .6360321 .35699464 .56481936 .35699464 .47270204 .35699464 .3877411 .30799867 .313797 .25099183 .24984741L.04899597 .023986817V0H.4139862L.43998719 .16790772Z"/>
<path id="font_1_4" d="M.36099244 .6508026C.36099244 .6697998 .36099244 .6748047 .34700013 .6748047 .33898927 .6748047 .33599855 .6748047 .32798768 .662796L.026992798 .19598389V.16699219H.2899933V.07598877C.2899933 .038986207 .28799439 .0289917 .21499634 .0289917H.19499207V0C.21798706 .0019989014 .29699708 .0019989014 .32499696 .0019989014 .35299684 .0019989014 .43299867 .0019989014 .45599366 0V.0289917H.43598939C.3639984 .0289917 .36099244 .038986207 .36099244 .07598877V.16699219H.46199037V.19598389H.36099244V.6508026M.29499818 .5728302V.19598389H.051986696L.29499818 .5728302Z"/>
<path id="font_1_5" d="M.12298584 .34773255C.12298584 .60061648 .24598694 .641037 .2999878 .641037 .33599855 .641037 .37199403 .62991335 .3909912 .5996094 .3789978 .5996094 .34098817 .5996094 .34098817 .558609 .34098817 .53660586 .35598756 .51760867 .38198854 .51760867 .40699769 .51760867 .42399598 .53260806 .42399598 .56159976 .42399598 .6137543 .38598634 .66503909 .29899598 .66503909 .17298889 .66503909 .040985109 .53559878 .040985109 .31570436 .040985109 .040527345 .16099549-.021484375 .24598694-.021484375 .35499574-.021484375 .44799806 .07354736 .44799806 .2036438 .44799806 .33673097 .35499574 .42578126 .25498963 .42578126 .1659851 .42578126 .1329956 .34873963 .12298584 .32070924V.34773255M.24598694 .005508423C.18299866 .005508423 .15299988 .061538698 .14399719 .08256531 .1349945 .10858154 .125 .15760803 .125 .22766114 .125 .30670167 .16099549 .40577699 .25099183 .40577699 .30599977 .40577699 .33499146 .3687439 .34999085 .33473207 .3659973 .29769898 .3659973 .2476654 .3659973 .20463562 .3659973 .15361023 .3659973 .10858154 .34700013 .07055664 .32199098 .022521973 .28599549 .005508423 .24598694 .005508423Z"/>
<path id="font_1_6" d="M.2979889 .36079408C.34799195 .38781739 .42099 .43385316 .42099 .5179291 .42099 .6049957 .33699037 .66503909 .24499512 .66503909 .1459961 .66503909 .067993167 .59199526 .067993167 .5009155 .067993167 .46688844 .07798767 .43286134 .10598755 .39883424 .116989139 .38581849 .117996219 .38482667 .18798828 .3357849 .09098816 .29074098 .040985109 .22369385 .040985109 .15063477 .040985109 .044540407 .14199829-.021484375 .24398804-.021484375 .35499574-.021484375 .44799806 .060546876 .44799806 .16563416 .44799806 .2677307 .37599183 .3127594 .2979889 .36079408M.1619873 .4508667C.14898682 .45988465 .10899353 .48590089 .10899353 .5349426 .10899353 .59999087 .1769867 .641037 .24398804 .641037 .31599427 .641037 .37998963 .58898928 .37998963 .516922 .37998963 .45587159 .33599855 .4068451 .27799989 .3748169L.1619873 .4508667M.20899964 .32176209 .32998658 .2427063C.35598756 .22569275 .4019928 .19465637 .4019928 .13360596 .4019928 .057556154 .32499696 .005508423 .24499512 .005508423 .1599884 .005508423 .08699036 .06756592 .08699036 .15063477 .08699036 .22869873 .14399719 .29174806 .20899964 .32176209Z"/>
<path id="font_1_1" d="M.44799806 .31976319C.44799806 .40283204 .44299317 .48390199 .40699769 .55996707 .3659973 .64302065 .2939911 .66503909 .24499512 .66503909 .18699646 .66503909 .115997318 .63601687 .07899475 .552948 .050994874 .48989869 .040985109 .42785646 .040985109 .31976319 .040985109 .22268677 .04798889 .14962769 .083999637 .078567508 .12298584 .0025177003 .19198609-.021484375 .24398804-.021484375 .33099366-.021484375 .3809967 .030532837 .4099884 .08857727 .44599916 .16363526 .44799806 .26171876 .44799806 .31976319M.24398804-.0014953613C.21199036-.0014953613 .14698792 .016525269 .12799073 .12561035 .116989139 .18565369 .116989139 .26171876 .116989139 .33177186 .116989139 .41384889 .116989139 .48789979 .1329956 .5469513 .1499939 .6139984 .20098877 .6450348 .24398804 .6450348 .28199769 .6450348 .33999635 .6220093 .35899354 .53593447 .37199403 .4788971 .37199403 .39982606 .37199403 .33177186 .37199403 .26472474 .37199403 .18865967 .36099244 .12760926 .34199525 .01751709 .2789917-.0014953613 .24398804-.0014953613Z"/>
<path id="font_1_2" d="M.28799439 .64105227C.28799439 .664032 .28799439 .66503909 .2679901 .66503909 .24398804 .6380615 .19400025 .6012573 .09098816 .6012573V.5722656C.11399841 .5722656 .1639862 .5722656 .21899414 .59825137V.07701111C.21899414 .041000368 .21598816 .0289917 .12799073 .0289917H.09700012V0C.12399292 .0019989014 .22099304 .0019989014 .2539978 .0019989014 .2869873 .0019989014 .3829956 .0019989014 .4099884 0V.0289917H.3789978C.29100038 .0289917 .28799439 .041000368 .28799439 .07701111V.64105227Z"/>
<clipPath id="clip_2">
<path transform="matrix(1.00005,0,0,-1.00003,13.65448,165.2466)" d="M0 0H194.2676V161.39633H0Z"/>
</clipPath>
<path id="font_3_1" d="M.33799745 .12710572C.33399964 .111083988 .33198548 .10708618 .31900025 .09207153 .27799989 .039016725 .23599243 .019989014 .20498657 .019989014 .17199707 .019989014 .14099121 .046020509 .14099121 .11508179 .14099121 .1681366 .17098999 .28025819 .19299317 .32530213 .22200012 .38136292 .2669983 .42140199 .30899049 .42140199 .375 .42140199 .3880005 .3393097 .3880005 .333313L.3849945 .31929017 .33799745 .12710572M.3999939 .37535096C.3869934 .40438844 .35899354 .44140626 .30899049 .44140626 .19999695 .44140626 .07598877 .3042755 .07598877 .15513611 .07598877 .05102539 .13899231 0 .20298767 0 .2559967 0 .30299378 .042007448 .32099916 .062042238L.29899598-.028030396C.2849884-.08305359 .2789917-.108062747 .24299622-.14308167 .20199585-.18411255 .1639862-.18411255 .14199829-.18411255 .11199951-.18411255 .08699036-.18211365 .06199646-.17410279 .09399414-.1651001 .101989749-.13708496 .101989749-.12608338 .101989749-.110061649 .08999634-.094055179 .067993167-.094055179 .04399109-.094055179 .017990113-.11407471 .017990113-.14709473 .017990113-.18811035 .05899048-.20410156 .14399719-.20410156 .272995-.20410156 .33999635-.12107849 .35299684-.06704712L.46398927 .38131715C.46699525 .3933258 .46699525 .3953247 .46699525 .3973236 .46699525 .41133119 .45599366 .42233277 .44099427 .42233277 .4169922 .42233277 .40299989 .40234376 .3999939 .37530519V.37535096Z"/>
<path id="font_4_48" d="M.43499757 .19412232C.43499757 .23712158 .4229889 .28912355 .37998963 .33711244 .34298707 .3781128 .29899598 .38911439 .25898744 .39912416V.67510989C.33198548 .67111209 .3929901 .6351166 .4079895 .5651245 .39898683 .5671234 .39698792 .5671234 .3939972 .5671234 .375 .5671234 .35198976 .5541229 .35198976 .52511599 .35198976 .5001221 .36999513 .4841156 .3929901 .4841156 .41299439 .4841156 .43499757 .4941101 .43499757 .53012087 .43499757 .6171112 .37799073 .6981201 .25898744 .7041168V.7501221H.22999573V.703125C.125 .69511416 .053985597 .6091156 .053985597 .51512148 .053985597 .46011354 .07699585 .41311646 .11099243 .37911988 .14698792 .3441162 .17799378 .3361206 .22999573 .32312013V.019119263C.19099427 .022109986 .099990848 .038116456 .07998657 .14411927 .08299255 .14311219 .08999634 .14111328 .09599304 .14111328 .11299133 .14111328 .13699341 .15312195 .13699341 .18312073 .13699341 .2071228 .11999512 .2241211 .09599304 .2241211 .07598877 .2241211 .053985597 .21411133 .053985597 .17811585 .053985597 .08711243 .10798645-.001876831 .22999573-.009887695V-.055877687H.25898744V-.008880615C.3659973 .0011138916 .43499757 .09310913 .43499757 .19412232M.22999573 .40711976C.100997928 .43312074 .100997928 .52812197 .100997928 .54112246 .100997928 .60112 .14698792 .66511538 .22999573 .67411807V.40711976M.3880005 .16711426C.3880005 .09611511 .33799745 .02911377 .25898744 .020111084V.31510926C.3829956 .29011537 .3880005 .18711853 .3880005 .16711426Z"/>
</defs>
<path transform="matrix(1.00005,0,0,-1.00003,13.65448,165.2466)" stroke-width=".3985" stroke-linecap="butt" stroke-miterlimit="10" stroke-linejoin="miter" fill="none" stroke="#bfbfbf" d="M53.96321 0V161.39633M97.13379 0V161.39633M140.30437 0V161.39633M183.47495 0V161.39633"/>
<path transform="matrix(1.00005,0,0,-1.00003,13.65448,165.2466)" stroke-width=".3985" stroke-linecap="butt" stroke-miterlimit="10" stroke-linejoin="miter" fill="none" stroke="#bfbfbf" d="M0 32.59727H194.2676M0 64.3995H194.2676M0 96.20175H194.2676M0 128.00399H194.2676M0 159.80622H194.2676"/>
<path transform="matrix(1.00005,0,0,-1.00003,13.65448,165.2466)" stroke-width=".19925" stroke-linecap="butt" stroke-miterlimit="10" stroke-linejoin="miter" fill="none" stroke="#7f807f" d="M53.96321-1.33118V2.9213M97.13379-1.33118V2.9213M140.30437-1.33118V2.9213M183.47495-1.33118V2.9213"/>
<path transform="matrix(1.00005,0,0,-1.00003,13.65448,165.2466)" stroke-width=".19925" stroke-linecap="butt" stroke-miterlimit="10" stroke-linejoin="miter" fill="none" stroke="#7f807f" d="M8.66666 32.59727H12.91861M8.66666 64.3995H12.91861M8.66666 96.20175H12.91861M8.66666 128.00399H12.91861M8.66666 159.80622H12.91861"/>
<path transform="matrix(1.00005,0,0,-1.00003,13.65448,165.2466)" stroke-width=".3985" stroke-linecap="butt" stroke-miterlimit="10" stroke-linejoin="miter" fill="none" stroke="#000000" d="M0 .79504H192.27507"/>
<path transform="matrix(1.00005,0,0,-1.00003,205.93915,164.45154)" d="M1.99252 0-1.19551 1.59401 0 0-1.19551-1.59401"/>
<path transform="matrix(1.00005,0,0,-1.00003,13.65448,165.2466)" stroke-width=".3985" stroke-linecap="butt" stroke-miterlimit="10" stroke-linejoin="miter" fill="none" stroke="#000000" d="M10.79263 0V159.40381"/>
<path transform="matrix(0,-1.00003,-1.00005,-0,24.447649,5.8379976)" d="M1.99252 0-1.19551 1.59401 0 0-1.19551-1.59401"/>
<use data-text="2" xlink:href="#font_1_3" transform="matrix(11.955797,0,0,-11.95556,64.69403,178.467)"/>
<use data-text="4" xlink:href="#font_1_4" transform="matrix(11.955797,0,0,-11.95556,107.86619,178.467)"/>
<use data-text="6" xlink:href="#font_1_5" transform="matrix(11.955797,0,0,-11.95556,151.03936,178.467)"/>
<use data-text="8" xlink:href="#font_1_6" transform="matrix(11.955797,0,0,-11.95556,194.2115,178.467)"/>
<use data-text="2" xlink:href="#font_1_3" transform="matrix(11.955797,0,0,-11.95556,6.431122,136.50074)"/>
<use data-text="0" xlink:href="#font_1_1" transform="matrix(11.955797,0,0,-11.95556,12.277504,136.50074)"/>
<use data-text="4" xlink:href="#font_1_4" transform="matrix(11.955797,0,0,-11.95556,6.431122,104.69778)"/>
<use data-text="0" xlink:href="#font_1_1" transform="matrix(11.955797,0,0,-11.95556,12.277504,104.69778)"/>
<use data-text="6" xlink:href="#font_1_5" transform="matrix(11.955797,0,0,-11.95556,6.431122,72.89482)"/>
<use data-text="0" xlink:href="#font_1_1" transform="matrix(11.955797,0,0,-11.95556,12.277504,72.89482)"/>
<use data-text="8" xlink:href="#font_1_6" transform="matrix(11.955797,0,0,-11.95556,6.431122,41.090867)"/>
<use data-text="0" xlink:href="#font_1_1" transform="matrix(11.955797,0,0,-11.95556,12.277504,41.090867)"/>
<use data-text="1" xlink:href="#font_1_2" transform="matrix(11.955797,0,0,-11.95556,.57782748,9.287918)"/>
<use data-text="0" xlink:href="#font_1_1" transform="matrix(11.955797,0,0,-11.95556,6.4242098,9.287918)"/>
<use data-text="0" xlink:href="#font_1_1" transform="matrix(11.955797,0,0,-11.95556,12.270592,9.287918)"/>
<g clip-path="url(#clip_2)">
</g>
<use data-text="g" xlink:href="#font_3_1" transform="matrix(11.955797,0,0,-11.95556,197.74169,157.94239)"/>
<use data-text="$" xlink:href="#font_4_48" transform="matrix(11.955797,0,0,-11.95556,28.634228,16.961136)"/>
</svg>
