<svg xmlns="http://www.w3.org/2000/svg" xmlns:xlink="http://www.w3.org/1999/xlink" xmlns:inkscape="http://www.inkscape.org/namespaces/inkscape" version="1.1" width="198" height="167" viewBox="0 0 198 167">
<defs>
<clipPath id="clip_1">
<path transform="matrix(1.00005,0,0,-1.00002,1.7926407,162.98102)" d="M0 0H194.26912V161.39636H0Z"/>
</clipPath>
<path id="font_2_74" d="M.85198977 0V.0289917H.83200076C.7599945 .0289917 .7569885 .038986207 .7569885 .07595825V.6066437C.7569885 .6436157 .7599945 .6536102 .83200076 .6536102H.85198977V.6826172H.69699099C.6749878 .6826172 .673996 .6816101 .66600039 .6626129L.44799806 .093948367 .22999573 .66360476C.22299195 .6826172 .22200012 .6826172 .19898987 .6826172H.04399109V.6536102H.06399536C.13598633 .6536102 .13899231 .6436157 .13899231 .6066437V.10295105C.13899231 .07595825 .13899231 .0289917 .04399109 .0289917V0C.069992069 .0019989014 .12298584 .0019989014 .15098572 .0019989014 .1789856 .0019989014 .23199463 .0019989014 .2579956 0V.0289917C.16299439 .0289917 .16299439 .07595825 .16299439 .10295105V.6486206H.1639862L.40499879 .018997193C.40899659 .0079956059 .4119873 0 .42199708 0 .43099977 0 .43299867 .004989624 .43899537 .019989014L.6819916 .6536102H.68299868V.07595825C.68299868 .038986207 .6799927 .0289917 .60798647 .0289917H.58799746V0C.61099246 .0019989014 .69099429 .0019989014 .7200012 .0019989014 .7489929 .0019989014 .82899478 .0019989014 .85198977 0Z"/>
<path id="font_2_81" d="M.45899964 .21424866C.45899964 .34326173 .36099244 .44628907 .24499512 .44628907 .125 .44628907 .02999878 .340271 .02999878 .21424866 .02999878 .086242679 .12998963-.009765625 .24398804-.009765625 .3619995-.009765625 .45899964 .08824158 .45899964 .21424866M.3829956 .22325135C.3829956 .18824768 .3829956 .12623596 .35699464 .07923889 .32899476 .031234742 .2829895 .01222229 .24499512 .01222229 .20799256 .01222229 .16299439 .02822876 .13398743 .07723999 .10699463 .12223816 .10598755 .1812439 .10598755 .22325135 .10598755 .261261 .10598755 .32226563 .13699341 .3672638 .16499329 .41027833 .20899964 .42626954 .24398804 .42626954 .2829895 .42626954 .32499696 .40827943 .35198976 .3692627 .3829956 .32325746 .3829956 .2602539 .3829956 .22325135Z"/>
<path id="font_2_77" d="M.5209961 0V.0289917C.47099305 .0289917 .44599916 .0289917 .44499208 .059051515V.24342346C.44499208 .3365631 .44499208 .36450196 .42199708 .39640809 .3929901 .4353943 .34599305 .44140626 .31199647 .44140626 .21499634 .44140626 .1769867 .35850526 .16899109 .338562H.16799927V.44140626L.03199768 .4303589V.4013672C.099990848 .4013672 .10798645 .39437867 .10798645 .34553529V.07408142C.10798645 .0289917 .09700012 .0289917 .03199768 .0289917V0C.057998659 .0019989014 .11199951 .0019989014 .13999939 .0019989014 .16899109 .0019989014 .22299195 .0019989014 .24899292 0V.0289917C.18499756 .0289917 .17298889 .0289917 .17298889 .07408142V.26046754C.17298889 .36547853 .24198914 .4213562 .3039856 .4213562 .3659973 .4213562 .37998963 .37045289 .37998963 .3095703V.07408142C.37998963 .0289917 .36898805 .0289917 .3039856 .0289917V0C.32998658 .0019989014 .38398744 .0019989014 .4119873 .0019989014 .44099427 .0019989014 .49499513 .0019989014 .5209961 0Z"/>
<path id="font_2_105" d="M.32598878 .124069217V.1809845H.3039856V.12606812C.3039856 .0541687 .2749939 .01222229 .23599243 .01222229 .16799927 .01222229 .16799927 .10508728 .16799927 .12207031V.4016571H.30899049V.43066407H.16799927V.6142578H.1459961C.14498902 .52046206 .10899353 .4246521 .017990113 .42166139V.4016571H.102996829V.124069217C.102996829 .01322937 .1769867-.009765625 .22999573-.009765625 .29299928-.009765625 .32598878 .0521698 .32598878 .124069217Z"/>
<path id="font_2_63" d="M.5209961 0V.0289917C.47099305 .0289917 .44599916 .0289917 .44499208 .059020997V.24320984C.44499208 .3363037 .44499208 .3643341 .42199708 .39637757 .3929901 .4353943 .34599305 .44140626 .31199647 .44140626 .22599793 .44140626 .18598938 .37634278 .17199707 .34532167H.17098999V.69433596L.03199768 .6826172V.6536102C.099990848 .6536102 .10798645 .64663699 .10798645 .59780886V.074035648C.10798645 .0289917 .09700012 .0289917 .03199768 .0289917V0C.057998659 .0019989014 .11199951 .0019989014 .13999939 .0019989014 .16899109 .0019989014 .22299195 .0019989014 .24899292 0V.0289917C.18499756 .0289917 .17298889 .0289917 .17298889 .074035648V.2602234C.17298889 .3653412 .24198914 .42140199 .3039856 .42140199 .3659973 .42140199 .37998963 .37034608 .37998963 .3092804V.074035648C.37998963 .0289917 .36898805 .0289917 .3039856 .0289917V0C.32998658 .0019989014 .38398744 .0019989014 .4119873 .0019989014 .44099427 .0019989014 .49499513 .0019989014 .5209961 0Z"/>
<path id="font_2_48" d="M.43499757 .19412232C.43499757 .23712158 .4229889 .28912355 .37998963 .33711244 .34298707 .3781128 .29899598 .38911439 .25898744 .39912416V.67510989C.33198548 .67111209 .3929901 .6351166 .4079895 .5651245 .39898683 .5671234 .39698792 .5671234 .3939972 .5671234 .375 .5671234 .35198976 .5541229 .35198976 .52511599 .35198976 .5001221 .36999513 .4841156 .3929901 .4841156 .41299439 .4841156 .43499757 .4941101 .43499757 .53012087 .43499757 .6171112 .37799073 .6981201 .25898744 .7041168V.7501221H.22999573V.703125C.125 .69511416 .053985597 .6091156 .053985597 .51512148 .053985597 .46011354 .07699585 .41311646 .11099243 .37911988 .14698792 .3441162 .17799378 .3361206 .22999573 .32312013V.019119263C.19099427 .022109986 .099990848 .038116456 .07998657 .14411927 .08299255 .14311219 .08999634 .14111328 .09599304 .14111328 .11299133 .14111328 .13699341 .15312195 .13699341 .18312073 .13699341 .2071228 .11999512 .2241211 .09599304 .2241211 .07598877 .2241211 .053985597 .21411133 .053985597 .17811585 .053985597 .08711243 .10798645-.001876831 .22999573-.009887695V-.055877687H.25898744V-.008880615C.3659973 .0011138916 .43499757 .09310913 .43499757 .19412232M.22999573 .40711976C.100997928 .43312074 .100997928 .52812197 .100997928 .54112246 .100997928 .60112 .14698792 .66511538 .22999573 .67411807V.40711976M.3880005 .16711426C.3880005 .09611511 .33799745 .02911377 .25898744 .020111084V.31510926C.3829956 .29011537 .3880005 .18711853 .3880005 .16711426Z"/>
</defs>
<path transform="matrix(1.00005,0,0,-1.00002,1.7926407,162.98102)" stroke-width=".3985" stroke-linecap="butt" stroke-miterlimit="10" stroke-linejoin="miter" fill="none" stroke="#bfbfbf" d="M36.42545 0V161.39636M60.70909 0V161.39636M84.99274 0V161.39636M109.27637 0V161.39636M133.56002 0V161.39636M157.84366 0V161.39636M182.12729 0V161.39636"/>
<path transform="matrix(1.00005,0,0,-1.00002,1.7926407,162.98102)" stroke-width=".3985" stroke-linecap="butt" stroke-miterlimit="10" stroke-linejoin="miter" fill="none" stroke="#bfbfbf" d="M0 8.06981H194.26912M0 16.13963H194.26912M0 24.20944H194.26912M0 32.27927H194.26912M0 40.34909H194.26912M0 48.4189H194.26912M0 56.48872H194.26912M0 64.55853H194.26912M0 72.62836H194.26912M0 80.69818H194.26912M0 88.76799H194.26912M0 96.83781H194.26912M0 104.90762H194.26912M0 112.97745H194.26912M0 121.04727H194.26912M0 129.11708H194.26912M0 137.1869H194.26912M0 145.25672H194.26912M0 153.32654H194.26912M0 161.39636H194.26912"/>
<path transform="matrix(1.00005,0,0,-1.00002,1.7926407,162.98102)" stroke-width=".19925" stroke-linecap="butt" stroke-miterlimit="10" stroke-linejoin="miter" fill="none" stroke="#7f807f" d="M36.42545-2.12585V2.12585M60.70909-2.12585V2.12585M84.99274-2.12585V2.12585M109.27637-2.12585V2.12585M133.56002-2.12585V2.12585M157.84366-2.12585V2.12585M182.12729-2.12585V2.12585"/>
<path transform="matrix(1.00005,0,0,-1.00002,1.7926407,162.98102)" stroke-width=".19925" stroke-linecap="butt" stroke-miterlimit="10" stroke-linejoin="miter" fill="none" stroke="#7f807f" d="M10.01585 8.06981H14.26775M10.01585 16.13963H14.26775M10.01585 24.20944H14.26775M10.01585 32.27927H14.26775M10.01585 40.34909H14.26775M10.01585 48.4189H14.26775M10.01585 56.48872H14.26775M10.01585 64.55853H14.26775M10.01585 72.62836H14.26775M10.01585 80.69818H14.26775M10.01585 88.76799H14.26775M10.01585 96.83781H14.26775M10.01585 104.90762H14.26775M10.01585 112.97745H14.26775M10.01585 121.04727H14.26775M10.01585 129.11708H14.26775M10.01585 137.1869H14.26775M10.01585 145.25672H14.26775M10.01585 153.32654H14.26775M10.01585 161.39636H14.26775"/>
<path transform="matrix(1.00005,0,0,-1.00002,1.7926407,162.98102)" stroke-width=".3985" stroke-linecap="butt" stroke-miterlimit="10" stroke-linejoin="miter" fill="none" stroke="#000000" d="M0 0H192.2766"/>
<path transform="matrix(1.00005,0,0,-1.00002,194.07883,162.98102)" d="M1.99252 0-1.19551 1.59401 0 0-1.19551-1.59401"/>
<path transform="matrix(1.00005,0,0,-1.00002,1.7926407,162.98102)" stroke-width=".3985" stroke-linecap="butt" stroke-miterlimit="10" stroke-linejoin="miter" fill="none" stroke="#000000" d="M12.14182 0V159.40384"/>
<path transform="matrix(0,-1.00002,-1.00005,-0,13.935067,3.5739899)" d="M1.99252 0-1.19551 1.59401 0 0-1.19551-1.59401"/>
<g clip-path="url(#clip_1)">
</g>
<use data-text="M" xlink:href="#font_2_74" transform="matrix(11.955797,0,0,-11.95544,158.09546,158.67794)"/>
<use data-text="o" xlink:href="#font_2_81" transform="matrix(11.955797,0,0,-11.95544,168.81981,158.67794)"/>
<use data-text="n" xlink:href="#font_2_77" transform="matrix(11.955797,0,0,-11.95544,174.67815,158.67794)"/>
<use data-text="t" xlink:href="#font_2_105" transform="matrix(11.955797,0,0,-11.95544,180.8593,158.67794)"/>
<use data-text="h" xlink:href="#font_2_63" transform="matrix(11.955797,0,0,-11.95544,185.41446,158.67794)"/>
<use data-text="$" xlink:href="#font_2_48" transform="matrix(11.955797,0,0,-11.95544,18.121457,14.709045)"/>
</svg>
