<svg xmlns="http://www.w3.org/2000/svg" xmlns:xlink="http://www.w3.org/1999/xlink" xmlns:inkscape="http://www.inkscape.org/namespaces/inkscape" version="1.1" width="197" height="165" viewBox="0 0 197 165">
<defs>
<clipPath id="clip_1">
<path transform="matrix(1.00002,0,0,-1.00002,1.5771332,162.97803)" d="M0 0H194.27262V161.393H0Z"/>
</clipPath>
<path id="font_2_59" d="M.47499085 .4064026C.47499085 .4243927 .46099855 .45239259 .42599488 .45239259 .37399293 .45239259 .33499146 .4203949 .32099916 .4053955 .29100038 .42840577 .2559967 .44140626 .21798706 .44140626 .12799073 .44140626 .06098938 .37339784 .06098938 .29640199 .06098938 .23939514 .09599304 .20239258 .10598755 .19340515 .09399414 .1783905 .07598877 .14936829 .07598877 .11010742 .07598877 .05178833 .11099243 .026779175 .11898804 .021774292 .07299805 .0087890629 .026992798-.027191163 .026992798-.0791626 .026992798-.14811707 .12098694-.20507813 .24398804-.20507813 .36299134-.20507813 .46199037-.15211487 .46199037-.0771637 .46199037-.0521698 .45498658 .006790161 .394989 .03778076 .34399415 .06378174 .2939911 .06378174 .20799256 .06378174 .14698792 .06378174 .13999939 .06378174 .12199402 .08291626 .11199951 .09298706 .102996829 .11212158 .102996829 .13327027 .102996829 .15039063 .10899353 .16738892 .11898804 .18138123 .1659851 .15039063 .20599365 .15039063 .21699524 .15039063 .30699159 .15039063 .37399293 .21838379 .37399293 .29537965 .37399293 .3223877 .3659973 .36038209 .33399964 .39237977 .37298585 .4323883 .41999818 .4323883 .4249878 .4323883 .42900086 .4323883 .43399049 .4323883 .43798829 .4303894 .42799378 .4263916 .4229889 .4163971 .4229889 .4053955 .4229889 .3914032 .43299867 .37939454 .44898988 .37939454 .45700074 .37939454 .47499085 .3843994 .47499085 .4064026M.30499269 .29638673C.30499269 .2783966 .30499269 .23738098 .28799439 .21038819 .2689972 .18138123 .23899842 .17138672 .21798706 .17138672 .12998963 .17138672 .12998963 .27238465 .12998963 .2953949 .12998963 .313385 .12998963 .35440064 .14698792 .38139344 .1659851 .4104004 .19599915 .4203949 .21699524 .4203949 .30499269 .41978456 .30499269 .31878663 .30499269 .29577638V.29638673M.41299439-.07815552C.41299439-.13711548 .33699037-.18408203 .24499512-.18408203 .14898682-.18408203 .07598877-.13511658 .07598877-.07815552 .07598877-.07015991 .07798767-.031188965 .115997318-.005203247 .13798523 .0087890629 .14698792 .0087890629 .21699524 .0087890629 .2999878 .0087890629 .41299439 .0087890629 .41299439-.07815552Z"/>
<path id="font_2_28" d="M.47399903 .08912659V.14515686H.45199586V.08912659C.45199586 .03211975 .42799378 .024108887 .4139862 .024108887 .37599183 .024108887 .37599183 .07713318 .37599183 .09213257V.26719667C.37599183 .3211975 .37599183 .36120606 .33198548 .40023805 .29699708 .43226625 .2519989 .44628907 .20799256 .44628907 .12599182 .44628907 .06298828 .39222718 .06298828 .32720948 .06298828 .2982025 .08198547 .2842102 .10499573 .2842102 .1289978 .2842102 .1459961 .3012085 .1459961 .32521058 .1459961 .36621095 .10998535 .36621095 .09498596 .36621095 .117996219 .4082489 .1659851 .42625428 .20599365 .42625428 .2519989 .42625428 .31098939 .38822938 .31098939 .2982025V.25819398C.10998535 .255188 .033996583 .17115784 .033996583 .09413147 .033996583 .0152282719 .12599182-.009765625 .18699646-.009765625 .25299073-.009765625 .2979889 .030227662 .31698609 .07823181 .32099916 .03111267 .35198976-.0048828127 .394989-.0048828127 .41600038-.0048828127 .47399903 .009109497 .47399903 .089141849V.08912659M.31098939 .14117432C.31098939 .043121339 .23799134 .010116577 .19499207 .010116577 .1459961 .010116577 .10499573 .04612732 .10499573 .09414673 .10499573 .22621155 .2749939 .23822022 .31098939 .24023438V.14117432Z"/>
<path id="font_2_72" d="M.24798584 0V.0289917C.18399048 .0289917 .17199707 .0289917 .17199707 .074020389V.69433596L.032989503 .6826172V.6536102C.100997928 .6536102 .10899353 .6466217 .10899353 .597641V.07395935C.10899353 .0289917 .09799194 .0289917 .032989503 .0289917V0C.06098938 .0019989014 .10998535 .0019989014 .13999939 .0019989014 .16999817 .0019989014 .21998596 .0019989014 .24798584 0Z"/>
<path id="font_2_85" d="M.32499696-.24298096C.32499696-.23999024 .32499696-.23799134 .30799867-.22097779 .20799256-.11999512 .1519928 .045013429 .1519928 .24900818 .1519928 .44299317 .19898987 .60998538 .31498719 .72798159 .32499696 .73698428 .32499696 .73898318 .32499696 .74198916 .32499696 .74798586 .31999208 .75 .31599427 .75 .30299378 .75 .22099304 .6779938 .17199707 .5799866 .12098694 .47898866 .09799194 .37199403 .09799194 .24900818 .09799194 .16000366 .11199951 .041000368 .1639862-.06599426 .22299195-.18598938 .30499269-.25097657 .31599427-.25097657 .31999208-.25097657 .32499696-.24897766 .32499696-.24298096Z"/>
<path id="font_2_82" d="M.4099884 0V.0289917H.3789978C.29100038 .0289917 .28799439 .041000368 .28799439 .07701111V.6411133C.28799439 .664032 .28799439 .66503909 .2679901 .66503909 .24398804 .63812258 .19400025 .6012573 .09098816 .6012573V.5722656C.11399841 .5722656 .1639862 .5722656 .21899414 .59825137V.07701111C.21899414 .041000368 .21598816 .0289917 .12799073 .0289917H.09700012V0C.12399292 .0019989014 .22099304 .0019989014 .2539978 .0019989014 .2869873 .0019989014 .3829956 .0019989014 .4099884 0Z"/>
<path id="font_2_121" d="M.44799806 .31976319C.44799806 .40283204 .44299317 .48388673 .40699769 .5599518 .3659973 .64302065 .2939911 .66503909 .24499512 .66503909 .18699646 .66503909 .115997318 .6360016 .07899475 .552948 .050994874 .48989869 .040985109 .42785646 .040985109 .31976319 .040985109 .22268677 .04798889 .14964295 .083999637 .07858276 .12298584 .002532959 .19198609-.021484375 .24398804-.021484375 .33099366-.021484375 .3809967 .030548096 .4099884 .08859253 .44599916 .16365052 .44799806 .26171876 .44799806 .31976319M.37199403 .33177186C.37199403 .26472474 .37199403 .18867493 .36099244 .12762451 .34199525 .017532349 .2789917-.0014801025 .24398804-.0014801025 .21199036-.0014801025 .14698792 .016540528 .12799073 .12562561 .116989139 .18566895 .116989139 .26171876 .116989139 .33177186 .116989139 .41383363 .116989139 .48789979 .1329956 .54693606 .1499939 .6139984 .20098877 .64501956 .24398804 .64501956 .28199769 .64501956 .33999635 .621994 .35899354 .53593447 .37199403 .47888185 .37199403 .39982606 .37199403 .33177186Z"/>
<path id="font_2_98" d="M.35198976 .12739563C.35198976 .181427 .31900025 .21340943 .30999757 .22239685 .27398683 .25338746 .24699402 .25938417 .18099976 .27137757 .15098572 .27737428 .07798767 .29136659 .07798767 .35131837 .07798767 .38230897 .09899902 .4282837 .18899536 .4282837 .2979889 .4282837 .3039856 .33532716 .30599977 .3043518 .30699159 .2963562 .31399537 .2963562 .31698609 .2963562 .32798768 .2963562 .32798768 .30136109 .32798768 .3193512V.4232788C.32798768 .44128419 .32798768 .44628907 .31799317 .44628907 .30999757 .44628907 .29100038 .4242859 .28399659 .4152832 .25299073 .4402771 .22200012 .44628907 .18998719 .44628907 .068984989 .44628907 .032989503 .38031007 .032989503 .32533265 .032989503 .3143463 .032989503 .27937318 .070999149 .24438477 .102996829 .21640015 .13699341 .20941162 .18299866 .20040894 .23799134 .1894226 .25099183 .18641663 .27598573 .16642761 .2939911 .15142823 .30699159 .12940979 .30699159 .101364139 .30699159 .05831909 .28199769 .010253906 .19400025 .010253906 .12799073 .010253906 .07998657 .048294069 .057998659 .1484375 .053985597 .16642761 .052993776 .16842652 .052993776 .16842652 .050994874 .17242432 .04699707 .17242432 .04399109 .17242432 .032989503 .17242432 .032989503 .16743469 .032989503 .14942932V.013259888C.032989503-.004760742 .032989503-.009765625 .042999269-.009765625 .04798889-.009765625 .04899597-.008773804 .06599426 .012252808 .070999149 .019256592 .070999149 .021270752 .085998538 .03729248 .12399292-.009765625 .17799378-.009765625 .19499207-.009765625 .2999878-.009765625 .35198976 .048294069 .35198976 .12739563Z"/>
<path id="font_2_86" d="M.28199769 .24900818C.28199769 .32499696 .27198792 .44898988 .21598816 .5649872 .15699768 .6849823 .07499695 .75 .06399536 .75 .05999756 .75 .054992677 .74798586 .054992677 .74198916 .054992677 .73898318 .054992677 .73698428 .07199097 .71998599 .17199707 .61898806 .22799683 .45399476 .22799683 .25 .22799683 .055999757 .18099976-.11099243 .06498718-.22898865 .054992677-.23799134 .054992677-.23999024 .054992677-.24298096 .054992677-.24897766 .05999756-.25097657 .06399536-.25097657 .07699585-.25097657 .15899658-.1789856 .20799256-.08099365 .25898744 .021011353 .28199769 .1289978 .28199769 .24900818Z"/>
<path id="font_2_48" d="M.43499757 .19412232C.43499757 .23712158 .4229889 .28912355 .37998963 .33711244 .34298707 .3781128 .29899598 .38911439 .25898744 .39912416V.67510989C.33198548 .67111209 .3929901 .6351166 .4079895 .5651245 .39898683 .5671234 .39698792 .5671234 .3939972 .5671234 .375 .5671234 .35198976 .5541229 .35198976 .52511599 .35198976 .5001221 .36999513 .4841156 .3929901 .4841156 .41299439 .4841156 .43499757 .4941101 .43499757 .53012087 .43499757 .6171112 .37799073 .6981201 .25898744 .7041168V.7501221H.22999573V.703125C.125 .69511416 .053985597 .6091156 .053985597 .51512148 .053985597 .46011354 .07699585 .41311646 .11099243 .37911988 .14698792 .3441162 .17799378 .3361206 .22999573 .32312013V.019119263C.19099427 .022109986 .099990848 .038116456 .07998657 .14411927 .08299255 .14311219 .08999634 .14111328 .09599304 .14111328 .11299133 .14111328 .13699341 .15312195 .13699341 .18312073 .13699341 .2071228 .11999512 .2241211 .09599304 .2241211 .07598877 .2241211 .053985597 .21411133 .053985597 .17811585 .053985597 .08711243 .10798645-.001876831 .22999573-.009887695V-.055877687H.25898744V-.008880615C.3659973 .0011138916 .43499757 .09310913 .43499757 .19412232M.22999573 .40711976C.100997928 .43312074 .100997928 .52812197 .100997928 .54112246 .100997928 .60112 .14698792 .66511538 .22999573 .67411807V.40711976M.3880005 .16711426C.3880005 .09611511 .33799745 .02911377 .25898744 .020111084V.31510926C.3829956 .29011537 .3880005 .18711853 .3880005 .16711426Z"/>
</defs>
<path transform="matrix(1.00002,0,0,-1.00002,1.5771332,162.97803)" stroke-width=".3985" stroke-linecap="butt" stroke-miterlimit="10" stroke-linejoin="miter" fill="none" stroke="#bfbfbf" d="M0 0V161.393M6.69905 0V161.393M13.3981 0V161.393M20.09715 0V161.393M33.49527 0V161.393M40.19432 0V161.393M46.89339 0V161.393M53.59244 0V161.393M60.29149 0V161.393M66.99055 0V161.393M73.6896 0V161.393M80.38866 0V161.393M87.08772 0V161.393M93.78677 0V161.393M100.48582 0V161.393M107.18489 0V161.393M113.88394 0V161.393M120.583 0V161.393M127.28206 0V161.393M133.98111 0V161.393M140.68016 0V161.393M147.37923 0V161.393M154.07828 0V161.393M160.77733 0V161.393M167.4764 0V161.393M174.17545 0V161.393M180.8745 0V161.393M187.57357 0V161.393M194.27262 0V161.393"/>
<path transform="matrix(1.00002,0,0,-1.00002,1.5771332,162.97803)" stroke-width=".3985" stroke-linecap="butt" stroke-miterlimit="10" stroke-linejoin="miter" fill="none" stroke="#bfbfbf" d="M0 0H194.27262M0 12.41484H194.27262M0 18.62227H194.27262M0 24.82968H194.27262M0 31.03711H194.27262M0 37.24454H194.27262M0 43.45197H194.27262M0 49.65938H194.27262M0 55.8668H194.27262M0 62.07423H194.27262M0 68.28166H194.27262M0 74.48907H194.27262M0 80.6965H194.27262M0 86.90393H194.27262M0 93.11134H194.27262M0 99.31877H194.27262M0 105.5262H194.27262M0 111.73363H194.27262M0 117.94104H194.27262M0 124.14847H194.27262M0 130.3559H194.27262M0 136.56333H194.27262M0 142.77074H194.27262M0 148.97817H194.27262M0 155.1856H194.27262M0 161.393H194.27262"/>
<path transform="matrix(1.00002,0,0,-1.00002,1.5771332,162.97803)" stroke-width=".19925" stroke-linecap="butt" stroke-miterlimit="10" stroke-linejoin="miter" fill="none" stroke="#7f807f" d="M0 4.0814V8.33342M6.69905 4.0814V8.33342M13.3981 4.0814V8.33342M20.09715 4.0814V8.33342M33.49527 4.0814V8.33342M40.19432 4.0814V8.33342M46.89339 4.0814V8.33342M53.59244 4.0814V8.33342M60.29149 4.0814V8.33342M66.99055 4.0814V8.33342M73.6896 4.0814V8.33342M80.38866 4.0814V8.33342M87.08772 4.0814V8.33342M93.78677 4.0814V8.33342M100.48582 4.0814V8.33342M107.18489 4.0814V8.33342M113.88394 4.0814V8.33342M120.583 4.0814V8.33342M127.28206 4.0814V8.33342M133.98111 4.0814V8.33342M140.68016 4.0814V8.33342M147.37923 4.0814V8.33342M154.07828 4.0814V8.33342M160.77733 4.0814V8.33342M167.4764 4.0814V8.33342M174.17545 4.0814V8.33342M180.8745 4.0814V8.33342M187.57357 4.0814V8.33342M194.27262 4.0814V8.33342"/>
<path transform="matrix(1.00002,0,0,-1.00002,1.5771332,162.97803)" stroke-width=".19925" stroke-linecap="butt" stroke-miterlimit="10" stroke-linejoin="miter" fill="none" stroke="#7f807f" d="M24.67026 0H28.92215M24.67026 12.41484H28.92215M24.67026 18.62227H28.92215M24.67026 24.82968H28.92215M24.67026 31.03711H28.92215M24.67026 37.24454H28.92215M24.67026 43.45197H28.92215M24.67026 49.65938H28.92215M24.67026 55.8668H28.92215M24.67026 62.07423H28.92215M24.67026 68.28166H28.92215M24.67026 74.48907H28.92215M24.67026 80.6965H28.92215M24.67026 86.90393H28.92215M24.67026 93.11134H28.92215M24.67026 99.31877H28.92215M24.67026 105.5262H28.92215M24.67026 111.73363H28.92215M24.67026 117.94104H28.92215M24.67026 124.14847H28.92215M24.67026 130.3559H28.92215M24.67026 136.56333H28.92215M24.67026 142.77074H28.92215M24.67026 148.97817H28.92215M24.67026 155.1856H28.92215M24.67026 161.393H28.92215"/>
<path transform="matrix(1.00002,0,0,-1.00002,1.5771332,162.97803)" stroke-width=".3985" stroke-linecap="butt" stroke-miterlimit="10" stroke-linejoin="miter" fill="none" stroke="#000000" d="M0 6.20741H192.28009"/>
<path transform="matrix(1.00002,0,0,-1.00002,193.86107,156.7705)" d="M1.99252 0-1.19551 1.59401 0 0-1.19551-1.59401"/>
<path transform="matrix(1.00002,0,0,-1.00002,1.5771332,162.97803)" stroke-width=".3985" stroke-linecap="butt" stroke-miterlimit="10" stroke-linejoin="miter" fill="none" stroke="#000000" d="M26.79622 0V159.40048"/>
<path transform="matrix(0,-1.00002,-1.00002,-0,28.37389,3.574356)" d="M1.99252 0-1.19551 1.59401 0 0-1.19551-1.59401"/>
<g clip-path="url(#clip_1)">
</g>
<use data-text="g" xlink:href="#font_2_59" transform="matrix(11.95544,0,0,-11.95544,135.67682,149.58477)"/>
<use data-text="a" xlink:href="#font_2_28" transform="matrix(11.95544,0,0,-11.95544,141.53498,149.58477)"/>
<use data-text="l" xlink:href="#font_2_72" transform="matrix(11.95544,0,0,-11.95544,147.39316,149.58477)"/>
<use data-text="(" xlink:href="#font_2_85" transform="matrix(11.95544,0,0,-11.95544,154.53055,149.58477)"/>
<use data-text="1" xlink:href="#font_2_82" transform="matrix(11.95544,0,0,-11.95544,159.08557,149.58477)"/>
<use data-text="0" xlink:href="#font_2_121" transform="matrix(11.95544,0,0,-11.95544,164.94373,149.58477)"/>
<use data-text="0" xlink:href="#font_2_121" transform="matrix(11.95544,0,0,-11.95544,170.8019,149.58477)"/>
<use data-text="0" xlink:href="#font_2_121" transform="matrix(11.95544,0,0,-11.95544,176.66007,149.58477)"/>
<use data-text="s" xlink:href="#font_2_98" transform="matrix(11.95544,0,0,-11.95544,182.51822,149.58477)"/>
<use data-text=")" xlink:href="#font_2_86" transform="matrix(11.95544,0,0,-11.95544,187.13303,149.58477)"/>
<use data-text="$" xlink:href="#font_2_48" transform="matrix(11.95544,0,0,-11.95544,32.56275,14.7070469)"/>
</svg>
