<svg xmlns="http://www.w3.org/2000/svg" xmlns:xlink="http://www.w3.org/1999/xlink" xmlns:inkscape="http://www.inkscape.org/namespaces/inkscape" version="1.1" width="197" height="165" viewBox="0 0 197 165">
<defs>
<path id="font_1_1" d="M.6589966 .23046875C.6759949 .23046875 .69400027 .23046875 .69400027 .25045777 .69400027 .27046205 .6759949 .27046205 .6589966 .27046205H.117996219C.100997928 .27046205 .08299255 .27046205 .08299255 .25045777 .08299255 .23046875 .100997928 .23046875 .117996219 .23046875H.6589966Z"/>
<path id="font_2_4" d="M.36099244 .6508026C.36099244 .6697998 .36099244 .6748047 .34700013 .6748047 .33898927 .6748047 .33599855 .6748047 .32798768 .662796L.026992798 .19598389V.16699219H.2899933V.07598877C.2899933 .038986207 .28799439 .0289917 .21499634 .0289917H.19499207V0C.21798706 .0019989014 .29699708 .0019989014 .32499696 .0019989014 .35299684 .0019989014 .43299867 .0019989014 .45599366 0V.0289917H.43598939C.3639984 .0289917 .36099244 .038986207 .36099244 .07598877V.16699219H.46199037V.19598389H.36099244V.6508026M.29499818 .5728302V.19598389H.051986696L.29499818 .5728302Z"/>
<path id="font_2_2" d="M.43998719 .16790772H.41799928C.4149933 .15092469 .40699769 .09597778 .39698792 .07998657 .3899994 .070999149 .33299256 .070999149 .30299378 .070999149H.117996219C.14498902 .09397888 .20599365 .15792847 .23199463 .18190003 .38398744 .3217926 .43998719 .37374879 .43998719 .47270204 .43998719 .5878906 .34899903 .66503909 .23298645 .66503909 .116989139 .66503909 .04899597 .5658264 .04899597 .4797058 .04899597 .42871095 .09298706 .42871095 .09599304 .42871095 .116989139 .42871095 .14299011 .44371034 .14299011 .475708 .14299011 .5037079 .12399292 .5227051 .09599304 .5227051 .08699036 .5227051 .084991458 .5227051 .08198547 .521698 .100997928 .5899048 .15499878 .6360321 .21998596 .6360321 .30499269 .6360321 .35699464 .56481936 .35699464 .47270204 .35699464 .3877411 .30799867 .313797 .25099183 .24984741L.04899597 .023986817V0H.4139862L.43998719 .16790772Z"/>
<path id="font_2_3" d="M.18399048 .35888673C.16699219 .35787965 .16299439 .35688783 .16299439 .34788514 .16299439 .33789063 .16799927 .33789063 .18598938 .33789063H.23199463C.31698609 .33789063 .35499574 .267807 .35499574 .17172241 .35499574 .04058838 .2869873 .005508423 .23799134 .005508423 .18998719 .005508423 .10798645 .028564454 .07899475 .09472656 .11099243 .08970642 .13999939 .10771179 .13999939 .14372254 .13999939 .17271424 .11898804 .1927185 .09098816 .1927185 .066986087 .1927185 .040985109 .1787262 .040985109 .14071656 .040985109 .051620485 .12998963-.021484375 .24099732-.021484375 .3600006-.021484375 .44799806 .06965637 .44799806 .17071533 .44799806 .26280213 .37399293 .33488465 .27799989 .35188294 .36499024 .3769226 .42099 .45011903 .42099 .5282135 .42099 .6071167 .33898927 .66503909 .24198914 .66503909 .14199829 .66503909 .067993167 .604126 .067993167 .5312042 .067993167 .49121095 .09899902 .48321534 .11399841 .48321534 .1349945 .48321534 .15899658 .49821473 .15899658 .5282135 .15899658 .5602112 .1349945 .57421877 .11299133 .57421877 .10699463 .57421877 .10499573 .57421877 .101989749 .57321169 .13999939 .641037 .23399353 .641037 .23899842 .641037 .27198792 .641037 .33699037 .6260681 .33699037 .5282135 .33699037 .5092163 .33399964 .453125 .30499269 .41001893 .2749939 .3658905 .24099732 .36288453 .21398926 .36187745L.18399048 .35888673Z"/>
<path id="font_2_1" d="M.28799439 .64105227C.28799439 .664032 .28799439 .66503909 .2679901 .66503909 .24398804 .6380615 .19400025 .6012573 .09098816 .6012573V.5722656C.11399841 .5722656 .1639862 .5722656 .21899414 .59825137V.07701111C.21899414 .041000368 .21598816 .0289917 .12799073 .0289917H.09700012V0C.12399292 .0019989014 .22099304 .0019989014 .2539978 .0019989014 .2869873 .0019989014 .3829956 .0019989014 .4099884 0V.0289917H.3789978C.29100038 .0289917 .28799439 .041000368 .28799439 .07701111V.64105227Z"/>
<clipPath id="clip_3">
<path transform="matrix(1,0,0,-1.00002,1.3599968,163.18994)" d="M0 0H194.2676V161.39028H0Z"/>
</clipPath>
<path id="font_4_27" d="M.70199587 0V.0289917C.6369934 .0289917 .61898806 .0289917 .6049957 .06993103L.3869934 .6958618C.3829956 .7078552 .3809967 .7138672 .36698915 .7138672 .35299684 .7138672 .35099793 .7108612 .34599305 .69485476L.13699341 .09689331C.12298584 .05595398 .09498596 .02998352 .0309906 .0289917V0L.1269989 .0019989014C.15499878 .0019989014 .20298767 .0019989014 .22898865 0V.0289917C.18699646 .02998352 .1619873 .050964357 .1619873 .07891846 .1619873 .08491516 .1619873 .08691406 .16699219 .09989929L.21299744 .23271179H.46499635L.519989 .075927738C.5249939 .063949588 .5249939 .061950685 .5249939 .058944704 .5249939 .0289917 .47399903 .0289917 .44898988 .0289917V0C.47200013 .0019989014 .5509949 .0019989014 .57899478 .0019989014 .6069946 .0019989014 .67900088 .0019989014 .70199587 0M.45498658 .26171876H.22299195L.33898927 .5948181 .45498658 .26171876Z"/>
<path id="font_4_34" d="M.6380005 .18299866C.6380005 .2639923 .5649872 .34399415 .44599916 .35699464 .54100039 .37478639 .6100006 .43873597 .6100006 .5137024 .6100006 .5996399 .522995 .6826172 .3919983 .6826172H.042999269V.6536102H.06298828C.1349945 .6536102 .13798523 .6436157 .13798523 .6066437V.07595825C.13798523 .038986207 .1349945 .0289917 .06298828 .0289917H.042999269V0H.4189911C.5479889 0 .6380005 .08694458 .6380005 .18286133V.18299866M.5219879 .5136566C.5219879 .44769288 .46998597 .36471559 .35899354 .36471559H.21398926V.61361697C.21398926 .64660647 .21598816 .6536102 .2599945 .6536102H.38598634C.48599244 .6536102 .5219879 .5676422 .5219879 .5136566M.5469971 .18385315C.5469971 .10293579 .48599244 .0289917 .3880005 .0289917H.2599945C.21598816 .0289917 .21398926 .035980226 .21398926 .06895447V.34472657H.40098573C.49699403 .34472657 .5469971 .26078797 .5469971 .18385315Z"/>
<path id="font_4_42" d="M.6519928 .23170471C.6519928 .24272156 .6519928 .24871826 .6409912 .24871826 .6309967 .24871826 .6299896 .24371338 .6299896 .2367096 .62098696 .07757568 .5049896 .007507324 .4079895 .007507324 .33799745 .007507324 .14698792 .049545289 .14698792 .34179688 .14698792 .63105776 .33499146 .6750946 .40699769 .6750946 .5119934 .6750946 .60398867 .5860138 .6239929 .43588258 .6259918 .4238739 .6259918 .42086793 .6380005 .42086793 .6519928 .42086793 .6519928 .4238739 .6519928 .44389344V.6810913C.6519928 .6990967 .6519928 .70410159 .6419983 .70410159 .6359863 .70410159 .6349945 .7020874 .6289978 .6920929L.5799866 .6130371C.5349884 .6690979 .46699525 .70410159 .394989 .70410159 .21199036 .70410159 .053985597 .54597476 .053985597 .34179688 .053985597 .13461304 .21398926-.021484375 .394989-.021484375 .5589905-.021484375 .6519928 .12161255 .6519928 .23170471Z"/>
<path id="font_4_46" d="M.69299319 .33480836C.69299319 .5276947 .55799868 .6826172 .3919983 .6826172H.041992189V.6536102H.06199646C.13398743 .6536102 .13699341 .6436157 .13699341 .6066437V.07595825C.13699341 .038986207 .13398743 .0289917 .06199646 .0289917H.041992189V0H.3919983C.5589905 0 .69299319 .1499176 .69299319 .33480836M.60198977 .33580018C.60198977 .2798462 .6009979 .18589783 .5439911 .11193848 .5109863 .06996155 .45098878 .0289917 .36698915 .0289917H.2619934C.21798706 .0289917 .21598816 .035995485 .21598816 .06896973V.6136322C.21598816 .6466217 .21798706 .6536102 .2619934 .6536102H.36698915C.44999696 .6536102 .5159912 .6136322 .5569916 .5476837 .60198977 .4767151 .60198977 .3757782 .60198977 .33580018Z"/>
<path id="font_4_49" d="M.6380005 .2558899H.6159973C.59199526 .09996033 .56799319 .0289917 .39898683 .0289917H.2630005C.21899414 .0289917 .21699524 .035995485 .21699524 .06896973V.3388672H.30799867C.4039917 .3388672 .4149933 .3078766 .4149933 .22190857H.43699647V.48477174H.4149933C.4149933 .39883424 .4039917 .3678589 .30799867 .3678589H.21699524V.6116791C.21699524 .6446686 .21899414 .6516571 .2630005 .6516571H.3959961C.54299929 .6516571 .57398989 .6016998 .58898928 .4577942H.61099246L.58499148 .68066409H.040985109V.6516571H.06098938C.1329956 .6516571 .13598633 .6416626 .13598633 .60469058V.07597351C.13598633 .038986207 .1329956 .0289917 .06098938 .0289917H.040985109V0H.59799197L.6380005 .2558899Z"/>
<path id="font_4_54" d="M.5970001 .45799256 .57099917 .68066409H.040985109V.6516571H.06098938C.1329956 .6516571 .13598633 .64167788 .13598633 .6047363V.07601929C.13598633 .039001466 .1329956 .0289917 .06098938 .0289917H.040985109V0C.06498718 .0019989014 .1539917 .0019989014 .18399048 .0019989014 .21899414 .0019989014 .30699159 .0019989014 .33599855 0V.0289917H.30599977C.21899414 .0289917 .21699524 .041000368 .21699524 .07702637V.32617188H.30499269C.39898683 .32617188 .40899659 .29315187 .40899659 .20909119H.43099977V.4719696H.40899659C.40899659 .3881073 .39898683 .35516358 .30499269 .35516358H.21699524V.61172488C.21699524 .6446686 .21899414 .6516571 .2630005 .6516571H.3880005C.5319977 .6516571 .5609894 .5987396 .57499697 .45799256H.5970001Z"/>
<path id="font_4_58" d="M.71899417 .24150086V.2705078C.69299319 .26849366 .6239929 .26849366 .59399417 .26849366 .56199648 .26849366 .47499085 .26849366 .44799806 .2705078V.24150086H.47898866C.5669861 .24150086 .56999209 .22950745 .56999209 .1934967V.12950135C.56999209 .01550293 .43899537 .007507324 .41299439 .007507324 .33399964 .007507324 .14698792 .055511476 .14698792 .3415985 .14698792 .6310272 .33599855 .6750946 .4059906 .6750946 .49299623 .6750946 .5970001 .6119995 .6230011 .43473817 .625 .4237213 .625 .42071534 .6369934 .42071534 .651001 .42071534 .651001 .4237213 .651001 .4437561V.6810913C.651001 .6990967 .651001 .70410159 .6409912 .70410159 .6349945 .70410159 .6339874 .7020874 .6279907 .6920929L.57899478 .6130066C.5499878 .64904788 .4889984 .70410159 .3939972 .70410159 .21299744 .70410159 .053985597 .5469055 .053985597 .3415985 .053985597 .13450623 .21299744-.021484375 .394989-.021484375 .46598817-.021484375 .5469971 .0015106201 .58399966 .06550598 .60198977 .0335083 .6349945 .00050354006 .6429901 .00050354006 .651001 .00050354006 .651001 .006515503 .651001 .022506714V.19750977C.651001 .23649597 .6549988 .24150086 .71899417 .24150086Z"/>
<path id="font_4_62" d="M.69200137 0V.0289917H.6719971C.59999087 .0289917 .5970001 .038986207 .5970001 .07595825V.6066437C.5970001 .6436157 .59999087 .6536102 .6719971 .6536102H.69200137V.6826172C.66799929 .680603 .58599856 .680603 .5569916 .680603 .5269928 .680603 .44499208 .680603 .42099 .6826172V.6536102H.44099427C.5130005 .6536102 .5159912 .6436157 .5159912 .6066437V.369812H.21699524V.6066437C.21699524 .6436157 .21998596 .6536102 .2919922 .6536102H.31199647V.6826172C.28799439 .680603 .20599365 .680603 .1769867 .680603 .14698792 .680603 .06498718 .680603 .040985109 .6826172V.6536102H.06098938C.1329956 .6536102 .13598633 .6436157 .13598633 .6066437V.07595825C.13598633 .038986207 .1329956 .0289917 .06098938 .0289917H.040985109V0C.06498718 .0019989014 .14698792 .0019989014 .17599488 .0019989014 .20599365 .0019989014 .28799439 .0019989014 .31199647 0V.0289917H.2919922C.21998596 .0289917 .21699524 .038986207 .21699524 .07595825V.3408203H.5159912V.07595825C.5159912 .038986207 .5130005 .0289917 .44099427 .0289917H.42099V0C.44499208 .0019989014 .5269928 .0019989014 .55599978 .0019989014 .58599856 .0019989014 .66799929 .0019989014 .69200137 0Z"/>
<path id="font_4_65" d="M.31698609 0V.0289917H.29499818C.21998596 .0289917 .21699524 .038986207 .21699524 .07595825V.6066437C.21699524 .6436157 .21998596 .6536102 .29499818 .6536102H.31698609V.6826172C.29299928 .680603 .20698548 .680603 .1769867 .680603 .14698792 .680603 .05999756 .680603 .035995485 .6826172V.6536102H.057998659C.1329956 .6536102 .13598633 .6436157 .13598633 .6066437V.07595825C.13598633 .038986207 .1329956 .0289917 .057998659 .0289917H.035995485V0C.05999756 .0019989014 .1459961 .0019989014 .17599488 .0019989014 .20599365 .0019989014 .29299928 .0019989014 .31698609 0Z"/>
<path id="font_4_67" d="M.45098878 .6536102V.6826172C.42599488 .680603 .35398866 .680603 .32499696 .680603 .2919922 .680603 .20498657 .680603 .17799378 .6826172V.6536102H.20899964C.2979889 .6536102 .30099488 .64160159 .30099488 .6056061V.14656067C.30099488 .057556154 .2539978-.0014801025 .19999695-.0014801025 .1789856-.0014801025 .11999512 .0065307619 .08999634 .06455994 .11999512 .059570314 .1499939 .077560428 .1499939 .11355591 .1499939 .13755799 .13398743 .16256714 .099990848 .16256714 .07699585 .16256714 .050994874 .14855957 .050994874 .11155701 .050994874 .040542604 .115997318-.021484375 .20298767-.021484375 .2869873-.021484375 .37998963 .0385437 .37998963 .14855957V.6096039C.37998963 .64860537 .38398744 .6536102 .45098878 .6536102Z"/>
</defs>
<path transform="matrix(1,0,0,-1.00002,1.3599968,163.18994)" stroke-width=".3985" stroke-linecap="butt" stroke-miterlimit="10" stroke-linejoin="miter" fill="none" stroke="#bfbfbf" d="M10.79263 0V161.39028M53.96321 0V161.39028M140.30437 0V161.39028M183.47495 0V161.39028"/>
<path transform="matrix(1,0,0,-1.00002,1.3599968,163.18994)" stroke-width=".3985" stroke-linecap="butt" stroke-miterlimit="10" stroke-linejoin="miter" fill="none" stroke="#bfbfbf" d="M0 8.96613H194.2676M0 44.83063H194.2676M0 116.55965H194.2676M0 152.42415H194.2676"/>
<path transform="matrix(1,0,0,-1.00002,1.3599968,163.18994)" stroke-width=".19925" stroke-linecap="butt" stroke-miterlimit="10" stroke-linejoin="miter" fill="none" stroke="#7f807f" d="M10.79263 78.56926V82.821M53.96321 78.56926V82.821M140.30437 78.56926V82.821M183.47495 78.56926V82.821"/>
<path transform="matrix(1,0,0,-1.00002,1.3599968,163.18994)" stroke-width=".19925" stroke-linecap="butt" stroke-miterlimit="10" stroke-linejoin="miter" fill="none" stroke="#7f807f" d="M95.00781 8.96613H99.25977M95.00781 44.83063H99.25977M95.00781 116.55965H99.25977M95.00781 152.42415H99.25977"/>
<path transform="matrix(1,0,0,-1.00002,1.3599968,163.18994)" stroke-width=".3985" stroke-linecap="butt" stroke-miterlimit="10" stroke-linejoin="miter" fill="none" stroke="#000000" d="M0 80.69513H192.27507"/>
<path transform="matrix(1,0,0,-1.00002,193.63507,82.493198)" d="M1.99252 0-1.19551 1.59401 0 0-1.19551-1.59401"/>
<path transform="matrix(1,0,0,-1.00002,1.3599968,163.18994)" stroke-width=".3985" stroke-linecap="butt" stroke-miterlimit="10" stroke-linejoin="miter" fill="none" stroke="#000000" d="M97.13379 0V159.39775"/>
<path transform="matrix(0,-1.00002,-1,-0,98.49379,3.7890015)" d="M1.99252 0-1.19551 1.59401 0 0-1.19551-1.59401"/>
<use data-text="&#x2212;" xlink:href="#font_1_1" transform="matrix(11.9552,0,0,-11.95544,4.576996,96.50761)"/>
<use data-text="4" xlink:href="#font_2_4" transform="matrix(11.9552,0,0,-11.95544,13.875996,96.50761)"/>
<use data-text="&#x2212;" xlink:href="#font_1_1" transform="matrix(11.9552,0,0,-11.95544,47.746999,96.50761)"/>
<use data-text="2" xlink:href="#font_2_2" transform="matrix(11.9552,0,0,-11.95544,57.045999,96.50761)"/>
<use data-text="2" xlink:href="#font_2_2" transform="matrix(11.9552,0,0,-11.95544,138.738,96.50761)"/>
<use data-text="4" xlink:href="#font_2_4" transform="matrix(11.9552,0,0,-11.95544,181.90799,96.50761)"/>
<use data-text="&#x2212;" xlink:href="#font_1_1" transform="matrix(11.9552,0,0,-11.95544,77.032,157.57784)"/>
<use data-text="4" xlink:href="#font_2_4" transform="matrix(11.9552,0,0,-11.95544,86.33099,157.57784)"/>
<use data-text="&#x2212;" xlink:href="#font_1_1" transform="matrix(11.9552,0,0,-11.95544,77.032,121.71211)"/>
<use data-text="2" xlink:href="#font_2_2" transform="matrix(11.9552,0,0,-11.95544,86.33099,121.71211)"/>
<use data-text="2" xlink:href="#font_2_2" transform="matrix(11.9552,0,0,-11.95544,86.33099,50.480684)"/>
<use data-text="4" xlink:href="#font_2_4" transform="matrix(11.9552,0,0,-11.95544,86.33099,14.61496)"/>
<path transform="matrix(1,0,0,-1.00002,1.3599968,163.18994)" stroke-width=".3985" stroke-linecap="butt" stroke-miterlimit="10" stroke-linejoin="miter" fill="none" stroke="#bfbfbf" d="M32.37793 0V161.39028M75.54851 0V161.39028M118.71909 0V161.39028M161.88967 0V161.39028"/>
<path transform="matrix(1,0,0,-1.00002,1.3599968,163.18994)" stroke-width=".19925" stroke-linecap="butt" stroke-miterlimit="10" stroke-linejoin="miter" fill="none" stroke="#7f807f" d="M32.37793 78.56926V82.821M75.54851 78.56926V82.821M118.71909 78.56926V82.821M161.88967 78.56926V82.821"/>
<use data-text="&#x2212;" xlink:href="#font_1_1" transform="matrix(11.9552,0,0,-11.95544,26.161997,96.50761)"/>
<use data-text="3" xlink:href="#font_2_3" transform="matrix(11.9552,0,0,-11.95544,35.461,96.50761)"/>
<use data-text="&#x2212;" xlink:href="#font_1_1" transform="matrix(11.9552,0,0,-11.95544,69.33299,96.50761)"/>
<use data-text="1" xlink:href="#font_2_1" transform="matrix(11.9552,0,0,-11.95544,78.631999,96.50761)"/>
<use data-text="1" xlink:href="#font_2_1" transform="matrix(11.9552,0,0,-11.95544,117.153,96.50761)"/>
<use data-text="3" xlink:href="#font_2_3" transform="matrix(11.9552,0,0,-11.95544,160.323,96.50761)"/>
<path transform="matrix(1,0,0,-1.00002,1.3599968,163.18994)" stroke-width=".3985" stroke-linecap="butt" stroke-miterlimit="10" stroke-linejoin="miter" fill="none" stroke="#bfbfbf" d="M0 26.89838H194.2676M0 62.76288H194.2676M0 98.62738H194.2676M0 134.4919H194.2676"/>
<path transform="matrix(1,0,0,-1.00002,1.3599968,163.18994)" stroke-width=".19925" stroke-linecap="butt" stroke-miterlimit="10" stroke-linejoin="miter" fill="none" stroke="#7f807f" d="M95.00781 26.89838H99.25977M95.00781 62.76288H99.25977M95.00781 98.62738H99.25977M95.00781 134.4919H99.25977"/>
<use data-text="&#x2212;" xlink:href="#font_1_1" transform="matrix(11.9552,0,0,-11.95544,77.032,139.64548)"/>
<use data-text="3" xlink:href="#font_2_3" transform="matrix(11.9552,0,0,-11.95544,86.33099,139.64548)"/>
<use data-text="&#x2212;" xlink:href="#font_1_1" transform="matrix(11.9552,0,0,-11.95544,77.032,103.779758)"/>
<use data-text="1" xlink:href="#font_2_1" transform="matrix(11.9552,0,0,-11.95544,86.33099,103.779758)"/>
<use data-text="1" xlink:href="#font_2_1" transform="matrix(11.9552,0,0,-11.95544,86.33099,68.41304)"/>
<use data-text="3" xlink:href="#font_2_3" transform="matrix(11.9552,0,0,-11.95544,86.33099,32.547334)"/>
<g clip-path="url(#clip_3)">
</g>
<path transform="matrix(1,0,0,-1.00002,1.3599968,163.18994)" d="M142.29692 134.4919C142.29692 135.59236 141.40485 136.48445 140.30437 136.48445 139.2039 136.48445 138.31182 135.59236 138.31182 134.4919 138.31182 133.39142 139.2039 132.49935 140.30437 132.49935 141.40485 132.49935 142.29692 133.39142 142.29692 134.4919ZM140.30437 134.4919" fill="#0000cc"/>
<path transform="matrix(1,0,0,-1.00002,1.3599968,163.18994)" stroke-width=".3985" stroke-linecap="butt" stroke-miterlimit="10" stroke-linejoin="miter" fill="none" stroke="#0000ff" d="M142.29692 134.4919C142.29692 135.59236 141.40485 136.48445 140.30437 136.48445 139.2039 136.48445 138.31182 135.59236 138.31182 134.4919 138.31182 133.39142 139.2039 132.49935 140.30437 132.49935 141.40485 132.49935 142.29692 133.39142 142.29692 134.4919ZM140.30437 134.4919"/>
<path transform="matrix(1,0,0,-1.00002,1.3599968,163.18994)" stroke-width=".3985" stroke-linecap="butt" stroke-miterlimit="10" stroke-linejoin="miter" fill="none" stroke="#0000ff" d=""/>
<use data-text="A" xlink:href="#font_4_27" transform="matrix(11.9552,0,0,-11.95544,137.27701,24.51117)" fill="#0000ff"/>
<path transform="matrix(1,0,0,-1.00002,1.3599968,163.18994)" d="M34.37048 98.62738C34.37048 99.72786 33.4784 100.61993 32.37793 100.61993 31.27745 100.61993 30.38538 99.72786 30.38538 98.62738 30.38538 97.52692 31.27745 96.63483 32.37793 96.63483 33.4784 96.63483 34.37048 97.52692 34.37048 98.62738ZM32.37793 98.62738" fill="#0000cc"/>
<path transform="matrix(1,0,0,-1.00002,1.3599968,163.18994)" stroke-width=".3985" stroke-linecap="butt" stroke-miterlimit="10" stroke-linejoin="miter" fill="none" stroke="#0000ff" d="M34.37048 98.62738C34.37048 99.72786 33.4784 100.61993 32.37793 100.61993 31.27745 100.61993 30.38538 99.72786 30.38538 98.62738 30.38538 97.52692 31.27745 96.63483 32.37793 96.63483 33.4784 96.63483 34.37048 97.52692 34.37048 98.62738ZM32.37793 98.62738"/>
<path transform="matrix(1,0,0,-1.00002,1.3599968,163.18994)" stroke-width=".3985" stroke-linecap="butt" stroke-miterlimit="10" stroke-linejoin="miter" fill="none" stroke="#0000ff" d=""/>
<use data-text="B" xlink:href="#font_4_34" transform="matrix(11.9552,0,0,-11.95544,29.594998,60.376886)" fill="#0000ff"/>
<path transform="matrix(1,0,0,-1.00002,1.3599968,163.18994)" d="M77.54106 62.76288C77.54106 63.86336 76.64897 64.75543 75.54851 64.75543 74.44803 64.75543 73.55595 63.86336 73.55595 62.76288 73.55595 61.66241 74.44803 60.77032 75.54851 60.77032 76.64897 60.77032 77.54106 61.66241 77.54106 62.76288ZM75.54851 62.76288" fill="#0000cc"/>
<path transform="matrix(1,0,0,-1.00002,1.3599968,163.18994)" stroke-width=".3985" stroke-linecap="butt" stroke-miterlimit="10" stroke-linejoin="miter" fill="none" stroke="#0000ff" d="M77.54106 62.76288C77.54106 63.86336 76.64897 64.75543 75.54851 64.75543 74.44803 64.75543 73.55595 63.86336 73.55595 62.76288 73.55595 61.66241 74.44803 60.77032 75.54851 60.77032 76.64897 60.77032 77.54106 61.66241 77.54106 62.76288ZM75.54851 62.76288"/>
<path transform="matrix(1,0,0,-1.00002,1.3599968,163.18994)" stroke-width=".3985" stroke-linecap="butt" stroke-miterlimit="10" stroke-linejoin="miter" fill="none" stroke="#0000ff" d=""/>
<use data-text="C" xlink:href="#font_4_42" transform="matrix(11.9552,0,0,-11.95544,72.68199,113.02694)" fill="#0000ff"/>
<path transform="matrix(1,0,0,-1.00002,1.3599968,163.18994)" d="M77.54106 134.4919C77.54106 135.59236 76.64897 136.48445 75.54851 136.48445 74.44803 136.48445 73.55595 135.59236 73.55595 134.4919 73.55595 133.39142 74.44803 132.49935 75.54851 132.49935 76.64897 132.49935 77.54106 133.39142 77.54106 134.4919ZM75.54851 134.4919" fill="#0000cc"/>
<path transform="matrix(1,0,0,-1.00002,1.3599968,163.18994)" stroke-width=".3985" stroke-linecap="butt" stroke-miterlimit="10" stroke-linejoin="miter" fill="none" stroke="#0000ff" d="M77.54106 134.4919C77.54106 135.59236 76.64897 136.48445 75.54851 136.48445 74.44803 136.48445 73.55595 135.59236 73.55595 134.4919 73.55595 133.39142 74.44803 132.49935 75.54851 132.49935 76.64897 132.49935 77.54106 133.39142 77.54106 134.4919ZM75.54851 134.4919"/>
<path transform="matrix(1,0,0,-1.00002,1.3599968,163.18994)" stroke-width=".3985" stroke-linecap="butt" stroke-miterlimit="10" stroke-linejoin="miter" fill="none" stroke="#0000ff" d=""/>
<use data-text="D" xlink:href="#font_4_46" transform="matrix(11.9552,0,0,-11.95544,72.437,24.51117)" fill="#0000ff"/>
<path transform="matrix(1,0,0,-1.00002,1.3599968,163.18994)" d="M99.12634 98.62738C99.12634 99.72786 98.23427 100.61993 97.13379 100.61993 96.03333 100.61993 95.14124 99.72786 95.14124 98.62738 95.14124 97.52692 96.03333 96.63483 97.13379 96.63483 98.23427 96.63483 99.12634 97.52692 99.12634 98.62738ZM97.13379 98.62738" fill="#0000cc"/>
<path transform="matrix(1,0,0,-1.00002,1.3599968,163.18994)" stroke-width=".3985" stroke-linecap="butt" stroke-miterlimit="10" stroke-linejoin="miter" fill="none" stroke="#0000ff" d="M99.12634 98.62738C99.12634 99.72786 98.23427 100.61993 97.13379 100.61993 96.03333 100.61993 95.14124 99.72786 95.14124 98.62738 95.14124 97.52692 96.03333 96.63483 97.13379 96.63483 98.23427 96.63483 99.12634 97.52692 99.12634 98.62738ZM97.13379 98.62738"/>
<path transform="matrix(1,0,0,-1.00002,1.3599968,163.18994)" stroke-width=".3985" stroke-linecap="butt" stroke-miterlimit="10" stroke-linejoin="miter" fill="none" stroke="#0000ff" d=""/>
<use data-text="E" xlink:href="#font_4_49" transform="matrix(11.9552,0,0,-11.95544,94.513,60.376886)" fill="#0000ff"/>
<path transform="matrix(1,0,0,-1.00002,1.3599968,163.18994)" d="M185.4675 80.69513C185.4675 81.79561 184.57543 82.68768 183.47495 82.68768 182.37448 82.68768 181.48239 81.79561 181.48239 80.69513 181.48239 79.59467 182.37448 78.70258 183.47495 78.70258 184.57543 78.70258 185.4675 79.59467 185.4675 80.69513ZM183.47495 80.69513" fill="#0000cc"/>
<path transform="matrix(1,0,0,-1.00002,1.3599968,163.18994)" stroke-width=".3985" stroke-linecap="butt" stroke-miterlimit="10" stroke-linejoin="miter" fill="none" stroke="#0000ff" d="M185.4675 80.69513C185.4675 81.79561 184.57543 82.68768 183.47495 82.68768 182.37448 82.68768 181.48239 81.79561 181.48239 80.69513 181.48239 79.59467 182.37448 78.70258 183.47495 78.70258 184.57543 78.70258 185.4675 79.59467 185.4675 80.69513ZM183.47495 80.69513"/>
<path transform="matrix(1,0,0,-1.00002,1.3599968,163.18994)" stroke-width=".3985" stroke-linecap="butt" stroke-miterlimit="10" stroke-linejoin="miter" fill="none" stroke="#0000ff" d=""/>
<use data-text="F" xlink:href="#font_4_54" transform="matrix(11.9552,0,0,-11.95544,181.01499,78.30924)" fill="#0000ff"/>
<path transform="matrix(1,0,0,-1.00002,1.3599968,163.18994)" d="M99.12634 26.89838C99.12634 27.99884 98.23427 28.89093 97.13379 28.89093 96.03333 28.89093 95.14124 27.99884 95.14124 26.89838 95.14124 25.7979 96.03333 24.90582 97.13379 24.90582 98.23427 24.90582 99.12634 25.7979 99.12634 26.89838ZM97.13379 26.89838" fill="#0000cc"/>
<path transform="matrix(1,0,0,-1.00002,1.3599968,163.18994)" stroke-width=".3985" stroke-linecap="butt" stroke-miterlimit="10" stroke-linejoin="miter" fill="none" stroke="#0000ff" d="M99.12634 26.89838C99.12634 27.99884 98.23427 28.89093 97.13379 28.89093 96.03333 28.89093 95.14124 27.99884 95.14124 26.89838 95.14124 25.7979 96.03333 24.90582 97.13379 24.90582 98.23427 24.90582 99.12634 25.7979 99.12634 26.89838ZM97.13379 26.89838"/>
<path transform="matrix(1,0,0,-1.00002,1.3599968,163.18994)" stroke-width=".3985" stroke-linecap="butt" stroke-miterlimit="10" stroke-linejoin="miter" fill="none" stroke="#0000ff" d=""/>
<use data-text="G" xlink:href="#font_4_58" transform="matrix(11.9552,0,0,-11.95544,93.903,131.85631)" fill="#0000ff"/>
<path transform="matrix(1,0,0,-1.00002,1.3599968,163.18994)" d="M142.29692 98.62738C142.29692 99.72786 141.40485 100.61993 140.30437 100.61993 139.2039 100.61993 138.31182 99.72786 138.31182 98.62738 138.31182 97.52692 139.2039 96.63483 140.30437 96.63483 141.40485 96.63483 142.29692 97.52692 142.29692 98.62738ZM140.30437 98.62738" fill="#0000cc"/>
<path transform="matrix(1,0,0,-1.00002,1.3599968,163.18994)" stroke-width=".3985" stroke-linecap="butt" stroke-miterlimit="10" stroke-linejoin="miter" fill="none" stroke="#0000ff" d="M142.29692 98.62738C142.29692 99.72786 141.40485 100.61993 140.30437 100.61993 139.2039 100.61993 138.31182 99.72786 138.31182 98.62738 138.31182 97.52692 139.2039 96.63483 140.30437 96.63483 141.40485 96.63483 142.29692 97.52692 142.29692 98.62738ZM140.30437 98.62738"/>
<path transform="matrix(1,0,0,-1.00002,1.3599968,163.18994)" stroke-width=".3985" stroke-linecap="butt" stroke-miterlimit="10" stroke-linejoin="miter" fill="none" stroke="#0000ff" d=""/>
<use data-text="H" xlink:href="#font_4_62" transform="matrix(11.9552,0,0,-11.95544,137.27701,60.376886)" fill="#0000ff"/>
<path transform="matrix(1,0,0,-1.00002,1.3599968,163.18994)" d="M120.71164 62.76288C120.71164 63.86336 119.81955 64.75543 118.71909 64.75543 117.6186 64.75543 116.72653 63.86336 116.72653 62.76288 116.72653 61.66241 117.6186 60.77032 118.71909 60.77032 119.81955 60.77032 120.71164 61.66241 120.71164 62.76288ZM118.71909 62.76288" fill="#0000cc"/>
<path transform="matrix(1,0,0,-1.00002,1.3599968,163.18994)" stroke-width=".3985" stroke-linecap="butt" stroke-miterlimit="10" stroke-linejoin="miter" fill="none" stroke="#0000ff" d="M120.71164 62.76288C120.71164 63.86336 119.81955 64.75543 118.71909 64.75543 117.6186 64.75543 116.72653 63.86336 116.72653 62.76288 116.72653 61.66241 117.6186 60.77032 118.71909 60.77032 119.81955 60.77032 120.71164 61.66241 120.71164 62.76288ZM118.71909 62.76288"/>
<path transform="matrix(1,0,0,-1.00002,1.3599968,163.18994)" stroke-width=".3985" stroke-linecap="butt" stroke-miterlimit="10" stroke-linejoin="miter" fill="none" stroke="#0000ff" d=""/>
<use data-text="I" xlink:href="#font_4_65" transform="matrix(11.9552,0,0,-11.95544,117.968997,112.77593)" fill="#0000ff"/>
<path transform="matrix(1,0,0,-1.00002,1.3599968,163.18994)" d="M12.78519 80.69513C12.78519 81.79561 11.89311 82.68768 10.79263 82.68768 9.69217 82.68768 8.80008 81.79561 8.80008 80.69513 8.80008 79.59467 9.69217 78.70258 10.79263 78.70258 11.89311 78.70258 12.78519 79.59467 12.78519 80.69513ZM10.79263 80.69513" fill="#0000cc"/>
<path transform="matrix(1,0,0,-1.00002,1.3599968,163.18994)" stroke-width=".3985" stroke-linecap="butt" stroke-miterlimit="10" stroke-linejoin="miter" fill="none" stroke="#0000ff" d="M12.78519 80.69513C12.78519 81.79561 11.89311 82.68768 10.79263 82.68768 9.69217 82.68768 8.80008 81.79561 8.80008 80.69513 8.80008 79.59467 9.69217 78.70258 10.79263 78.70258 11.89311 78.70258 12.78519 79.59467 12.78519 80.69513ZM10.79263 80.69513"/>
<path transform="matrix(1,0,0,-1.00002,1.3599968,163.18994)" stroke-width=".3985" stroke-linecap="butt" stroke-miterlimit="10" stroke-linejoin="miter" fill="none" stroke="#0000ff" d=""/>
<use data-text="J" xlink:href="#font_4_67" transform="matrix(11.9552,0,0,-11.95544,9.145996,78.05824)" fill="#0000ff"/>
<path transform="matrix(1,0,0,-1.00002,1.3599968,163.18994)" stroke-width=".3985" stroke-linecap="butt" stroke-miterlimit="10" stroke-linejoin="miter" fill="none" stroke="#0000ff" d=""/>
</svg>
