<svg xmlns="http://www.w3.org/2000/svg" xmlns:xlink="http://www.w3.org/1999/xlink" xmlns:inkscape="http://www.inkscape.org/namespaces/inkscape" version="1.1" width="300" height="30" viewBox="0 0 300 30">
<defs>
<path id="font_1_82" d="M.4099884 0V.0289917H.3789978C.29100038 .0289917 .28799439 .041000368 .28799439 .07701111V.6411133C.28799439 .664032 .28799439 .66503909 .2679901 .66503909 .24398804 .63812258 .19400025 .6012573 .09098816 .6012573V.5722656C.11399841 .5722656 .1639862 .5722656 .21899414 .59825137V.07701111C.21899414 .041000368 .21598816 .0289917 .12799073 .0289917H.09700012V0C.12399292 .0019989014 .22099304 .0019989014 .2539978 .0019989014 .2869873 .0019989014 .3829956 .0019989014 .4099884 0Z"/>
<path id="font_1_88" d="M.18399048 .04899597C.18399048 .07598877 .16099549 .09700012 .13598633 .09700012 .10699463 .09700012 .08699036 .07398987 .08699036 .04899597 .08699036 .018997193 .11199951 0 .1349945 0 .1619873 0 .18399048 .020996094 .18399048 .04899597Z"/>
<path id="font_1_56" d="M.43998719 .2004242C.43998719 .3194275 .3600006 .4184265 .25498963 .4184265 .19799805 .4184265 .1539917 .39343263 .12799073 .36543275V.5722656C.17098999 .558609 .20599365 .5576172 .21699524 .5576172 .32998658 .5576172 .4019928 .6404724 .4019928 .65423586 .4019928 .65815737 .3999939 .66308596 .3939972 .66308596 .3939972 .6638031 .3899994 .6638031 .3809967 .6598053 .32499696 .6358032 .2769928 .6328125 .25099183 .6328125 .18499756 .6322632 .13798523 .6522522 .11898804 .66026309 .11199951 .66308596 .10899353 .66308596 .10899353 .66308596 .100997928 .66308596 .100997928 .65708926 .100997928 .6411133V.34443666C.100997928 .32644654 .100997928 .32044984 .11299133 .32044984 .117996219 .32044984 .11898804 .32144166 .1289978 .33345033 .15699768 .37443543 .20399475 .3984375 .2539978 .3984375 .30699159 .3984375 .33299256 .34944154 .34098817 .33244325 .35798646 .29345704 .35899354 .24446106 .35899354 .20648194 .35899354 .16848755 .35899354 .11149597 .33099366 .06651306 .30899049 .030426026 .269989 .005508423 .22599793 .005508423 .1599884 .005508423 .09498596 .050354005 .07699585 .12310791 .08198547 .12110901 .08799744 .12011719 .09298706 .12011719 .10998535 .12011719 .13699341 .1301117 .13699341 .16410828 .13699341 .19210816 .117996219 .20811463 .09298706 .20811463 .07499695 .20811463 .04899597 .19911194 .04899597 .16011048 .04899597 .07527161 .116989139-.021484375 .22799683-.021484375 .34098817-.021484375 .43998719 .073272708 .43998719 .20010376V.2004242Z"/>
<path id="font_1_100" d="M.47499085 .6212311V.64424136H.23399353C.11299133 .64424136 .11099243 .65704348 .10699463 .67578127H.084991458L.053985597 .47612H.07598877C.07899475 .49414063 .08799744 .5562134 .100997928 .5672302 .10899353 .5732422 .18399048 .5732422 .19799805 .5732422H.4099884L.3039856 .42105104C.2769928 .38200379 .17599488 .21780396 .17599488 .029571534 .17599488 .018554688 .17599488-.021484375 .21699524-.021484375 .25898744-.021484375 .25898744 .017562867 .25898744 .030578614V.08062744C.25898744 .22981262 .2829895 .34596253 .32998658 .41304017L.47499085 .6212311Z"/>
<path id="font_1_107" d="M.43998719 .16799927H.41799928C.4149933 .15098572 .40699769 .09599304 .39698792 .07998657 .3899994 .070999149 .33299256 .070999149 .30299378 .070999149H.117996219C.14498902 .09399414 .20599365 .1579895 .23199463 .18199158 .38398744 .3217926 .43998719 .37374879 .43998719 .47270204 .43998719 .5878906 .34899903 .66503909 .23298645 .66503909 .116989139 .66503909 .04899597 .5658264 .04899597 .4797058 .04899597 .42871095 .09298706 .42871095 .09599304 .42871095 .116989139 .42871095 .14299011 .44371034 .14299011 .475708 .14299011 .5037079 .12399292 .5227051 .09599304 .5227051 .08699036 .5227051 .084991458 .5227051 .08198547 .521698 .100997928 .5899048 .15499878 .6360321 .21998596 .6360321 .30499269 .6360321 .35699464 .56481936 .35699464 .47270204 .35699464 .3877411 .30799867 .313797 .25099183 .24984741L.04899597 .023986817V0H.4139862L.43998719 .16799927Z"/>
<path id="font_1_106" d="M.44799806 .17103577C.44799806 .263031 .37399293 .33503724 .27799989 .35203553 .36499024 .37702943 .42099 .45002748 .42099 .5280304 .42099 .60702517 .33898927 .66503909 .24198914 .66503909 .14199829 .66503909 .067993167 .6040344 .067993167 .5310364 .067993167 .49121095 .09899902 .48321534 .11399841 .48321534 .1349945 .48321534 .15899658 .49821473 .15899658 .5282135 .15899658 .5602112 .1349945 .57421877 .11299133 .57421877 .10699463 .57421877 .10499573 .57421877 .101989749 .57321169 .13999939 .641037 .23399353 .641037 .23899842 .641037 .27198792 .641037 .33699037 .6260681 .33699037 .5282135 .33699037 .5092163 .33399964 .453125 .30499269 .41001893 .2749939 .3658905 .24099732 .36288453 .21398926 .36187745L.18399048 .35888673C.16699219 .35787965 .16299439 .35688783 .16299439 .34788514 .16299439 .33789063 .16799927 .33789063 .18598938 .33789063H.23199463C.31698609 .33789063 .35499574 .267807 .35499574 .17172241 .35499574 .04058838 .2869873 .005508423 .23799134 .005508423 .18998719 .005508423 .10798645 .028564454 .07899475 .09472656 .11099243 .08955383 .13999939 .107543949 .13999939 .14355469 .13999939 .17271424 .11898804 .1927185 .09098816 .1927185 .066986087 .1927185 .040985109 .1787262 .040985109 .14071656 .040985109 .051620485 .12998963-.021484375 .24099732-.021484375 .3600006-.021453858 .44799806 .06954956 .44799806 .17054749V.17103577Z"/>
</defs>
<path transform="matrix(1.00006,0,0,-1,15.364037,8.284)" stroke-width="1.19553" stroke-linecap="butt" stroke-miterlimit="10" stroke-linejoin="miter" fill="none" stroke="#000000" d="M-14.17339 0H283.4681"/>
<path transform="matrix(1.00006,0,0,-1,15.364037,8.284)" stroke-width="1.19553" stroke-linecap="butt" stroke-miterlimit="10" stroke-linejoin="miter" fill="none" stroke="#000000" d="M0 7.08669V-7.08669"/>
<use data-text="1" xlink:href="#font_1_82" transform="matrix(11.955917,0,0,-11.9552,7.879589,27.903)"/>
<use data-text="." xlink:href="#font_1_88" transform="matrix(11.955917,0,0,-11.9552,13.7379879,27.903)"/>
<use data-text="5" xlink:href="#font_1_56" transform="matrix(11.955917,0,0,-11.9552,16.990002,27.903)"/>
<path transform="matrix(1.00006,0,0,-1,15.364037,8.284)" stroke-width="1.19553" stroke-linecap="butt" stroke-miterlimit="10" stroke-linejoin="miter" fill="none" stroke="#000000" d="M14.17339 7.08669V-7.08669"/>
<path transform="matrix(1.00006,0,0,-1,15.364037,8.284)" stroke-width="1.19553" stroke-linecap="butt" stroke-miterlimit="10" stroke-linejoin="miter" fill="none" stroke="#000000" d="M28.3468 7.08669V-7.08669"/>
<use data-text="1" xlink:href="#font_1_82" transform="matrix(11.955917,0,0,-11.9552,33.29911,28.035)"/>
<use data-text="." xlink:href="#font_1_88" transform="matrix(11.955917,0,0,-11.9552,39.15751,28.035)"/>
<use data-text="7" xlink:href="#font_1_100" transform="matrix(11.955917,0,0,-11.9552,42.409524,28.035)"/>
<use data-text="5" xlink:href="#font_1_56" transform="matrix(11.955917,0,0,-11.9552,48.26792,28.035)"/>
<path transform="matrix(1.00006,0,0,-1,15.364037,8.284)" stroke-width="1.19553" stroke-linecap="butt" stroke-miterlimit="10" stroke-linejoin="miter" fill="none" stroke="#000000" d="M42.5202 7.08669V-7.08669"/>
<path transform="matrix(1.00006,0,0,-1,15.364037,8.284)" stroke-width="1.19553" stroke-linecap="butt" stroke-miterlimit="10" stroke-linejoin="miter" fill="none" stroke="#000000" d="M56.69362 7.08669V-7.08669"/>
<use data-text="2" xlink:href="#font_1_107" transform="matrix(11.955917,0,0,-11.9552,69.13226,27.903)"/>
<path transform="matrix(1.00006,0,0,-1,15.364037,8.284)" stroke-width="1.19553" stroke-linecap="butt" stroke-miterlimit="10" stroke-linejoin="miter" fill="none" stroke="#000000" d="M70.867 7.08669V-7.08669"/>
<path transform="matrix(1.00006,0,0,-1,15.364037,8.284)" stroke-width="1.19553" stroke-linecap="butt" stroke-miterlimit="10" stroke-linejoin="miter" fill="none" stroke="#000000" d="M85.04042 7.08669V-7.08669"/>
<use data-text="2" xlink:href="#font_1_107" transform="matrix(11.955917,0,0,-11.9552,89.995517,27.903)"/>
<use data-text="." xlink:href="#font_1_88" transform="matrix(11.955917,0,0,-11.9552,95.85391,27.903)"/>
<use data-text="2" xlink:href="#font_1_107" transform="matrix(11.955917,0,0,-11.9552,99.10593,27.903)"/>
<use data-text="5" xlink:href="#font_1_56" transform="matrix(11.955917,0,0,-11.9552,104.964328,27.903)"/>
<path transform="matrix(1.00006,0,0,-1,15.364037,8.284)" stroke-width="1.19553" stroke-linecap="butt" stroke-miterlimit="10" stroke-linejoin="miter" fill="none" stroke="#000000" d="M99.21382 7.08669V-7.08669"/>
<path transform="matrix(1.00006,0,0,-1,15.364037,8.284)" stroke-width="1.19553" stroke-linecap="butt" stroke-miterlimit="10" stroke-linejoin="miter" fill="none" stroke="#000000" d="M113.38724 7.08669V-7.08669"/>
<use data-text="2" xlink:href="#font_1_107" transform="matrix(11.955917,0,0,-11.9552,121.273387,27.903)"/>
<use data-text="." xlink:href="#font_1_88" transform="matrix(11.955917,0,0,-11.9552,127.13178,27.903)"/>
<use data-text="5" xlink:href="#font_1_56" transform="matrix(11.955917,0,0,-11.9552,130.38379,27.903)"/>
<path transform="matrix(1.00006,0,0,-1,15.364037,8.284)" stroke-width="1.19553" stroke-linecap="butt" stroke-miterlimit="10" stroke-linejoin="miter" fill="none" stroke="#000000" d="M127.56062 7.08669V-7.08669"/>
<path transform="matrix(1.00006,0,0,-1,15.364037,8.284)" stroke-width="1.19553" stroke-linecap="butt" stroke-miterlimit="10" stroke-linejoin="miter" fill="none" stroke="#000000" d="M141.73404 7.08669V-7.08669"/>
<use data-text="2" xlink:href="#font_1_107" transform="matrix(11.955917,0,0,-11.9552,146.6929,28.035)"/>
<use data-text="." xlink:href="#font_1_88" transform="matrix(11.955917,0,0,-11.9552,152.5513,28.035)"/>
<use data-text="7" xlink:href="#font_1_100" transform="matrix(11.955917,0,0,-11.9552,155.80332,28.035)"/>
<use data-text="5" xlink:href="#font_1_56" transform="matrix(11.955917,0,0,-11.9552,161.66172,28.035)"/>
<path transform="matrix(1.00006,0,0,-1,15.364037,8.284)" stroke-width="1.19553" stroke-linecap="butt" stroke-miterlimit="10" stroke-linejoin="miter" fill="none" stroke="#000000" d="M155.90744 7.08669V-7.08669"/>
<path transform="matrix(1.00006,0,0,-1,15.364037,8.284)" stroke-width="1.19553" stroke-linecap="butt" stroke-miterlimit="10" stroke-linejoin="miter" fill="none" stroke="#000000" d="M170.08086 7.08669V-7.08669"/>
<use data-text="3" xlink:href="#font_1_106" transform="matrix(11.955917,0,0,-11.9552,182.52606,27.903)"/>
<path transform="matrix(1.00006,0,0,-1,15.364037,8.284)" stroke-width="1.19553" stroke-linecap="butt" stroke-miterlimit="10" stroke-linejoin="miter" fill="none" stroke="#000000" d="M184.25424 7.08669V-7.08669"/>
<path transform="matrix(1.00006,0,0,-1,15.364037,8.284)" stroke-width="1.19553" stroke-linecap="butt" stroke-miterlimit="10" stroke-linejoin="miter" fill="none" stroke="#000000" d="M198.42766 7.08669V-7.08669"/>
<use data-text="3" xlink:href="#font_1_106" transform="matrix(11.955917,0,0,-11.9552,203.39032,27.903)"/>
<use data-text="." xlink:href="#font_1_88" transform="matrix(11.955917,0,0,-11.9552,209.24872,27.903)"/>
<use data-text="2" xlink:href="#font_1_107" transform="matrix(11.955917,0,0,-11.9552,212.50074,27.903)"/>
<use data-text="5" xlink:href="#font_1_56" transform="matrix(11.955917,0,0,-11.9552,218.35913,27.903)"/>
<path transform="matrix(1.00006,0,0,-1,15.364037,8.284)" stroke-width="1.19553" stroke-linecap="butt" stroke-miterlimit="10" stroke-linejoin="miter" fill="none" stroke="#000000" d="M212.60106 7.08669V-7.08669"/>
<path transform="matrix(1.00006,0,0,-1,15.364037,8.284)" stroke-width="1.19553" stroke-linecap="butt" stroke-miterlimit="10" stroke-linejoin="miter" fill="none" stroke="#000000" d="M226.77448 7.08669V-7.08669"/>
<use data-text="3" xlink:href="#font_1_106" transform="matrix(11.955917,0,0,-11.9552,234.66718,27.903)"/>
<use data-text="." xlink:href="#font_1_88" transform="matrix(11.955917,0,0,-11.9552,240.52558,27.903)"/>
<use data-text="5" xlink:href="#font_1_56" transform="matrix(11.955917,0,0,-11.9552,243.77759,27.903)"/>
<path transform="matrix(1.00006,0,0,-1,15.364037,8.284)" stroke-width="1.19553" stroke-linecap="butt" stroke-miterlimit="10" stroke-linejoin="miter" fill="none" stroke="#000000" d="M240.94788 7.08669V-7.08669"/>
<path transform="matrix(1.00006,0,0,-1,15.364037,8.284)" stroke-width="1.19553" stroke-linecap="butt" stroke-miterlimit="10" stroke-linejoin="miter" fill="none" stroke="#000000" d="M255.12128 7.08669V-7.08669"/>
<use data-text="3" xlink:href="#font_1_106" transform="matrix(11.955917,0,0,-11.9552,260.0867,28.035)"/>
<use data-text="." xlink:href="#font_1_88" transform="matrix(11.955917,0,0,-11.9552,265.9451,28.035)"/>
<use data-text="7" xlink:href="#font_1_100" transform="matrix(11.955917,0,0,-11.9552,269.1971,28.035)"/>
<use data-text="5" xlink:href="#font_1_56" transform="matrix(11.955917,0,0,-11.9552,275.0555,28.035)"/>
<path transform="matrix(1.00006,0,0,-1,15.364037,8.284)" stroke-width="1.19553" stroke-linecap="butt" stroke-miterlimit="10" stroke-linejoin="miter" fill="none" stroke="#000000" d="M269.29469 7.08669V-7.08669"/>
</svg>
