<svg xmlns="http://www.w3.org/2000/svg" xmlns:xlink="http://www.w3.org/1999/xlink" xmlns:inkscape="http://www.inkscape.org/namespaces/inkscape" version="1.1" width="212" height="177" viewBox="0 0 212 177">
<defs>
<path id="font_1_6" d="M.12799073 .5727997C.17098999 .5588074 .20599365 .5578003 .21699524 .5578003 .32998658 .5578003 .4019928 .6409912 .4019928 .6550598 .4019928 .6590576 .3999939 .6640625 .3939972 .6640625 .3919983 .6640625 .3899994 .6640625 .3809967 .66004946 .32499696 .6358795 .2769928 .6328125 .25099183 .6328125 .18499756 .6328125 .13798523 .6530609 .11898804 .6610565 .11199951 .6640625 .10998535 .6640625 .10899353 .6640625 .100997928 .6640625 .100997928 .65805056 .100997928 .64201357V.34495545C.100997928 .32695008 .100997928 .32095338 .11299133 .32095338 .117996219 .32095338 .11898804 .32196046 .1289978 .33395387 .15699768 .37493897 .20399475 .39894105 .2539978 .39894105 .30699159 .39894105 .33299256 .34994508 .34098817 .33294679 .35798646 .29396058 .35899354 .2449646 .35899354 .20697022 .35899354 .16897583 .35899354 .11193848 .33099366 .0667572 .30899049 .03060913 .269989 .005508423 .22599793 .005508423 .1599884 .005508423 .09498596 .050689699 .07699585 .12397766 .08198547 .12197876 .08799744 .12097168 .09298706 .12097168 .10998535 .12097168 .13699341 .13098145 .13699341 .16497803 .13699341 .1929779 .117996219 .20898438 .09298706 .20898438 .07499695 .20898438 .04899597 .19998169 .04899597 .16098023 .04899597 .075790408 .116989139-.021484375 .22799683-.021484375 .34098817-.021484375 .43998719 .073791507 .43998719 .20097351 .43998719 .3199463 .3600006 .4189453 .25498963 .4189453 .19799805 .4189453 .1539917 .39393617 .12799073 .36595155V.5727997Z"/>
<path id="font_1_2" d="M.28799439 .64105227C.28799439 .664032 .28799439 .66503909 .2679901 .66503909 .24398804 .6380615 .19400025 .6012573 .09098816 .6012573V.5722656C.11399841 .5722656 .1639862 .5722656 .21899414 .59825137V.07701111C.21899414 .041000368 .21598816 .0289917 .12799073 .0289917H.09700012V0C.12399292 .0019989014 .22099304 .0019989014 .2539978 .0019989014 .2869873 .0019989014 .3829956 .0019989014 .4099884 0V.0289917H.3789978C.29100038 .0289917 .28799439 .041000368 .28799439 .07701111V.64105227Z"/>
<path id="font_1_1" d="M.44799806 .31976319C.44799806 .40283204 .44299317 .48390199 .40699769 .55996707 .3659973 .64302065 .2939911 .66503909 .24499512 .66503909 .18699646 .66503909 .115997318 .63601687 .07899475 .552948 .050994874 .48989869 .040985109 .42785646 .040985109 .31976319 .040985109 .22268677 .04798889 .14962769 .083999637 .078567508 .12298584 .0025177003 .19198609-.021484375 .24398804-.021484375 .33099366-.021484375 .3809967 .030532837 .4099884 .08857727 .44599916 .16363526 .44799806 .26171876 .44799806 .31976319M.24398804-.0014953613C.21199036-.0014953613 .14698792 .016525269 .12799073 .12561035 .116989139 .18565369 .116989139 .26171876 .116989139 .33177186 .116989139 .41384889 .116989139 .48789979 .1329956 .5469513 .1499939 .6139984 .20098877 .6450348 .24398804 .6450348 .28199769 .6450348 .33999635 .6220093 .35899354 .53593447 .37199403 .4788971 .37199403 .39982606 .37199403 .33177186 .37199403 .26472474 .37199403 .18865967 .36099244 .12760926 .34199525 .01751709 .2789917-.0014953613 .24398804-.0014953613Z"/>
<path id="font_1_3" d="M.43998719 .16790772H.41799928C.4149933 .15092469 .40699769 .09597778 .39698792 .07998657 .3899994 .070999149 .33299256 .070999149 .30299378 .070999149H.117996219C.14498902 .09397888 .20599365 .15792847 .23199463 .18190003 .38398744 .3217926 .43998719 .37374879 .43998719 .47270204 .43998719 .5878906 .34899903 .66503909 .23298645 .66503909 .116989139 .66503909 .04899597 .5658264 .04899597 .4797058 .04899597 .42871095 .09298706 .42871095 .09599304 .42871095 .116989139 .42871095 .14299011 .44371034 .14299011 .475708 .14299011 .5037079 .12399292 .5227051 .09599304 .5227051 .08699036 .5227051 .084991458 .5227051 .08198547 .521698 .100997928 .5899048 .15499878 .6360321 .21998596 .6360321 .30499269 .6360321 .35699464 .56481936 .35699464 .47270204 .35699464 .3877411 .30799867 .313797 .25099183 .24984741L.04899597 .023986817V0H.4139862L.43998719 .16790772Z"/>
<path id="font_1_4" d="M.18399048 .35888673C.16699219 .35787965 .16299439 .35688783 .16299439 .34788514 .16299439 .33789063 .16799927 .33789063 .18598938 .33789063H.23199463C.31698609 .33789063 .35499574 .267807 .35499574 .17172241 .35499574 .04058838 .2869873 .005508423 .23799134 .005508423 .18998719 .005508423 .10798645 .028564454 .07899475 .09472656 .11099243 .08970642 .13999939 .10771179 .13999939 .14372254 .13999939 .17271424 .11898804 .1927185 .09098816 .1927185 .066986087 .1927185 .040985109 .1787262 .040985109 .14071656 .040985109 .051620485 .12998963-.021484375 .24099732-.021484375 .3600006-.021484375 .44799806 .06965637 .44799806 .17071533 .44799806 .26280213 .37399293 .33488465 .27799989 .35188294 .36499024 .3769226 .42099 .45011903 .42099 .5282135 .42099 .6071167 .33898927 .66503909 .24198914 .66503909 .14199829 .66503909 .067993167 .604126 .067993167 .5312042 .067993167 .49121095 .09899902 .48321534 .11399841 .48321534 .1349945 .48321534 .15899658 .49821473 .15899658 .5282135 .15899658 .5602112 .1349945 .57421877 .11299133 .57421877 .10699463 .57421877 .10499573 .57421877 .101989749 .57321169 .13999939 .641037 .23399353 .641037 .23899842 .641037 .27198792 .641037 .33699037 .6260681 .33699037 .5282135 .33699037 .5092163 .33399964 .453125 .30499269 .41001893 .2749939 .3658905 .24099732 .36288453 .21398926 .36187745L.18399048 .35888673Z"/>
<path id="font_1_5" d="M.36099244 .6508026C.36099244 .6697998 .36099244 .6748047 .34700013 .6748047 .33898927 .6748047 .33599855 .6748047 .32798768 .662796L.026992798 .19598389V.16699219H.2899933V.07598877C.2899933 .038986207 .28799439 .0289917 .21499634 .0289917H.19499207V0C.21798706 .0019989014 .29699708 .0019989014 .32499696 .0019989014 .35299684 .0019989014 .43299867 .0019989014 .45599366 0V.0289917H.43598939C.3639984 .0289917 .36099244 .038986207 .36099244 .07598877V.16699219H.46199037V.19598389H.36099244V.6508026M.29499818 .5728302V.19598389H.051986696L.29499818 .5728302Z"/>
<clipPath id="clip_2">
<path transform="matrix(1.00002,0,0,-1.00006,16.061425,162.68892)" d="M0 0H194.26988V161.39257H0Z"/>
</clipPath>
<path id="font_3_72" d="M.24798584 0V.0289917C.18399048 .0289917 .17199707 .0289917 .17199707 .074020389V.69433596L.032989503 .6826172V.6536102C.100997928 .6536102 .10899353 .6466217 .10899353 .597641V.07395935C.10899353 .0289917 .09799194 .0289917 .032989503 .0289917V0C.06098938 .0019989014 .10998535 .0019989014 .13999939 .0019989014 .16999817 .0019989014 .21998596 .0019989014 .24798584 0Z"/>
<path id="font_3_28" d="M.47399903 .08912659V.14515686H.45199586V.08912659C.45199586 .03211975 .42799378 .024108887 .4139862 .024108887 .37599183 .024108887 .37599183 .07713318 .37599183 .09213257V.26719667C.37599183 .3211975 .37599183 .36120606 .33198548 .40023805 .29699708 .43226625 .2519989 .44628907 .20799256 .44628907 .12599182 .44628907 .06298828 .39222718 .06298828 .32720948 .06298828 .2982025 .08198547 .2842102 .10499573 .2842102 .1289978 .2842102 .1459961 .3012085 .1459961 .32521058 .1459961 .36621095 .10998535 .36621095 .09498596 .36621095 .117996219 .4082489 .1659851 .42625428 .20599365 .42625428 .2519989 .42625428 .31098939 .38822938 .31098939 .2982025V.25819398C.10998535 .255188 .033996583 .17115784 .033996583 .09413147 .033996583 .0152282719 .12599182-.009765625 .18699646-.009765625 .25299073-.009765625 .2979889 .030227662 .31698609 .07823181 .32099916 .03111267 .35198976-.0048828127 .394989-.0048828127 .41600038-.0048828127 .47399903 .009109497 .47399903 .089141849V.08912659M.31098939 .14117432C.31098939 .043121339 .23799134 .010116577 .19499207 .010116577 .1459961 .010116577 .10499573 .04612732 .10499573 .09414673 .10499573 .22621155 .2749939 .23822022 .31098939 .24023438V.14117432Z"/>
<path id="font_3_105" d="M.32598878 .124069217V.1809845H.3039856V.12606812C.3039856 .0541687 .2749939 .01222229 .23599243 .01222229 .16799927 .01222229 .16799927 .10508728 .16799927 .12207031V.4016571H.30899049V.43066407H.16799927V.6142578H.1459961C.14498902 .52046206 .10899353 .4246521 .017990113 .42166139V.4016571H.102996829V.124069217C.102996829 .01322937 .1769867-.009765625 .22999573-.009765625 .29299928-.009765625 .32598878 .0521698 .32598878 .124069217Z"/>
<path id="font_3_50" d="M.40699769 .11932373C.40699769 .1253357 .4019928 .1293335 .3959961 .1293335 .3880005 .1293335 .38598634 .12432861 .38398744 .11932373 .35798646 .035247804 .29100038 .01222229 .24899292 .01222229 .20698548 .01222229 .10598755 .040252687 .10598755 .21340943V.23242188H.3829956C.40499879 .23242188 .40699769 .23242188 .40699769 .25141908 .40699769 .3523407 .35299684 .44628907 .23199463 .44628907 .117996219 .44628907 .02999878 .34335328 .02999878 .21940613 .02999878 .08729553 .13198853-.009765625 .24299622-.009765625 .3619995-.009765625 .40699769 .09829712 .40699769 .11932373M.34498597 .25141908H.10699463C.114990238 .40830995 .20298767 .42630006 .23098755 .42630006 .33799745 .42630006 .34399415 .28538514 .34498597 .25141908Z"/>
<path id="font_3_98" d="M.35198976 .12739563C.35198976 .181427 .31900025 .21340943 .30999757 .22239685 .27398683 .25338746 .24699402 .25938417 .18099976 .27137757 .15098572 .27737428 .07798767 .29136659 .07798767 .35131837 .07798767 .38230897 .09899902 .4282837 .18899536 .4282837 .2979889 .4282837 .3039856 .33532716 .30599977 .3043518 .30699159 .2963562 .31399537 .2963562 .31698609 .2963562 .32798768 .2963562 .32798768 .30136109 .32798768 .3193512V.4232788C.32798768 .44128419 .32798768 .44628907 .31799317 .44628907 .30999757 .44628907 .29100038 .4242859 .28399659 .4152832 .25299073 .4402771 .22200012 .44628907 .18998719 .44628907 .068984989 .44628907 .032989503 .38031007 .032989503 .32533265 .032989503 .3143463 .032989503 .27937318 .070999149 .24438477 .102996829 .21640015 .13699341 .20941162 .18299866 .20040894 .23799134 .1894226 .25099183 .18641663 .27598573 .16642761 .2939911 .15142823 .30699159 .12940979 .30699159 .101364139 .30699159 .05831909 .28199769 .010253906 .19400025 .010253906 .12799073 .010253906 .07998657 .048294069 .057998659 .1484375 .053985597 .16642761 .052993776 .16842652 .052993776 .16842652 .050994874 .17242432 .04699707 .17242432 .04399109 .17242432 .032989503 .17242432 .032989503 .16743469 .032989503 .14942932V.013259888C.032989503-.004760742 .032989503-.009765625 .042999269-.009765625 .04798889-.009765625 .04899597-.008773804 .06599426 .012252808 .070999149 .019256592 .070999149 .021270752 .085998538 .03729248 .12399292-.009765625 .17799378-.009765625 .19499207-.009765625 .2999878-.009765625 .35198976 .048294069 .35198976 .12739563Z"/>
<path id="font_3_48" d="M.43499757 .19412232C.43499757 .23712158 .4229889 .28912355 .37998963 .33711244 .34298707 .3781128 .29899598 .38911439 .25898744 .39912416V.67510989C.33198548 .67111209 .3929901 .6351166 .4079895 .5651245 .39898683 .5671234 .39698792 .5671234 .3939972 .5671234 .375 .5671234 .35198976 .5541229 .35198976 .52511599 .35198976 .5001221 .36999513 .4841156 .3929901 .4841156 .41299439 .4841156 .43499757 .4941101 .43499757 .53012087 .43499757 .6171112 .37799073 .6981201 .25898744 .7041168V.7501221H.22999573V.703125C.125 .69511416 .053985597 .6091156 .053985597 .51512148 .053985597 .46011354 .07699585 .41311646 .11099243 .37911988 .14698792 .3441162 .17799378 .3361206 .22999573 .32312013V.019119263C.19099427 .022109986 .099990848 .038116456 .07998657 .14411927 .08299255 .14311219 .08999634 .14111328 .09599304 .14111328 .11299133 .14111328 .13699341 .15312195 .13699341 .18312073 .13699341 .2071228 .11999512 .2241211 .09599304 .2241211 .07598877 .2241211 .053985597 .21411133 .053985597 .17811585 .053985597 .08711243 .10798645-.001876831 .22999573-.009887695V-.055877687H.25898744V-.008880615C.3659973 .0011138916 .43499757 .09310913 .43499757 .19412232M.22999573 .40711976C.100997928 .43312074 .100997928 .52812197 .100997928 .54112246 .100997928 .60112 .14698792 .66511538 .22999573 .67411807V.40711976M.3880005 .16711426C.3880005 .09611511 .33799745 .02911377 .25898744 .020111084V.31510926C.3829956 .29011537 .3880005 .18711853 .3880005 .16711426Z"/>
</defs>
<path transform="matrix(1.00002,0,0,-1.00006,16.061425,162.68892)" stroke-width=".3985" stroke-linecap="butt" stroke-miterlimit="10" stroke-linejoin="miter" fill="none" stroke="#bfbfbf" d="M38.85397 0V161.39257M74.17577 0V161.39257M109.49756 0V161.39257M144.81937 0V161.39257M180.14116 0V161.39257"/>
<path transform="matrix(1.00002,0,0,-1.00006,16.061425,162.68892)" stroke-width=".3985" stroke-linecap="butt" stroke-miterlimit="10" stroke-linejoin="miter" fill="none" stroke="#bfbfbf" d="M0 32.2785H194.26988M0 63.01994H194.26988M0 93.76138H194.26988M0 124.50282H194.26988M0 155.24427H194.26988"/>
<path transform="matrix(1.00002,0,0,-1.00006,16.061425,162.68892)" stroke-width=".19925" stroke-linecap="butt" stroke-miterlimit="10" stroke-linejoin="miter" fill="none" stroke="#7f807f" d="M38.85397-.58884V3.66298M74.17577-.58884V3.66298M109.49756-.58884V3.66298M144.81937-.58884V3.66298M180.14116-.58884V3.66298"/>
<path transform="matrix(1.00002,0,0,-1.00006,16.061425,162.68892)" stroke-width=".19925" stroke-linecap="butt" stroke-miterlimit="10" stroke-linejoin="miter" fill="none" stroke="#7f807f" d="M1.40623 32.2785H5.6581M1.40623 63.01994H5.6581M1.40623 93.76138H5.6581M1.40623 124.50282H5.6581M1.40623 155.24427H5.6581"/>
<path transform="matrix(1.00002,0,0,-1.00006,16.061425,162.68892)" stroke-width=".3985" stroke-linecap="butt" stroke-miterlimit="10" stroke-linejoin="miter" fill="none" stroke="#000000" d="M0 1.53706H192.27735"/>
<path transform="matrix(1.00002,0,0,-1.00006,208.34262,161.15177)" d="M1.99252 0-1.19551 1.59401 0 0-1.19551-1.59401"/>
<path transform="matrix(1.00002,0,0,-1.00006,16.061425,162.68892)" stroke-width=".3985" stroke-linecap="butt" stroke-miterlimit="10" stroke-linejoin="miter" fill="none" stroke="#000000" d="M3.53217 0V159.40004"/>
<path transform="matrix(0,-1.00006,-1.00002,-0,19.593667,3.2793275)" d="M1.99252 0-1.19551 1.59401 0 0-1.19551-1.59401"/>
<use data-text="5" xlink:href="#font_1_6" transform="matrix(11.95544,0,0,-11.955917,51.989145,175.16667)"/>
<use data-text="1" xlink:href="#font_1_2" transform="matrix(11.95544,0,0,-11.955917,84.38579,175.16667)"/>
<use data-text="0" xlink:href="#font_1_1" transform="matrix(11.95544,0,0,-11.955917,90.231998,175.16667)"/>
<use data-text="1" xlink:href="#font_1_2" transform="matrix(11.95544,0,0,-11.955917,119.7075,175.16667)"/>
<use data-text="5" xlink:href="#font_1_6" transform="matrix(11.95544,0,0,-11.955917,125.5537,175.16667)"/>
<use data-text="2" xlink:href="#font_1_3" transform="matrix(11.95544,0,0,-11.955917,155.03022,175.16667)"/>
<use data-text="0" xlink:href="#font_1_1" transform="matrix(11.95544,0,0,-11.955917,160.8764,175.16667)"/>
<use data-text="2" xlink:href="#font_1_3" transform="matrix(11.95544,0,0,-11.955917,190.3529,175.16667)"/>
<use data-text="5" xlink:href="#font_1_6" transform="matrix(11.95544,0,0,-11.955917,196.19913,175.16667)"/>
<use data-text="1" xlink:href="#font_1_2" transform="matrix(11.95544,0,0,-11.955917,1.5771332,134.26122)"/>
<use data-text="0" xlink:href="#font_1_1" transform="matrix(11.95544,0,0,-11.955917,7.42334,134.26122)"/>
<use data-text="2" xlink:href="#font_1_3" transform="matrix(11.95544,0,0,-11.955917,1.5771332,103.51737)"/>
<use data-text="0" xlink:href="#font_1_1" transform="matrix(11.95544,0,0,-11.955917,7.42334,103.51737)"/>
<use data-text="3" xlink:href="#font_1_4" transform="matrix(11.95544,0,0,-11.955917,1.5771332,72.77453)"/>
<use data-text="0" xlink:href="#font_1_1" transform="matrix(11.95544,0,0,-11.955917,7.42334,72.77453)"/>
<use data-text="4" xlink:href="#font_1_5" transform="matrix(11.95544,0,0,-11.955917,1.5771332,42.030687)"/>
<use data-text="0" xlink:href="#font_1_1" transform="matrix(11.95544,0,0,-11.955917,7.42334,42.030687)"/>
<use data-text="5" xlink:href="#font_1_6" transform="matrix(11.95544,0,0,-11.955917,1.5771332,11.287842)"/>
<use data-text="0" xlink:href="#font_1_1" transform="matrix(11.95544,0,0,-11.955917,7.42334,11.287842)"/>
<g clip-path="url(#clip_2)">
</g>
<use data-text="l" xlink:href="#font_3_72" transform="matrix(11.95544,0,0,-11.955917,178.14368,156.84757)"/>
<use data-text="a" xlink:href="#font_3_28" transform="matrix(11.95544,0,0,-11.955917,181.39556,156.84757)"/>
<use data-text="t" xlink:href="#font_3_105" transform="matrix(11.95544,0,0,-11.955917,187.25373,156.84757)"/>
<use data-text="t" xlink:href="#font_3_105" transform="matrix(11.95544,0,0,-11.955917,191.80875,156.84757)"/>
<use data-text="e" xlink:href="#font_3_50" transform="matrix(11.95544,0,0,-11.955917,196.36377,156.84757)"/>
<use data-text="s" xlink:href="#font_3_98" transform="matrix(11.95544,0,0,-11.955917,201.56438,156.84757)"/>
<use data-text="$" xlink:href="#font_3_48" transform="matrix(11.95544,0,0,-11.955917,23.77858,14.415024)"/>
</svg>
