<svg xmlns="http://www.w3.org/2000/svg" xmlns:xlink="http://www.w3.org/1999/xlink" xmlns:inkscape="http://www.inkscape.org/namespaces/inkscape" version="1.1" width="198" height="165" viewBox="0 0 198 165">
<defs>
<clipPath id="clip_1">
<path transform="matrix(1.00005,0,0,-1.00006,1.7926407,163.20383)" d="M0 0H194.26912V161.39636H0Z"/>
</clipPath>
<path id="font_2_1" d="M.47399903 .40820313C.44198609 .40219117 .42999269 .3781891 .42999269 .3591919 .42999269 .33518983 .44898988 .3271942 .46299745 .3271942 .49299623 .3271942 .5139923 .3531952 .5139923 .380188 .5139923 .4223938 .46598817 .44140626 .42399598 .44140626 .36299134 .44140626 .32899476 .38119508 .31999208 .36219789 .29699708 .4373932 .23498535 .44140626 .21699524 .44140626 .114990238 .44140626 .06098938 .31021119 .06098938 .28822328 .06098938 .28422547 .06498718 .27923585 .07199097 .27923585 .07998657 .27923585 .08198547 .28523255 .083999637 .2892151 .117996219 .40019227 .18499756 .42140199 .21398926 .42140199 .25898744 .42140199 .2679901 .37919618 .2679901 .3551941 .2679901 .33319093 .2619934 .31021119 .25 .26223756L.21598816 .12535095C.20098877 .06535339 .17199707 .010223389 .11898804 .010223389 .11399841 .010223389 .08898926 .010223389 .067993167 .023330689 .10398865 .03036499 .11199951 .06036377 .11199951 .07235718 .11199951 .09236145 .09700012 .10435486 .07798767 .10435486 .053985597 .10435486 .027999878 .083358768 .027999878 .051361085 .027999878 .009231567 .07499695-.009765625 .117996219-.009765625 .1659851-.009765625 .19999695 .028366089 .22099304 .069366458 .23699951 .010223389 .2869873-.009765625 .32398988-.009765625 .42599488-.009765625 .47999574 .12135315 .47999574 .1433258 .47999574 .14833069 .47599793 .15232849 .46998597 .15232849 .46099855 .15232849 .45999146 .14732361 .45700074 .139328 .42999269 .051361085 .37199403 .010223389 .32699586 .010223389 .2919922 .010223389 .272995 .036361696 .272995 .07736206 .272995 .099365238 .2769928 .115356449 .29299928 .18130493L.32798768 .3171997C.34298707 .37719728 .3769989 .42140199 .4229889 .42140199 .4249878 .42140199 .45298768 .42140199 .47399903 .40820313Z"/>
<path id="font_2_2" d="M.2630005-.11172485C.23599243-.14982605 .19699097-.18411255 .147995-.18411255 .13598633-.18411255 .08799744-.18209839 .07299805-.13572693 .07598877-.13671875 .08099365-.13671875 .08299255-.13671875 .11299133-.13671875 .1329956-.11073303 .1329956-.08772278 .1329956-.06472778 .11399841-.056732179 .09899902-.056732179 .08299255-.056732179 .04798889-.068725589 .04798889-.11772156 .04798889-.16899109 .09098816-.20410156 .147995-.20410156 .24798584-.20410156 .34899903-.11172485 .3769989-.00077819827L.47499085 .38868714C.47599793 .39367677 .47799684 .39967347 .47799684 .4056549 .47799684 .4206543 .46598817 .43066407 .45098878 .43066407 .44198609 .43066407 .42099 .426651 .41299439 .39666749L.33898927 .10308838C.33399964 .085113529 .33399964 .08312988 .32598878 .072143558 .30599977 .04423523 .272995 .010223389 .22499085 .010223389 .16899109 .010223389 .1639862 .06524658 .1639862 .09225464 .1639862 .14929199 .19099427 .22631836 .21798706 .2983551 .22898865 .32736207 .23498535 .34136964 .23498535 .3613739 .23498535 .4033966 .20498657 .44140626 .1559906 .44140626 .06399536 .44140626 .026992798 .29634095 .026992798 .28834535 .026992798 .28434754 .0309906 .27934266 .037994386 .27934266 .04699707 .27934266 .04798889 .28334046 .051986696 .29734803 .07598877 .38137818 .11399841 .42140199 .15299988 .42140199 .1619873 .42140199 .1789856 .42140199 .1789856 .38838197 .1789856 .36238099 .16799927 .33335877 .15299988 .29534913 .10398865 .16429138 .10398865 .13127136 .10398865 .10726929 .10398865 .01222229 .17199707-.009765625 .22200012-.009765625 .25099183-.009765625 .2869873-.00077819827 .32199098 .036239625L.32299806 .035232545C.30799867-.023757935 .2979889-.06272888 .2630005-.11172485Z"/>
</defs>
<path transform="matrix(1.00005,0,0,-1.00006,1.7926407,163.20383)" stroke-width=".19925" stroke-linecap="butt" stroke-miterlimit="10" stroke-linejoin="miter" fill="none" stroke="#7f807f" d="M12.14182 5.94373V10.19588M60.70909 5.94373V10.19588M84.99274 5.94373V10.19588M109.27637 5.94373V10.19588M133.56002 5.94373V10.19588M157.84366 5.94373V10.19588M182.12729 5.94373V10.19588"/>
<path transform="matrix(1.00005,0,0,-1.00006,1.7926407,163.20383)" stroke-width=".19925" stroke-linecap="butt" stroke-miterlimit="10" stroke-linejoin="miter" fill="none" stroke="#7f807f" d="M34.2995 24.20944H38.55139M34.2995 40.34909H38.55139M34.2995 56.48872H38.55139M34.2995 72.62836H38.55139M34.2995 88.76799H38.55139M34.2995 104.90762H38.55139M34.2995 121.04727H38.55139M34.2995 137.1869H38.55139M34.2995 153.32654H38.55139"/>
<path transform="matrix(1.00005,0,0,-1.00006,1.7926407,163.20383)" stroke-width=".3985" stroke-linecap="butt" stroke-miterlimit="10" stroke-linejoin="miter" fill="none" stroke="#000000" d="M0 8.06981H192.2766"/>
<path transform="matrix(1.00005,0,0,-1.00006,194.07883,155.13353)" d="M1.99252 0-1.19551 1.59401 0 0-1.19551-1.59401"/>
<path transform="matrix(1.00005,0,0,-1.00006,1.7926407,163.20383)" stroke-width=".3985" stroke-linecap="butt" stroke-miterlimit="10" stroke-linejoin="miter" fill="none" stroke="#000000" d="M36.42545 0V159.40384"/>
<path transform="matrix(0,-1.00006,-1.00005,-0,38.21991,3.7904359)" d="M1.99252 0-1.19551 1.59401 0 0-1.19551-1.59401"/>
<g clip-path="url(#clip_1)">
<path transform="matrix(1.00005,0,0,-1.00006,1.7926407,163.20383)" stroke-width=".79701" stroke-linecap="butt" stroke-miterlimit="10" stroke-linejoin="miter" fill="none" stroke="#000000" d="M0 190.6653C0 190.6653 5.84833 162.37169 8.09453 152.99663 10.34073 143.62157 13.94287 130.53714 16.18907 123.09634 18.43526 115.65553 22.0374 105.2741 24.2836 99.36848 26.5298 93.46288 30.13194 85.21838 32.37814 80.53287 34.62434 75.84737 38.22647 69.31747 40.47267 65.59857 42.71887 61.87965 46.32101 56.68344 48.56721 53.72949 50.81342 50.77553 54.41554 46.65314 56.66174 44.30846 58.90794 41.96378 62.5101 38.69153 64.7563 36.83064 67.0025 34.96976 70.60464 32.37303 72.85083 30.89642 75.09703 29.4198 78.69917 27.36005 80.94537 26.18816 83.19157 25.01627 86.79372 23.38098 89.03992 22.45023 91.2861 21.51947 94.88824 20.21822 97.13445 19.47987 99.38065 18.74152 102.98279 17.71472 105.22899 17.12865 107.47519 16.54259 111.07732 15.72101 113.32352 15.2558 115.56972 14.79059 119.17186 14.14433 121.41806 13.77567 123.66426 13.40698 127.26639 12.8915 129.51259 12.59854 131.75879 12.30559 135.36093 11.8967 137.60713 11.66418 139.85334 11.43167 143.45549 11.1072 145.70168 10.92265 147.94788 10.73813 151.55002 10.48059 153.79622 10.33412 156.04242 10.18764 159.64456 9.98323 161.89076 9.86699 164.13695 9.75073 167.73909 9.58847 169.98529 9.49622 172.23149 9.40395 175.83364 9.27516 178.07984 9.20193 180.32604 9.12871 183.92816 9.02649 186.17436 8.96837 188.42057 8.91025 194.2689 8.783 194.2689 8.783"/>
</g>
<use data-text="x" xlink:href="#font_2_1" transform="matrix(11.955797,0,0,-11.955917,185.26583,150.94809)"/>
<use data-text="y" xlink:href="#font_2_2" transform="matrix(11.955797,0,0,-11.955917,42.41067,11.106705)"/>
</svg>
