<svg xmlns="http://www.w3.org/2000/svg" xmlns:xlink="http://www.w3.org/1999/xlink" xmlns:inkscape="http://www.inkscape.org/namespaces/inkscape" version="1.1" width="228" height="181" viewBox="0 0 228 181">
<defs>
<path id="font_1_3" d="M.43998719 .16790772H.41799928C.4149933 .15092469 .40699769 .09597778 .39698792 .07998657 .3899994 .070999149 .33299256 .070999149 .30299378 .070999149H.117996219C.14498902 .09397888 .20599365 .15792847 .23199463 .18190003 .38398744 .3217926 .43998719 .37374879 .43998719 .47270204 .43998719 .5878906 .34899903 .66503909 .23298645 .66503909 .116989139 .66503909 .04899597 .5658264 .04899597 .4797058 .04899597 .42871095 .09298706 .42871095 .09599304 .42871095 .116989139 .42871095 .14299011 .44371034 .14299011 .475708 .14299011 .5037079 .12399292 .5227051 .09599304 .5227051 .08699036 .5227051 .084991458 .5227051 .08198547 .521698 .100997928 .5899048 .15499878 .6360321 .21998596 .6360321 .30499269 .6360321 .35699464 .56481936 .35699464 .47270204 .35699464 .3877411 .30799867 .313797 .25099183 .24984741L.04899597 .023986817V0H.4139862L.43998719 .16790772Z"/>
<path id="font_1_1" d="M.44799806 .31976319C.44799806 .40283204 .44299317 .48390199 .40699769 .55996707 .3659973 .64302065 .2939911 .66503909 .24499512 .66503909 .18699646 .66503909 .115997318 .63601687 .07899475 .552948 .050994874 .48989869 .040985109 .42785646 .040985109 .31976319 .040985109 .22268677 .04798889 .14962769 .083999637 .078567508 .12298584 .0025177003 .19198609-.021484375 .24398804-.021484375 .33099366-.021484375 .3809967 .030532837 .4099884 .08857727 .44599916 .16363526 .44799806 .26171876 .44799806 .31976319M.24398804-.0014953613C.21199036-.0014953613 .14698792 .016525269 .12799073 .12561035 .116989139 .18565369 .116989139 .26171876 .116989139 .33177186 .116989139 .41384889 .116989139 .48789979 .1329956 .5469513 .1499939 .6139984 .20098877 .6450348 .24398804 .6450348 .28199769 .6450348 .33999635 .6220093 .35899354 .53593447 .37199403 .4788971 .37199403 .39982606 .37199403 .33177186 .37199403 .26472474 .37199403 .18865967 .36099244 .12760926 .34199525 .01751709 .2789917-.0014953613 .24398804-.0014953613Z"/>
<path id="font_1_5" d="M.36099244 .6508026C.36099244 .6697998 .36099244 .6748047 .34700013 .6748047 .33898927 .6748047 .33599855 .6748047 .32798768 .662796L.026992798 .19598389V.16699219H.2899933V.07598877C.2899933 .038986207 .28799439 .0289917 .21499634 .0289917H.19499207V0C.21798706 .0019989014 .29699708 .0019989014 .32499696 .0019989014 .35299684 .0019989014 .43299867 .0019989014 .45599366 0V.0289917H.43598939C.3639984 .0289917 .36099244 .038986207 .36099244 .07598877V.16699219H.46199037V.19598389H.36099244V.6508026M.29499818 .5728302V.19598389H.051986696L.29499818 .5728302Z"/>
<path id="font_1_7" d="M.12298584 .34773255C.12298584 .60061648 .24598694 .641037 .2999878 .641037 .33599855 .641037 .37199403 .62991335 .3909912 .5996094 .3789978 .5996094 .34098817 .5996094 .34098817 .558609 .34098817 .53660586 .35598756 .51760867 .38198854 .51760867 .40699769 .51760867 .42399598 .53260806 .42399598 .56159976 .42399598 .6137543 .38598634 .66503909 .29899598 .66503909 .17298889 .66503909 .040985109 .53559878 .040985109 .31570436 .040985109 .040527345 .16099549-.021484375 .24598694-.021484375 .35499574-.021484375 .44799806 .07354736 .44799806 .2036438 .44799806 .33673097 .35499574 .42578126 .25498963 .42578126 .1659851 .42578126 .1329956 .34873963 .12298584 .32070924V.34773255M.24598694 .005508423C.18299866 .005508423 .15299988 .061538698 .14399719 .08256531 .1349945 .10858154 .125 .15760803 .125 .22766114 .125 .30670167 .16099549 .40577699 .25099183 .40577699 .30599977 .40577699 .33499146 .3687439 .34999085 .33473207 .3659973 .29769898 .3659973 .2476654 .3659973 .20463562 .3659973 .15361023 .3659973 .10858154 .34700013 .07055664 .32199098 .022521973 .28599549 .005508423 .24598694 .005508423Z"/>
<path id="font_1_9" d="M.2979889 .36079408C.34799195 .38781739 .42099 .43385316 .42099 .5179291 .42099 .6049957 .33699037 .66503909 .24499512 .66503909 .1459961 .66503909 .067993167 .59199526 .067993167 .5009155 .067993167 .46688844 .07798767 .43286134 .10598755 .39883424 .116989139 .38581849 .117996219 .38482667 .18798828 .3357849 .09098816 .29074098 .040985109 .22369385 .040985109 .15063477 .040985109 .044540407 .14199829-.021484375 .24398804-.021484375 .35499574-.021484375 .44799806 .060546876 .44799806 .16563416 .44799806 .2677307 .37599183 .3127594 .2979889 .36079408M.1619873 .4508667C.14898682 .45988465 .10899353 .48590089 .10899353 .5349426 .10899353 .59999087 .1769867 .641037 .24398804 .641037 .31599427 .641037 .37998963 .58898928 .37998963 .516922 .37998963 .45587159 .33599855 .4068451 .27799989 .3748169L.1619873 .4508667M.20899964 .32176209 .32998658 .2427063C.35598756 .22569275 .4019928 .19465637 .4019928 .13360596 .4019928 .057556154 .32499696 .005508423 .24499512 .005508423 .1599884 .005508423 .08699036 .06756592 .08699036 .15063477 .08699036 .22869873 .14399719 .29174806 .20899964 .32176209Z"/>
<path id="font_1_2" d="M.28799439 .64105227C.28799439 .664032 .28799439 .66503909 .2679901 .66503909 .24398804 .6380615 .19400025 .6012573 .09098816 .6012573V.5722656C.11399841 .5722656 .1639862 .5722656 .21899414 .59825137V.07701111C.21899414 .041000368 .21598816 .0289917 .12799073 .0289917H.09700012V0C.12399292 .0019989014 .22099304 .0019989014 .2539978 .0019989014 .2869873 .0019989014 .3829956 .0019989014 .4099884 0V.0289917H.3789978C.29100038 .0289917 .28799439 .041000368 .28799439 .07701111V.64105227Z"/>
<path id="font_1_4" d="M.18399048 .35888673C.16699219 .35787965 .16299439 .35688783 .16299439 .34788514 .16299439 .33789063 .16799927 .33789063 .18598938 .33789063H.23199463C.31698609 .33789063 .35499574 .267807 .35499574 .17172241 .35499574 .04058838 .2869873 .005508423 .23799134 .005508423 .18998719 .005508423 .10798645 .028564454 .07899475 .09472656 .11099243 .08970642 .13999939 .10771179 .13999939 .14372254 .13999939 .17271424 .11898804 .1927185 .09098816 .1927185 .066986087 .1927185 .040985109 .1787262 .040985109 .14071656 .040985109 .051620485 .12998963-.021484375 .24099732-.021484375 .3600006-.021484375 .44799806 .06965637 .44799806 .17071533 .44799806 .26280213 .37399293 .33488465 .27799989 .35188294 .36499024 .3769226 .42099 .45011903 .42099 .5282135 .42099 .6071167 .33898927 .66503909 .24198914 .66503909 .14199829 .66503909 .067993167 .604126 .067993167 .5312042 .067993167 .49121095 .09899902 .48321534 .11399841 .48321534 .1349945 .48321534 .15899658 .49821473 .15899658 .5282135 .15899658 .5602112 .1349945 .57421877 .11299133 .57421877 .10699463 .57421877 .10499573 .57421877 .101989749 .57321169 .13999939 .641037 .23399353 .641037 .23899842 .641037 .27198792 .641037 .33699037 .6260681 .33699037 .5282135 .33699037 .5092163 .33399964 .453125 .30499269 .41001893 .2749939 .3658905 .24099732 .36288453 .21398926 .36187745L.18399048 .35888673Z"/>
<path id="font_1_6" d="M.12799073 .5727997C.17098999 .5588074 .20599365 .5578003 .21699524 .5578003 .32998658 .5578003 .4019928 .6409912 .4019928 .6550598 .4019928 .6590576 .3999939 .6640625 .3939972 .6640625 .3919983 .6640625 .3899994 .6640625 .3809967 .66004946 .32499696 .6358795 .2769928 .6328125 .25099183 .6328125 .18499756 .6328125 .13798523 .6530609 .11898804 .6610565 .11199951 .6640625 .10998535 .6640625 .10899353 .6640625 .100997928 .6640625 .100997928 .65805056 .100997928 .64201357V.34495545C.100997928 .32695008 .100997928 .32095338 .11299133 .32095338 .117996219 .32095338 .11898804 .32196046 .1289978 .33395387 .15699768 .37493897 .20399475 .39894105 .2539978 .39894105 .30699159 .39894105 .33299256 .34994508 .34098817 .33294679 .35798646 .29396058 .35899354 .2449646 .35899354 .20697022 .35899354 .16897583 .35899354 .11193848 .33099366 .0667572 .30899049 .03060913 .269989 .005508423 .22599793 .005508423 .1599884 .005508423 .09498596 .050689699 .07699585 .12397766 .08198547 .12197876 .08799744 .12097168 .09298706 .12097168 .10998535 .12097168 .13699341 .13098145 .13699341 .16497803 .13699341 .1929779 .117996219 .20898438 .09298706 .20898438 .07499695 .20898438 .04899597 .19998169 .04899597 .16098023 .04899597 .075790408 .116989139-.021484375 .22799683-.021484375 .34098817-.021484375 .43998719 .073791507 .43998719 .20097351 .43998719 .3199463 .3600006 .4189453 .25498963 .4189453 .19799805 .4189453 .1539917 .39393617 .12799073 .36595155V.5727997Z"/>
<path id="font_1_8" d="M.47499085 .62054446V.6435547H.23399353C.11299133 .6435547 .11099243 .6567688 .10699463 .67578127H.084991458L.053985597 .47554017H.07598877C.07899475 .49354554 .08799744 .555542 .100997928 .5665436 .10899353 .5725403 .18399048 .5725403 .19799805 .5725403H.4099884L.3039856 .42053224C.2769928 .38153077 .17599488 .21751404 .17599488 .029510498 .17599488 .018508912 .17599488-.021484375 .21699524-.021484375 .25898744-.021484375 .25898744 .017501831 .25898744 .030517579V.08052063C.25898744 .2295227 .2829895 .34553529 .32998658 .41253663L.47499085 .62054446Z"/>
<path id="font_1_10" d="M.3659973 .29078675C.3659973 .05493164 .26098634 .005508423 .20098877 .005508423 .1769867 .005508423 .12399292 .008544922 .09899902 .043945314H.10499573C.11199951 .041915895 .147995 .047943117 .147995 .08493042 .147995 .106933597 .1329956 .12593079 .10699463 .12593079 .08099365 .12593079 .06498718 .108932498 .06498718 .08293152 .06498718 .02067566 .114990238-.021484375 .20199585-.021484375 .32699586-.021484375 .44799806 .11193848 .44799806 .32881166 .44799806 .5980072 .33599855 .66503909 .24798584 .66503909 .13798523 .66503909 .040985109 .5729828 .040985109 .44088746 .040985109 .3087921 .13398743 .21875 .23399353 .21875 .30799867 .21875 .34599305 .2727661 .3659973 .32380677V.29078675M.23799134 .23873902C.1749878 .23873902 .147995 .28977967 .13899231 .3087921 .12298584 .34681703 .12298584 .39485169 .12298584 .43988038 .12298584 .4959259 .12298584 .5439606 .14898682 .58499148 .16699219 .6120148 .19400025 .641037 .24798584 .641037 .30499269 .641037 .33399964 .59098818 .34399415 .5679779 .3639984 .51893618 .3639984 .43388368 .3639984 .41886903 .3639984 .33480836 .32598878 .23873902 .23799134 .23873902Z"/>
<clipPath id="clip_2">
<path transform="matrix(1,0,0,-1.00003,23.523003,166.83464)" d="M0 0H194.2726V161.39438H0Z"/>
</clipPath>
<path id="font_3_1" d="M.20098877 .4016571H.29299928C.31199647 .4016571 .32199098 .4016571 .32199098 .41966249 .32199098 .43066407 .31599427 .43066407 .29599 .43066407H.20799256L.24499512 .57650759C.24899292 .5904999 .24899292 .5924988 .24899292 .5994873 .24899292 .6154785 .23599243 .6244812 .22299195 .6244812 .21499634 .6244812 .19198609 .6214905 .18399048 .5894928L.14498902 .43066407H.050994874C.0309906 .43066407 .021987915 .43066407 .021987915 .4116516 .021987915 .4016571 .0289917 .4016571 .04798889 .4016571H.13699341L.070999149 .13804627C.06298828 .10308838 .05999756 .09310913 .05999756 .0801239 .05999756 .033187868 .09298706-.009765625 .14898682-.009765625 .25-.009765625 .3039856 .13604737 .3039856 .14303589 .3039856 .14901734 .2999878 .15202332 .2939911 .15202332 .2919922 .15202332 .28799439 .15202332 .28599549 .14802552 .2849884 .14703369 .28399659 .14602661 .2769928 .13005066 .2559967 .0801239 .20999146 .010223389 .1519928 .010223389 .12199402 .010223389 .11999512 .035186769 .11999512 .057159425 .11999512 .058151246 .11999512 .07713318 .12298584 .08911133L.20098877 .4016571Z"/>
<path id="font_4_45" d="M.19499207-.0040130617C.19499207 .057998659 .17399597 .09700012 .1349945 .09700012 .10598755 .09700012 .08699036 .07499695 .08699036 .04899597 .08699036 .021987915 .10598755 0 .13598633 0 .15098572 0 .1619873 .0069885256 .16799927 .011993408 .17098999 .01499939 .17298889 .01499939 .17298889 .01499939 .17298889 .01499939 .1749878 .0009918213 .1749878-.0040130617 .1749878-.06813049 .14898682-.12825012 .10499573-.17433167 .100997928-.17733765 .099990848-.17933655 .099990848-.18334961 .099990848-.18835449 .10499573-.19335938 .10998535-.19335938 .11898804-.19335938 .19499207-.11923218 .19499207-.0040130617Z"/>
<path id="font_4_63" d="M.5209961 0V.0289917C.47099305 .0289917 .44599916 .0289917 .44499208 .059020997V.24320984C.44499208 .3363037 .44499208 .3643341 .42199708 .39637757 .3929901 .4353943 .34599305 .44140626 .31199647 .44140626 .22599793 .44140626 .18598938 .37634278 .17199707 .34532167H.17098999V.69433596L.03199768 .6826172V.6536102C.099990848 .6536102 .10798645 .64663699 .10798645 .59780886V.074035648C.10798645 .0289917 .09700012 .0289917 .03199768 .0289917V0C.057998659 .0019989014 .11199951 .0019989014 .13999939 .0019989014 .16899109 .0019989014 .22299195 .0019989014 .24899292 0V.0289917C.18499756 .0289917 .17298889 .0289917 .17298889 .074035648V.2602234C.17298889 .3653412 .24198914 .42140199 .3039856 .42140199 .3659973 .42140199 .37998963 .37034608 .37998963 .3092804V.074035648C.37998963 .0289917 .36898805 .0289917 .3039856 .0289917V0C.32998658 .0019989014 .38398744 .0019989014 .4119873 .0019989014 .44099427 .0019989014 .49499513 .0019989014 .5209961 0Z"/>
<path id="font_4_96" d="M.35299684 .38339234C.35299684 .4133911 .32598878 .44140626 .2829895 .44140626 .19799805 .44140626 .16899109 .34939576 .16299439 .33039857H.1619873V.44140626L.027999878 .4303589V.4013672C.09599304 .4013672 .10398865 .39434815 .10398865 .3453064V.074035648C.10398865 .0289917 .09298706 .0289917 .027999878 .0289917V0C.055999757 .0019989014 .11099243 .0019989014 .14099121 .0019989014 .16799927 .0019989014 .23899842 .0019989014 .2619934 0V.0289917H.24198914C.16899109 .02973938 .16699219 .040740968 .16699219 .07673645V.23374939C.16699219 .3307495 .20698548 .42173768 .28399659 .42173768 .2919922 .42173768 .2939911 .42173768 .2979889 .42074586 .2899933 .41674806 .27398683 .41073609 .27398683 .3837433 .27398683 .35473634 .29699708 .34375 .31298829 .34375 .33299256 .34375 .35299684 .35673524 .35299684 .3837433V.38339234Z"/>
<path id="font_4_98" d="M.35198976 .12739563C.35198976 .181427 .31900025 .21340943 .30999757 .22239685 .27398683 .25338746 .24699402 .25938417 .18099976 .27137757 .15098572 .27737428 .07798767 .29136659 .07798767 .35131837 .07798767 .38230897 .09899902 .4282837 .18899536 .4282837 .2979889 .4282837 .3039856 .33532716 .30599977 .3043518 .30699159 .2963562 .31399537 .2963562 .31698609 .2963562 .32798768 .2963562 .32798768 .30136109 .32798768 .3193512V.4232788C.32798768 .44128419 .32798768 .44628907 .31799317 .44628907 .30999757 .44628907 .29100038 .4242859 .28399659 .4152832 .25299073 .4402771 .22200012 .44628907 .18998719 .44628907 .068984989 .44628907 .032989503 .38031007 .032989503 .32533265 .032989503 .3143463 .032989503 .27937318 .070999149 .24438477 .102996829 .21640015 .13699341 .20941162 .18299866 .20040894 .23799134 .1894226 .25099183 .18641663 .27598573 .16642761 .2939911 .15142823 .30699159 .12940979 .30699159 .101364139 .30699159 .05831909 .28199769 .010253906 .19400025 .010253906 .12799073 .010253906 .07998657 .048294069 .057998659 .1484375 .053985597 .16642761 .052993776 .16842652 .052993776 .16842652 .050994874 .17242432 .04699707 .17242432 .04399109 .17242432 .032989503 .17242432 .032989503 .16743469 .032989503 .14942932V.013259888C.032989503-.004760742 .032989503-.009765625 .042999269-.009765625 .04798889-.009765625 .04899597-.008773804 .06599426 .012252808 .070999149 .019256592 .070999149 .021270752 .085998538 .03729248 .12399292-.009765625 .17799378-.009765625 .19499207-.009765625 .2999878-.009765625 .35198976 .048294069 .35198976 .12739563Z"/>
<path id="font_4_48" d="M.43499757 .19412232C.43499757 .23712158 .4229889 .28912355 .37998963 .33711244 .34298707 .3781128 .29899598 .38911439 .25898744 .39912416V.67510989C.33198548 .67111209 .3929901 .6351166 .4079895 .5651245 .39898683 .5671234 .39698792 .5671234 .3939972 .5671234 .375 .5671234 .35198976 .5541229 .35198976 .52511599 .35198976 .5001221 .36999513 .4841156 .3929901 .4841156 .41299439 .4841156 .43499757 .4941101 .43499757 .53012087 .43499757 .6171112 .37799073 .6981201 .25898744 .7041168V.7501221H.22999573V.703125C.125 .69511416 .053985597 .6091156 .053985597 .51512148 .053985597 .46011354 .07699585 .41311646 .11099243 .37911988 .14698792 .3441162 .17799378 .3361206 .22999573 .32312013V.019119263C.19099427 .022109986 .099990848 .038116456 .07998657 .14411927 .08299255 .14311219 .08999634 .14111328 .09599304 .14111328 .11299133 .14111328 .13699341 .15312195 .13699341 .18312073 .13699341 .2071228 .11999512 .2241211 .09599304 .2241211 .07598877 .2241211 .053985597 .21411133 .053985597 .17811585 .053985597 .08711243 .10798645-.001876831 .22999573-.009887695V-.055877687H.25898744V-.008880615C.3659973 .0011138916 .43499757 .09310913 .43499757 .19412232M.22999573 .40711976C.100997928 .43312074 .100997928 .52812197 .100997928 .54112246 .100997928 .60112 .14698792 .66511538 .22999573 .67411807V.40711976M.3880005 .16711426C.3880005 .09611511 .33799745 .02911377 .25898744 .020111084V.31510926C.3829956 .29011537 .3880005 .18711853 .3880005 .16711426Z"/>
</defs>
<path transform="matrix(1,0,0,-1.00003,23.523003,166.83464)" stroke-width=".3985" stroke-linecap="butt" stroke-miterlimit="10" stroke-linejoin="miter" fill="none" stroke="#bfbfbf" d="M40.39331 0V161.39438M78.86313 0V161.39438M117.33295 0V161.39438M155.80278 0V161.39438M194.2726 0V161.39438"/>
<path transform="matrix(1,0,0,-1.00003,23.523003,166.83464)" stroke-width=".3985" stroke-linecap="butt" stroke-miterlimit="10" stroke-linejoin="miter" fill="none" stroke="#bfbfbf" d="M0 41.84299H194.2726M0 81.69345H194.2726M0 121.54391H194.2726M0 161.39438H194.2726"/>
<path transform="matrix(1,0,0,-1.00003,23.523003,166.83464)" stroke-width=".19925" stroke-linecap="butt" stroke-miterlimit="10" stroke-linejoin="miter" fill="none" stroke="#7f807f" d="M40.39331-.13345V4.1185M78.86313-.13345V4.1185M117.33295-.13345V4.1185M155.80278-.13345V4.1185M194.2726-.13345V4.1185"/>
<path transform="matrix(1,0,0,-1.00003,23.523003,166.83464)" stroke-width=".19925" stroke-linecap="butt" stroke-miterlimit="10" stroke-linejoin="miter" fill="none" stroke="#7f807f" d="M-.20268 41.84299H4.04967M-.20268 81.69345H4.04967M-.20268 121.54391H4.04967M-.20268 161.39438H4.04967"/>
<path transform="matrix(1,0,0,-1.00003,23.523003,166.83464)" stroke-width=".3985" stroke-linecap="butt" stroke-miterlimit="10" stroke-linejoin="miter" fill="none" stroke="#000000" d="M0 1.99252H192.28008"/>
<path transform="matrix(1,0,0,-1.00003,215.80307,164.84206)" d="M1.99252 0-1.19551 1.59401 0 0-1.19551-1.59401"/>
<path transform="matrix(1,0,0,-1.00003,23.523003,166.83464)" stroke-width=".3985" stroke-linecap="butt" stroke-miterlimit="10" stroke-linejoin="miter" fill="none" stroke="#000000" d="M1.92348 0V159.40186"/>
<path transform="matrix(0,-1.00003,-1,-0,25.446484,7.427994)" d="M1.99252 0-1.19551 1.59401 0 0-1.19551-1.59401"/>
<use data-text="2" xlink:href="#font_1_3" transform="matrix(11.9552,0,0,-11.95556,58.063005,178.857)"/>
<use data-text="0" xlink:href="#font_1_1" transform="matrix(11.9552,0,0,-11.95556,63.909097,178.857)"/>
<use data-text="4" xlink:href="#font_1_5" transform="matrix(11.9552,0,0,-11.95556,96.533008,178.857)"/>
<use data-text="0" xlink:href="#font_1_1" transform="matrix(11.9552,0,0,-11.95556,102.3791,178.857)"/>
<use data-text="6" xlink:href="#font_1_7" transform="matrix(11.9552,0,0,-11.95556,135.003,178.857)"/>
<use data-text="0" xlink:href="#font_1_1" transform="matrix(11.9552,0,0,-11.95556,140.84909,178.857)"/>
<use data-text="8" xlink:href="#font_1_9" transform="matrix(11.9552,0,0,-11.95556,173.47299,178.857)"/>
<use data-text="0" xlink:href="#font_1_1" transform="matrix(11.9552,0,0,-11.95556,179.31909,178.857)"/>
<use data-text="1" xlink:href="#font_1_2" transform="matrix(11.9552,0,0,-11.95556,209.01599,178.857)"/>
<use data-text="0" xlink:href="#font_1_1" transform="matrix(11.9552,0,0,-11.95556,214.86209,178.857)"/>
<use data-text="0" xlink:href="#font_1_1" transform="matrix(11.9552,0,0,-11.95556,220.70819,178.857)"/>
<use data-text="1" xlink:href="#font_1_2" transform="matrix(11.9552,0,0,-11.95556,1.5770035,128.8425)"/>
<use data-text="0" xlink:href="#font_1_1" transform="matrix(11.9552,0,0,-11.95556,7.4230959,128.8425)"/>
<use data-text="0" xlink:href="#font_1_1" transform="matrix(11.9552,0,0,-11.95556,13.269188,128.8425)"/>
<use data-text="2" xlink:href="#font_1_3" transform="matrix(11.9552,0,0,-11.95556,1.5770035,88.9913)"/>
<use data-text="0" xlink:href="#font_1_1" transform="matrix(11.9552,0,0,-11.95556,7.4230959,88.9913)"/>
<use data-text="0" xlink:href="#font_1_1" transform="matrix(11.9552,0,0,-11.95556,13.269188,88.9913)"/>
<use data-text="3" xlink:href="#font_1_4" transform="matrix(11.9552,0,0,-11.95556,1.5770035,49.139108)"/>
<use data-text="0" xlink:href="#font_1_1" transform="matrix(11.9552,0,0,-11.95556,7.4230959,49.139108)"/>
<use data-text="0" xlink:href="#font_1_1" transform="matrix(11.9552,0,0,-11.95556,13.269188,49.139108)"/>
<use data-text="4" xlink:href="#font_1_5" transform="matrix(11.9552,0,0,-11.95556,1.5770035,9.287903)"/>
<use data-text="0" xlink:href="#font_1_1" transform="matrix(11.9552,0,0,-11.95556,7.4230959,9.287903)"/>
<use data-text="0" xlink:href="#font_1_1" transform="matrix(11.9552,0,0,-11.95556,13.269188,9.287903)"/>
<path transform="matrix(1,0,0,-1.00003,23.523003,166.83464)" stroke-width=".3985" stroke-linecap="butt" stroke-miterlimit="10" stroke-linejoin="miter" fill="none" stroke="#bfbfbf" d="M21.1584 0V161.39438M59.62822 0V161.39438M98.09804 0V161.39438M136.56786 0V161.39438M175.03769 0V161.39438"/>
<path transform="matrix(1,0,0,-1.00003,23.523003,166.83464)" stroke-width=".19925" stroke-linecap="butt" stroke-miterlimit="10" stroke-linejoin="miter" fill="none" stroke="#7f807f" d="M21.1584-.13345V4.1185M59.62822-.13345V4.1185M98.09804-.13345V4.1185M136.56786-.13345V4.1185M175.03769-.13345V4.1185"/>
<use data-text="1" xlink:href="#font_1_2" transform="matrix(11.9552,0,0,-11.95556,38.828004,178.857)"/>
<use data-text="0" xlink:href="#font_1_1" transform="matrix(11.9552,0,0,-11.95556,44.674097,178.857)"/>
<use data-text="3" xlink:href="#font_1_4" transform="matrix(11.9552,0,0,-11.95556,77.298007,178.857)"/>
<use data-text="0" xlink:href="#font_1_1" transform="matrix(11.9552,0,0,-11.95556,83.1441,178.857)"/>
<use data-text="5" xlink:href="#font_1_6" transform="matrix(11.9552,0,0,-11.95556,115.768009,178.857)"/>
<use data-text="0" xlink:href="#font_1_1" transform="matrix(11.9552,0,0,-11.95556,121.6141,178.857)"/>
<use data-text="7" xlink:href="#font_1_8" transform="matrix(11.9552,0,0,-11.95556,154.238,178.857)"/>
<use data-text="0" xlink:href="#font_1_1" transform="matrix(11.9552,0,0,-11.95556,160.08409,178.857)"/>
<use data-text="9" xlink:href="#font_1_10" transform="matrix(11.9552,0,0,-11.95556,192.70801,178.857)"/>
<use data-text="0" xlink:href="#font_1_1" transform="matrix(11.9552,0,0,-11.95556,198.5541,178.857)"/>
<path transform="matrix(1,0,0,-1.00003,23.523003,166.83464)" stroke-width=".3985" stroke-linecap="butt" stroke-miterlimit="10" stroke-linejoin="miter" fill="none" stroke="#bfbfbf" d="M0 9.96262H194.2726M0 17.93271H194.2726M0 25.9028H194.2726M0 33.8729H194.2726M0 49.81308H194.2726M0 57.78317H194.2726M0 65.75327H194.2726M0 73.72336H194.2726M0 89.66354H194.2726M0 97.63364H194.2726M0 105.60373H194.2726M0 113.57382H194.2726M0 129.514H194.2726M0 137.4841H194.2726M0 145.4542H194.2726M0 153.42429H194.2726"/>
<path transform="matrix(1,0,0,-1.00003,23.523003,166.83464)" stroke-width=".19925" stroke-linecap="butt" stroke-miterlimit="10" stroke-linejoin="miter" fill="none" stroke="#7f807f" d="M-.20268 9.96262H4.04967M-.20268 17.93271H4.04967M-.20268 25.9028H4.04967M-.20268 33.8729H4.04967M-.20268 49.81308H4.04967M-.20268 57.78317H4.04967M-.20268 65.75327H4.04967M-.20268 73.72336H4.04967M-.20268 89.66354H4.04967M-.20268 97.63364H4.04967M-.20268 105.60373H4.04967M-.20268 113.57382H4.04967M-.20268 129.514H4.04967M-.20268 137.4841H4.04967M-.20268 145.4542H4.04967M-.20268 153.42429H4.04967"/>
<g clip-path="url(#clip_2)">
</g>
<use data-text="t" xlink:href="#font_3_1" transform="matrix(11.9552,0,0,-11.95556,186.59601,158.35039)"/>
<use data-text="," xlink:href="#font_4_45" transform="matrix(11.9552,0,0,-11.95556,190.823,158.35039)"/>
<use data-text="h" xlink:href="#font_4_63" transform="matrix(11.9552,0,0,-11.95556,197.96025,158.35039)"/>
<use data-text="r" xlink:href="#font_4_96" transform="matrix(11.9552,0,0,-11.95556,204.46389,158.35039)"/>
<use data-text="s" xlink:href="#font_4_98" transform="matrix(11.9552,0,0,-11.95556,209.01882,158.35039)"/>
<use data-text="$" xlink:href="#font_4_48" transform="matrix(11.9552,0,0,-11.95556,29.631005,18.561188)"/>
</svg>
