<svg xmlns="http://www.w3.org/2000/svg" xmlns:xlink="http://www.w3.org/1999/xlink" xmlns:inkscape="http://www.inkscape.org/namespaces/inkscape" version="1.1" width="220" height="181" viewBox="0 0 220 181">
<defs>
<path id="font_1_3" d="M.43998719 .16790772H.41799928C.4149933 .15092469 .40699769 .09597778 .39698792 .07998657 .3899994 .070999149 .33299256 .070999149 .30299378 .070999149H.117996219C.14498902 .09397888 .20599365 .15792847 .23199463 .18190003 .38398744 .3217926 .43998719 .37374879 .43998719 .47270204 .43998719 .5878906 .34899903 .66503909 .23298645 .66503909 .116989139 .66503909 .04899597 .5658264 .04899597 .4797058 .04899597 .42871095 .09298706 .42871095 .09599304 .42871095 .116989139 .42871095 .14299011 .44371034 .14299011 .475708 .14299011 .5037079 .12399292 .5227051 .09599304 .5227051 .08699036 .5227051 .084991458 .5227051 .08198547 .521698 .100997928 .5899048 .15499878 .6360321 .21998596 .6360321 .30499269 .6360321 .35699464 .56481936 .35699464 .47270204 .35699464 .3877411 .30799867 .313797 .25099183 .24984741L.04899597 .023986817V0H.4139862L.43998719 .16790772Z"/>
<path id="font_1_1" d="M.44799806 .31976319C.44799806 .40283204 .44299317 .48390199 .40699769 .55996707 .3659973 .64302065 .2939911 .66503909 .24499512 .66503909 .18699646 .66503909 .115997318 .63601687 .07899475 .552948 .050994874 .48989869 .040985109 .42785646 .040985109 .31976319 .040985109 .22268677 .04798889 .14962769 .083999637 .078567508 .12298584 .0025177003 .19198609-.021484375 .24398804-.021484375 .33099366-.021484375 .3809967 .030532837 .4099884 .08857727 .44599916 .16363526 .44799806 .26171876 .44799806 .31976319M.24398804-.0014953613C.21199036-.0014953613 .14698792 .016525269 .12799073 .12561035 .116989139 .18565369 .116989139 .26171876 .116989139 .33177186 .116989139 .41384889 .116989139 .48789979 .1329956 .5469513 .1499939 .6139984 .20098877 .6450348 .24398804 .6450348 .28199769 .6450348 .33999635 .6220093 .35899354 .53593447 .37199403 .4788971 .37199403 .39982606 .37199403 .33177186 .37199403 .26472474 .37199403 .18865967 .36099244 .12760926 .34199525 .01751709 .2789917-.0014953613 .24398804-.0014953613Z"/>
<path id="font_1_4" d="M.36099244 .6508026C.36099244 .6697998 .36099244 .6748047 .34700013 .6748047 .33898927 .6748047 .33599855 .6748047 .32798768 .662796L.026992798 .19598389V.16699219H.2899933V.07598877C.2899933 .038986207 .28799439 .0289917 .21499634 .0289917H.19499207V0C.21798706 .0019989014 .29699708 .0019989014 .32499696 .0019989014 .35299684 .0019989014 .43299867 .0019989014 .45599366 0V.0289917H.43598939C.3639984 .0289917 .36099244 .038986207 .36099244 .07598877V.16699219H.46199037V.19598389H.36099244V.6508026M.29499818 .5728302V.19598389H.051986696L.29499818 .5728302Z"/>
<path id="font_1_6" d="M.12298584 .34773255C.12298584 .60061648 .24598694 .641037 .2999878 .641037 .33599855 .641037 .37199403 .62991335 .3909912 .5996094 .3789978 .5996094 .34098817 .5996094 .34098817 .558609 .34098817 .53660586 .35598756 .51760867 .38198854 .51760867 .40699769 .51760867 .42399598 .53260806 .42399598 .56159976 .42399598 .6137543 .38598634 .66503909 .29899598 .66503909 .17298889 .66503909 .040985109 .53559878 .040985109 .31570436 .040985109 .040527345 .16099549-.021484375 .24598694-.021484375 .35499574-.021484375 .44799806 .07354736 .44799806 .2036438 .44799806 .33673097 .35499574 .42578126 .25498963 .42578126 .1659851 .42578126 .1329956 .34873963 .12298584 .32070924V.34773255M.24598694 .005508423C.18299866 .005508423 .15299988 .061538698 .14399719 .08256531 .1349945 .10858154 .125 .15760803 .125 .22766114 .125 .30670167 .16099549 .40577699 .25099183 .40577699 .30599977 .40577699 .33499146 .3687439 .34999085 .33473207 .3659973 .29769898 .3659973 .2476654 .3659973 .20463562 .3659973 .15361023 .3659973 .10858154 .34700013 .07055664 .32199098 .022521973 .28599549 .005508423 .24598694 .005508423Z"/>
<path id="font_1_7" d="M.2979889 .36079408C.34799195 .38781739 .42099 .43385316 .42099 .5179291 .42099 .6049957 .33699037 .66503909 .24499512 .66503909 .1459961 .66503909 .067993167 .59199526 .067993167 .5009155 .067993167 .46688844 .07798767 .43286134 .10598755 .39883424 .116989139 .38581849 .117996219 .38482667 .18798828 .3357849 .09098816 .29074098 .040985109 .22369385 .040985109 .15063477 .040985109 .044540407 .14199829-.021484375 .24398804-.021484375 .35499574-.021484375 .44799806 .060546876 .44799806 .16563416 .44799806 .2677307 .37599183 .3127594 .2979889 .36079408M.1619873 .4508667C.14898682 .45988465 .10899353 .48590089 .10899353 .5349426 .10899353 .59999087 .1769867 .641037 .24398804 .641037 .31599427 .641037 .37998963 .58898928 .37998963 .516922 .37998963 .45587159 .33599855 .4068451 .27799989 .3748169L.1619873 .4508667M.20899964 .32176209 .32998658 .2427063C.35598756 .22569275 .4019928 .19465637 .4019928 .13360596 .4019928 .057556154 .32499696 .005508423 .24499512 .005508423 .1599884 .005508423 .08699036 .06756592 .08699036 .15063477 .08699036 .22869873 .14399719 .29174806 .20899964 .32176209Z"/>
<path id="font_1_2" d="M.28799439 .64105227C.28799439 .664032 .28799439 .66503909 .2679901 .66503909 .24398804 .6380615 .19400025 .6012573 .09098816 .6012573V.5722656C.11399841 .5722656 .1639862 .5722656 .21899414 .59825137V.07701111C.21899414 .041000368 .21598816 .0289917 .12799073 .0289917H.09700012V0C.12399292 .0019989014 .22099304 .0019989014 .2539978 .0019989014 .2869873 .0019989014 .3829956 .0019989014 .4099884 0V.0289917H.3789978C.29100038 .0289917 .28799439 .041000368 .28799439 .07701111V.64105227Z"/>
<path id="font_2_1" d="M.19499207-.0040130617C.19499207 .053985597 .17599488 .09700012 .1349945 .09700012 .102996829 .09700012 .08699036 .070999149 .08699036 .04899597 .08699036 .026992798 .101989749 0 .13598633 0 .14898682 0 .1599884 .0039978029 .16899109 .0129852299 .17098999 .01499939 .17199707 .01499939 .17298889 .01499939 .1749878 .01499939 .1749878 .0009918213 .1749878-.0040130617 .1749878-.037078859 .16899109-.10221863 .11099243-.1673584 .099990848-.17936707 .099990848-.18136597 .099990848-.18336487 .099990848-.18836975 .10499573-.19335938 .10998535-.19335938 .117996219-.19335938 .19499207-.119262699 .19499207-.0040130617Z"/>
<path id="font_1_5" d="M.12799073 .5727997C.17098999 .5588074 .20599365 .5578003 .21699524 .5578003 .32998658 .5578003 .4019928 .6409912 .4019928 .6550598 .4019928 .6590576 .3999939 .6640625 .3939972 .6640625 .3919983 .6640625 .3899994 .6640625 .3809967 .66004946 .32499696 .6358795 .2769928 .6328125 .25099183 .6328125 .18499756 .6328125 .13798523 .6530609 .11898804 .6610565 .11199951 .6640625 .10998535 .6640625 .10899353 .6640625 .100997928 .6640625 .100997928 .65805056 .100997928 .64201357V.34495545C.100997928 .32695008 .100997928 .32095338 .11299133 .32095338 .117996219 .32095338 .11898804 .32196046 .1289978 .33395387 .15699768 .37493897 .20399475 .39894105 .2539978 .39894105 .30699159 .39894105 .33299256 .34994508 .34098817 .33294679 .35798646 .29396058 .35899354 .2449646 .35899354 .20697022 .35899354 .16897583 .35899354 .11193848 .33099366 .0667572 .30899049 .03060913 .269989 .005508423 .22599793 .005508423 .1599884 .005508423 .09498596 .050689699 .07699585 .12397766 .08198547 .12197876 .08799744 .12097168 .09298706 .12097168 .10998535 .12097168 .13699341 .13098145 .13699341 .16497803 .13699341 .1929779 .117996219 .20898438 .09298706 .20898438 .07499695 .20898438 .04899597 .19998169 .04899597 .16098023 .04899597 .075790408 .116989139-.021484375 .22799683-.021484375 .34098817-.021484375 .43998719 .073791507 .43998719 .20097351 .43998719 .3199463 .3600006 .4189453 .25498963 .4189453 .19799805 .4189453 .1539917 .39393617 .12799073 .36595155V.5727997Z"/>
<clipPath id="clip_3">
<path transform="matrix(1.00003,0,0,-1.00006,24.385422,163.20484)" d="M0 0H194.27414V161.39745H0Z"/>
</clipPath>
<path id="font_4_70" d="M.5 0V.0289917C.47299195 .0289917 .44198609 .0289917 .4139862 .06991577L.27999879 .26464845 .272995 .27464295C.272995 .27764894 .33599855 .33164979 .34399415 .3396454 .41299439 .3996582 .45700074 .40065003 .47799684 .4016571V.43066407C.45799256 .4286499 .43199159 .4286499 .4019928 .4286499 .37599183 .4286499 .32499696 .4286499 .3019867 .43066407V.4016571C.31900025 .40065003 .33099366 .39164735 .33099366 .37565614 .33099366 .35565187 .30999757 .33764649 .30999757 .33764649L.16699219 .21168518V.69433596L.027999878 .6826172V.6536102C.09599304 .6536102 .10398865 .64660647 .10398865 .5976105V.073913577C.10398865 .0289917 .09298706 .0289917 .027999878 .0289917V0C.055999757 .0019989014 .10398865 .0019989014 .13398743 .0019989014 .1639862 .0019989014 .21199036 .0019989014 .23999024 0V.0289917C.17599488 .0289917 .1639862 .0289917 .1639862 .073913577V.17973328L.22799683 .23564148 .32398988 .09786987C.33898927 .0769043 .34599305 .06593323 .34599305 .051956178 .34599305 .033981325 .33198548 .0289917 .31098939 .0289917V0C.33599855 .0019989014 .3849945 .0019989014 .4119873 .0019989014 .45498658 .0019989014 .45700074 .0019989014 .5 0Z"/>
<path id="font_4_113" d="M.98799136 .6536102V.6826172C.94499209 .680603 .94299319 .680603 .8989868 .680603 .8730011 .680603 .81900027 .680603 .79499819 .6826172V.6536102C.85598757 .65260317 .8739929 .62042239 .8739929 .6003723 .8739929 .59536746 .87098696 .5873718 .86898806 .58036807L.71699526 .10647583 .5549927 .609375C.55400088 .612381 .5519867 .62042239 .5519867 .6234436 .5519867 .6536102 .6049957 .6536102 .6289978 .6536102V.6826172C.6049957 .680603 .5309906 .680603 .5019989 .680603 .47299195 .680603 .4119873 .680603 .38598634 .6826172V.6536102C.43899537 .6536102 .45298768 .650589 .46398927 .63249209 .47099305 .6194153 .47799684 .58836367 .4909973 .55236819L.34799195 .10647583 .18798828 .6043701C.18299866 .61842349 .18299866 .62042239 .18299866 .6234436 .18299866 .6536102 .23399353 .6536102 .2599945 .6536102V.6826172C.23699951 .680603 .16099549 .680603 .1329956 .680603 .10398865 .680603 .042999269 .680603 .016998291 .6826172V.6536102C.070999149 .6536102 .08999634 .6536102 .101989749 .6154022L.2999878-.0025024415C.30499269-.017486573 .30899049-.021484375 .31799317-.021484375 .32598878-.021484375 .33099366-.018493653 .33599855-.0034942628L.5019989 .51538088 .6689911-.0034942628C.673996-.018493653 .67900088-.021484375 .68699648-.021484375 .69599917-.021484375 .69999697-.017486573 .7049866-.0025024415L.8929901 .58436587C.9089966 .63249209 .9379883 .65260317 .98799136 .6536102Z"/>
<path id="font_4_63" d="M.5209961 0V.0289917C.47099305 .0289917 .44599916 .0289917 .44499208 .059020997V.24320984C.44499208 .3363037 .44499208 .3643341 .42199708 .39637757 .3929901 .4353943 .34599305 .44140626 .31199647 .44140626 .22599793 .44140626 .18598938 .37634278 .17199707 .34532167H.17098999V.69433596L.03199768 .6826172V.6536102C.099990848 .6536102 .10798645 .64663699 .10798645 .59780886V.074035648C.10798645 .0289917 .09700012 .0289917 .03199768 .0289917V0C.057998659 .0019989014 .11199951 .0019989014 .13999939 .0019989014 .16899109 .0019989014 .22299195 .0019989014 .24899292 0V.0289917C.18499756 .0289917 .17298889 .0289917 .17298889 .074035648V.2602234C.17298889 .3653412 .24198914 .42140199 .3039856 .42140199 .3659973 .42140199 .37998963 .37034608 .37998963 .3092804V.074035648C.37998963 .0289917 .36898805 .0289917 .3039856 .0289917V0C.32998658 .0019989014 .38398744 .0019989014 .4119873 .0019989014 .44099427 .0019989014 .49499513 .0019989014 .5209961 0Z"/>
<path id="font_4_48" d="M.43499757 .19412232C.43499757 .23712158 .4229889 .28912355 .37998963 .33711244 .34298707 .3781128 .29899598 .38911439 .25898744 .39912416V.67510989C.33198548 .67111209 .3929901 .6351166 .4079895 .5651245 .39898683 .5671234 .39698792 .5671234 .3939972 .5671234 .375 .5671234 .35198976 .5541229 .35198976 .52511599 .35198976 .5001221 .36999513 .4841156 .3929901 .4841156 .41299439 .4841156 .43499757 .4941101 .43499757 .53012087 .43499757 .6171112 .37799073 .6981201 .25898744 .7041168V.7501221H.22999573V.703125C.125 .69511416 .053985597 .6091156 .053985597 .51512148 .053985597 .46011354 .07699585 .41311646 .11099243 .37911988 .14698792 .3441162 .17799378 .3361206 .22999573 .32312013V.019119263C.19099427 .022109986 .099990848 .038116456 .07998657 .14411927 .08299255 .14311219 .08999634 .14111328 .09599304 .14111328 .11299133 .14111328 .13699341 .15312195 .13699341 .18312073 .13699341 .2071228 .11999512 .2241211 .09599304 .2241211 .07598877 .2241211 .053985597 .21411133 .053985597 .17811585 .053985597 .08711243 .10798645-.001876831 .22999573-.009887695V-.055877687H.25898744V-.008880615C.3659973 .0011138916 .43499757 .09310913 .43499757 .19412232M.22999573 .40711976C.100997928 .43312074 .100997928 .52812197 .100997928 .54112246 .100997928 .60112 .14698792 .66511538 .22999573 .67411807V.40711976M.3880005 .16711426C.3880005 .09611511 .33799745 .02911377 .25898744 .020111084V.31510926C.3829956 .29011537 .3880005 .18711853 .3880005 .16711426Z"/>
</defs>
<path transform="matrix(1.00003,0,0,-1.00006,24.385422,163.20484)" stroke-width=".3985" stroke-linecap="butt" stroke-miterlimit="10" stroke-linejoin="miter" fill="none" stroke="#bfbfbf" d="M25.1222 0V161.39745M50.18173 0V161.39745M75.24129 0V161.39745M100.30084 0V161.39745M125.36038 0V161.39745M150.41994 0V161.39745M175.47948 0V161.39745"/>
<path transform="matrix(1.00003,0,0,-1.00006,24.385422,163.20484)" stroke-width=".3985" stroke-linecap="butt" stroke-miterlimit="10" stroke-linejoin="miter" fill="none" stroke="#bfbfbf" d="M0 46.44199H194.27414M0 92.42418H194.27414M0 138.40636H194.27414"/>
<path transform="matrix(1.00003,0,0,-1.00006,24.385422,163.20484)" stroke-width=".19925" stroke-linecap="butt" stroke-miterlimit="10" stroke-linejoin="miter" fill="none" stroke="#7f807f" d="M25.1222-1.66603V2.58568M50.18173-1.66603V2.58568M75.24129-1.66603V2.58568M100.30084-1.66603V2.58568M125.36038-1.66603V2.58568M150.41994-1.66603V2.58568M175.47948-1.66603V2.58568"/>
<path transform="matrix(1.00003,0,0,-1.00006,24.385422,163.20484)" stroke-width=".19925" stroke-linecap="butt" stroke-miterlimit="10" stroke-linejoin="miter" fill="none" stroke="#7f807f" d="M-2.06367 46.44199H2.18898M-2.06367 92.42418H2.18898M-2.06367 138.40636H2.18898"/>
<path transform="matrix(1.00003,0,0,-1.00006,24.385422,163.20484)" stroke-width=".3985" stroke-linecap="butt" stroke-miterlimit="10" stroke-linejoin="miter" fill="none" stroke="#000000" d="M0 .45981H192.28162"/>
<path transform="matrix(1.00003,0,0,-1.00006,216.67282,162.745)" d="M1.99252 0-1.19551 1.59401 0 0-1.19551-1.59401"/>
<path transform="matrix(1.00003,0,0,-1.00006,24.385422,163.20484)" stroke-width=".3985" stroke-linecap="butt" stroke-miterlimit="10" stroke-linejoin="miter" fill="none" stroke="#000000" d="M.06264 0V159.40493"/>
<path transform="matrix(0,-1.00006,-1.00003,-0,24.448063,3.7903596)" d="M1.99252 0-1.19551 1.59401 0 0-1.19551-1.59401"/>
<use data-text="2" xlink:href="#font_1_3" transform="matrix(11.95556,0,0,-11.955917,40.728914,176.75965)"/>
<use data-text="0" xlink:href="#font_1_1" transform="matrix(11.95556,0,0,-11.955917,46.57518,176.75965)"/>
<use data-text="0" xlink:href="#font_1_1" transform="matrix(11.95556,0,0,-11.955917,52.421449,176.75965)"/>
<use data-text="4" xlink:href="#font_1_4" transform="matrix(11.95556,0,0,-11.955917,65.788669,176.75965)"/>
<use data-text="0" xlink:href="#font_1_1" transform="matrix(11.95556,0,0,-11.955917,71.63493,176.75965)"/>
<use data-text="0" xlink:href="#font_1_1" transform="matrix(11.95556,0,0,-11.955917,77.4812,176.75965)"/>
<use data-text="6" xlink:href="#font_1_6" transform="matrix(11.95556,0,0,-11.955917,90.84942,176.75965)"/>
<use data-text="0" xlink:href="#font_1_1" transform="matrix(11.95556,0,0,-11.955917,96.69569,176.75965)"/>
<use data-text="0" xlink:href="#font_1_1" transform="matrix(11.95556,0,0,-11.955917,102.541957,176.75965)"/>
<use data-text="8" xlink:href="#font_1_7" transform="matrix(11.95556,0,0,-11.955917,115.90917,176.75965)"/>
<use data-text="0" xlink:href="#font_1_1" transform="matrix(11.95556,0,0,-11.955917,121.75544,176.75965)"/>
<use data-text="0" xlink:href="#font_1_1" transform="matrix(11.95556,0,0,-11.955917,127.60171,176.75965)"/>
<use data-text="1" xlink:href="#font_1_2" transform="matrix(11.95556,0,0,-11.955917,136.41678,176.75965)"/>
<use data-text="," xlink:href="#font_2_1" transform="matrix(11.95556,0,0,-11.955917,142.26996,176.75965)"/>
<use data-text="0" xlink:href="#font_1_1" transform="matrix(11.95556,0,0,-11.955917,145.52106,176.75965)"/>
<use data-text="0" xlink:href="#font_1_1" transform="matrix(11.95556,0,0,-11.955917,151.36733,176.75965)"/>
<use data-text="0" xlink:href="#font_1_1" transform="matrix(11.95556,0,0,-11.955917,157.2136,176.75965)"/>
<use data-text="1" xlink:href="#font_1_2" transform="matrix(11.95556,0,0,-11.955917,161.47754,176.75965)"/>
<use data-text="," xlink:href="#font_2_1" transform="matrix(11.95556,0,0,-11.955917,167.33072,176.75965)"/>
<use data-text="2" xlink:href="#font_1_3" transform="matrix(11.95556,0,0,-11.955917,170.58182,176.75965)"/>
<use data-text="0" xlink:href="#font_1_1" transform="matrix(11.95556,0,0,-11.955917,176.42807,176.75965)"/>
<use data-text="0" xlink:href="#font_1_1" transform="matrix(11.95556,0,0,-11.955917,182.27436,176.75965)"/>
<use data-text="1" xlink:href="#font_1_2" transform="matrix(11.95556,0,0,-11.955917,186.53829,176.75965)"/>
<use data-text="," xlink:href="#font_2_1" transform="matrix(11.95556,0,0,-11.955917,192.39145,176.75965)"/>
<use data-text="4" xlink:href="#font_1_4" transform="matrix(11.95556,0,0,-11.955917,195.64255,176.75965)"/>
<use data-text="0" xlink:href="#font_1_1" transform="matrix(11.95556,0,0,-11.955917,201.48883,176.75965)"/>
<use data-text="0" xlink:href="#font_1_1" transform="matrix(11.95556,0,0,-11.955917,207.3351,176.75965)"/>
<use data-text="5" xlink:href="#font_1_5" transform="matrix(11.95556,0,0,-11.955917,6.4308779,120.61228)"/>
<use data-text="0" xlink:href="#font_1_1" transform="matrix(11.95556,0,0,-11.955917,12.277145,120.61228)"/>
<use data-text="1" xlink:href="#font_1_2" transform="matrix(11.95556,0,0,-11.955917,.5777054,74.627529)"/>
<use data-text="0" xlink:href="#font_1_1" transform="matrix(11.95556,0,0,-11.955917,6.423973,74.627529)"/>
<use data-text="0" xlink:href="#font_1_1" transform="matrix(11.95556,0,0,-11.955917,12.270241,74.627529)"/>
<use data-text="1" xlink:href="#font_1_2" transform="matrix(11.95556,0,0,-11.955917,.5777054,28.642762)"/>
<use data-text="5" xlink:href="#font_1_5" transform="matrix(11.95556,0,0,-11.955917,6.423973,28.642762)"/>
<use data-text="0" xlink:href="#font_1_1" transform="matrix(11.95556,0,0,-11.955917,12.270241,28.642762)"/>
<path transform="matrix(1.00003,0,0,-1.00006,24.385422,163.20484)" stroke-width=".3985" stroke-linecap="butt" stroke-miterlimit="10" stroke-linejoin="miter" fill="none" stroke="#bfbfbf" d="M12.5924 0V161.39745M25.1222 0V161.39745M37.65196 0V161.39745M50.18173 0V161.39745M62.71152 0V161.39745M75.24129 0V161.39745M87.77106 0V161.39745M100.30084 0V161.39745M112.83061 0V161.39745M137.89017 0V161.39745M150.41994 0V161.39745M162.9497 0V161.39745M175.47948 0V161.39745"/>
<path transform="matrix(1.00003,0,0,-1.00006,24.385422,163.20484)" stroke-width=".19925" stroke-linecap="butt" stroke-miterlimit="10" stroke-linejoin="miter" fill="none" stroke="#7f807f" d="M12.5924-1.66603V2.58568M25.1222-1.66603V2.58568M37.65196-1.66603V2.58568M50.18173-1.66603V2.58568M62.71152-1.66603V2.58568M75.24129-1.66603V2.58568M87.77106-1.66603V2.58568M100.30084-1.66603V2.58568M112.83061-1.66603V2.58568M137.89017-1.66603V2.58568M150.41994-1.66603V2.58568M162.9497-1.66603V2.58568M175.47948-1.66603V2.58568"/>
<path transform="matrix(1.00003,0,0,-1.00006,24.385422,163.20484)" stroke-width=".3985" stroke-linecap="butt" stroke-miterlimit="10" stroke-linejoin="miter" fill="none" stroke="#bfbfbf" d="M0 9.65625H194.27414M0 18.85268H194.27414M0 28.04912H194.27414M0 37.24556H194.27414M0 55.63843H194.27414M0 64.83487H194.27414M0 74.0313H194.27414M0 83.22774H194.27414M0 101.6206H194.27414M0 110.81705H194.27414M0 120.01349H194.27414M0 129.20992H194.27414M0 147.6028H194.27414M0 156.79924H194.27414"/>
<path transform="matrix(1.00003,0,0,-1.00006,24.385422,163.20484)" stroke-width=".19925" stroke-linecap="butt" stroke-miterlimit="10" stroke-linejoin="miter" fill="none" stroke="#7f807f" d="M-2.06367 9.65625H2.18898M-2.06367 18.85268H2.18898M-2.06367 28.04912H2.18898M-2.06367 37.24556H2.18898M-2.06367 55.63843H2.18898M-2.06367 64.83487H2.18898M-2.06367 74.0313H2.18898M-2.06367 83.22774H2.18898M-2.06367 101.6206H2.18898M-2.06367 110.81705H2.18898M-2.06367 120.01349H2.18898M-2.06367 129.20992H2.18898M-2.06367 147.6028H2.18898M-2.06367 156.79924H2.18898"/>
<g clip-path="url(#clip_3)">
</g>
<use data-text="k" xlink:href="#font_4_70" transform="matrix(11.95556,0,0,-11.955917,190.74942,158.30954)"/>
<use data-text="W" xlink:href="#font_4_113" transform="matrix(11.95556,0,0,-11.955917,195.95009,158.30954)"/>
<use data-text="h" xlink:href="#font_4_63" transform="matrix(11.95556,0,0,-11.955917,207.97739,158.30954)"/>
<use data-text="$" xlink:href="#font_4_48" transform="matrix(11.95556,0,0,-11.955917,28.632554,14.948944)"/>
</svg>
