<svg xmlns="http://www.w3.org/2000/svg" xmlns:xlink="http://www.w3.org/1999/xlink" xmlns:inkscape="http://www.inkscape.org/namespaces/inkscape" version="1.1" width="221" height="183" viewBox="0 0 221 183">
<defs>
<path id="font_1_3" d="M.43998719 .16790772H.41799928C.4149933 .15092469 .40699769 .09597778 .39698792 .07998657 .3899994 .070999149 .33299256 .070999149 .30299378 .070999149H.117996219C.14498902 .09397888 .20599365 .15792847 .23199463 .18190003 .38398744 .3217926 .43998719 .37374879 .43998719 .47270204 .43998719 .5878906 .34899903 .66503909 .23298645 .66503909 .116989139 .66503909 .04899597 .5658264 .04899597 .4797058 .04899597 .42871095 .09298706 .42871095 .09599304 .42871095 .116989139 .42871095 .14299011 .44371034 .14299011 .475708 .14299011 .5037079 .12399292 .5227051 .09599304 .5227051 .08699036 .5227051 .084991458 .5227051 .08198547 .521698 .100997928 .5899048 .15499878 .6360321 .21998596 .6360321 .30499269 .6360321 .35699464 .56481936 .35699464 .47270204 .35699464 .3877411 .30799867 .313797 .25099183 .24984741L.04899597 .023986817V0H.4139862L.43998719 .16790772Z"/>
<path id="font_1_1" d="M.44799806 .31976319C.44799806 .40283204 .44299317 .48390199 .40699769 .55996707 .3659973 .64302065 .2939911 .66503909 .24499512 .66503909 .18699646 .66503909 .115997318 .63601687 .07899475 .552948 .050994874 .48989869 .040985109 .42785646 .040985109 .31976319 .040985109 .22268677 .04798889 .14962769 .083999637 .078567508 .12298584 .0025177003 .19198609-.021484375 .24398804-.021484375 .33099366-.021484375 .3809967 .030532837 .4099884 .08857727 .44599916 .16363526 .44799806 .26171876 .44799806 .31976319M.24398804-.0014953613C.21199036-.0014953613 .14698792 .016525269 .12799073 .12561035 .116989139 .18565369 .116989139 .26171876 .116989139 .33177186 .116989139 .41384889 .116989139 .48789979 .1329956 .5469513 .1499939 .6139984 .20098877 .6450348 .24398804 .6450348 .28199769 .6450348 .33999635 .6220093 .35899354 .53593447 .37199403 .4788971 .37199403 .39982606 .37199403 .33177186 .37199403 .26472474 .37199403 .18865967 .36099244 .12760926 .34199525 .01751709 .2789917-.0014953613 .24398804-.0014953613Z"/>
<path id="font_1_6" d="M.12298584 .34773255C.12298584 .60061648 .24598694 .641037 .2999878 .641037 .33599855 .641037 .37199403 .62991335 .3909912 .5996094 .3789978 .5996094 .34098817 .5996094 .34098817 .558609 .34098817 .53660586 .35598756 .51760867 .38198854 .51760867 .40699769 .51760867 .42399598 .53260806 .42399598 .56159976 .42399598 .6137543 .38598634 .66503909 .29899598 .66503909 .17298889 .66503909 .040985109 .53559878 .040985109 .31570436 .040985109 .040527345 .16099549-.021484375 .24598694-.021484375 .35499574-.021484375 .44799806 .07354736 .44799806 .2036438 .44799806 .33673097 .35499574 .42578126 .25498963 .42578126 .1659851 .42578126 .1329956 .34873963 .12298584 .32070924V.34773255M.24598694 .005508423C.18299866 .005508423 .15299988 .061538698 .14399719 .08256531 .1349945 .10858154 .125 .15760803 .125 .22766114 .125 .30670167 .16099549 .40577699 .25099183 .40577699 .30599977 .40577699 .33499146 .3687439 .34999085 .33473207 .3659973 .29769898 .3659973 .2476654 .3659973 .20463562 .3659973 .15361023 .3659973 .10858154 .34700013 .07055664 .32199098 .022521973 .28599549 .005508423 .24598694 .005508423Z"/>
<path id="font_1_2" d="M.28799439 .64105227C.28799439 .664032 .28799439 .66503909 .2679901 .66503909 .24398804 .6380615 .19400025 .6012573 .09098816 .6012573V.5722656C.11399841 .5722656 .1639862 .5722656 .21899414 .59825137V.07701111C.21899414 .041000368 .21598816 .0289917 .12799073 .0289917H.09700012V0C.12399292 .0019989014 .22099304 .0019989014 .2539978 .0019989014 .2869873 .0019989014 .3829956 .0019989014 .4099884 0V.0289917H.3789978C.29100038 .0289917 .28799439 .041000368 .28799439 .07701111V.64105227Z"/>
<path id="font_1_5" d="M.36099244 .6508026C.36099244 .6697998 .36099244 .6748047 .34700013 .6748047 .33898927 .6748047 .33599855 .6748047 .32798768 .662796L.026992798 .19598389V.16699219H.2899933V.07598877C.2899933 .038986207 .28799439 .0289917 .21499634 .0289917H.19499207V0C.21798706 .0019989014 .29699708 .0019989014 .32499696 .0019989014 .35299684 .0019989014 .43299867 .0019989014 .45599366 0V.0289917H.43598939C.3639984 .0289917 .36099244 .038986207 .36099244 .07598877V.16699219H.46199037V.19598389H.36099244V.6508026M.29499818 .5728302V.19598389H.051986696L.29499818 .5728302Z"/>
<path id="font_1_7" d="M.2979889 .36079408C.34799195 .38781739 .42099 .43385316 .42099 .5179291 .42099 .6049957 .33699037 .66503909 .24499512 .66503909 .1459961 .66503909 .067993167 .59199526 .067993167 .5009155 .067993167 .46688844 .07798767 .43286134 .10598755 .39883424 .116989139 .38581849 .117996219 .38482667 .18798828 .3357849 .09098816 .29074098 .040985109 .22369385 .040985109 .15063477 .040985109 .044540407 .14199829-.021484375 .24398804-.021484375 .35499574-.021484375 .44799806 .060546876 .44799806 .16563416 .44799806 .2677307 .37599183 .3127594 .2979889 .36079408M.1619873 .4508667C.14898682 .45988465 .10899353 .48590089 .10899353 .5349426 .10899353 .59999087 .1769867 .641037 .24398804 .641037 .31599427 .641037 .37998963 .58898928 .37998963 .516922 .37998963 .45587159 .33599855 .4068451 .27799989 .3748169L.1619873 .4508667M.20899964 .32176209 .32998658 .2427063C.35598756 .22569275 .4019928 .19465637 .4019928 .13360596 .4019928 .057556154 .32499696 .005508423 .24499512 .005508423 .1599884 .005508423 .08699036 .06756592 .08699036 .15063477 .08699036 .22869873 .14399719 .29174806 .20899964 .32176209Z"/>
<path id="font_1_4" d="M.18399048 .35888673C.16699219 .35787965 .16299439 .35688783 .16299439 .34788514 .16299439 .33789063 .16799927 .33789063 .18598938 .33789063H.23199463C.31698609 .33789063 .35499574 .267807 .35499574 .17172241 .35499574 .04058838 .2869873 .005508423 .23799134 .005508423 .18998719 .005508423 .10798645 .028564454 .07899475 .09472656 .11099243 .08970642 .13999939 .10771179 .13999939 .14372254 .13999939 .17271424 .11898804 .1927185 .09098816 .1927185 .066986087 .1927185 .040985109 .1787262 .040985109 .14071656 .040985109 .051620485 .12998963-.021484375 .24099732-.021484375 .3600006-.021484375 .44799806 .06965637 .44799806 .17071533 .44799806 .26280213 .37399293 .33488465 .27799989 .35188294 .36499024 .3769226 .42099 .45011903 .42099 .5282135 .42099 .6071167 .33898927 .66503909 .24198914 .66503909 .14199829 .66503909 .067993167 .604126 .067993167 .5312042 .067993167 .49121095 .09899902 .48321534 .11399841 .48321534 .1349945 .48321534 .15899658 .49821473 .15899658 .5282135 .15899658 .5602112 .1349945 .57421877 .11299133 .57421877 .10699463 .57421877 .10499573 .57421877 .101989749 .57321169 .13999939 .641037 .23399353 .641037 .23899842 .641037 .27198792 .641037 .33699037 .6260681 .33699037 .5282135 .33699037 .5092163 .33399964 .453125 .30499269 .41001893 .2749939 .3658905 .24099732 .36288453 .21398926 .36187745L.18399048 .35888673Z"/>
<path id="font_1_8" d="M.3659973 .29078675C.3659973 .05493164 .26098634 .005508423 .20098877 .005508423 .1769867 .005508423 .12399292 .008544922 .09899902 .043945314H.10499573C.11199951 .041915895 .147995 .047943117 .147995 .08493042 .147995 .106933597 .1329956 .12593079 .10699463 .12593079 .08099365 .12593079 .06498718 .108932498 .06498718 .08293152 .06498718 .02067566 .114990238-.021484375 .20199585-.021484375 .32699586-.021484375 .44799806 .11193848 .44799806 .32881166 .44799806 .5980072 .33599855 .66503909 .24798584 .66503909 .13798523 .66503909 .040985109 .5729828 .040985109 .44088746 .040985109 .3087921 .13398743 .21875 .23399353 .21875 .30799867 .21875 .34599305 .2727661 .3659973 .32380677V.29078675M.23799134 .23873902C.1749878 .23873902 .147995 .28977967 .13899231 .3087921 .12298584 .34681703 .12298584 .39485169 .12298584 .43988038 .12298584 .4959259 .12298584 .5439606 .14898682 .58499148 .16699219 .6120148 .19400025 .641037 .24798584 .641037 .30499269 .641037 .33399964 .59098818 .34399415 .5679779 .3639984 .51893618 .3639984 .43388368 .3639984 .41886903 .3639984 .33480836 .32598878 .23873902 .23799134 .23873902Z"/>
<clipPath id="clip_2">
<path transform="matrix(1.00002,0,0,-1.00005,25.44561,166.83873)" d="M0 0H194.2739V161.39636H0Z"/>
</clipPath>
<path id="font_3_117" d="M.72299197 .6536102V.6826172L.6299896 .680603C.6029968 .680603 .5529938 .680603 .5279999 .6826172V.6536102C.5569916 .6536102 .5779877 .640625 .5779877 .6166382 .5779877 .6036377 .57598879 .600647 .56599429 .58465579L.39698792 .30981446 .21099854 .6106415C.20498657 .620636 .20298767 .6236267 .20298767 .6296234 .20298767 .6506195 .22898865 .6536102 .2649994 .6536102V.6826172C.24198914 .680603 .16099549 .680603 .1329956 .680603 .10499573 .680603 .033996583 .680603 .009994507 .6826172V.6536102C.08099365 .6536102 .09399414 .6506195 .115997318 .6146393L.32699586 .2728424V.07595825C.32699586 .038986207 .32398988 .0289917 .2519989 .0289917H.23199463V0C.25498963 .0019989014 .33699037 .0019989014 .3659973 .0019989014 .394989 .0019989014 .47698976 .0019989014 .5009918 0V.0289917H.48098756C.4079895 .0289917 .4059906 .038986207 .4059906 .07395935V.2738495L.6009979 .58865359C.6339874 .6416168 .6799927 .6536102 .72299197 .6536102Z"/>
<path id="font_3_50" d="M.40699769 .11932373C.40699769 .1253357 .4019928 .1293335 .3959961 .1293335 .3880005 .1293335 .38598634 .12432861 .38398744 .11932373 .35798646 .035247804 .29100038 .01222229 .24899292 .01222229 .20698548 .01222229 .10598755 .040252687 .10598755 .21340943V.23242188H.3829956C.40499879 .23242188 .40699769 .23242188 .40699769 .25141908 .40699769 .3523407 .35299684 .44628907 .23199463 .44628907 .117996219 .44628907 .02999878 .34335328 .02999878 .21940613 .02999878 .08729553 .13198853-.009765625 .24299622-.009765625 .3619995-.009765625 .40699769 .09829712 .40699769 .11932373M.34498597 .25141908H.10699463C.114990238 .40830995 .20298767 .42630006 .23098755 .42630006 .33799745 .42630006 .34399415 .28538514 .34498597 .25141908Z"/>
<path id="font_3_28" d="M.47399903 .08912659V.14515686H.45199586V.08912659C.45199586 .03211975 .42799378 .024108887 .4139862 .024108887 .37599183 .024108887 .37599183 .07713318 .37599183 .09213257V.26719667C.37599183 .3211975 .37599183 .36120606 .33198548 .40023805 .29699708 .43226625 .2519989 .44628907 .20799256 .44628907 .12599182 .44628907 .06298828 .39222718 .06298828 .32720948 .06298828 .2982025 .08198547 .2842102 .10499573 .2842102 .1289978 .2842102 .1459961 .3012085 .1459961 .32521058 .1459961 .36621095 .10998535 .36621095 .09498596 .36621095 .117996219 .4082489 .1659851 .42625428 .20599365 .42625428 .2519989 .42625428 .31098939 .38822938 .31098939 .2982025V.25819398C.10998535 .255188 .033996583 .17115784 .033996583 .09413147 .033996583 .0152282719 .12599182-.009765625 .18699646-.009765625 .25299073-.009765625 .2979889 .030227662 .31698609 .07823181 .32099916 .03111267 .35198976-.0048828127 .394989-.0048828127 .41600038-.0048828127 .47399903 .009109497 .47399903 .089141849V.08912659M.31098939 .14117432C.31098939 .043121339 .23799134 .010116577 .19499207 .010116577 .1459961 .010116577 .10499573 .04612732 .10499573 .09414673 .10499573 .22621155 .2749939 .23822022 .31098939 .24023438V.14117432Z"/>
<path id="font_3_96" d="M.35299684 .38339234C.35299684 .4133911 .32598878 .44140626 .2829895 .44140626 .19799805 .44140626 .16899109 .34939576 .16299439 .33039857H.1619873V.44140626L.027999878 .4303589V.4013672C.09599304 .4013672 .10398865 .39434815 .10398865 .3453064V.074035648C.10398865 .0289917 .09298706 .0289917 .027999878 .0289917V0C.055999757 .0019989014 .11099243 .0019989014 .14099121 .0019989014 .16799927 .0019989014 .23899842 .0019989014 .2619934 0V.0289917H.24198914C.16899109 .02973938 .16699219 .040740968 .16699219 .07673645V.23374939C.16699219 .3307495 .20698548 .42173768 .28399659 .42173768 .2919922 .42173768 .2939911 .42173768 .2979889 .42074586 .2899933 .41674806 .27398683 .41073609 .27398683 .3837433 .27398683 .35473634 .29699708 .34375 .31298829 .34375 .33299256 .34375 .35299684 .35673524 .35299684 .3837433V.38339234Z"/>
<path id="font_3_74" d="M.85198977 0V.0289917H.83200076C.7599945 .0289917 .7569885 .038986207 .7569885 .07595825V.6066437C.7569885 .6436157 .7599945 .6536102 .83200076 .6536102H.85198977V.6826172H.69699099C.6749878 .6826172 .673996 .6816101 .66600039 .6626129L.44799806 .093948367 .22999573 .66360476C.22299195 .6826172 .22200012 .6826172 .19898987 .6826172H.04399109V.6536102H.06399536C.13598633 .6536102 .13899231 .6436157 .13899231 .6066437V.10295105C.13899231 .07595825 .13899231 .0289917 .04399109 .0289917V0C.069992069 .0019989014 .12298584 .0019989014 .15098572 .0019989014 .1789856 .0019989014 .23199463 .0019989014 .2579956 0V.0289917C.16299439 .0289917 .16299439 .07595825 .16299439 .10295105V.6486206H.1639862L.40499879 .018997193C.40899659 .0079956059 .4119873 0 .42199708 0 .43099977 0 .43299867 .004989624 .43899537 .019989014L.6819916 .6536102H.68299868V.07595825C.68299868 .038986207 .6799927 .0289917 .60798647 .0289917H.58799746V0C.61099246 .0019989014 .69099429 .0019989014 .7200012 .0019989014 .7489929 .0019989014 .82899478 .0019989014 .85198977 0Z"/>
<path id="font_3_77" d="M.5209961 0V.0289917C.47099305 .0289917 .44599916 .0289917 .44499208 .059051515V.24342346C.44499208 .3365631 .44499208 .36450196 .42199708 .39640809 .3929901 .4353943 .34599305 .44140626 .31199647 .44140626 .21499634 .44140626 .1769867 .35850526 .16899109 .338562H.16799927V.44140626L.03199768 .4303589V.4013672C.099990848 .4013672 .10798645 .39437867 .10798645 .34553529V.07408142C.10798645 .0289917 .09700012 .0289917 .03199768 .0289917V0C.057998659 .0019989014 .11199951 .0019989014 .13999939 .0019989014 .16899109 .0019989014 .22299195 .0019989014 .24899292 0V.0289917C.18499756 .0289917 .17298889 .0289917 .17298889 .07408142V.26046754C.17298889 .36547853 .24198914 .4213562 .3039856 .4213562 .3659973 .4213562 .37998963 .37045289 .37998963 .3095703V.07408142C.37998963 .0289917 .36898805 .0289917 .3039856 .0289917V0C.32998658 .0019989014 .38398744 .0019989014 .4119873 .0019989014 .44099427 .0019989014 .49499513 .0019989014 .5209961 0Z"/>
<path id="font_3_27" d="M.70199587 0V.0289917C.6369934 .0289917 .61898806 .0289917 .6049957 .06993103L.3869934 .6958618C.3829956 .7078552 .3809967 .7138672 .36698915 .7138672 .35299684 .7138672 .35099793 .7108612 .34599305 .69485476L.13699341 .09689331C.12298584 .05595398 .09498596 .02998352 .0309906 .0289917V0L.1269989 .0019989014C.15499878 .0019989014 .20298767 .0019989014 .22898865 0V.0289917C.18699646 .02998352 .1619873 .050964357 .1619873 .07891846 .1619873 .08491516 .1619873 .08691406 .16699219 .09989929L.21299744 .23271179H.46499635L.519989 .075927738C.5249939 .063949588 .5249939 .061950685 .5249939 .058944704 .5249939 .0289917 .47399903 .0289917 .44898988 .0289917V0C.47200013 .0019989014 .5509949 .0019989014 .57899478 .0019989014 .6069946 .0019989014 .67900088 .0019989014 .70199587 0M.45498658 .26171876H.22299195L.33898927 .5948181 .45498658 .26171876Z"/>
<path id="font_3_109" d="M.5209961 .00022888184V.029220581C.45298768 .029220581 .44499208 .036224367 .44499208 .085250858V.44140626L.3039856 .43040467V.4013977C.37199403 .4013977 .37998963 .39439393 .37998963 .34536744V.16629029C.37998963 .08125305 .33499146 .010223389 .2599945 .010223389 .17799378 .010223389 .17298889 .057235719 .17298889 .11026001V.44140626L.03199768 .43040467V.4013977C.10798645 .4013977 .10798645 .39839173 .10798645 .3093567V.1592865C.10798645 .09725952 .10798645 .06124878 .13798523 .02822876 .1619873 .0022277833 .20298767-.009765625 .2539978-.009765625 .2709961-.009765625 .30299378-.009765625 .33699037 .019226075 .3659973 .042236329 .38198854 .08024597 .38198854 .08024597V-.009765625L.5209961 .00022888184Z"/>
<path id="font_3_72" d="M.24798584 0V.0289917C.18399048 .0289917 .17199707 .0289917 .17199707 .074020389V.69433596L.032989503 .6826172V.6536102C.100997928 .6536102 .10899353 .6466217 .10899353 .597641V.07395935C.10899353 .0289917 .09799194 .0289917 .032989503 .0289917V0C.06098938 .0019989014 .10998535 .0019989014 .13999939 .0019989014 .16999817 .0019989014 .21998596 .0019989014 .24798584 0Z"/>
<path id="font_3_42" d="M.6519928 .23170471C.6519928 .24272156 .6519928 .24871826 .6409912 .24871826 .6309967 .24871826 .6299896 .24371338 .6299896 .2367096 .62098696 .07757568 .5049896 .007507324 .4079895 .007507324 .33799745 .007507324 .14698792 .049545289 .14698792 .34179688 .14698792 .63105776 .33499146 .6750946 .40699769 .6750946 .5119934 .6750946 .60398867 .5860138 .6239929 .43588258 .6259918 .4238739 .6259918 .42086793 .6380005 .42086793 .6519928 .42086793 .6519928 .4238739 .6519928 .44389344V.6810913C.6519928 .6990967 .6519928 .70410159 .6419983 .70410159 .6359863 .70410159 .6349945 .7020874 .6289978 .6920929L.5799866 .6130371C.5349884 .6690979 .46699525 .70410159 .394989 .70410159 .21199036 .70410159 .053985597 .54597476 .053985597 .34179688 .053985597 .13461304 .21398926-.021484375 .394989-.021484375 .5589905-.021484375 .6519928 .12161255 .6519928 .23170471Z"/>
<path id="font_3_80" d="M.70700076 .33880616C.70700076 .54597476 .5549927 .70410159 .3809967 .70410159 .20298767 .70410159 .053985597 .54397585 .053985597 .33880616 .053985597 .13562012 .20498657-.021484375 .37998963-.021484375 .5589905-.021484375 .70700076 .13761902 .70700076 .33880616M.6139984 .35380555C.6139984 .09358215 .47799684 .0015106201 .3809967 .0015106201 .2789917 .0015106201 .14698792 .097595218 .14698792 .35380555 .14698792 .59902957 .28599549 .6820984 .37998963 .6820984 .47898866 .6820984 .6139984 .59602358 .6139984 .35380555Z"/>
<path id="font_4_1" d="M.28199769 .20405579C.2979889 .21907044 .33999635 .2520752 .35598756 .26608277 .41799928 .32312013 .47698976 .3781433 .47698976 .46917726 .47698976 .588089 .3769989 .66503909 .2519989 .66503909 .13198853 .66503909 .052993776 .57411196 .052993776 .48516847 .052993776 .4361725 .09199524 .4291687 .10598755 .4291687 .1269989 .4291687 .1579895 .4441681 .1579895 .48217774 .1579895 .5341797 .10798645 .5341797 .09599304 .5341797 .125 .6070709 .19198609 .6320343 .24099732 .6320343 .33399964 .6320343 .38198854 .55314639 .38198854 .46917726 .38198854 .36514283 .30899049 .28910829 .19099427 .16804505L.06498718 .037994386C.052993776 .026992798 .052993776 .024993897 .052993776 0H.44799806L.47698976 .17904663H.44599916C.44299317 .1590271 .43499757 .10900879 .4229889 .08999634 .4169922 .08198547 .34098817 .08198547 .32499696 .08198547H.14698792L.28199769 .20405579Z"/>
<path id="font_3_85" d="M.32499696-.24298096C.32499696-.23999024 .32499696-.23799134 .30799867-.22097779 .20799256-.11999512 .1519928 .045013429 .1519928 .24900818 .1519928 .44299317 .19898987 .60998538 .31498719 .72798159 .32499696 .73698428 .32499696 .73898318 .32499696 .74198916 .32499696 .74798586 .31999208 .75 .31599427 .75 .30299378 .75 .22099304 .6779938 .17199707 .5799866 .12098694 .47898866 .09799194 .37199403 .09799194 .24900818 .09799194 .16000366 .11199951 .041000368 .1639862-.06599426 .22299195-.18598938 .30499269-.25097657 .31599427-.25097657 .31999208-.25097657 .32499696-.24897766 .32499696-.24298096Z"/>
<path id="font_3_84" d="M.5079956 .21640015C.5079956 .34339906 .4139862 .44140626 .30499269 .44140626 .21699524 .44140626 .16999817 .3784027 .16699219 .3744049V.44140626L.027999878 .4303589V.4013672C.09799194 .4013672 .10398865 .3943634 .10398865 .3503418V-.1199646C.10398865-.16503906 .09298706-.16503906 .027999878-.16503906V-.19404602C.053985597-.19204712 .10798645-.19204712 .13598633-.19204712 .16499329-.19204712 .21899414-.19204712 .24499512-.19404602V-.16503906C.18099976-.16503906 .16899109-.16503906 .16899109-.1199646V.054244996C.18699646 .02923584 .22799683-.009765625 .2919922-.009765625 .40699769-.009765625 .5079956 .087249759 .5079956 .21629334V.21640015M.43199159 .21629334C.43199159 .09725952 .3639984 .010223389 .2869873 .010223389 .2559967 .010223389 .22698975 .023223877 .20698548 .042236329 .18399048 .06524658 .16899109 .085250858 .16899109 .11326599V.31933595C.16899109 .33833314 .16899109 .3393402 .17999268 .35534669 .20999146 .40040589 .25898744 .41940309 .29699708 .41940309 .37199403 .41940309 .43199159 .32839967 .43199159 .21640015V.21629334Z"/>
<path id="font_3_75" d="M.79299929 0V.0289917C.7429962 .0289917 .71798709 .0289917 .71699526 .059051515V.24342346C.71699526 .3365631 .71699526 .36450196 .69400027 .39640809 .6649933 .4353943 .6179962 .44140626 .58399966 .44140626 .5009918 .44140626 .45899964 .38145448 .44299317 .3425598 .42900086 .41940309 .375 .44140626 .31199647 .44140626 .21499634 .44140626 .1769867 .35850526 .16899109 .338562H.16799927V.44140626L.03199768 .4303589V.4013672C.099990848 .4013672 .10798645 .39437867 .10798645 .34553529V.07408142C.10798645 .0289917 .09700012 .0289917 .03199768 .0289917V0C.057998659 .0019989014 .11199951 .0019989014 .13999939 .0019989014 .16899109 .0019989014 .22299195 .0019989014 .24899292 0V.0289917C.18499756 .0289917 .17298889 .0289917 .17298889 .07408142V.26046754C.17298889 .36547853 .24198914 .4213562 .3039856 .4213562 .3659973 .4213562 .37998963 .37045289 .37998963 .3095703V.07408142C.37998963 .0289917 .36898805 .0289917 .3039856 .0289917V0C.32998658 .0019989014 .38398744 .0019989014 .4119873 .0019989014 .44099427 .0019989014 .49499513 .0019989014 .5209961 0V.0289917C.45700074 .0289917 .44499208 .0289917 .44499208 .07408142V.26046754C.44499208 .36547853 .5139923 .4213562 .57598879 .4213562 .6380005 .4213562 .6519928 .37045289 .6519928 .3095703V.07408142C.6519928 .0289917 .6409912 .0289917 .57598879 .0289917V0C.60198977 .0019989014 .6559906 .0019989014 .6839905 .0019989014 .71299746 .0019989014 .7669983 .0019989014 .79299929 0Z"/>
<path id="font_3_86" d="M.28199769 .24900818C.28199769 .32499696 .27198792 .44898988 .21598816 .5649872 .15699768 .6849823 .07499695 .75 .06399536 .75 .05999756 .75 .054992677 .74798586 .054992677 .74198916 .054992677 .73898318 .054992677 .73698428 .07199097 .71998599 .17199707 .61898806 .22799683 .45399476 .22799683 .25 .22799683 .055999757 .18099976-.11099243 .06498718-.22898865 .054992677-.23799134 .054992677-.23999024 .054992677-.24298096 .054992677-.24897766 .05999756-.25097657 .06399536-.25097657 .07699585-.25097657 .15899658-.1789856 .20799256-.08099365 .25898744 .021011353 .28199769 .1289978 .28199769 .24900818Z"/>
</defs>
<path transform="matrix(1.00002,0,0,-1.00005,25.44561,166.83873)" stroke-width=".3985" stroke-linecap="butt" stroke-miterlimit="10" stroke-linejoin="miter" fill="none" stroke="#bfbfbf" d="M10.79298 0V161.39636M53.96497 0V161.39636M97.13695 0V161.39636M140.30892 0V161.39636M183.4809 0V161.39636"/>
<path transform="matrix(1.00002,0,0,-1.00005,25.44561,166.83873)" stroke-width=".3985" stroke-linecap="butt" stroke-miterlimit="10" stroke-linejoin="miter" fill="none" stroke="#bfbfbf" d="M0 40.34909H194.2739M0 80.69818H194.2739M0 121.04727H194.2739M0 161.39636H194.2739"/>
<path transform="matrix(1.00002,0,0,-1.00005,25.44561,166.83873)" stroke-width=".19925" stroke-linecap="butt" stroke-miterlimit="10" stroke-linejoin="miter" fill="none" stroke="#7f807f" d="M10.79298-2.12596V2.12596M53.96497-2.12596V2.12596M97.13695-2.12596V2.12596M140.30892-2.12596V2.12596M183.4809-2.12596V2.12596"/>
<path transform="matrix(1.00002,0,0,-1.00005,25.44561,166.83873)" stroke-width=".19925" stroke-linecap="butt" stroke-miterlimit="10" stroke-linejoin="miter" fill="none" stroke="#7f807f" d="M-2.12595 40.34909H2.12595M-2.12595 80.69818H2.12595M-2.12595 121.04727H2.12595M-2.12595 161.39636H2.12595"/>
<path transform="matrix(1.00002,0,0,-1.00005,25.44561,166.83873)" stroke-width=".3985" stroke-linecap="butt" stroke-miterlimit="10" stroke-linejoin="miter" fill="none" stroke="#000000" d="M0 0H192.28137"/>
<path transform="matrix(1.00002,0,0,-1.00005,217.73084,166.83873)" d="M1.99252 0-1.19551 1.59401 0 0-1.19551-1.59401"/>
<path transform="matrix(1.00002,0,0,-1.00005,25.44561,166.83873)" stroke-width=".3985" stroke-linecap="butt" stroke-miterlimit="10" stroke-linejoin="miter" fill="none" stroke="#000000" d="M0 0V159.40384"/>
<path transform="matrix(0,-1.00005,-1.00002,-0,25.44561,7.4269258)" d="M1.99252 0-1.19551 1.59401 0 0-1.19551-1.59401"/>
<use data-text="2" xlink:href="#font_1_3" transform="matrix(11.95544,0,0,-11.955797,24.532593,180.85343)"/>
<use data-text="0" xlink:href="#font_1_1" transform="matrix(11.95544,0,0,-11.955797,30.378808,180.85343)"/>
<use data-text="0" xlink:href="#font_1_1" transform="matrix(11.95544,0,0,-11.955797,36.225015,180.85343)"/>
<use data-text="6" xlink:href="#font_1_6" transform="matrix(11.95544,0,0,-11.955797,42.07122,180.85343)"/>
<use data-text="2" xlink:href="#font_1_3" transform="matrix(11.95544,0,0,-11.955797,67.70546,180.85343)"/>
<use data-text="0" xlink:href="#font_1_1" transform="matrix(11.95544,0,0,-11.955797,73.55167,180.85343)"/>
<use data-text="1" xlink:href="#font_1_2" transform="matrix(11.95544,0,0,-11.955797,79.39787,180.85343)"/>
<use data-text="0" xlink:href="#font_1_1" transform="matrix(11.95544,0,0,-11.955797,85.24408,180.85343)"/>
<use data-text="2" xlink:href="#font_1_3" transform="matrix(11.95544,0,0,-11.955797,110.87832,180.85343)"/>
<use data-text="0" xlink:href="#font_1_1" transform="matrix(11.95544,0,0,-11.955797,116.72453,180.85343)"/>
<use data-text="1" xlink:href="#font_1_2" transform="matrix(11.95544,0,0,-11.955797,122.57074,180.85343)"/>
<use data-text="4" xlink:href="#font_1_5" transform="matrix(11.95544,0,0,-11.955797,128.41695,180.85343)"/>
<use data-text="2" xlink:href="#font_1_3" transform="matrix(11.95544,0,0,-11.955797,154.05118,180.85343)"/>
<use data-text="0" xlink:href="#font_1_1" transform="matrix(11.95544,0,0,-11.955797,159.8974,180.85343)"/>
<use data-text="1" xlink:href="#font_1_2" transform="matrix(11.95544,0,0,-11.955797,165.7436,180.85343)"/>
<use data-text="8" xlink:href="#font_1_7" transform="matrix(11.95544,0,0,-11.955797,171.58982,180.85343)"/>
<use data-text="2" xlink:href="#font_1_3" transform="matrix(11.95544,0,0,-11.955797,197.22403,180.85343)"/>
<use data-text="0" xlink:href="#font_1_1" transform="matrix(11.95544,0,0,-11.955797,203.07025,180.85343)"/>
<use data-text="2" xlink:href="#font_1_3" transform="matrix(11.95544,0,0,-11.955797,208.91646,180.85343)"/>
<use data-text="2" xlink:href="#font_1_3" transform="matrix(11.95544,0,0,-11.955797,214.76267,180.85343)"/>
<use data-text="3" xlink:href="#font_1_4" transform="matrix(11.95544,0,0,-11.955797,1.5761337,130.3399)"/>
<use data-text="9" xlink:href="#font_1_8" transform="matrix(11.95544,0,0,-11.955797,7.422348,130.3399)"/>
<use data-text="0" xlink:href="#font_1_1" transform="matrix(11.95544,0,0,-11.955797,13.268555,130.3399)"/>
<use data-text="4" xlink:href="#font_1_5" transform="matrix(11.95544,0,0,-11.955797,1.5761337,89.98889)"/>
<use data-text="0" xlink:href="#font_1_1" transform="matrix(11.95544,0,0,-11.955797,7.422348,89.98889)"/>
<use data-text="0" xlink:href="#font_1_1" transform="matrix(11.95544,0,0,-11.955797,13.268555,89.98889)"/>
<use data-text="4" xlink:href="#font_1_5" transform="matrix(11.95544,0,0,-11.955797,1.5761337,49.63788)"/>
<use data-text="1" xlink:href="#font_1_2" transform="matrix(11.95544,0,0,-11.955797,7.422348,49.63788)"/>
<use data-text="0" xlink:href="#font_1_1" transform="matrix(11.95544,0,0,-11.955797,13.268555,49.63788)"/>
<use data-text="4" xlink:href="#font_1_5" transform="matrix(11.95544,0,0,-11.955797,1.5761337,9.28685)"/>
<use data-text="2" xlink:href="#font_1_3" transform="matrix(11.95544,0,0,-11.955797,7.422348,9.28685)"/>
<use data-text="0" xlink:href="#font_1_1" transform="matrix(11.95544,0,0,-11.955797,13.268555,9.28685)"/>
<path transform="matrix(1.00002,0,0,-1.00005,25.44561,166.83873)" stroke-width=".3985" stroke-linecap="butt" stroke-miterlimit="10" stroke-linejoin="miter" fill="none" stroke="#bfbfbf" d="M21.58598 0V161.39636M32.37898 0V161.39636M43.17197 0V161.39636M64.75797 0V161.39636M75.55095 0V161.39636M86.34395 0V161.39636M107.92993 0V161.39636M118.72293 0V161.39636M129.51593 0V161.39636M151.10192 0V161.39636M161.89492 0V161.39636M172.6879 0V161.39636"/>
<path transform="matrix(1.00002,0,0,-1.00005,25.44561,166.83873)" stroke-width=".19925" stroke-linecap="butt" stroke-miterlimit="10" stroke-linejoin="miter" fill="none" stroke="#7f807f" d="M21.58598-2.12596V2.12596M32.37898-2.12596V2.12596M43.17197-2.12596V2.12596M64.75797-2.12596V2.12596M75.55095-2.12596V2.12596M86.34395-2.12596V2.12596M107.92993-2.12596V2.12596M118.72293-2.12596V2.12596M129.51593-2.12596V2.12596M151.10192-2.12596V2.12596M161.89492-2.12596V2.12596M172.6879-2.12596V2.12596"/>
<path transform="matrix(1.00002,0,0,-1.00005,25.44561,166.83873)" stroke-width=".3985" stroke-linecap="butt" stroke-miterlimit="10" stroke-linejoin="miter" fill="none" stroke="#bfbfbf" d="M0 20.17455H194.2739M0 60.52364H194.2739M0 100.87273H194.2739M0 141.22182H194.2739"/>
<path transform="matrix(1.00002,0,0,-1.00005,25.44561,166.83873)" stroke-width=".19925" stroke-linecap="butt" stroke-miterlimit="10" stroke-linejoin="miter" fill="none" stroke="#7f807f" d="M-2.12595 20.17455H2.12595M-2.12595 60.52364H2.12595M-2.12595 100.87273H2.12595M-2.12595 141.22182H2.12595"/>
<g clip-path="url(#clip_2)">
</g>
<path transform="matrix(1.00002,0,0,-1.00005,25.44561,166.83873)" d="M12.78554 8.43294C12.78554 9.53342 11.89346 10.42549 10.79298 10.42549 9.69252 10.42549 8.80043 9.53342 8.80043 8.43294 8.80043 7.33247 9.69252 6.44038 10.79298 6.44038 11.89346 6.44038 12.78554 7.33247 12.78554 8.43294ZM10.79298 8.43294"/>
<path transform="matrix(1.00002,0,0,-1.00005,25.44561,166.83873)" stroke-width=".3985" stroke-linecap="butt" stroke-miterlimit="10" stroke-linejoin="miter" fill="none" stroke="#000000" d="M12.78554 8.43294C12.78554 9.53342 11.89346 10.42549 10.79298 10.42549 9.69252 10.42549 8.80043 9.53342 8.80043 8.43294 8.80043 7.33247 9.69252 6.44038 10.79298 6.44038 11.89346 6.44038 12.78554 7.33247 12.78554 8.43294ZM10.79298 8.43294"/>
<path transform="matrix(1.00002,0,0,-1.00005,25.44561,166.83873)" d="M23.57854 16.22032C23.57854 17.32079 22.68645 18.21288 21.58598 18.21288 20.4855 18.21288 19.59343 17.32079 19.59343 16.22032 19.59343 15.11984 20.4855 14.22777 21.58598 14.22777 22.68645 14.22777 23.57854 15.11984 23.57854 16.22032ZM21.58598 16.22032"/>
<path transform="matrix(1.00002,0,0,-1.00005,25.44561,166.83873)" stroke-width=".3985" stroke-linecap="butt" stroke-miterlimit="10" stroke-linejoin="miter" fill="none" stroke="#000000" d="M23.57854 16.22032C23.57854 17.32079 22.68645 18.21288 21.58598 18.21288 20.4855 18.21288 19.59343 17.32079 19.59343 16.22032 19.59343 15.11984 20.4855 14.22777 21.58598 14.22777 22.68645 14.22777 23.57854 15.11984 23.57854 16.22032ZM21.58598 16.22032"/>
<path transform="matrix(1.00002,0,0,-1.00005,25.44561,166.83873)" d="M34.37154 23.5235C34.37154 24.62398 33.47945 25.51605 32.37898 25.51605 31.2785 25.51605 30.38643 24.62398 30.38643 23.5235 30.38643 22.42303 31.2785 21.53094 32.37898 21.53094 33.47945 21.53094 34.37154 22.42303 34.37154 23.5235ZM32.37898 23.5235"/>
<path transform="matrix(1.00002,0,0,-1.00005,25.44561,166.83873)" stroke-width=".3985" stroke-linecap="butt" stroke-miterlimit="10" stroke-linejoin="miter" fill="none" stroke="#000000" d="M34.37154 23.5235C34.37154 24.62398 33.47945 25.51605 32.37898 25.51605 31.2785 25.51605 30.38643 24.62398 30.38643 23.5235 30.38643 22.42303 31.2785 21.53094 32.37898 21.53094 33.47945 21.53094 34.37154 22.42303 34.37154 23.5235ZM32.37898 23.5235"/>
<path transform="matrix(1.00002,0,0,-1.00005,25.44561,166.83873)" d="M45.16452 30.82669C45.16452 31.92715 44.27245 32.81924 43.17197 32.81924 42.0715 32.81924 41.17941 31.92715 41.17941 30.82669 41.17941 29.72621 42.0715 28.83414 43.17197 28.83414 44.27245 28.83414 45.16452 29.72621 45.16452 30.82669ZM43.17197 30.82669"/>
<path transform="matrix(1.00002,0,0,-1.00005,25.44561,166.83873)" stroke-width=".3985" stroke-linecap="butt" stroke-miterlimit="10" stroke-linejoin="miter" fill="none" stroke="#000000" d="M45.16452 30.82669C45.16452 31.92715 44.27245 32.81924 43.17197 32.81924 42.0715 32.81924 41.17941 31.92715 41.17941 30.82669 41.17941 29.72621 42.0715 28.83414 43.17197 28.83414 44.27245 28.83414 45.16452 29.72621 45.16452 30.82669ZM43.17197 30.82669"/>
<path transform="matrix(1.00002,0,0,-1.00005,25.44561,166.83873)" d="M55.95752 40.75258C55.95752 41.85304 55.06543 42.74513 53.96497 42.74513 52.86449 42.74513 51.97241 41.85304 51.97241 40.75258 51.97241 39.6521 52.86449 38.76003 53.96497 38.76003 55.06543 38.76003 55.95752 39.6521 55.95752 40.75258ZM53.96497 40.75258"/>
<path transform="matrix(1.00002,0,0,-1.00005,25.44561,166.83873)" stroke-width=".3985" stroke-linecap="butt" stroke-miterlimit="10" stroke-linejoin="miter" fill="none" stroke="#000000" d="M55.95752 40.75258C55.95752 41.85304 55.06543 42.74513 53.96497 42.74513 52.86449 42.74513 51.97241 41.85304 51.97241 40.75258 51.97241 39.6521 52.86449 38.76003 53.96497 38.76003 55.06543 38.76003 55.95752 39.6521 55.95752 40.75258ZM53.96497 40.75258"/>
<path transform="matrix(1.00002,0,0,-1.00005,25.44561,166.83873)" d="M66.75052 47.81366C66.75052 48.91414 65.85843 49.80621 64.75797 49.80621 63.65749 49.80621 62.76541 48.91414 62.76541 47.81366 62.76541 46.7132 63.65749 45.8211 64.75797 45.8211 65.85843 45.8211 66.75052 46.7132 66.75052 47.81366ZM64.75797 47.81366"/>
<path transform="matrix(1.00002,0,0,-1.00005,25.44561,166.83873)" stroke-width=".3985" stroke-linecap="butt" stroke-miterlimit="10" stroke-linejoin="miter" fill="none" stroke="#000000" d="M66.75052 47.81366C66.75052 48.91414 65.85843 49.80621 64.75797 49.80621 63.65749 49.80621 62.76541 48.91414 62.76541 47.81366 62.76541 46.7132 63.65749 45.8211 64.75797 45.8211 65.85843 45.8211 66.75052 46.7132 66.75052 47.81366ZM64.75797 47.81366"/>
<path transform="matrix(1.00002,0,0,-1.00005,25.44561,166.83873)" d="M77.5435 56.7308C77.5435 57.83128 76.65143 58.72336 75.55095 58.72336 74.45049 58.72336 73.5584 57.83128 73.5584 56.7308 73.5584 55.63034 74.45049 54.73825 75.55095 54.73825 76.65143 54.73825 77.5435 55.63034 77.5435 56.7308ZM75.55095 56.7308"/>
<path transform="matrix(1.00002,0,0,-1.00005,25.44561,166.83873)" stroke-width=".3985" stroke-linecap="butt" stroke-miterlimit="10" stroke-linejoin="miter" fill="none" stroke="#000000" d="M77.5435 56.7308C77.5435 57.83128 76.65143 58.72336 75.55095 58.72336 74.45049 58.72336 73.5584 57.83128 73.5584 56.7308 73.5584 55.63034 74.45049 54.73825 75.55095 54.73825 76.65143 54.73825 77.5435 55.63034 77.5435 56.7308ZM75.55095 56.7308"/>
<path transform="matrix(1.00002,0,0,-1.00005,25.44561,166.83873)" d="M88.3365 67.54436C88.3365 68.64484 87.44441 69.53691 86.34395 69.53691 85.24347 69.53691 84.3514 68.64484 84.3514 67.54436 84.3514 66.4439 85.24347 65.5518 86.34395 65.5518 87.44441 65.5518 88.3365 66.4439 88.3365 67.54436ZM86.34395 67.54436"/>
<path transform="matrix(1.00002,0,0,-1.00005,25.44561,166.83873)" stroke-width=".3985" stroke-linecap="butt" stroke-miterlimit="10" stroke-linejoin="miter" fill="none" stroke="#000000" d="M88.3365 67.54436C88.3365 68.64484 87.44441 69.53691 86.34395 69.53691 85.24347 69.53691 84.3514 68.64484 84.3514 67.54436 84.3514 66.4439 85.24347 65.5518 86.34395 65.5518 87.44441 65.5518 88.3365 66.4439 88.3365 67.54436ZM86.34395 67.54436"/>
<path transform="matrix(1.00002,0,0,-1.00005,25.44561,166.83873)" d="M99.1295 75.89664C99.1295 76.9971 98.23741 77.88919 97.13695 77.88919 96.03647 77.88919 95.1444 76.9971 95.1444 75.89664 95.1444 74.79616 96.03647 73.90408 97.13695 73.90408 98.23741 73.90408 99.1295 74.79616 99.1295 75.89664ZM97.13695 75.89664"/>
<path transform="matrix(1.00002,0,0,-1.00005,25.44561,166.83873)" stroke-width=".3985" stroke-linecap="butt" stroke-miterlimit="10" stroke-linejoin="miter" fill="none" stroke="#000000" d="M99.1295 75.89664C99.1295 76.9971 98.23741 77.88919 97.13695 77.88919 96.03647 77.88919 95.1444 76.9971 95.1444 75.89664 95.1444 74.79616 96.03647 73.90408 97.13695 73.90408 98.23741 73.90408 99.1295 74.79616 99.1295 75.89664ZM97.13695 75.89664"/>
<path transform="matrix(1.00002,0,0,-1.00005,25.44561,166.83873)" d="M109.92249 84.77342C109.92249 85.8739 109.03041 86.76598 107.92993 86.76598 106.82947 86.76598 105.93738 85.8739 105.93738 84.77342 105.93738 83.67296 106.82947 82.78087 107.92993 82.78087 109.03041 82.78087 109.92249 83.67296 109.92249 84.77342ZM107.92993 84.77342"/>
<path transform="matrix(1.00002,0,0,-1.00005,25.44561,166.83873)" stroke-width=".3985" stroke-linecap="butt" stroke-miterlimit="10" stroke-linejoin="miter" fill="none" stroke="#000000" d="M109.92249 84.77342C109.92249 85.8739 109.03041 86.76598 107.92993 86.76598 106.82947 86.76598 105.93738 85.8739 105.93738 84.77342 105.93738 83.67296 106.82947 82.78087 107.92993 82.78087 109.03041 82.78087 109.92249 83.67296 109.92249 84.77342ZM107.92993 84.77342"/>
<path transform="matrix(1.00002,0,0,-1.00005,25.44561,166.83873)" d="M120.71548 98.49213C120.71548 99.59259 119.8234 100.48468 118.72293 100.48468 117.62245 100.48468 116.73038 99.59259 116.73038 98.49213 116.73038 97.39165 117.62245 96.49957 118.72293 96.49957 119.8234 96.49957 120.71548 97.39165 120.71548 98.49213ZM118.72293 98.49213"/>
<path transform="matrix(1.00002,0,0,-1.00005,25.44561,166.83873)" stroke-width=".3985" stroke-linecap="butt" stroke-miterlimit="10" stroke-linejoin="miter" fill="none" stroke="#000000" d="M120.71548 98.49213C120.71548 99.59259 119.8234 100.48468 118.72293 100.48468 117.62245 100.48468 116.73038 99.59259 116.73038 98.49213 116.73038 97.39165 117.62245 96.49957 118.72293 96.49957 119.8234 96.49957 120.71548 97.39165 120.71548 98.49213ZM118.72293 98.49213"/>
<path transform="matrix(1.00002,0,0,-1.00005,25.44561,166.83873)" d="M131.50849 107.97415C131.50849 109.07463 130.6164 109.9667 129.51593 109.9667 128.41545 109.9667 127.52338 109.07463 127.52338 107.97415 127.52338 106.87369 128.41545 105.9816 129.51593 105.9816 130.6164 105.9816 131.50849 106.87369 131.50849 107.97415ZM129.51593 107.97415"/>
<path transform="matrix(1.00002,0,0,-1.00005,25.44561,166.83873)" stroke-width=".3985" stroke-linecap="butt" stroke-miterlimit="10" stroke-linejoin="miter" fill="none" stroke="#000000" d="M131.50849 107.97415C131.50849 109.07463 130.6164 109.9667 129.51593 109.9667 128.41545 109.9667 127.52338 109.07463 127.52338 107.97415 127.52338 106.87369 128.41545 105.9816 129.51593 105.9816 130.6164 105.9816 131.50849 106.87369 131.50849 107.97415ZM129.51593 107.97415"/>
<path transform="matrix(1.00002,0,0,-1.00005,25.44561,166.83873)" d="M142.30147 115.88257C142.30147 116.98305 141.4094 117.87512 140.30892 117.87512 139.20845 117.87512 138.31636 116.98305 138.31636 115.88257 138.31636 114.7821 139.20845 113.89001 140.30892 113.89001 141.4094 113.89001 142.30147 114.7821 142.30147 115.88257ZM140.30892 115.88257"/>
<path transform="matrix(1.00002,0,0,-1.00005,25.44561,166.83873)" stroke-width=".3985" stroke-linecap="butt" stroke-miterlimit="10" stroke-linejoin="miter" fill="none" stroke="#000000" d="M142.30147 115.88257C142.30147 116.98305 141.4094 117.87512 140.30892 117.87512 139.20845 117.87512 138.31636 116.98305 138.31636 115.88257 138.31636 114.7821 139.20845 113.89001 140.30892 113.89001 141.4094 113.89001 142.30147 114.7821 142.30147 115.88257ZM140.30892 115.88257"/>
<path transform="matrix(1.00002,0,0,-1.00005,25.44561,166.83873)" d="M153.09447 127.74521C153.09447 128.84569 152.20238 129.73777 151.10192 129.73777 150.00144 129.73777 149.10936 128.84569 149.10936 127.74521 149.10936 126.64474 150.00144 125.75266 151.10192 125.75266 152.20238 125.75266 153.09447 126.64474 153.09447 127.74521ZM151.10192 127.74521"/>
<path transform="matrix(1.00002,0,0,-1.00005,25.44561,166.83873)" stroke-width=".3985" stroke-linecap="butt" stroke-miterlimit="10" stroke-linejoin="miter" fill="none" stroke="#000000" d="M153.09447 127.74521C153.09447 128.84569 152.20238 129.73777 151.10192 129.73777 150.00144 129.73777 149.10936 128.84569 149.10936 127.74521 149.10936 126.64474 150.00144 125.75266 151.10192 125.75266 152.20238 125.75266 153.09447 126.64474 153.09447 127.74521ZM151.10192 127.74521"/>
<path transform="matrix(1.00002,0,0,-1.00005,25.44561,166.83873)" d="M163.88747 138.19564C163.88747 139.2961 162.99538 140.18819 161.89492 140.18819 160.79444 140.18819 159.90236 139.2961 159.90236 138.19564 159.90236 137.09516 160.79444 136.20308 161.89492 136.20308 162.99538 136.20308 163.88747 137.09516 163.88747 138.19564ZM161.89492 138.19564"/>
<path transform="matrix(1.00002,0,0,-1.00005,25.44561,166.83873)" stroke-width=".3985" stroke-linecap="butt" stroke-miterlimit="10" stroke-linejoin="miter" fill="none" stroke="#000000" d="M163.88747 138.19564C163.88747 139.2961 162.99538 140.18819 161.89492 140.18819 160.79444 140.18819 159.90236 139.2961 159.90236 138.19564 159.90236 137.09516 160.79444 136.20308 161.89492 136.20308 162.99538 136.20308 163.88747 137.09516 163.88747 138.19564ZM161.89492 138.19564"/>
<path transform="matrix(1.00002,0,0,-1.00005,25.44561,166.83873)" d="M174.68045 147.07244C174.68045 148.1729 173.78838 149.06499 172.6879 149.06499 171.58744 149.06499 170.69535 148.1729 170.69535 147.07244 170.69535 145.97196 171.58744 145.07988 172.6879 145.07988 173.78838 145.07988 174.68045 145.97196 174.68045 147.07244ZM172.6879 147.07244"/>
<path transform="matrix(1.00002,0,0,-1.00005,25.44561,166.83873)" stroke-width=".3985" stroke-linecap="butt" stroke-miterlimit="10" stroke-linejoin="miter" fill="none" stroke="#000000" d="M174.68045 147.07244C174.68045 148.1729 173.78838 149.06499 172.6879 149.06499 171.58744 149.06499 170.69535 148.1729 170.69535 147.07244 170.69535 145.97196 171.58744 145.07988 172.6879 145.07988 173.78838 145.07988 174.68045 145.97196 174.68045 147.07244ZM172.6879 147.07244"/>
<path transform="matrix(1.00002,0,0,-1.00005,25.44561,166.83873)" d="M185.47345 155.58609C185.47345 156.68656 184.58136 157.57865 183.4809 157.57865 182.38042 157.57865 181.48834 156.68656 181.48834 155.58609 181.48834 154.48561 182.38042 153.59354 183.4809 153.59354 184.58136 153.59354 185.47345 154.48561 185.47345 155.58609ZM183.4809 155.58609"/>
<path transform="matrix(1.00002,0,0,-1.00005,25.44561,166.83873)" stroke-width=".3985" stroke-linecap="butt" stroke-miterlimit="10" stroke-linejoin="miter" fill="none" stroke="#000000" d="M185.47345 155.58609C185.47345 156.68656 184.58136 157.57865 183.4809 157.57865 182.38042 157.57865 181.48834 156.68656 181.48834 155.58609 181.48834 154.48561 182.38042 153.59354 183.4809 153.59354 184.58136 153.59354 185.47345 154.48561 185.47345 155.58609ZM183.4809 155.58609"/>
<path transform="matrix(1.00002,0,0,-1.00005,25.44561,166.83873)" stroke-width=".3985" stroke-linecap="butt" stroke-miterlimit="10" stroke-linejoin="miter" fill="none" stroke="#000000" d=""/>
<use data-text="Y" xlink:href="#font_3_117" transform="matrix(11.95544,0,0,-11.955797,192.16495,162.53553)"/>
<use data-text="e" xlink:href="#font_3_50" transform="matrix(11.95544,0,0,-11.955797,199.97187,162.53553)"/>
<use data-text="a" xlink:href="#font_3_28" transform="matrix(11.95544,0,0,-11.955797,205.17249,162.53553)"/>
<use data-text="r" xlink:href="#font_3_96" transform="matrix(11.95544,0,0,-11.955797,211.03064,162.53553)"/>
<use data-text="M" xlink:href="#font_3_74" transform="matrix(11.95544,0,0,-11.955797,29.629693,18.560334)"/>
<use data-text="e" xlink:href="#font_3_50" transform="matrix(11.95544,0,0,-11.955797,40.35372,18.560334)"/>
<use data-text="a" xlink:href="#font_3_28" transform="matrix(11.95544,0,0,-11.955797,45.554346,18.560334)"/>
<use data-text="n" xlink:href="#font_3_77" transform="matrix(11.95544,0,0,-11.955797,51.41252,18.560334)"/>
<use data-text="A" xlink:href="#font_3_27" transform="matrix(11.95544,0,0,-11.955797,61.81375,18.560334)"/>
<use data-text="n" xlink:href="#font_3_77" transform="matrix(11.95544,0,0,-11.955797,70.58905,18.560334)"/>
<use data-text="n" xlink:href="#font_3_77" transform="matrix(11.95544,0,0,-11.955797,77.092807,18.560334)"/>
<use data-text="u" xlink:href="#font_3_109" transform="matrix(11.95544,0,0,-11.955797,83.285739,18.560334)"/>
<use data-text="a" xlink:href="#font_3_28" transform="matrix(11.95544,0,0,-11.955797,89.78949,18.560334)"/>
<use data-text="l" xlink:href="#font_3_72" transform="matrix(11.95544,0,0,-11.955797,95.64766,18.560334)"/>
<use data-text="C" xlink:href="#font_3_42" transform="matrix(11.95544,0,0,-11.955797,102.78505,18.560334)"/>
<use data-text="O" xlink:href="#font_3_80" transform="matrix(11.95544,0,0,-11.955797,111.23755,18.560334)"/>
<use data-text="2" xlink:href="#font_4_1" transform="matrix(7.9702599,0,0,-7.970498,120.34752,20.353425)"/>
<use data-text="(" xlink:href="#font_3_85" transform="matrix(11.95544,0,0,-11.955797,128.9777,18.560334)"/>
<use data-text="p" xlink:href="#font_3_84" transform="matrix(11.95544,0,0,-11.955797,133.53273,18.560334)"/>
<use data-text="p" xlink:href="#font_3_84" transform="matrix(11.95544,0,0,-11.955797,140.03649,18.560334)"/>
<use data-text="m" xlink:href="#font_3_75" transform="matrix(11.95544,0,0,-11.955797,146.54026,18.560334)"/>
<use data-text=")" xlink:href="#font_3_86" transform="matrix(11.95544,0,0,-11.955797,156.29589,18.560334)"/>
</svg>
