<svg xmlns="http://www.w3.org/2000/svg" xmlns:xlink="http://www.w3.org/1999/xlink" xmlns:inkscape="http://www.inkscape.org/namespaces/inkscape" version="1.1" width="221" height="180" viewBox="0 0 221 180">
<defs>
<path id="font_1_3" d="M.43998719 .16790772H.41799928C.4149933 .15092469 .40699769 .09597778 .39698792 .07998657 .3899994 .070999149 .33299256 .070999149 .30299378 .070999149H.117996219C.14498902 .09397888 .20599365 .15792847 .23199463 .18190003 .38398744 .3217926 .43998719 .37374879 .43998719 .47270204 .43998719 .5878906 .34899903 .66503909 .23298645 .66503909 .116989139 .66503909 .04899597 .5658264 .04899597 .4797058 .04899597 .42871095 .09298706 .42871095 .09599304 .42871095 .116989139 .42871095 .14299011 .44371034 .14299011 .475708 .14299011 .5037079 .12399292 .5227051 .09599304 .5227051 .08699036 .5227051 .084991458 .5227051 .08198547 .521698 .100997928 .5899048 .15499878 .6360321 .21998596 .6360321 .30499269 .6360321 .35699464 .56481936 .35699464 .47270204 .35699464 .3877411 .30799867 .313797 .25099183 .24984741L.04899597 .023986817V0H.4139862L.43998719 .16790772Z"/>
<path id="font_1_4" d="M.36099244 .6508026C.36099244 .6697998 .36099244 .6748047 .34700013 .6748047 .33898927 .6748047 .33599855 .6748047 .32798768 .662796L.026992798 .19598389V.16699219H.2899933V.07598877C.2899933 .038986207 .28799439 .0289917 .21499634 .0289917H.19499207V0C.21798706 .0019989014 .29699708 .0019989014 .32499696 .0019989014 .35299684 .0019989014 .43299867 .0019989014 .45599366 0V.0289917H.43598939C.3639984 .0289917 .36099244 .038986207 .36099244 .07598877V.16699219H.46199037V.19598389H.36099244V.6508026M.29499818 .5728302V.19598389H.051986696L.29499818 .5728302Z"/>
<path id="font_1_6" d="M.12298584 .34773255C.12298584 .60061648 .24598694 .641037 .2999878 .641037 .33599855 .641037 .37199403 .62991335 .3909912 .5996094 .3789978 .5996094 .34098817 .5996094 .34098817 .558609 .34098817 .53660586 .35598756 .51760867 .38198854 .51760867 .40699769 .51760867 .42399598 .53260806 .42399598 .56159976 .42399598 .6137543 .38598634 .66503909 .29899598 .66503909 .17298889 .66503909 .040985109 .53559878 .040985109 .31570436 .040985109 .040527345 .16099549-.021484375 .24598694-.021484375 .35499574-.021484375 .44799806 .07354736 .44799806 .2036438 .44799806 .33673097 .35499574 .42578126 .25498963 .42578126 .1659851 .42578126 .1329956 .34873963 .12298584 .32070924V.34773255M.24598694 .005508423C.18299866 .005508423 .15299988 .061538698 .14399719 .08256531 .1349945 .10858154 .125 .15760803 .125 .22766114 .125 .30670167 .16099549 .40577699 .25099183 .40577699 .30599977 .40577699 .33499146 .3687439 .34999085 .33473207 .3659973 .29769898 .3659973 .2476654 .3659973 .20463562 .3659973 .15361023 .3659973 .10858154 .34700013 .07055664 .32199098 .022521973 .28599549 .005508423 .24598694 .005508423Z"/>
<path id="font_1_8" d="M.2979889 .36079408C.34799195 .38781739 .42099 .43385316 .42099 .5179291 .42099 .6049957 .33699037 .66503909 .24499512 .66503909 .1459961 .66503909 .067993167 .59199526 .067993167 .5009155 .067993167 .46688844 .07798767 .43286134 .10598755 .39883424 .116989139 .38581849 .117996219 .38482667 .18798828 .3357849 .09098816 .29074098 .040985109 .22369385 .040985109 .15063477 .040985109 .044540407 .14199829-.021484375 .24398804-.021484375 .35499574-.021484375 .44799806 .060546876 .44799806 .16563416 .44799806 .2677307 .37599183 .3127594 .2979889 .36079408M.1619873 .4508667C.14898682 .45988465 .10899353 .48590089 .10899353 .5349426 .10899353 .59999087 .1769867 .641037 .24398804 .641037 .31599427 .641037 .37998963 .58898928 .37998963 .516922 .37998963 .45587159 .33599855 .4068451 .27799989 .3748169L.1619873 .4508667M.20899964 .32176209 .32998658 .2427063C.35598756 .22569275 .4019928 .19465637 .4019928 .13360596 .4019928 .057556154 .32499696 .005508423 .24499512 .005508423 .1599884 .005508423 .08699036 .06756592 .08699036 .15063477 .08699036 .22869873 .14399719 .29174806 .20899964 .32176209Z"/>
<path id="font_1_2" d="M.28799439 .64105227C.28799439 .664032 .28799439 .66503909 .2679901 .66503909 .24398804 .6380615 .19400025 .6012573 .09098816 .6012573V.5722656C.11399841 .5722656 .1639862 .5722656 .21899414 .59825137V.07701111C.21899414 .041000368 .21598816 .0289917 .12799073 .0289917H.09700012V0C.12399292 .0019989014 .22099304 .0019989014 .2539978 .0019989014 .2869873 .0019989014 .3829956 .0019989014 .4099884 0V.0289917H.3789978C.29100038 .0289917 .28799439 .041000368 .28799439 .07701111V.64105227Z"/>
<path id="font_1_1" d="M.44799806 .31976319C.44799806 .40283204 .44299317 .48390199 .40699769 .55996707 .3659973 .64302065 .2939911 .66503909 .24499512 .66503909 .18699646 .66503909 .115997318 .63601687 .07899475 .552948 .050994874 .48989869 .040985109 .42785646 .040985109 .31976319 .040985109 .22268677 .04798889 .14962769 .083999637 .078567508 .12298584 .0025177003 .19198609-.021484375 .24398804-.021484375 .33099366-.021484375 .3809967 .030532837 .4099884 .08857727 .44599916 .16363526 .44799806 .26171876 .44799806 .31976319M.24398804-.0014953613C.21199036-.0014953613 .14698792 .016525269 .12799073 .12561035 .116989139 .18565369 .116989139 .26171876 .116989139 .33177186 .116989139 .41384889 .116989139 .48789979 .1329956 .5469513 .1499939 .6139984 .20098877 .6450348 .24398804 .6450348 .28199769 .6450348 .33999635 .6220093 .35899354 .53593447 .37199403 .4788971 .37199403 .39982606 .37199403 .33177186 .37199403 .26472474 .37199403 .18865967 .36099244 .12760926 .34199525 .01751709 .2789917-.0014953613 .24398804-.0014953613Z"/>
<path id="font_2_1" d="M.19499207-.0040130617C.19499207 .053985597 .17599488 .09700012 .1349945 .09700012 .102996829 .09700012 .08699036 .070999149 .08699036 .04899597 .08699036 .026992798 .101989749 0 .13598633 0 .14898682 0 .1599884 .0039978029 .16899109 .0129852299 .17098999 .01499939 .17199707 .01499939 .17298889 .01499939 .1749878 .01499939 .1749878 .0009918213 .1749878-.0040130617 .1749878-.037078859 .16899109-.10221863 .11099243-.1673584 .099990848-.17936707 .099990848-.18136597 .099990848-.18336487 .099990848-.18836975 .10499573-.19335938 .10998535-.19335938 .117996219-.19335938 .19499207-.119262699 .19499207-.0040130617Z"/>
<path id="font_1_5" d="M.12799073 .5727997C.17098999 .5588074 .20599365 .5578003 .21699524 .5578003 .32998658 .5578003 .4019928 .6409912 .4019928 .6550598 .4019928 .6590576 .3999939 .6640625 .3939972 .6640625 .3919983 .6640625 .3899994 .6640625 .3809967 .66004946 .32499696 .6358795 .2769928 .6328125 .25099183 .6328125 .18499756 .6328125 .13798523 .6530609 .11898804 .6610565 .11199951 .6640625 .10998535 .6640625 .10899353 .6640625 .100997928 .6640625 .100997928 .65805056 .100997928 .64201357V.34495545C.100997928 .32695008 .100997928 .32095338 .11299133 .32095338 .117996219 .32095338 .11898804 .32196046 .1289978 .33395387 .15699768 .37493897 .20399475 .39894105 .2539978 .39894105 .30699159 .39894105 .33299256 .34994508 .34098817 .33294679 .35798646 .29396058 .35899354 .2449646 .35899354 .20697022 .35899354 .16897583 .35899354 .11193848 .33099366 .0667572 .30899049 .03060913 .269989 .005508423 .22599793 .005508423 .1599884 .005508423 .09498596 .050689699 .07699585 .12397766 .08198547 .12197876 .08799744 .12097168 .09298706 .12097168 .10998535 .12097168 .13699341 .13098145 .13699341 .16497803 .13699341 .1929779 .117996219 .20898438 .09298706 .20898438 .07499695 .20898438 .04899597 .19998169 .04899597 .16098023 .04899597 .075790408 .116989139-.021484375 .22799683-.021484375 .34098817-.021484375 .43998719 .073791507 .43998719 .20097351 .43998719 .3199463 .3600006 .4189453 .25498963 .4189453 .19799805 .4189453 .1539917 .39393617 .12799073 .36595155V.5727997Z"/>
<path id="font_1_7" d="M.47499085 .62054446V.6435547H.23399353C.11299133 .6435547 .11099243 .6567688 .10699463 .67578127H.084991458L.053985597 .47554017H.07598877C.07899475 .49354554 .08799744 .555542 .100997928 .5665436 .10899353 .5725403 .18399048 .5725403 .19799805 .5725403H.4099884L.3039856 .42053224C.2769928 .38153077 .17599488 .21751404 .17599488 .029510498 .17599488 .018508912 .17599488-.021484375 .21699524-.021484375 .25898744-.021484375 .25898744 .017501831 .25898744 .030517579V.08052063C.25898744 .2295227 .2829895 .34553529 .32998658 .41253663L.47499085 .62054446Z"/>
<clipPath id="clip_3">
<path transform="matrix(1.00006,0,0,-1,25.72184,163.94699)" d="M0 0H194.27323V161.39392H0Z"/>
</clipPath>
<path id="font_4_117" d="M.72299197 .6536102V.6826172L.6299896 .680603C.6029968 .680603 .5529938 .680603 .5279999 .6826172V.6536102C.5569916 .6536102 .5779877 .640625 .5779877 .6166382 .5779877 .6036377 .57598879 .600647 .56599429 .58465579L.39698792 .30981446 .21099854 .6106415C.20498657 .620636 .20298767 .6236267 .20298767 .6296234 .20298767 .6506195 .22898865 .6536102 .2649994 .6536102V.6826172C.24198914 .680603 .16099549 .680603 .1329956 .680603 .10499573 .680603 .033996583 .680603 .009994507 .6826172V.6536102C.08099365 .6536102 .09399414 .6506195 .115997318 .6146393L.32699586 .2728424V.07595825C.32699586 .038986207 .32398988 .0289917 .2519989 .0289917H.23199463V0C.25498963 .0019989014 .33699037 .0019989014 .3659973 .0019989014 .394989 .0019989014 .47698976 .0019989014 .5009918 0V.0289917H.48098756C.4079895 .0289917 .4059906 .038986207 .4059906 .07395935V.2738495L.6009979 .58865359C.6339874 .6416168 .6799927 .6536102 .72299197 .6536102Z"/>
<path id="font_4_50" d="M.40699769 .11932373C.40699769 .1253357 .4019928 .1293335 .3959961 .1293335 .3880005 .1293335 .38598634 .12432861 .38398744 .11932373 .35798646 .035247804 .29100038 .01222229 .24899292 .01222229 .20698548 .01222229 .10598755 .040252687 .10598755 .21340943V.23242188H.3829956C.40499879 .23242188 .40699769 .23242188 .40699769 .25141908 .40699769 .3523407 .35299684 .44628907 .23199463 .44628907 .117996219 .44628907 .02999878 .34335328 .02999878 .21940613 .02999878 .08729553 .13198853-.009765625 .24299622-.009765625 .3619995-.009765625 .40699769 .09829712 .40699769 .11932373M.34498597 .25141908H.10699463C.114990238 .40830995 .20298767 .42630006 .23098755 .42630006 .33799745 .42630006 .34399415 .28538514 .34498597 .25141908Z"/>
<path id="font_4_28" d="M.47399903 .08912659V.14515686H.45199586V.08912659C.45199586 .03211975 .42799378 .024108887 .4139862 .024108887 .37599183 .024108887 .37599183 .07713318 .37599183 .09213257V.26719667C.37599183 .3211975 .37599183 .36120606 .33198548 .40023805 .29699708 .43226625 .2519989 .44628907 .20799256 .44628907 .12599182 .44628907 .06298828 .39222718 .06298828 .32720948 .06298828 .2982025 .08198547 .2842102 .10499573 .2842102 .1289978 .2842102 .1459961 .3012085 .1459961 .32521058 .1459961 .36621095 .10998535 .36621095 .09498596 .36621095 .117996219 .4082489 .1659851 .42625428 .20599365 .42625428 .2519989 .42625428 .31098939 .38822938 .31098939 .2982025V.25819398C.10998535 .255188 .033996583 .17115784 .033996583 .09413147 .033996583 .0152282719 .12599182-.009765625 .18699646-.009765625 .25299073-.009765625 .2979889 .030227662 .31698609 .07823181 .32099916 .03111267 .35198976-.0048828127 .394989-.0048828127 .41600038-.0048828127 .47399903 .009109497 .47399903 .089141849V.08912659M.31098939 .14117432C.31098939 .043121339 .23799134 .010116577 .19499207 .010116577 .1459961 .010116577 .10499573 .04612732 .10499573 .09414673 .10499573 .22621155 .2749939 .23822022 .31098939 .24023438V.14117432Z"/>
<path id="font_4_96" d="M.35299684 .38339234C.35299684 .4133911 .32598878 .44140626 .2829895 .44140626 .19799805 .44140626 .16899109 .34939576 .16299439 .33039857H.1619873V.44140626L.027999878 .4303589V.4013672C.09599304 .4013672 .10398865 .39434815 .10398865 .3453064V.074035648C.10398865 .0289917 .09298706 .0289917 .027999878 .0289917V0C.055999757 .0019989014 .11099243 .0019989014 .14099121 .0019989014 .16799927 .0019989014 .23899842 .0019989014 .2619934 0V.0289917H.24198914C.16899109 .02973938 .16699219 .040740968 .16699219 .07673645V.23374939C.16699219 .3307495 .20698548 .42173768 .28399659 .42173768 .2919922 .42173768 .2939911 .42173768 .2979889 .42074586 .2899933 .41674806 .27398683 .41073609 .27398683 .3837433 .27398683 .35473634 .29699708 .34375 .31298829 .34375 .33299256 .34375 .35299684 .35673524 .35299684 .3837433V.38339234Z"/>
<path id="font_4_98" d="M.35198976 .12739563C.35198976 .181427 .31900025 .21340943 .30999757 .22239685 .27398683 .25338746 .24699402 .25938417 .18099976 .27137757 .15098572 .27737428 .07798767 .29136659 .07798767 .35131837 .07798767 .38230897 .09899902 .4282837 .18899536 .4282837 .2979889 .4282837 .3039856 .33532716 .30599977 .3043518 .30699159 .2963562 .31399537 .2963562 .31698609 .2963562 .32798768 .2963562 .32798768 .30136109 .32798768 .3193512V.4232788C.32798768 .44128419 .32798768 .44628907 .31799317 .44628907 .30999757 .44628907 .29100038 .4242859 .28399659 .4152832 .25299073 .4402771 .22200012 .44628907 .18998719 .44628907 .068984989 .44628907 .032989503 .38031007 .032989503 .32533265 .032989503 .3143463 .032989503 .27937318 .070999149 .24438477 .102996829 .21640015 .13699341 .20941162 .18299866 .20040894 .23799134 .1894226 .25099183 .18641663 .27598573 .16642761 .2939911 .15142823 .30699159 .12940979 .30699159 .101364139 .30699159 .05831909 .28199769 .010253906 .19400025 .010253906 .12799073 .010253906 .07998657 .048294069 .057998659 .1484375 .053985597 .16642761 .052993776 .16842652 .052993776 .16842652 .050994874 .17242432 .04699707 .17242432 .04399109 .17242432 .032989503 .17242432 .032989503 .16743469 .032989503 .14942932V.013259888C.032989503-.004760742 .032989503-.009765625 .042999269-.009765625 .04798889-.009765625 .04899597-.008773804 .06599426 .012252808 .070999149 .019256592 .070999149 .021270752 .085998538 .03729248 .12399292-.009765625 .17799378-.009765625 .19499207-.009765625 .2999878-.009765625 .35198976 .048294069 .35198976 .12739563Z"/>
<path id="font_4_66" d="M.24099732 0V.0289917C.17599488 .0289917 .17199707 .033996583 .17199707 .07304382V.44140626L.035995485 .4303589V.4013672C.099990848 .4013672 .10899353 .39535523 .10899353 .34629823V.074035648C.10899353 .0289917 .09799194 .0289917 .032989503 .0289917V0C.06098938 .0019989014 .10899353 .0019989014 .13798523 .0019989014 .14898682 .0019989014 .20698548 .0019989014 .24099732 0M.18499756 .6043091C.18499756 .63430789 .16099549 .6533203 .13699341 .6533203 .10899353 .6533203 .08799744 .63131716 .08799744 .6043091 .08799744 .5783081 .10998535 .55630496 .13598633 .55630496 .1659851 .55630496 .18499756 .580307 .18499756 .6043091Z"/>
<path id="font_4_77" d="M.5209961 0V.0289917C.47099305 .0289917 .44599916 .0289917 .44499208 .059051515V.24342346C.44499208 .3365631 .44499208 .36450196 .42199708 .39640809 .3929901 .4353943 .34599305 .44140626 .31199647 .44140626 .21499634 .44140626 .1769867 .35850526 .16899109 .338562H.16799927V.44140626L.03199768 .4303589V.4013672C.099990848 .4013672 .10798645 .39437867 .10798645 .34553529V.07408142C.10798645 .0289917 .09700012 .0289917 .03199768 .0289917V0C.057998659 .0019989014 .11199951 .0019989014 .13999939 .0019989014 .16899109 .0019989014 .22299195 .0019989014 .24899292 0V.0289917C.18499756 .0289917 .17298889 .0289917 .17298889 .07408142V.26046754C.17298889 .36547853 .24198914 .4213562 .3039856 .4213562 .3659973 .4213562 .37998963 .37045289 .37998963 .3095703V.07408142C.37998963 .0289917 .36898805 .0289917 .3039856 .0289917V0C.32998658 .0019989014 .38398744 .0019989014 .4119873 .0019989014 .44099427 .0019989014 .49499513 .0019989014 .5209961 0Z"/>
<path id="font_4_43" d="M.4059906 .1191864C.4059906 .12817383 .39898683 .12817383 .3959961 .12817383 .3869934 .12817383 .38598634 .1251831 .3829956 .1131897 .36099244 .04222107 .30699159 .01222229 .25299073 .01222229 .19198609 .01222229 .11099243 .065200809 .11099243 .21713257 .11099243 .3831482 .19599915 .4242859 .24598694 .4242859 .28399659 .4242859 .33898927 .40924073 .3619995 .3701172 .34999085 .3701172 .31298829 .3701172 .31298829 .32911683 .31298829 .30511476 .32998658 .28811646 .35398866 .28811646 .3769989 .28811646 .3959961 .30210877 .3959961 .33111573 .3959961 .39819337 .32598878 .44628907 .24499512 .44628907 .12799073 .44628907 .034988405 .34210206 .034988405 .21614075 .034988405 .0881958 .1309967-.009765625 .24398804-.009765625 .37599183-.009765625 .4059906 .110183719 .4059906 .1191864Z"/>
<path id="font_4_107" d="M.43998719 .16799927H.41799928C.4149933 .15098572 .40699769 .09599304 .39698792 .07998657 .3899994 .070999149 .33299256 .070999149 .30299378 .070999149H.117996219C.14498902 .09399414 .20599365 .1579895 .23199463 .18199158 .38398744 .3217926 .43998719 .37374879 .43998719 .47270204 .43998719 .5878906 .34899903 .66503909 .23298645 .66503909 .116989139 .66503909 .04899597 .5658264 .04899597 .4797058 .04899597 .42871095 .09298706 .42871095 .09599304 .42871095 .116989139 .42871095 .14299011 .44371034 .14299011 .475708 .14299011 .5037079 .12399292 .5227051 .09599304 .5227051 .08699036 .5227051 .084991458 .5227051 .08198547 .521698 .100997928 .5899048 .15499878 .6360321 .21998596 .6360321 .30499269 .6360321 .35699464 .56481936 .35699464 .47270204 .35699464 .3877411 .30799867 .313797 .25099183 .24984741L.04899597 .023986817V0H.4139862L.43998719 .16799927Z"/>
<path id="font_4_121" d="M.44799806 .31976319C.44799806 .40283204 .44299317 .48388673 .40699769 .5599518 .3659973 .64302065 .2939911 .66503909 .24499512 .66503909 .18699646 .66503909 .115997318 .6360016 .07899475 .552948 .050994874 .48989869 .040985109 .42785646 .040985109 .31976319 .040985109 .22268677 .04798889 .14964295 .083999637 .07858276 .12298584 .002532959 .19198609-.021484375 .24398804-.021484375 .33099366-.021484375 .3809967 .030548096 .4099884 .08859253 .44599916 .16365052 .44799806 .26171876 .44799806 .31976319M.37199403 .33177186C.37199403 .26472474 .37199403 .18867493 .36099244 .12762451 .34199525 .017532349 .2789917-.0014801025 .24398804-.0014801025 .21199036-.0014801025 .14698792 .016540528 .12799073 .12562561 .116989139 .18566895 .116989139 .26171876 .116989139 .33177186 .116989139 .41383363 .116989139 .48789979 .1329956 .54693606 .1499939 .6139984 .20098877 .64501956 .24398804 .64501956 .28199769 .64501956 .33999635 .621994 .35899354 .53593447 .37199403 .47888185 .37199403 .39982606 .37199403 .33177186Z"/>
<path id="font_4_82" d="M.4099884 0V.0289917H.3789978C.29100038 .0289917 .28799439 .041000368 .28799439 .07701111V.6411133C.28799439 .664032 .28799439 .66503909 .2679901 .66503909 .24398804 .63812258 .19400025 .6012573 .09098816 .6012573V.5722656C.11399841 .5722656 .1639862 .5722656 .21899414 .59825137V.07701111C.21899414 .041000368 .21598816 .0289917 .12799073 .0289917H.09700012V0C.12399292 .0019989014 .22099304 .0019989014 .2539978 .0019989014 .2869873 .0019989014 .3829956 .0019989014 .4099884 0Z"/>
<path id="font_4_83" d="M.61099246 .49769593C.61099246 .59465029 .5139923 .6826172 .3789978 .6826172H.041992189V.6536102H.06199646C.13398743 .6536102 .13699341 .6436157 .13699341 .6066284V.07595825C.13699341 .038986207 .13398743 .0289917 .06199646 .0289917H.041992189V0C.06599426 .0019989014 .147995 .0019989014 .1769867 .0019989014 .20698548 .0019989014 .2889862 .0019989014 .31298829 0V.0289917H.29299928C.22099304 .0289917 .21798706 .038986207 .21798706 .07595825V.3177948H.3869934C.5039978 .3177948 .61099246 .39675904 .61099246 .49769593M.5179901 .49769593C.5179901 .455719 .5179901 .34179688 .35499574 .34179688H.21598816V.6136322C.21598816 .64660647 .21798706 .6536102 .2619934 .6536102H.35598756C.5179901 .6536102 .5179901 .54067996 .5179901 .49769593Z"/>
<path id="font_4_81" d="M.45899964 .21424866C.45899964 .34326173 .36099244 .44628907 .24499512 .44628907 .125 .44628907 .02999878 .340271 .02999878 .21424866 .02999878 .086242679 .12998963-.009765625 .24398804-.009765625 .3619995-.009765625 .45899964 .08824158 .45899964 .21424866M.3829956 .22325135C.3829956 .18824768 .3829956 .12623596 .35699464 .07923889 .32899476 .031234742 .2829895 .01222229 .24499512 .01222229 .20799256 .01222229 .16299439 .02822876 .13398743 .07723999 .10699463 .12223816 .10598755 .1812439 .10598755 .22325135 .10598755 .261261 .10598755 .32226563 .13699341 .3672638 .16499329 .41027833 .20899964 .42626954 .24398804 .42626954 .2829895 .42626954 .32499696 .40827943 .35198976 .3692627 .3829956 .32325746 .3829956 .2602539 .3829956 .22325135Z"/>
<path id="font_4_84" d="M.5079956 .21640015C.5079956 .34339906 .4139862 .44140626 .30499269 .44140626 .21699524 .44140626 .16999817 .3784027 .16699219 .3744049V.44140626L.027999878 .4303589V.4013672C.09799194 .4013672 .10398865 .3943634 .10398865 .3503418V-.1199646C.10398865-.16503906 .09298706-.16503906 .027999878-.16503906V-.19404602C.053985597-.19204712 .10798645-.19204712 .13598633-.19204712 .16499329-.19204712 .21899414-.19204712 .24499512-.19404602V-.16503906C.18099976-.16503906 .16899109-.16503906 .16899109-.1199646V.054244996C.18699646 .02923584 .22799683-.009765625 .2919922-.009765625 .40699769-.009765625 .5079956 .087249759 .5079956 .21629334V.21640015M.43199159 .21629334C.43199159 .09725952 .3639984 .010223389 .2869873 .010223389 .2559967 .010223389 .22698975 .023223877 .20698548 .042236329 .18399048 .06524658 .16899109 .085250858 .16899109 .11326599V.31933595C.16899109 .33833314 .16899109 .3393402 .17999268 .35534669 .20999146 .40040589 .25898744 .41940309 .29699708 .41940309 .37199403 .41940309 .43199159 .32839967 .43199159 .21640015V.21629334Z"/>
<path id="font_4_109" d="M.5209961 .00022888184V.029220581C.45298768 .029220581 .44499208 .036224367 .44499208 .085250858V.44140626L.3039856 .43040467V.4013977C.37199403 .4013977 .37998963 .39439393 .37998963 .34536744V.16629029C.37998963 .08125305 .33499146 .010223389 .2599945 .010223389 .17799378 .010223389 .17298889 .057235719 .17298889 .11026001V.44140626L.03199768 .43040467V.4013977C.10798645 .4013977 .10798645 .39839173 .10798645 .3093567V.1592865C.10798645 .09725952 .10798645 .06124878 .13798523 .02822876 .1619873 .0022277833 .20298767-.009765625 .2539978-.009765625 .2709961-.009765625 .30299378-.009765625 .33699037 .019226075 .3659973 .042236329 .38198854 .08024597 .38198854 .08024597V-.009765625L.5209961 .00022888184Z"/>
<path id="font_4_72" d="M.24798584 0V.0289917C.18399048 .0289917 .17199707 .0289917 .17199707 .074020389V.69433596L.032989503 .6826172V.6536102C.100997928 .6536102 .10899353 .6466217 .10899353 .597641V.07395935C.10899353 .0289917 .09799194 .0289917 .032989503 .0289917V0C.06098938 .0019989014 .10998535 .0019989014 .13999939 .0019989014 .16999817 .0019989014 .21998596 .0019989014 .24798584 0Z"/>
<path id="font_4_105" d="M.32598878 .124069217V.1809845H.3039856V.12606812C.3039856 .0541687 .2749939 .01222229 .23599243 .01222229 .16799927 .01222229 .16799927 .10508728 .16799927 .12207031V.4016571H.30899049V.43066407H.16799927V.6142578H.1459961C.14498902 .52046206 .10899353 .4246521 .017990113 .42166139V.4016571H.102996829V.124069217C.102996829 .01322937 .1769867-.009765625 .22999573-.009765625 .29299928-.009765625 .32598878 .0521698 .32598878 .124069217Z"/>
</defs>
<path transform="matrix(1.00006,0,0,-1,25.72184,163.94699)" stroke-width=".3985" stroke-linecap="butt" stroke-miterlimit="10" stroke-linejoin="miter" fill="none" stroke="#bfbfbf" d="M44.153 0V161.39392M79.4754 0V161.39392M114.7978 0V161.39392M150.12021 0V161.39392M185.44261 0V161.39392"/>
<path transform="matrix(1.00006,0,0,-1,25.72184,163.94699)" stroke-width=".3985" stroke-linecap="butt" stroke-miterlimit="10" stroke-linejoin="miter" fill="none" stroke="#bfbfbf" d="M0 5.04355H194.27323M0 55.47916H194.27323M0 105.91476H194.27323M0 156.35036H194.27323"/>
<path transform="matrix(1.00006,0,0,-1,25.72184,163.94699)" stroke-width=".19925" stroke-linecap="butt" stroke-miterlimit="10" stroke-linejoin="miter" fill="none" stroke="#7f807f" d="M44.153-2.1261V2.1261M79.4754-2.1261V2.1261M114.7978-2.1261V2.1261M150.12021-2.1261V2.1261M185.44261-2.1261V2.1261"/>
<path transform="matrix(1.00006,0,0,-1,25.72184,163.94699)" stroke-width=".19925" stroke-linecap="butt" stroke-miterlimit="10" stroke-linejoin="miter" fill="none" stroke="#7f807f" d="M6.70425 5.04355H10.95692M6.70425 55.47916H10.95692M6.70425 105.91476H10.95692M6.70425 156.35036H10.95692"/>
<path transform="matrix(1.00006,0,0,-1,25.72184,163.94699)" stroke-width=".3985" stroke-linecap="butt" stroke-miterlimit="10" stroke-linejoin="miter" fill="none" stroke="#000000" d="M0 0H192.2807"/>
<path transform="matrix(1.00006,0,0,-1,218.01407,163.94699)" d="M1.99252 0-1.19551 1.59401 0 0-1.19551-1.59401"/>
<path transform="matrix(1.00006,0,0,-1,25.72184,163.94699)" stroke-width=".3985" stroke-linecap="butt" stroke-miterlimit="10" stroke-linejoin="miter" fill="none" stroke="#000000" d="M8.8306 0V159.4014"/>
<path transform="matrix(0,-1,-1.00006,-0,34.55297,4.5455935)" d="M1.99252 0-1.19551 1.59401 0 0-1.19551-1.59401"/>
<use data-text="2" xlink:href="#font_1_3" transform="matrix(11.955917,0,0,-11.9552,66.95032,177.96199)"/>
<use data-text="4" xlink:href="#font_1_4" transform="matrix(11.955917,0,0,-11.9552,102.27544,177.96199)"/>
<use data-text="6" xlink:href="#font_1_6" transform="matrix(11.955917,0,0,-11.9552,137.59955,177.96199)"/>
<use data-text="8" xlink:href="#font_1_8" transform="matrix(11.955917,0,0,-11.9552,172.92465,177.96199)"/>
<use data-text="1" xlink:href="#font_1_2" transform="matrix(11.955917,0,0,-11.9552,205.3226,177.96199)"/>
<use data-text="0" xlink:href="#font_1_1" transform="matrix(11.955917,0,0,-11.9552,211.16905,177.96199)"/>
<use data-text="4" xlink:href="#font_1_4" transform="matrix(11.955917,0,0,-11.9552,1.5763931,161.59299)"/>
<use data-text="," xlink:href="#font_2_1" transform="matrix(11.955917,0,0,-11.9552,7.429741,161.59299)"/>
<use data-text="0" xlink:href="#font_1_1" transform="matrix(11.955917,0,0,-11.9552,10.681938,161.59299)"/>
<use data-text="0" xlink:href="#font_1_1" transform="matrix(11.955917,0,0,-11.9552,16.528382,161.59299)"/>
<use data-text="0" xlink:href="#font_1_1" transform="matrix(11.955917,0,0,-11.9552,22.374825,161.59299)"/>
<use data-text="5" xlink:href="#font_1_5" transform="matrix(11.955917,0,0,-11.9552,1.5763931,111.15799)"/>
<use data-text="," xlink:href="#font_2_1" transform="matrix(11.955917,0,0,-11.9552,7.429741,111.15799)"/>
<use data-text="0" xlink:href="#font_1_1" transform="matrix(11.955917,0,0,-11.9552,10.681938,111.15799)"/>
<use data-text="0" xlink:href="#font_1_1" transform="matrix(11.955917,0,0,-11.9552,16.528382,111.15799)"/>
<use data-text="0" xlink:href="#font_1_1" transform="matrix(11.955917,0,0,-11.9552,22.374825,111.15799)"/>
<use data-text="6" xlink:href="#font_1_6" transform="matrix(11.955917,0,0,-11.9552,1.5763931,60.721994)"/>
<use data-text="," xlink:href="#font_2_1" transform="matrix(11.955917,0,0,-11.9552,7.429741,60.721994)"/>
<use data-text="0" xlink:href="#font_1_1" transform="matrix(11.955917,0,0,-11.9552,10.681938,60.721994)"/>
<use data-text="0" xlink:href="#font_1_1" transform="matrix(11.955917,0,0,-11.9552,16.528382,60.721994)"/>
<use data-text="0" xlink:href="#font_1_1" transform="matrix(11.955917,0,0,-11.9552,22.374825,60.721994)"/>
<use data-text="7" xlink:href="#font_1_7" transform="matrix(11.955917,0,0,-11.9552,1.5763931,10.286987)"/>
<use data-text="," xlink:href="#font_2_1" transform="matrix(11.955917,0,0,-11.9552,7.429741,10.286987)"/>
<use data-text="0" xlink:href="#font_1_1" transform="matrix(11.955917,0,0,-11.9552,10.681938,10.286987)"/>
<use data-text="0" xlink:href="#font_1_1" transform="matrix(11.955917,0,0,-11.9552,16.528382,10.286987)"/>
<use data-text="0" xlink:href="#font_1_1" transform="matrix(11.955917,0,0,-11.9552,22.374825,10.286987)"/>
<g clip-path="url(#clip_3)">
</g>
<use data-text="Y" xlink:href="#font_4_117" transform="matrix(11.955917,0,0,-11.9552,131.82721,159.512)"/>
<use data-text="e" xlink:href="#font_4_50" transform="matrix(11.955917,0,0,-11.9552,139.63443,159.512)"/>
<use data-text="a" xlink:href="#font_4_28" transform="matrix(11.955917,0,0,-11.9552,144.83525,159.512)"/>
<use data-text="r" xlink:href="#font_4_96" transform="matrix(11.955917,0,0,-11.9552,150.69365,159.512)"/>
<use data-text="s" xlink:href="#font_4_98" transform="matrix(11.955917,0,0,-11.9552,155.24887,159.512)"/>
<use data-text="s" xlink:href="#font_4_98" transform="matrix(11.955917,0,0,-11.9552,163.74951,159.512)"/>
<use data-text="i" xlink:href="#font_4_66" transform="matrix(11.955917,0,0,-11.9552,168.36447,159.512)"/>
<use data-text="n" xlink:href="#font_4_77" transform="matrix(11.955917,0,0,-11.9552,171.61649,159.512)"/>
<use data-text="c" xlink:href="#font_4_43" transform="matrix(11.955917,0,0,-11.9552,178.12052,159.512)"/>
<use data-text="e" xlink:href="#font_4_50" transform="matrix(11.955917,0,0,-11.9552,183.32135,159.512)"/>
<use data-text="2" xlink:href="#font_4_107" transform="matrix(11.955917,0,0,-11.9552,192.4198,159.512)"/>
<use data-text="0" xlink:href="#font_4_121" transform="matrix(11.955917,0,0,-11.9552,198.2782,159.512)"/>
<use data-text="1" xlink:href="#font_4_82" transform="matrix(11.955917,0,0,-11.9552,204.1366,159.512)"/>
<use data-text="0" xlink:href="#font_4_121" transform="matrix(11.955917,0,0,-11.9552,209.995,159.512)"/>
<use data-text="P" xlink:href="#font_4_83" transform="matrix(11.955917,0,0,-11.9552,38.738618,15.008987)"/>
<use data-text="o" xlink:href="#font_4_81" transform="matrix(11.955917,0,0,-11.9552,46.39041,15.008987)"/>
<use data-text="p" xlink:href="#font_4_84" transform="matrix(11.955917,0,0,-11.9552,52.24881,15.008987)"/>
<use data-text="u" xlink:href="#font_4_109" transform="matrix(11.955917,0,0,-11.9552,58.752824,15.008987)"/>
<use data-text="l" xlink:href="#font_4_72" transform="matrix(11.955917,0,0,-11.9552,65.25685,15.008987)"/>
<use data-text="a" xlink:href="#font_4_28" transform="matrix(11.955917,0,0,-11.9552,68.508869,15.008987)"/>
<use data-text="t" xlink:href="#font_4_105" transform="matrix(11.955917,0,0,-11.9552,74.36726,15.008987)"/>
<use data-text="i" xlink:href="#font_4_66" transform="matrix(11.955917,0,0,-11.9552,78.92247,15.008987)"/>
<use data-text="o" xlink:href="#font_4_81" transform="matrix(11.955917,0,0,-11.9552,82.17447,15.008987)"/>
<use data-text="n" xlink:href="#font_4_77" transform="matrix(11.955917,0,0,-11.9552,88.03287,15.008987)"/>
</svg>
