<svg xmlns="http://www.w3.org/2000/svg" xmlns:xlink="http://www.w3.org/1999/xlink" xmlns:inkscape="http://www.inkscape.org/namespaces/inkscape" version="1.1" width="209" height="171" viewBox="0 0 209 171">
<defs>
<path id="font_1_5" d="M.12799073 .5727997C.17098999 .5588074 .20599365 .5578003 .21699524 .5578003 .32998658 .5578003 .4019928 .6409912 .4019928 .6550598 .4019928 .6590576 .3999939 .6640625 .3939972 .6640625 .3919983 .6640625 .3899994 .6640625 .3809967 .66004946 .32499696 .6358795 .2769928 .6328125 .25099183 .6328125 .18499756 .6328125 .13798523 .6530609 .11898804 .6610565 .11199951 .6640625 .10998535 .6640625 .10899353 .6640625 .100997928 .6640625 .100997928 .65805056 .100997928 .64201357V.34495545C.100997928 .32695008 .100997928 .32095338 .11299133 .32095338 .117996219 .32095338 .11898804 .32196046 .1289978 .33395387 .15699768 .37493897 .20399475 .39894105 .2539978 .39894105 .30699159 .39894105 .33299256 .34994508 .34098817 .33294679 .35798646 .29396058 .35899354 .2449646 .35899354 .20697022 .35899354 .16897583 .35899354 .11193848 .33099366 .0667572 .30899049 .03060913 .269989 .005508423 .22599793 .005508423 .1599884 .005508423 .09498596 .050689699 .07699585 .12397766 .08198547 .12197876 .08799744 .12097168 .09298706 .12097168 .10998535 .12097168 .13699341 .13098145 .13699341 .16497803 .13699341 .1929779 .117996219 .20898438 .09298706 .20898438 .07499695 .20898438 .04899597 .19998169 .04899597 .16098023 .04899597 .075790408 .116989139-.021484375 .22799683-.021484375 .34098817-.021484375 .43998719 .073791507 .43998719 .20097351 .43998719 .3199463 .3600006 .4189453 .25498963 .4189453 .19799805 .4189453 .1539917 .39393617 .12799073 .36595155V.5727997Z"/>
<path id="font_1_2" d="M.28799439 .64105227C.28799439 .664032 .28799439 .66503909 .2679901 .66503909 .24398804 .6380615 .19400025 .6012573 .09098816 .6012573V.5722656C.11399841 .5722656 .1639862 .5722656 .21899414 .59825137V.07701111C.21899414 .041000368 .21598816 .0289917 .12799073 .0289917H.09700012V0C.12399292 .0019989014 .22099304 .0019989014 .2539978 .0019989014 .2869873 .0019989014 .3829956 .0019989014 .4099884 0V.0289917H.3789978C.29100038 .0289917 .28799439 .041000368 .28799439 .07701111V.64105227Z"/>
<path id="font_1_1" d="M.44799806 .31976319C.44799806 .40283204 .44299317 .48390199 .40699769 .55996707 .3659973 .64302065 .2939911 .66503909 .24499512 .66503909 .18699646 .66503909 .115997318 .63601687 .07899475 .552948 .050994874 .48989869 .040985109 .42785646 .040985109 .31976319 .040985109 .22268677 .04798889 .14962769 .083999637 .078567508 .12298584 .0025177003 .19198609-.021484375 .24398804-.021484375 .33099366-.021484375 .3809967 .030532837 .4099884 .08857727 .44599916 .16363526 .44799806 .26171876 .44799806 .31976319M.24398804-.0014953613C.21199036-.0014953613 .14698792 .016525269 .12799073 .12561035 .116989139 .18565369 .116989139 .26171876 .116989139 .33177186 .116989139 .41384889 .116989139 .48789979 .1329956 .5469513 .1499939 .6139984 .20098877 .6450348 .24398804 .6450348 .28199769 .6450348 .33999635 .6220093 .35899354 .53593447 .37199403 .4788971 .37199403 .39982606 .37199403 .33177186 .37199403 .26472474 .37199403 .18865967 .36099244 .12760926 .34199525 .01751709 .2789917-.0014953613 .24398804-.0014953613Z"/>
<path id="font_1_3" d="M.43998719 .16790772H.41799928C.4149933 .15092469 .40699769 .09597778 .39698792 .07998657 .3899994 .070999149 .33299256 .070999149 .30299378 .070999149H.117996219C.14498902 .09397888 .20599365 .15792847 .23199463 .18190003 .38398744 .3217926 .43998719 .37374879 .43998719 .47270204 .43998719 .5878906 .34899903 .66503909 .23298645 .66503909 .116989139 .66503909 .04899597 .5658264 .04899597 .4797058 .04899597 .42871095 .09298706 .42871095 .09599304 .42871095 .116989139 .42871095 .14299011 .44371034 .14299011 .475708 .14299011 .5037079 .12399292 .5227051 .09599304 .5227051 .08699036 .5227051 .084991458 .5227051 .08198547 .521698 .100997928 .5899048 .15499878 .6360321 .21998596 .6360321 .30499269 .6360321 .35699464 .56481936 .35699464 .47270204 .35699464 .3877411 .30799867 .313797 .25099183 .24984741L.04899597 .023986817V0H.4139862L.43998719 .16790772Z"/>
<path id="font_2_1" d="M.6589966 .23046875C.6759949 .23046875 .69400027 .23046875 .69400027 .25045777 .69400027 .27046205 .6759949 .27046205 .6589966 .27046205H.117996219C.100997928 .27046205 .08299255 .27046205 .08299255 .25045777 .08299255 .23046875 .100997928 .23046875 .117996219 .23046875H.6589966Z"/>
<path id="font_1_4" d="M.36099244 .6508026C.36099244 .6697998 .36099244 .6748047 .34700013 .6748047 .33898927 .6748047 .33599855 .6748047 .32798768 .662796L.026992798 .19598389V.16699219H.2899933V.07598877C.2899933 .038986207 .28799439 .0289917 .21499634 .0289917H.19499207V0C.21798706 .0019989014 .29699708 .0019989014 .32499696 .0019989014 .35299684 .0019989014 .43299867 .0019989014 .45599366 0V.0289917H.43598939C.3639984 .0289917 .36099244 .038986207 .36099244 .07598877V.16699219H.46199037V.19598389H.36099244V.6508026M.29499818 .5728302V.19598389H.051986696L.29499818 .5728302Z"/>
<clipPath id="clip_3">
<path transform="matrix(1.00002,0,0,-1.00006,7.6482775,166.8413)" d="M0 0H194.2717V161.39636H0Z"/>
</clipPath>
<path id="font_4_117" d="M.72299197 .6536102V.6826172L.6299896 .680603C.6029968 .680603 .5529938 .680603 .5279999 .6826172V.6536102C.5569916 .6536102 .5779877 .640625 .5779877 .6166382 .5779877 .6036377 .57598879 .600647 .56599429 .58465579L.39698792 .30981446 .21099854 .6106415C.20498657 .620636 .20298767 .6236267 .20298767 .6296234 .20298767 .6506195 .22898865 .6536102 .2649994 .6536102V.6826172C.24198914 .680603 .16099549 .680603 .1329956 .680603 .10499573 .680603 .033996583 .680603 .009994507 .6826172V.6536102C.08099365 .6536102 .09399414 .6506195 .115997318 .6146393L.32699586 .2728424V.07595825C.32699586 .038986207 .32398988 .0289917 .2519989 .0289917H.23199463V0C.25498963 .0019989014 .33699037 .0019989014 .3659973 .0019989014 .394989 .0019989014 .47698976 .0019989014 .5009918 0V.0289917H.48098756C.4079895 .0289917 .4059906 .038986207 .4059906 .07395935V.2738495L.6009979 .58865359C.6339874 .6416168 .6799927 .6536102 .72299197 .6536102Z"/>
<path id="font_4_50" d="M.40699769 .11932373C.40699769 .1253357 .4019928 .1293335 .3959961 .1293335 .3880005 .1293335 .38598634 .12432861 .38398744 .11932373 .35798646 .035247804 .29100038 .01222229 .24899292 .01222229 .20698548 .01222229 .10598755 .040252687 .10598755 .21340943V.23242188H.3829956C.40499879 .23242188 .40699769 .23242188 .40699769 .25141908 .40699769 .3523407 .35299684 .44628907 .23199463 .44628907 .117996219 .44628907 .02999878 .34335328 .02999878 .21940613 .02999878 .08729553 .13198853-.009765625 .24299622-.009765625 .3619995-.009765625 .40699769 .09829712 .40699769 .11932373M.34498597 .25141908H.10699463C.114990238 .40830995 .20298767 .42630006 .23098755 .42630006 .33799745 .42630006 .34399415 .28538514 .34498597 .25141908Z"/>
<path id="font_4_28" d="M.47399903 .08912659V.14515686H.45199586V.08912659C.45199586 .03211975 .42799378 .024108887 .4139862 .024108887 .37599183 .024108887 .37599183 .07713318 .37599183 .09213257V.26719667C.37599183 .3211975 .37599183 .36120606 .33198548 .40023805 .29699708 .43226625 .2519989 .44628907 .20799256 .44628907 .12599182 .44628907 .06298828 .39222718 .06298828 .32720948 .06298828 .2982025 .08198547 .2842102 .10499573 .2842102 .1289978 .2842102 .1459961 .3012085 .1459961 .32521058 .1459961 .36621095 .10998535 .36621095 .09498596 .36621095 .117996219 .4082489 .1659851 .42625428 .20599365 .42625428 .2519989 .42625428 .31098939 .38822938 .31098939 .2982025V.25819398C.10998535 .255188 .033996583 .17115784 .033996583 .09413147 .033996583 .0152282719 .12599182-.009765625 .18699646-.009765625 .25299073-.009765625 .2979889 .030227662 .31698609 .07823181 .32099916 .03111267 .35198976-.0048828127 .394989-.0048828127 .41600038-.0048828127 .47399903 .009109497 .47399903 .089141849V.08912659M.31098939 .14117432C.31098939 .043121339 .23799134 .010116577 .19499207 .010116577 .1459961 .010116577 .10499573 .04612732 .10499573 .09414673 .10499573 .22621155 .2749939 .23822022 .31098939 .24023438V.14117432Z"/>
<path id="font_4_96" d="M.35299684 .38339234C.35299684 .4133911 .32598878 .44140626 .2829895 .44140626 .19799805 .44140626 .16899109 .34939576 .16299439 .33039857H.1619873V.44140626L.027999878 .4303589V.4013672C.09599304 .4013672 .10398865 .39434815 .10398865 .3453064V.074035648C.10398865 .0289917 .09298706 .0289917 .027999878 .0289917V0C.055999757 .0019989014 .11099243 .0019989014 .14099121 .0019989014 .16799927 .0019989014 .23899842 .0019989014 .2619934 0V.0289917H.24198914C.16899109 .02973938 .16699219 .040740968 .16699219 .07673645V.23374939C.16699219 .3307495 .20698548 .42173768 .28399659 .42173768 .2919922 .42173768 .2939911 .42173768 .2979889 .42074586 .2899933 .41674806 .27398683 .41073609 .27398683 .3837433 .27398683 .35473634 .29699708 .34375 .31298829 .34375 .33299256 .34375 .35299684 .35673524 .35299684 .3837433V.38339234Z"/>
<path id="font_4_97" d="M.4889984 .18367005C.4889984 .24472046 .46598817 .28974916 .43899537 .32278443 .4019928 .36782838 .35699464 .37882997 .31799317 .38883973L.20799256 .41687013C.15699768 .42988587 .11199951 .47991944 .11199951 .54397585 .11199951 .6140442 .16799927 .6770935 .24598694 .6770935 .4099884 .6770935 .43199159 .5149536 .43798829 .47192384 .43998719 .4598999 .43998719 .4559021 .44999696 .4559021 .46099855 .4559021 .46099855 .46090699 .46099855 .4789276V.6810913C.46099855 .6990967 .46099855 .70410159 .45098878 .70410159 .44799806 .70410159 .44400025 .70410159 .43699647 .6911011L.4039917 .63005068C.35598756 .6920929 .2899933 .70410159 .24598694 .70410159 .1349945 .70410159 .053985597 .615036 .053985597 .5129547 .053985597 .4649048 .070999149 .42086793 .10798645 .38084413 .14299011 .34179688 .17799378 .3327942 .24899292 .31477357 .28399659 .30677796 .33898927 .29275514 .35299684 .28675843 .3999939 .2637329 .43099977 .20968628 .43099977 .15364075 .43099977 .078567508 .37799073 .007507324 .29499818 .007507324 .25 .007507324 .18798828 .01852417 .13899231 .061553956 .08099365 .113601688 .07699585 .18566895 .07598877 .21868897 .07499695 .22669983 .06498718 .22669983 .06498718 .22669983 .053985597 .22669983 .053985597 .22169495 .053985597 .20367432V.0015106201C.053985597-.016494751 .053985597-.021484375 .06399536-.021484375 .069992069-.021484375 .070999149-.019485474 .07798767-.0074920656L.11099243 .05255127C.14698792 .012512207 .20999146-.021484375 .29599-.021484375 .4079895-.021484375 .4889984 .07356262 .4889984 .18367005Z"/>
<path id="font_4_66" d="M.24099732 0V.0289917C.17599488 .0289917 .17199707 .033996583 .17199707 .07304382V.44140626L.035995485 .4303589V.4013672C.099990848 .4013672 .10899353 .39535523 .10899353 .34629823V.074035648C.10899353 .0289917 .09799194 .0289917 .032989503 .0289917V0C.06098938 .0019989014 .10899353 .0019989014 .13798523 .0019989014 .14898682 .0019989014 .20698548 .0019989014 .24099732 0M.18499756 .6043091C.18499756 .63430789 .16099549 .6533203 .13699341 .6533203 .10899353 .6533203 .08799744 .63131716 .08799744 .6043091 .08799744 .5783081 .10998535 .55630496 .13598633 .55630496 .1659851 .55630496 .18499756 .580307 .18499756 .6043091Z"/>
<path id="font_4_77" d="M.5209961 0V.0289917C.47099305 .0289917 .44599916 .0289917 .44499208 .059051515V.24342346C.44499208 .3365631 .44499208 .36450196 .42199708 .39640809 .3929901 .4353943 .34599305 .44140626 .31199647 .44140626 .21499634 .44140626 .1769867 .35850526 .16899109 .338562H.16799927V.44140626L.03199768 .4303589V.4013672C.099990848 .4013672 .10798645 .39437867 .10798645 .34553529V.07408142C.10798645 .0289917 .09700012 .0289917 .03199768 .0289917V0C.057998659 .0019989014 .11199951 .0019989014 .13999939 .0019989014 .16899109 .0019989014 .22299195 .0019989014 .24899292 0V.0289917C.18499756 .0289917 .17298889 .0289917 .17298889 .07408142V.26046754C.17298889 .36547853 .24198914 .4213562 .3039856 .4213562 .3659973 .4213562 .37998963 .37045289 .37998963 .3095703V.07408142C.37998963 .0289917 .36898805 .0289917 .3039856 .0289917V0C.32998658 .0019989014 .38398744 .0019989014 .4119873 .0019989014 .44099427 .0019989014 .49499513 .0019989014 .5209961 0Z"/>
<path id="font_4_43" d="M.4059906 .1191864C.4059906 .12817383 .39898683 .12817383 .3959961 .12817383 .3869934 .12817383 .38598634 .1251831 .3829956 .1131897 .36099244 .04222107 .30699159 .01222229 .25299073 .01222229 .19198609 .01222229 .11099243 .065200809 .11099243 .21713257 .11099243 .3831482 .19599915 .4242859 .24598694 .4242859 .28399659 .4242859 .33898927 .40924073 .3619995 .3701172 .34999085 .3701172 .31298829 .3701172 .31298829 .32911683 .31298829 .30511476 .32998658 .28811646 .35398866 .28811646 .3769989 .28811646 .3959961 .30210877 .3959961 .33111573 .3959961 .39819337 .32598878 .44628907 .24499512 .44628907 .12799073 .44628907 .034988405 .34210206 .034988405 .21614075 .034988405 .0881958 .1309967-.009765625 .24398804-.009765625 .37599183-.009765625 .4059906 .110183719 .4059906 .1191864Z"/>
<path id="font_4_82" d="M.4099884 0V.0289917H.3789978C.29100038 .0289917 .28799439 .041000368 .28799439 .07701111V.6411133C.28799439 .664032 .28799439 .66503909 .2679901 .66503909 .24398804 .63812258 .19400025 .6012573 .09098816 .6012573V.5722656C.11399841 .5722656 .1639862 .5722656 .21899414 .59825137V.07701111C.21899414 .041000368 .21598816 .0289917 .12799073 .0289917H.09700012V0C.12399292 .0019989014 .22099304 .0019989014 .2539978 .0019989014 .2869873 .0019989014 .3829956 .0019989014 .4099884 0Z"/>
<path id="font_4_78" d="M.44799806 .32858277C.44799806 .5979767 .33599855 .66503909 .24798584 .66503909 .13798523 .66503909 .040985109 .572937 .040985109 .44075013 .040985109 .30859376 .13398743 .21875 .23399353 .21875 .30799867 .21875 .34599305 .2726593 .3659973 .32359315V.2906189C.3659973 .05493164 .26098634 .005508423 .20098877 .005508423 .1769867 .005508423 .12399292 .008544922 .09899902 .043945314H.10499573C.11199951 .041915895 .147995 .047943117 .147995 .08493042 .147995 .106933597 .1329956 .12593079 .10699463 .12593079 .08099365 .12593079 .06498718 .108932498 .06498718 .08293152 .06498718 .02067566 .114990238-.021484375 .20199585-.021484375 .32699586-.021484375 .44799806 .11193848 .44799806 .32858277M.3639984 .41871644C.3639984 .33459474 .32598878 .23873902 .23799134 .23873902 .1749878 .23873902 .147995 .28962709 .13899231 .30859376 .12298584 .34661866 .12298584 .39468385 .12298584 .43974305 .12298584 .4958191 .12298584 .54389956 .14898682 .5849457 .16699219 .61198428 .19400025 .641037 .24798584 .641037 .30499269 .641037 .33399964 .59095767 .34399415 .5679321 .3639984 .51885989 .3639984 .43373109 .3639984 .41871644Z"/>
<path id="font_4_51" d="M.44799806 .1659851C.44799806 .2679901 .37599183 .31298829 .2979889 .36099244 .34799195 .38798524 .42099 .43400575 .42099 .5180054 .42099 .60502627 .33699037 .66503909 .24499512 .66503909 .1459961 .66503909 .067993167 .59202578 .067993167 .5010071 .067993167 .4670105 .07798767 .43299867 .10598755 .39898683 .116989139 .38598634 .117996219 .3849945 .18798828 .33599855 .09098816 .2908783 .040985109 .22380066 .040985109 .1506958 .040985109 .044555665 .14199829-.021484375 .24398804-.021484375 .35499574-.021484375 .44799806 .060577394 .44799806 .16572571V.1659851M.37998963 .5169983C.37998963 .45599366 .33599855 .40699769 .27799989 .375L.1619873 .45098878C.14898682 .45988465 .10899353 .48590089 .10899353 .5349426 .10899353 .59999087 .1769867 .641037 .24398804 .641037 .31599427 .641037 .37998963 .58898928 .37998963 .516922V.5169983M.4019928 .13360596C.4019928 .057556154 .32499696 .005508423 .24499512 .005508423 .1599884 .005996704 .08699036 .067993167 .08699036 .15098572 .08699036 .22898865 .14399719 .2919922 .20899964 .32199098L.32998658 .24299622C.35598756 .22599793 .4019928 .19499207 .4019928 .13398743V.13360596Z"/>
<path id="font_4_121" d="M.44799806 .31976319C.44799806 .40283204 .44299317 .48388673 .40699769 .5599518 .3659973 .64302065 .2939911 .66503909 .24499512 .66503909 .18699646 .66503909 .115997318 .6360016 .07899475 .552948 .050994874 .48989869 .040985109 .42785646 .040985109 .31976319 .040985109 .22268677 .04798889 .14964295 .083999637 .07858276 .12298584 .002532959 .19198609-.021484375 .24398804-.021484375 .33099366-.021484375 .3809967 .030548096 .4099884 .08859253 .44599916 .16365052 .44799806 .26171876 .44799806 .31976319M.37199403 .33177186C.37199403 .26472474 .37199403 .18867493 .36099244 .12762451 .34199525 .017532349 .2789917-.0014801025 .24398804-.0014801025 .21199036-.0014801025 .14698792 .016540528 .12799073 .12562561 .116989139 .18566895 .116989139 .26171876 .116989139 .33177186 .116989139 .41383363 .116989139 .48789979 .1329956 .54693606 .1499939 .6139984 .20098877 .64501956 .24398804 .64501956 .28199769 .64501956 .33999635 .621994 .35899354 .53593447 .37199403 .47888185 .37199403 .39982606 .37199403 .33177186Z"/>
<path id="font_4_72" d="M.24798584 0V.0289917C.18399048 .0289917 .17199707 .0289917 .17199707 .074020389V.69433596L.032989503 .6826172V.6536102C.100997928 .6536102 .10899353 .6466217 .10899353 .597641V.07395935C.10899353 .0289917 .09799194 .0289917 .032989503 .0289917V0C.06098938 .0019989014 .10998535 .0019989014 .13999939 .0019989014 .16999817 .0019989014 .21998596 .0019989014 .24798584 0Z"/>
<path id="font_4_81" d="M.45899964 .21424866C.45899964 .34326173 .36099244 .44628907 .24499512 .44628907 .125 .44628907 .02999878 .340271 .02999878 .21424866 .02999878 .086242679 .12998963-.009765625 .24398804-.009765625 .3619995-.009765625 .45899964 .08824158 .45899964 .21424866M.3829956 .22325135C.3829956 .18824768 .3829956 .12623596 .35699464 .07923889 .32899476 .031234742 .2829895 .01222229 .24499512 .01222229 .20799256 .01222229 .16299439 .02822876 .13398743 .07723999 .10699463 .12223816 .10598755 .1812439 .10598755 .22325135 .10598755 .261261 .10598755 .32226563 .13699341 .3672638 .16499329 .41027833 .20899964 .42626954 .24398804 .42626954 .2829895 .42626954 .32499696 .40827943 .35198976 .3692627 .3829956 .32325746 .3829956 .2602539 .3829956 .22325135Z"/>
<path id="font_4_59" d="M.47499085 .4064026C.47499085 .4243927 .46099855 .45239259 .42599488 .45239259 .37399293 .45239259 .33499146 .4203949 .32099916 .4053955 .29100038 .42840577 .2559967 .44140626 .21798706 .44140626 .12799073 .44140626 .06098938 .37339784 .06098938 .29640199 .06098938 .23939514 .09599304 .20239258 .10598755 .19340515 .09399414 .1783905 .07598877 .14936829 .07598877 .11010742 .07598877 .05178833 .11099243 .026779175 .11898804 .021774292 .07299805 .0087890629 .026992798-.027191163 .026992798-.0791626 .026992798-.14811707 .12098694-.20507813 .24398804-.20507813 .36299134-.20507813 .46199037-.15211487 .46199037-.0771637 .46199037-.0521698 .45498658 .006790161 .394989 .03778076 .34399415 .06378174 .2939911 .06378174 .20799256 .06378174 .14698792 .06378174 .13999939 .06378174 .12199402 .08291626 .11199951 .09298706 .102996829 .11212158 .102996829 .13327027 .102996829 .15039063 .10899353 .16738892 .11898804 .18138123 .1659851 .15039063 .20599365 .15039063 .21699524 .15039063 .30699159 .15039063 .37399293 .21838379 .37399293 .29537965 .37399293 .3223877 .3659973 .36038209 .33399964 .39237977 .37298585 .4323883 .41999818 .4323883 .4249878 .4323883 .42900086 .4323883 .43399049 .4323883 .43798829 .4303894 .42799378 .4263916 .4229889 .4163971 .4229889 .4053955 .4229889 .3914032 .43299867 .37939454 .44898988 .37939454 .45700074 .37939454 .47499085 .3843994 .47499085 .4064026M.30499269 .29638673C.30499269 .2783966 .30499269 .23738098 .28799439 .21038819 .2689972 .18138123 .23899842 .17138672 .21798706 .17138672 .12998963 .17138672 .12998963 .27238465 .12998963 .2953949 .12998963 .313385 .12998963 .35440064 .14698792 .38139344 .1659851 .4104004 .19599915 .4203949 .21699524 .4203949 .30499269 .41978456 .30499269 .31878663 .30499269 .29577638V.29638673M.41299439-.07815552C.41299439-.13711548 .33699037-.18408203 .24499512-.18408203 .14898682-.18408203 .07598877-.13511658 .07598877-.07815552 .07598877-.07015991 .07798767-.031188965 .115997318-.005203247 .13798523 .0087890629 .14698792 .0087890629 .21699524 .0087890629 .2999878 .0087890629 .41299439 .0087890629 .41299439-.07815552Z"/>
<path id="font_4_85" d="M.32499696-.24298096C.32499696-.23999024 .32499696-.23799134 .30799867-.22097779 .20799256-.11999512 .1519928 .045013429 .1519928 .24900818 .1519928 .44299317 .19898987 .60998538 .31498719 .72798159 .32499696 .73698428 .32499696 .73898318 .32499696 .74198916 .32499696 .74798586 .31999208 .75 .31599427 .75 .30299378 .75 .22099304 .6779938 .17199707 .5799866 .12098694 .47898866 .09799194 .37199403 .09799194 .24900818 .09799194 .16000366 .11199951 .041000368 .1639862-.06599426 .22299195-.18598938 .30499269-.25097657 .31599427-.25097657 .31999208-.25097657 .32499696-.24897766 .32499696-.24298096Z"/>
<path id="font_4_48" d="M.43499757 .19412232C.43499757 .23712158 .4229889 .28912355 .37998963 .33711244 .34298707 .3781128 .29899598 .38911439 .25898744 .39912416V.67510989C.33198548 .67111209 .3929901 .6351166 .4079895 .5651245 .39898683 .5671234 .39698792 .5671234 .3939972 .5671234 .375 .5671234 .35198976 .5541229 .35198976 .52511599 .35198976 .5001221 .36999513 .4841156 .3929901 .4841156 .41299439 .4841156 .43499757 .4941101 .43499757 .53012087 .43499757 .6171112 .37799073 .6981201 .25898744 .7041168V.7501221H.22999573V.703125C.125 .69511416 .053985597 .6091156 .053985597 .51512148 .053985597 .46011354 .07699585 .41311646 .11099243 .37911988 .14698792 .3441162 .17799378 .3361206 .22999573 .32312013V.019119263C.19099427 .022109986 .099990848 .038116456 .07998657 .14411927 .08299255 .14311219 .08999634 .14111328 .09599304 .14111328 .11299133 .14111328 .13699341 .15312195 .13699341 .18312073 .13699341 .2071228 .11999512 .2241211 .09599304 .2241211 .07598877 .2241211 .053985597 .21411133 .053985597 .17811585 .053985597 .08711243 .10798645-.001876831 .22999573-.009887695V-.055877687H.25898744V-.008880615C.3659973 .0011138916 .43499757 .09310913 .43499757 .19412232M.22999573 .40711976C.100997928 .43312074 .100997928 .52812197 .100997928 .54112246 .100997928 .60112 .14698792 .66511538 .22999573 .67411807V.40711976M.3880005 .16711426C.3880005 .09611511 .33799745 .02911377 .25898744 .020111084V.31510926C.3829956 .29011537 .3880005 .18711853 .3880005 .16711426Z"/>
<path id="font_4_86" d="M.28199769 .24900818C.28199769 .32499696 .27198792 .44898988 .21598816 .5649872 .15699768 .6849823 .07499695 .75 .06399536 .75 .05999756 .75 .054992677 .74798586 .054992677 .74198916 .054992677 .73898318 .054992677 .73698428 .07199097 .71998599 .17199707 .61898806 .22799683 .45399476 .22799683 .25 .22799683 .055999757 .18099976-.11099243 .06498718-.22898865 .054992677-.23799134 .054992677-.23999024 .054992677-.24298096 .054992677-.24897766 .05999756-.25097657 .06399536-.25097657 .07699585-.25097657 .15899658-.1789856 .20799256-.08099365 .25898744 .021011353 .28199769 .1289978 .28199769 .24900818Z"/>
</defs>
<path transform="matrix(1.00002,0,0,-1.00006,7.6482775,166.8413)" stroke-width=".3985" stroke-linecap="butt" stroke-miterlimit="10" stroke-linejoin="miter" fill="none" stroke="#bfbfbf" d="M50.36673 0V161.39636M86.34297 0V161.39636M122.31921 0V161.39636M158.29546 0V161.39636M194.2717 0V161.39636"/>
<path transform="matrix(1.00002,0,0,-1.00006,7.6482775,166.8413)" stroke-width=".3985" stroke-linecap="butt" stroke-miterlimit="10" stroke-linejoin="miter" fill="none" stroke="#bfbfbf" d="M0 0H194.2717M0 40.34909H194.2717M0 121.04727H194.2717M0 161.39636H194.2717"/>
<path transform="matrix(1.00002,0,0,-1.00006,7.6482775,166.8413)" stroke-width=".19925" stroke-linecap="butt" stroke-miterlimit="10" stroke-linejoin="miter" fill="none" stroke="#7f807f" d="M50.36673 78.57219V82.82414M86.34297 78.57219V82.82414M122.31921 78.57219V82.82414M158.29546 78.57219V82.82414M194.2717 78.57219V82.82414"/>
<path transform="matrix(1.00002,0,0,-1.00006,7.6482775,166.8413)" stroke-width=".19925" stroke-linecap="butt" stroke-miterlimit="10" stroke-linejoin="miter" fill="none" stroke="#7f807f" d="M12.26448 0H16.51648M12.26448 40.34909H16.51648M12.26448 121.04727H16.51648M12.26448 161.39636H16.51648"/>
<path transform="matrix(1.00002,0,0,-1.00006,7.6482775,166.8413)" stroke-width=".3985" stroke-linecap="butt" stroke-miterlimit="10" stroke-linejoin="miter" fill="none" stroke="#000000" d="M0 80.69818H192.27918"/>
<path transform="matrix(1.00002,0,0,-1.00006,199.9313,86.138278)" d="M1.99252 0-1.19551 1.59401 0 0-1.19551-1.59401"/>
<path transform="matrix(1.00002,0,0,-1.00006,7.6482775,166.8413)" stroke-width=".3985" stroke-linecap="butt" stroke-miterlimit="10" stroke-linejoin="miter" fill="none" stroke="#000000" d="M14.39049 0V159.40384"/>
<path transform="matrix(0,-1.00006,-1.00002,-0,22.039055,7.427902)" d="M1.99252 0-1.19551 1.59401 0 0-1.19551-1.59401"/>
<use data-text="5" xlink:href="#font_1_5" transform="matrix(11.95544,0,0,-11.955917,55.089227,100.1533)"/>
<use data-text="1" xlink:href="#font_1_2" transform="matrix(11.95544,0,0,-11.955917,88.139888,100.1533)"/>
<use data-text="0" xlink:href="#font_1_1" transform="matrix(11.95544,0,0,-11.955917,93.98609,100.1533)"/>
<use data-text="1" xlink:href="#font_1_2" transform="matrix(11.95544,0,0,-11.955917,124.116619,100.1533)"/>
<use data-text="5" xlink:href="#font_1_5" transform="matrix(11.95544,0,0,-11.955917,129.96283,100.1533)"/>
<use data-text="2" xlink:href="#font_1_3" transform="matrix(11.95544,0,0,-11.955917,160.09333,100.1533)"/>
<use data-text="0" xlink:href="#font_1_1" transform="matrix(11.95544,0,0,-11.955917,165.93955,100.1533)"/>
<use data-text="2" xlink:href="#font_1_3" transform="matrix(11.95544,0,0,-11.955917,196.07105,100.1533)"/>
<use data-text="5" xlink:href="#font_1_5" transform="matrix(11.95544,0,0,-11.955917,201.91727,100.1533)"/>
<use data-text="&#x2212;" xlink:href="#font_2_1" transform="matrix(11.95544,0,0,-11.955917,.5771332,170.1955)"/>
<use data-text="4" xlink:href="#font_1_4" transform="matrix(11.95544,0,0,-11.955917,9.87532,170.1955)"/>
<use data-text="&#x2212;" xlink:href="#font_2_1" transform="matrix(11.95544,0,0,-11.955917,.5771332,129.84407)"/>
<use data-text="2" xlink:href="#font_1_3" transform="matrix(11.95544,0,0,-11.955917,9.87532,129.84407)"/>
<use data-text="2" xlink:href="#font_1_3" transform="matrix(11.95544,0,0,-11.955917,9.87532,49.639268)"/>
<use data-text="4" xlink:href="#font_1_4" transform="matrix(11.95544,0,0,-11.955917,9.87532,9.287842)"/>
<g clip-path="url(#clip_3)">
</g>
<use data-text="Y" xlink:href="#font_4_117" transform="matrix(11.95544,0,0,-11.955917,116.476459,81.689189)"/>
<use data-text="e" xlink:href="#font_4_50" transform="matrix(11.95544,0,0,-11.955917,124.27141,81.689189)"/>
<use data-text="a" xlink:href="#font_4_28" transform="matrix(11.95544,0,0,-11.955917,129.47202,81.689189)"/>
<use data-text="r" xlink:href="#font_4_96" transform="matrix(11.95544,0,0,-11.955917,135.3302,81.689189)"/>
<use data-text="S" xlink:href="#font_4_97" transform="matrix(11.95544,0,0,-11.955917,143.77072,81.689189)"/>
<use data-text="i" xlink:href="#font_4_66" transform="matrix(11.95544,0,0,-11.955917,150.27449,81.689189)"/>
<use data-text="n" xlink:href="#font_4_77" transform="matrix(11.95544,0,0,-11.955917,153.52637,81.689189)"/>
<use data-text="c" xlink:href="#font_4_43" transform="matrix(11.95544,0,0,-11.955917,160.03012,81.689189)"/>
<use data-text="e" xlink:href="#font_4_50" transform="matrix(11.95544,0,0,-11.955917,165.23075,81.689189)"/>
<use data-text="1" xlink:href="#font_4_82" transform="matrix(11.95544,0,0,-11.955917,174.32886,81.689189)"/>
<use data-text="9" xlink:href="#font_4_78" transform="matrix(11.95544,0,0,-11.955917,180.18701,81.689189)"/>
<use data-text="8" xlink:href="#font_4_51" transform="matrix(11.95544,0,0,-11.955917,186.04517,81.689189)"/>
<use data-text="0" xlink:href="#font_4_121" transform="matrix(11.95544,0,0,-11.955917,191.90335,81.689189)"/>
<use data-text="l" xlink:href="#font_4_72" transform="matrix(11.95544,0,0,-11.955917,26.225647,18.561402)"/>
<use data-text="o" xlink:href="#font_4_81" transform="matrix(11.95544,0,0,-11.955917,29.477532,18.561402)"/>
<use data-text="g" xlink:href="#font_4_59" transform="matrix(11.95544,0,0,-11.955917,35.335695,18.561402)"/>
<use data-text="(" xlink:href="#font_4_85" transform="matrix(11.95544,0,0,-11.955917,41.193857,18.561402)"/>
<use data-text="$" xlink:href="#font_4_48" transform="matrix(11.95544,0,0,-11.955917,45.74888,18.561402)"/>
<use data-text=")" xlink:href="#font_4_86" transform="matrix(11.95544,0,0,-11.955917,51.607049,18.561402)"/>
</svg>
