<svg xmlns="http://www.w3.org/2000/svg" xmlns:xlink="http://www.w3.org/1999/xlink" xmlns:inkscape="http://www.inkscape.org/namespaces/inkscape" version="1.1" width="391" height="246" viewBox="0 0 391 246">
<defs>
<path id="font_1_6" d="M.12799073 .5727997C.17098999 .5588074 .20599365 .5578003 .21699524 .5578003 .32998658 .5578003 .4019928 .6409912 .4019928 .6550598 .4019928 .6590576 .3999939 .6640625 .3939972 .6640625 .3919983 .6640625 .3899994 .6640625 .3809967 .66004946 .32499696 .6358795 .2769928 .6328125 .25099183 .6328125 .18499756 .6328125 .13798523 .6530609 .11898804 .6610565 .11199951 .6640625 .10998535 .6640625 .10899353 .6640625 .100997928 .6640625 .100997928 .65805056 .100997928 .64201357V.34495545C.100997928 .32695008 .100997928 .32095338 .11299133 .32095338 .117996219 .32095338 .11898804 .32196046 .1289978 .33395387 .15699768 .37493897 .20399475 .39894105 .2539978 .39894105 .30699159 .39894105 .33299256 .34994508 .34098817 .33294679 .35798646 .29396058 .35899354 .2449646 .35899354 .20697022 .35899354 .16897583 .35899354 .11193848 .33099366 .0667572 .30899049 .03060913 .269989 .005508423 .22599793 .005508423 .1599884 .005508423 .09498596 .050689699 .07699585 .12397766 .08198547 .12197876 .08799744 .12097168 .09298706 .12097168 .10998535 .12097168 .13699341 .13098145 .13699341 .16497803 .13699341 .1929779 .117996219 .20898438 .09298706 .20898438 .07499695 .20898438 .04899597 .19998169 .04899597 .16098023 .04899597 .075790408 .116989139-.021484375 .22799683-.021484375 .34098817-.021484375 .43998719 .073791507 .43998719 .20097351 .43998719 .3199463 .3600006 .4189453 .25498963 .4189453 .19799805 .4189453 .1539917 .39393617 .12799073 .36595155V.5727997Z"/>
<path id="font_1_2" d="M.28799439 .64105227C.28799439 .664032 .28799439 .66503909 .2679901 .66503909 .24398804 .6380615 .19400025 .6012573 .09098816 .6012573V.5722656C.11399841 .5722656 .1639862 .5722656 .21899414 .59825137V.07701111C.21899414 .041000368 .21598816 .0289917 .12799073 .0289917H.09700012V0C.12399292 .0019989014 .22099304 .0019989014 .2539978 .0019989014 .2869873 .0019989014 .3829956 .0019989014 .4099884 0V.0289917H.3789978C.29100038 .0289917 .28799439 .041000368 .28799439 .07701111V.64105227Z"/>
<path id="font_1_1" d="M.44799806 .31976319C.44799806 .40283204 .44299317 .48390199 .40699769 .55996707 .3659973 .64302065 .2939911 .66503909 .24499512 .66503909 .18699646 .66503909 .115997318 .63601687 .07899475 .552948 .050994874 .48989869 .040985109 .42785646 .040985109 .31976319 .040985109 .22268677 .04798889 .14962769 .083999637 .078567508 .12298584 .0025177003 .19198609-.021484375 .24398804-.021484375 .33099366-.021484375 .3809967 .030532837 .4099884 .08857727 .44599916 .16363526 .44799806 .26171876 .44799806 .31976319M.24398804-.0014953613C.21199036-.0014953613 .14698792 .016525269 .12799073 .12561035 .116989139 .18565369 .116989139 .26171876 .116989139 .33177186 .116989139 .41384889 .116989139 .48789979 .1329956 .5469513 .1499939 .6139984 .20098877 .6450348 .24398804 .6450348 .28199769 .6450348 .33999635 .6220093 .35899354 .53593447 .37199403 .4788971 .37199403 .39982606 .37199403 .33177186 .37199403 .26472474 .37199403 .18865967 .36099244 .12760926 .34199525 .01751709 .2789917-.0014953613 .24398804-.0014953613Z"/>
<path id="font_1_3" d="M.43998719 .16790772H.41799928C.4149933 .15092469 .40699769 .09597778 .39698792 .07998657 .3899994 .070999149 .33299256 .070999149 .30299378 .070999149H.117996219C.14498902 .09397888 .20599365 .15792847 .23199463 .18190003 .38398744 .3217926 .43998719 .37374879 .43998719 .47270204 .43998719 .5878906 .34899903 .66503909 .23298645 .66503909 .116989139 .66503909 .04899597 .5658264 .04899597 .4797058 .04899597 .42871095 .09298706 .42871095 .09599304 .42871095 .116989139 .42871095 .14299011 .44371034 .14299011 .475708 .14299011 .5037079 .12399292 .5227051 .09599304 .5227051 .08699036 .5227051 .084991458 .5227051 .08198547 .521698 .100997928 .5899048 .15499878 .6360321 .21998596 .6360321 .30499269 .6360321 .35699464 .56481936 .35699464 .47270204 .35699464 .3877411 .30799867 .313797 .25099183 .24984741L.04899597 .023986817V0H.4139862L.43998719 .16790772Z"/>
<path id="font_1_4" d="M.18399048 .35888673C.16699219 .35787965 .16299439 .35688783 .16299439 .34788514 .16299439 .33789063 .16799927 .33789063 .18598938 .33789063H.23199463C.31698609 .33789063 .35499574 .267807 .35499574 .17172241 .35499574 .04058838 .2869873 .005508423 .23799134 .005508423 .18998719 .005508423 .10798645 .028564454 .07899475 .09472656 .11099243 .08970642 .13999939 .10771179 .13999939 .14372254 .13999939 .17271424 .11898804 .1927185 .09098816 .1927185 .066986087 .1927185 .040985109 .1787262 .040985109 .14071656 .040985109 .051620485 .12998963-.021484375 .24099732-.021484375 .3600006-.021484375 .44799806 .06965637 .44799806 .17071533 .44799806 .26280213 .37399293 .33488465 .27799989 .35188294 .36499024 .3769226 .42099 .45011903 .42099 .5282135 .42099 .6071167 .33898927 .66503909 .24198914 .66503909 .14199829 .66503909 .067993167 .604126 .067993167 .5312042 .067993167 .49121095 .09899902 .48321534 .11399841 .48321534 .1349945 .48321534 .15899658 .49821473 .15899658 .5282135 .15899658 .5602112 .1349945 .57421877 .11299133 .57421877 .10699463 .57421877 .10499573 .57421877 .101989749 .57321169 .13999939 .641037 .23399353 .641037 .23899842 .641037 .27198792 .641037 .33699037 .6260681 .33699037 .5282135 .33699037 .5092163 .33399964 .453125 .30499269 .41001893 .2749939 .3658905 .24099732 .36288453 .21398926 .36187745L.18399048 .35888673Z"/>
<path id="font_1_5" d="M.36099244 .6508026C.36099244 .6697998 .36099244 .6748047 .34700013 .6748047 .33898927 .6748047 .33599855 .6748047 .32798768 .662796L.026992798 .19598389V.16699219H.2899933V.07598877C.2899933 .038986207 .28799439 .0289917 .21499634 .0289917H.19499207V0C.21798706 .0019989014 .29699708 .0019989014 .32499696 .0019989014 .35299684 .0019989014 .43299867 .0019989014 .45599366 0V.0289917H.43598939C.3639984 .0289917 .36099244 .038986207 .36099244 .07598877V.16699219H.46199037V.19598389H.36099244V.6508026M.29499818 .5728302V.19598389H.051986696L.29499818 .5728302Z"/>
<path id="font_2_1" d="M.6589966 .23046875C.6759949 .23046875 .69400027 .23046875 .69400027 .25045777 .69400027 .27046205 .6759949 .27046205 .6589966 .27046205H.117996219C.100997928 .27046205 .08299255 .27046205 .08299255 .25045777 .08299255 .23046875 .100997928 .23046875 .117996219 .23046875H.6589966Z"/>
<clipPath id="clip_3">
<path transform="matrix(1.00003,0,0,-1.00003,2.0807458,244.97087)" d="M0 0H387.16703V243.1681H0Z"/>
</clipPath>
</defs>
<path transform="matrix(1.00003,0,0,-1.00003,2.0807458,244.97087)" stroke-width=".3985" stroke-linecap="butt" stroke-miterlimit="10" stroke-linejoin="miter" fill="none" stroke="#bfbfbf" d="M68.82968 0V243.1681M111.84825 0V243.1681M154.8668 0V243.1681M197.88536 0V243.1681M240.90392 0V243.1681M283.9225 0V243.1681M326.94105 0V243.1681M369.9596 0V243.1681"/>
<path transform="matrix(1.00003,0,0,-1.00003,2.0807458,244.97087)" stroke-width=".3985" stroke-linecap="butt" stroke-miterlimit="10" stroke-linejoin="miter" fill="none" stroke="#bfbfbf" d="M0 25.15532H387.16703M0 67.08086H387.16703M0 150.93192H387.16703M0 192.85746H387.16703M0 234.78299H387.16703"/>
<path transform="matrix(1.00003,0,0,-1.00003,2.0807458,244.97087)" stroke-width=".19925" stroke-linecap="butt" stroke-miterlimit="10" stroke-linejoin="miter" fill="none" stroke="#7f807f" d="M68.82968 106.88048V111.13228M111.84825 106.88048V111.13228M154.8668 106.88048V111.13228M197.88536 106.88048V111.13228M240.90392 106.88048V111.13228M283.9225 106.88048V111.13228M326.94105 106.88048V111.13228M369.9596 106.88048V111.13228"/>
<path transform="matrix(1.00003,0,0,-1.00003,2.0807458,244.97087)" stroke-width=".19925" stroke-linecap="butt" stroke-miterlimit="10" stroke-linejoin="miter" fill="none" stroke="#7f807f" d="M23.68527 25.15532H27.93697M23.68527 67.08086H27.93697M23.68527 150.93192H27.93697M23.68527 192.85746H27.93697M23.68527 234.78299H27.93697"/>
<path transform="matrix(1.00003,0,0,-1.00003,2.0807458,244.97087)" stroke-width=".3985" stroke-linecap="butt" stroke-miterlimit="10" stroke-linejoin="miter" fill="none" stroke="#000000" d="M0 109.0064H385.1745"/>
<path transform="matrix(1.00003,0,0,-1.00003,387.2668,135.9612)" d="M1.99252 0-1.19551 1.59401 0 0-1.19551-1.59401"/>
<path transform="matrix(1.00003,0,0,-1.00003,2.0807458,244.97087)" stroke-width=".3985" stroke-linecap="butt" stroke-miterlimit="10" stroke-linejoin="miter" fill="none" stroke="#000000" d="M25.81113 0V241.17559"/>
<path transform="matrix(0,-1.00003,-1.00003,-0,27.892653,3.7880402)" d="M1.99252 0-1.19551 1.59401 0 0-1.19551-1.59401"/>
<use data-text="5" xlink:href="#font_1_6" transform="matrix(11.95556,0,0,-11.95556,67.98572,149.97602)"/>
<use data-text="1" xlink:href="#font_1_2" transform="matrix(11.95556,0,0,-11.95556,108.07893,149.97602)"/>
<use data-text="0" xlink:href="#font_1_1" transform="matrix(11.95556,0,0,-11.95556,113.92519,149.97602)"/>
<use data-text="1" xlink:href="#font_1_2" transform="matrix(11.95556,0,0,-11.95556,151.09923,149.97602)"/>
<use data-text="5" xlink:href="#font_1_6" transform="matrix(11.95556,0,0,-11.95556,156.9455,149.97602)"/>
<use data-text="2" xlink:href="#font_1_3" transform="matrix(11.95556,0,0,-11.95556,194.11852,149.97602)"/>
<use data-text="0" xlink:href="#font_1_1" transform="matrix(11.95556,0,0,-11.95556,199.96479,149.97602)"/>
<use data-text="2" xlink:href="#font_1_3" transform="matrix(11.95556,0,0,-11.95556,237.13881,149.97602)"/>
<use data-text="5" xlink:href="#font_1_6" transform="matrix(11.95556,0,0,-11.95556,242.98508,149.97602)"/>
<use data-text="3" xlink:href="#font_1_4" transform="matrix(11.95556,0,0,-11.95556,280.1581,149.97602)"/>
<use data-text="0" xlink:href="#font_1_1" transform="matrix(11.95556,0,0,-11.95556,286.00437,149.97602)"/>
<use data-text="3" xlink:href="#font_1_4" transform="matrix(11.95556,0,0,-11.95556,323.1784,149.97602)"/>
<use data-text="5" xlink:href="#font_1_6" transform="matrix(11.95556,0,0,-11.95556,329.02467,149.97602)"/>
<use data-text="4" xlink:href="#font_1_5" transform="matrix(11.95556,0,0,-11.95556,366.19868,149.97602)"/>
<use data-text="0" xlink:href="#font_1_1" transform="matrix(11.95556,0,0,-11.95556,372.04493,149.97602)"/>
<use data-text="&#x2212;" xlink:href="#font_2_1" transform="matrix(11.95556,0,0,-11.95556,.57770159,223.16922)"/>
<use data-text="1" xlink:href="#font_1_2" transform="matrix(11.95556,0,0,-11.95556,9.876984,223.16922)"/>
<use data-text="0" xlink:href="#font_1_1" transform="matrix(11.95556,0,0,-11.95556,15.723251,223.16922)"/>
<use data-text="&#x2212;" xlink:href="#font_2_1" transform="matrix(11.95556,0,0,-11.95556,6.4308779,181.24196)"/>
<use data-text="5" xlink:href="#font_1_6" transform="matrix(11.95556,0,0,-11.95556,15.73016,181.24196)"/>
<use data-text="5" xlink:href="#font_1_6" transform="matrix(11.95556,0,0,-11.95556,15.7291569,97.886447)"/>
<use data-text="1" xlink:href="#font_1_2" transform="matrix(11.95556,0,0,-11.95556,9.87598,55.96019)"/>
<use data-text="0" xlink:href="#font_1_1" transform="matrix(11.95556,0,0,-11.95556,15.722244,55.96019)"/>
<use data-text="1" xlink:href="#font_1_2" transform="matrix(11.95556,0,0,-11.95556,9.87598,14.032928)"/>
<use data-text="5" xlink:href="#font_1_6" transform="matrix(11.95556,0,0,-11.95556,15.722244,14.032928)"/>
<path transform="matrix(1.00003,0,0,-1.00003,2.0807458,244.97087)" stroke-width=".3985" stroke-linecap="butt" stroke-miterlimit="10" stroke-linejoin="miter" fill="none" stroke="#bfbfbf" d="M8.6037 0V243.1681M17.20741 0V243.1681M34.41484 0V243.1681M43.01855 0V243.1681M51.62227 0V243.1681M60.22597 0V243.1681M77.4334 0V243.1681M86.03711 0V243.1681M94.64082 0V243.1681M103.24454 0V243.1681M120.45195 0V243.1681M129.05567 0V243.1681M137.65938 0V243.1681M146.26309 0V243.1681M154.8668 0V243.1681M163.47052 0V243.1681M172.07422 0V243.1681M180.67794 0V243.1681M189.28165 0V243.1681M206.48908 0V243.1681M215.09279 0V243.1681M223.6965 0V243.1681M232.3002 0V243.1681M240.90392 0V243.1681M249.50763 0V243.1681M258.11134 0V243.1681M266.71507 0V243.1681M275.31877 0V243.1681M292.52619 0V243.1681M301.1299 0V243.1681M309.7336 0V243.1681M318.33735 0V243.1681M326.94105 0V243.1681M335.54475 0V243.1681M344.14845 0V243.1681M352.75218 0V243.1681M361.35588 0V243.1681M378.56333 0V243.1681"/>
<path transform="matrix(1.00003,0,0,-1.00003,2.0807458,244.97087)" stroke-width=".19925" stroke-linecap="butt" stroke-miterlimit="10" stroke-linejoin="miter" fill="none" stroke="#7f807f" d="M8.6037 106.88048V111.13228M17.20741 106.88048V111.13228M34.41484 106.88048V111.13228M43.01855 106.88048V111.13228M51.62227 106.88048V111.13228M60.22597 106.88048V111.13228M77.4334 106.88048V111.13228M86.03711 106.88048V111.13228M94.64082 106.88048V111.13228M103.24454 106.88048V111.13228M120.45195 106.88048V111.13228M129.05567 106.88048V111.13228M137.65938 106.88048V111.13228M146.26309 106.88048V111.13228M154.8668 106.88048V111.13228M163.47052 106.88048V111.13228M172.07422 106.88048V111.13228M180.67794 106.88048V111.13228M189.28165 106.88048V111.13228M206.48908 106.88048V111.13228M215.09279 106.88048V111.13228M223.6965 106.88048V111.13228M232.3002 106.88048V111.13228M240.90392 106.88048V111.13228M249.50763 106.88048V111.13228M258.11134 106.88048V111.13228M266.71507 106.88048V111.13228M275.31877 106.88048V111.13228M292.52619 106.88048V111.13228M301.1299 106.88048V111.13228M309.7336 106.88048V111.13228M318.33735 106.88048V111.13228M326.94105 106.88048V111.13228M335.54475 106.88048V111.13228M344.14845 106.88048V111.13228M352.75218 106.88048V111.13228M361.35588 106.88048V111.13228M378.56333 106.88048V111.13228"/>
<path transform="matrix(1.00003,0,0,-1.00003,2.0807458,244.97087)" stroke-width=".3985" stroke-linecap="butt" stroke-miterlimit="10" stroke-linejoin="miter" fill="none" stroke="#bfbfbf" d="M0 8.3851H387.16703M0 16.7702H387.16703M0 33.54042H387.16703M0 41.92552H387.16703M0 50.31064H387.16703M0 58.69574H387.16703M0 75.46596H387.16703M0 83.85106H387.16703M0 92.23618H387.16703M0 100.62128H387.16703M0 117.3915H387.16703M0 125.7766H387.16703M0 134.16172H387.16703M0 142.54682H387.16703M0 159.31703H387.16703M0 167.70214H387.16703M0 176.08725H387.16703M0 184.47235H387.16703M0 201.24257H387.16703M0 209.62767H387.16703M0 218.01279H387.16703M0 226.39789H387.16703"/>
<path transform="matrix(1.00003,0,0,-1.00003,2.0807458,244.97087)" stroke-width=".19925" stroke-linecap="butt" stroke-miterlimit="10" stroke-linejoin="miter" fill="none" stroke="#7f807f" d="M23.68527 8.3851H27.93697M23.68527 16.7702H27.93697M23.68527 33.54042H27.93697M23.68527 41.92552H27.93697M23.68527 50.31064H27.93697M23.68527 58.69574H27.93697M23.68527 75.46596H27.93697M23.68527 83.85106H27.93697M23.68527 92.23618H27.93697M23.68527 100.62128H27.93697M23.68527 117.3915H27.93697M23.68527 125.7766H27.93697M23.68527 134.16172H27.93697M23.68527 142.54682H27.93697M23.68527 159.31703H27.93697M23.68527 167.70214H27.93697M23.68527 176.08725H27.93697M23.68527 184.47235H27.93697M23.68527 201.24257H27.93697M23.68527 209.62767H27.93697M23.68527 218.01279H27.93697M23.68527 226.39789H27.93697"/>
<g clip-path="url(#clip_3)">
<path transform="matrix(1.00003,0,0,-1.00003,2.0807458,244.97087)" stroke-width="1.19553" stroke-linecap="butt" stroke-miterlimit="10" stroke-linejoin="miter" fill="none" stroke="#000000" d="M25.81113 25.15532 40.86763 32.49228 55.92412 39.82925 70.98062 47.16621 86.03711 54.50319 101.0936 61.84015 116.1501 69.17712 131.20659 76.51408 146.26309 83.85106 161.31958 91.18802 176.37609 98.52501 191.43257 105.86197 206.48908 113.19894 221.54557 120.5359 236.60207 127.87288 251.65856 135.20984 266.71507 142.54682 281.77156 149.88378 296.82807 157.22075 311.88456 164.55771 326.94105 171.89469 341.99754 179.23166 357.05403 186.56864 372.11054 193.9056 387.16703 201.24257"/>
</g>
</svg>
